<svg xmlns="http://www.w3.org/2000/svg" xmlns:xlink="http://www.w3.org/1999/xlink" width="500" zoomAndPan="magnify" viewBox="0 0 375 374.999991" height="500" preserveAspectRatio="xMidYMid meet" version="1.0"><defs><clipPath id="44195f302b"><path d="M 154 271 L 221 271 L 221 337.5 L 154 337.5 Z M 154 271 " clip-rule="nonzero"/></clipPath><clipPath id="ab5a4ca08a"><path d="M 166 37.5 L 209 37.5 L 209 81 L 166 81 Z M 166 37.5 " clip-rule="nonzero"/></clipPath><clipPath id="a27d5c8563"><path d="M 73.125 254 L 301.875 254 L 301.875 308 L 73.125 308 Z M 73.125 254 " clip-rule="nonzero"/></clipPath></defs><path fill="#ffffff" d="M 94.671875 257.019531 C 155.726562 271.570312 219.351562 271.566406 280.410156 257.019531 L 280.480469 257.003906 C 274.203125 250.585938 263.28125 232.199219 257.085938 180.085938 C 249.335938 114.886719 232.257812 92.457031 204.390625 86.992188 L 204.390625 83.070312 C 204.390625 78.898438 201.011719 75.515625 196.835938 75.515625 L 178.238281 75.515625 C 174.066406 75.515625 170.683594 78.898438 170.683594 83.070312 L 170.683594 86.992188 C 142.816406 92.457031 125.742188 114.886719 117.992188 180.085938 C 111.792969 232.199219 100.878906 250.585938 94.597656 257.003906 L 94.671875 257.019531 " fill-opacity="1" fill-rule="nonzero"/><path fill="#c19f66" d="M 94.671875 257.019531 L 94.136719 259.257812 C 124.855469 266.578125 156.214844 270.230469 187.578125 270.234375 C 218.914062 270.230469 250.25 266.570312 280.9375 259.257812 L 280.410156 257.019531 L 280.859375 259.277344 L 280.9375 259.261719 C 281.761719 259.09375 282.429688 258.488281 282.679688 257.683594 C 282.929688 256.871094 282.714844 255.996094 282.125 255.394531 C 279.289062 252.5 275.128906 246.597656 270.917969 234.902344 C 266.707031 223.210938 262.453125 205.746094 259.371094 179.8125 C 257.421875 163.429688 254.886719 149.699219 251.71875 138.191406 C 246.96875 120.941406 240.796875 108.660156 232.964844 100.101562 C 229.050781 95.828125 224.726562 92.5 220.023438 89.996094 C 215.320312 87.484375 210.246094 85.796875 204.835938 84.734375 L 204.390625 86.992188 L 206.695312 86.992188 L 206.695312 83.070312 C 206.695312 80.355469 205.589844 77.875 203.808594 76.097656 C 202.03125 74.316406 199.550781 73.210938 196.835938 73.210938 L 178.238281 73.210938 C 175.523438 73.210938 173.046875 74.316406 171.269531 76.097656 C 169.488281 77.878906 168.382812 80.355469 168.382812 83.070312 L 168.382812 86.992188 L 170.683594 86.992188 L 170.238281 84.734375 C 163.027344 86.148438 156.410156 88.6875 150.476562 92.78125 C 146.027344 95.847656 141.972656 99.777344 138.332031 104.695312 C 132.867188 112.074219 128.316406 121.65625 124.574219 133.980469 C 120.832031 146.304688 117.894531 161.382812 115.703125 179.8125 C 112.625 205.746094 108.371094 223.210938 104.160156 234.902344 C 99.953125 246.597656 95.789062 252.5 92.949219 255.394531 C 92.359375 255.996094 92.148438 256.871094 92.394531 257.683594 C 92.644531 258.488281 93.3125 259.09375 94.140625 259.261719 L 94.214844 259.277344 L 94.671875 257.019531 L 94.136719 259.257812 L 94.671875 257.019531 L 95.125 254.761719 L 95.050781 254.746094 L 94.597656 257.003906 L 96.242188 258.613281 C 99.683594 255.09375 104.121094 248.589844 108.492188 236.460938 C 112.855469 224.328125 117.160156 206.542969 120.277344 180.359375 C 122.203125 164.140625 124.707031 150.621094 127.792969 139.414062 C 132.421875 122.59375 138.355469 111.019531 145.503906 103.214844 C 149.085938 99.304688 152.972656 96.324219 157.21875 94.058594 C 161.46875 91.792969 166.085938 90.242188 171.128906 89.253906 C 172.203125 89.042969 172.984375 88.09375 172.984375 86.992188 L 172.984375 83.070312 C 172.984375 81.613281 173.570312 80.3125 174.523438 79.351562 C 175.480469 78.398438 176.78125 77.816406 178.238281 77.816406 L 196.835938 77.816406 C 198.296875 77.816406 199.59375 78.398438 200.554688 79.351562 C 201.507812 80.3125 202.089844 81.613281 202.089844 83.070312 L 202.089844 86.992188 C 202.089844 88.09375 202.871094 89.042969 203.953125 89.253906 C 210.671875 90.570312 216.636719 92.886719 221.984375 96.570312 C 225.996094 99.335938 229.671875 102.886719 233.042969 107.4375 C 238.101562 114.261719 242.464844 123.351562 246.097656 135.316406 C 249.734375 147.28125 252.632812 162.113281 254.800781 180.359375 C 257.914062 206.542969 262.21875 224.328125 266.585938 236.460938 C 270.957031 248.589844 275.390625 255.09375 278.835938 258.613281 L 280.480469 257.003906 L 280.023438 254.746094 L 279.949219 254.761719 L 279.871094 254.78125 C 249.53125 262.007812 218.558594 265.628906 187.578125 265.628906 C 156.574219 265.628906 125.570312 262.015625 95.203125 254.78125 L 95.125 254.761719 L 94.671875 257.019531 " fill-opacity="1" fill-rule="nonzero"/><path fill="#ffffff" d="M 133.898438 186.230469 C 140.957031 128.753906 155.792969 108.945312 180.371094 104.128906 C 180.371094 104.128906 203.617188 96.144531 225.742188 110.21875 C 206.242188 89.703125 172.671875 97.667969 172.671875 97.667969 C 148.097656 102.492188 133.035156 122.273438 126.195312 179.773438 C 120.730469 225.746094 113.128906 242.730469 109.207031 248.808594 C 109.226562 248.808594 127.386719 239.238281 133.898438 186.230469 " fill-opacity="1" fill-rule="nonzero"/><path fill="#c19f66" d="M 133.898438 186.230469 L 136.179688 186.511719 C 137.933594 172.226562 140.171875 160.3125 142.898438 150.445312 C 146.988281 135.636719 152.183594 125.460938 158.429688 118.617188 C 161.550781 115.191406 164.9375 112.582031 168.644531 110.597656 C 172.351562 108.609375 176.390625 107.253906 180.8125 106.382812 C 180.90625 106.367188 181.027344 106.332031 181.121094 106.304688 L 180.839844 105.484375 L 181.117188 106.304688 L 181.121094 106.304688 L 180.839844 105.484375 L 181.117188 106.304688 C 181.15625 106.289062 187.445312 104.167969 196.40625 104.175781 C 204.445312 104.175781 214.589844 105.855469 224.507812 112.160156 C 225.488281 112.78125 226.785156 112.574219 227.523438 111.679688 C 228.257812 110.785156 228.214844 109.472656 227.414062 108.632812 C 221.609375 102.523438 214.628906 98.816406 207.683594 96.65625 C 200.734375 94.492188 193.804688 93.84375 187.9375 93.84375 C 178.824219 93.847656 172.257812 95.402344 172.140625 95.429688 L 172.671875 97.667969 L 172.226562 95.410156 C 165.839844 96.660156 159.964844 98.914062 154.695312 102.550781 C 150.746094 105.273438 147.148438 108.765625 143.921875 113.121094 C 139.078125 119.664062 135.054688 128.144531 131.746094 139.03125 C 128.4375 149.921875 125.847656 163.238281 123.910156 179.5 C 121.1875 202.398438 117.941406 218.023438 114.910156 228.617188 C 111.878906 239.214844 109.070312 244.777344 107.273438 247.558594 C 106.789062 248.308594 106.78125 249.269531 107.253906 250.03125 C 107.730469 250.789062 108.601562 251.199219 109.492188 251.089844 C 109.761719 251.050781 109.832031 251.019531 109.910156 251 C 110.039062 250.957031 110.074219 250.9375 110.109375 250.921875 L 110.210938 250.875 L 110.332031 250.816406 C 110.550781 250.695312 110.988281 250.433594 111.644531 249.941406 C 113.9375 248.230469 118.691406 243.789062 123.546875 234.074219 C 128.398438 224.355469 133.371094 209.378906 136.179688 186.511719 L 133.898438 186.230469 L 131.609375 185.953125 C 128.386719 212.210938 122.296875 227.535156 117.144531 236.214844 C 114.566406 240.554688 112.222656 243.238281 110.570312 244.816406 C 109.746094 245.601562 109.09375 246.117188 108.671875 246.417969 C 108.460938 246.570312 108.304688 246.667969 108.21875 246.722656 L 108.140625 246.765625 L 108.417969 247.265625 L 108.15625 246.761719 L 108.140625 246.765625 L 108.417969 247.265625 L 108.15625 246.761719 L 109.015625 248.40625 L 108.199219 246.734375 L 108.15625 246.761719 L 109.015625 248.40625 L 108.199219 246.734375 L 109.175781 248.730469 L 108.273438 246.699219 L 108.199219 246.734375 L 109.175781 248.730469 L 108.273438 246.699219 L 109.199219 248.785156 L 108.394531 246.652344 L 108.273438 246.699219 L 109.199219 248.785156 L 108.394531 246.652344 L 109.207031 248.804688 L 108.5625 246.59375 C 108.472656 246.621094 108.429688 246.636719 108.394531 246.652344 L 109.207031 248.804688 L 108.5625 246.59375 C 108.402344 246.644531 108.273438 246.695312 108.128906 246.773438 L 109.128906 248.660156 L 108.128906 246.773438 L 109.128906 248.660156 L 108.128906 246.773438 L 109.207031 248.808594 L 111.140625 250.054688 C 113.265625 246.761719 116.21875 240.789062 119.335938 229.882812 C 122.453125 218.972656 125.738281 203.121094 128.480469 180.046875 C 130.179688 165.753906 132.390625 153.839844 135.109375 143.972656 C 139.179688 129.164062 144.398438 118.996094 150.667969 112.160156 C 153.808594 108.734375 157.207031 106.125 160.925781 104.140625 C 164.648438 102.15625 168.691406 100.796875 173.113281 99.929688 L 173.203125 99.910156 L 173.113281 99.519531 L 173.203125 99.910156 L 173.113281 99.519531 L 173.203125 99.910156 C 173.28125 99.890625 179.484375 98.445312 187.9375 98.449219 C 193.46875 98.449219 199.953125 99.066406 206.3125 101.050781 C 212.679688 103.035156 218.90625 106.367188 224.078125 111.804688 L 225.742188 110.21875 L 226.980469 108.273438 C 216.15625 101.394531 205.074219 99.570312 196.40625 99.570312 C 186.570312 99.574219 179.785156 101.894531 179.625 101.949219 L 180.371094 104.128906 L 179.925781 101.867188 C 173.535156 103.117188 167.675781 105.375 162.421875 109.011719 C 158.484375 111.738281 154.902344 115.230469 151.6875 119.59375 C 146.867188 126.136719 142.851562 134.613281 139.539062 145.5 C 136.226562 156.386719 133.609375 169.695312 131.609375 185.953125 L 133.898438 186.230469 " fill-opacity="1" fill-rule="nonzero"/><path fill="#ffffff" d="M 218.261719 304.472656 C 218.261719 321.441406 204.507812 335.195312 187.539062 335.195312 C 170.570312 335.195312 156.8125 321.441406 156.8125 304.472656 C 156.8125 287.503906 170.570312 273.75 187.539062 273.75 C 204.507812 273.75 218.261719 287.503906 218.261719 304.472656 " fill-opacity="1" fill-rule="nonzero"/><g clip-path="url(#44195f302b)"><path fill="#c19f66" d="M 218.261719 304.472656 L 215.957031 304.472656 C 215.957031 312.324219 212.78125 319.417969 207.632812 324.570312 C 202.484375 329.714844 195.394531 332.890625 187.539062 332.890625 C 179.683594 332.890625 172.59375 329.714844 167.441406 324.570312 C 162.292969 319.417969 159.117188 312.324219 159.113281 304.472656 C 159.117188 296.617188 162.292969 289.527344 167.441406 284.375 C 172.59375 279.226562 179.683594 276.050781 187.539062 276.050781 C 195.394531 276.050781 202.484375 279.226562 207.632812 284.375 C 212.78125 289.527344 215.957031 296.617188 215.957031 304.472656 L 220.5625 304.472656 C 220.5625 295.359375 216.859375 287.089844 210.890625 281.121094 C 204.917969 275.144531 196.652344 271.445312 187.539062 271.445312 C 178.429688 271.445312 170.15625 275.144531 164.1875 281.121094 C 158.210938 287.089844 154.511719 295.359375 154.511719 304.472656 C 154.511719 313.585938 158.210938 321.855469 164.1875 327.824219 C 170.15625 333.796875 178.429688 337.5 187.539062 337.5 C 196.652344 337.5 204.917969 333.796875 210.890625 327.824219 C 216.859375 321.851562 220.5625 313.585938 220.5625 304.472656 L 218.261719 304.472656 " fill-opacity="1" fill-rule="nonzero"/></g><path fill="#ffffff" d="M 191.589844 326.808594 C 176.296875 326.808594 163.90625 314.421875 163.90625 299.128906 C 163.90625 293.894531 165.386719 289.015625 167.910156 284.839844 C 163.09375 289.820312 160.117188 296.589844 160.117188 304.066406 C 160.117188 319.355469 172.511719 331.75 187.804688 331.75 C 197.859375 331.75 206.628906 326.371094 211.480469 318.355469 C 206.441406 323.5625 199.402344 326.808594 191.589844 326.808594 " fill-opacity="1" fill-rule="nonzero"/><path fill="#c19f66" d="M 191.589844 326.808594 L 191.589844 324.507812 C 184.574219 324.507812 178.238281 321.671875 173.640625 317.074219 C 169.042969 312.476562 166.210938 306.144531 166.210938 299.128906 C 166.210938 294.332031 167.5625 289.867188 169.878906 286.027344 C 170.484375 285.023438 170.242188 283.730469 169.3125 283.011719 C 168.382812 282.296875 167.070312 282.394531 166.253906 283.238281 C 161.046875 288.625 157.816406 295.976562 157.816406 304.066406 C 157.816406 312.339844 161.175781 319.851562 166.597656 325.269531 C 172.015625 330.691406 179.527344 334.054688 187.804688 334.050781 C 193.242188 334.054688 198.351562 332.59375 202.742188 330.054688 C 207.136719 327.507812 210.820312 323.886719 213.445312 319.546875 C 214.054688 318.542969 213.8125 317.25 212.882812 316.535156 C 211.953125 315.816406 210.640625 315.910156 209.824219 316.753906 C 205.195312 321.535156 198.757812 324.507812 191.589844 324.507812 L 191.589844 329.113281 C 200.046875 329.113281 207.691406 325.585938 213.136719 319.957031 L 211.480469 318.355469 L 209.507812 317.164062 C 207.285156 320.84375 204.15625 323.914062 200.4375 326.066406 C 196.71875 328.21875 192.417969 329.449219 187.804688 329.449219 C 180.785156 329.449219 174.453125 326.613281 169.855469 322.015625 C 165.257812 317.414062 162.421875 311.082031 162.421875 304.066406 C 162.421875 297.207031 165.144531 291.015625 169.566406 286.4375 L 167.910156 284.839844 L 165.9375 283.648438 C 163.210938 288.160156 161.601562 293.457031 161.601562 299.128906 C 161.601562 307.402344 164.960938 314.910156 170.382812 320.332031 C 175.804688 325.753906 183.316406 329.113281 191.589844 329.113281 L 191.589844 326.808594 " fill-opacity="1" fill-rule="nonzero"/><path fill="#ffffff" d="M 187.539062 45.097656 C 179.976562 45.097656 173.820312 51.25 173.820312 58.8125 C 173.820312 66.371094 179.976562 72.527344 187.539062 72.527344 C 195.097656 72.527344 201.253906 66.371094 201.253906 58.8125 C 201.253906 51.25 195.097656 45.097656 187.539062 45.097656 Z M 187.539062 77.820312 C 177.058594 77.820312 168.53125 69.292969 168.53125 58.8125 C 168.53125 48.328125 177.058594 39.804688 187.539062 39.804688 C 198.019531 39.804688 206.542969 48.328125 206.542969 58.8125 C 206.542969 69.292969 198.019531 77.820312 187.539062 77.820312 " fill-opacity="1" fill-rule="nonzero"/><g clip-path="url(#ab5a4ca08a)"><path fill="#c19f66" d="M 187.539062 45.097656 L 187.539062 42.796875 C 183.128906 42.792969 179.109375 44.59375 176.214844 47.492188 C 173.316406 50.382812 171.515625 54.398438 171.515625 58.8125 C 171.515625 63.226562 173.316406 67.242188 176.214844 70.132812 C 179.109375 73.027344 183.128906 74.832031 187.539062 74.832031 C 191.953125 74.832031 195.96875 73.027344 198.859375 70.132812 C 201.753906 67.242188 203.554688 63.226562 203.554688 58.8125 C 203.554688 54.402344 201.753906 50.382812 198.859375 47.492188 C 195.96875 44.59375 191.953125 42.792969 187.539062 42.796875 L 187.539062 47.402344 C 190.691406 47.402344 193.527344 48.675781 195.605469 50.746094 C 197.675781 52.824219 198.953125 55.660156 198.953125 58.8125 C 198.953125 61.960938 197.675781 64.800781 195.605469 66.878906 C 193.527344 68.949219 190.691406 70.222656 187.539062 70.226562 C 184.390625 70.222656 181.546875 68.949219 179.472656 66.875 C 177.398438 64.800781 176.125 61.960938 176.121094 58.8125 C 176.125 55.664062 177.398438 52.824219 179.472656 50.746094 C 181.546875 48.675781 184.390625 47.402344 187.539062 47.402344 Z M 187.539062 77.820312 L 187.539062 75.515625 C 182.929688 75.515625 178.765625 73.648438 175.734375 70.617188 C 172.703125 67.582031 170.835938 63.421875 170.832031 58.8125 C 170.835938 54.199219 172.703125 50.039062 175.734375 47.003906 C 178.765625 43.976562 182.929688 42.109375 187.539062 42.109375 C 192.148438 42.109375 196.3125 43.976562 199.34375 47.003906 C 202.375 50.039062 204.242188 54.199219 204.242188 58.8125 C 204.242188 63.421875 202.375 67.582031 199.34375 70.617188 C 196.3125 73.648438 192.148438 75.515625 187.539062 75.515625 L 187.539062 80.121094 C 193.410156 80.121094 198.75 77.726562 202.601562 73.871094 C 206.453125 70.023438 208.847656 64.683594 208.847656 58.8125 C 208.847656 52.9375 206.453125 47.601562 202.601562 43.75 C 198.75 39.898438 193.410156 37.503906 187.539062 37.503906 C 181.667969 37.503906 176.328125 39.894531 172.480469 43.75 C 168.625 47.601562 166.230469 52.9375 166.230469 58.8125 C 166.230469 64.683594 168.625 70.023438 172.480469 73.871094 C 176.328125 77.726562 181.667969 80.121094 187.539062 80.121094 L 187.539062 77.820312 " fill-opacity="1" fill-rule="nonzero"/></g><path fill="#ffffff" d="M 152.378906 137.886719 C 152.472656 143.546875 154.402344 148.132812 154.402344 148.132812 L 157.515625 150.113281 L 158.277344 146.503906 C 158.277344 146.503906 156.347656 141.914062 152.378906 137.886719 " fill-opacity="1" fill-rule="nonzero"/><path fill="#c19f66" d="M 152.378906 137.886719 L 150.074219 137.925781 C 150.128906 141.003906 150.675781 143.738281 151.203125 145.722656 C 151.734375 147.707031 152.25 148.949219 152.28125 149.023438 C 152.464844 149.457031 152.769531 149.820312 153.164062 150.074219 L 156.28125 152.058594 C 156.917969 152.460938 157.714844 152.527344 158.410156 152.238281 C 159.105469 151.941406 159.617188 151.324219 159.769531 150.589844 L 160.53125 146.976562 C 160.628906 146.519531 160.582031 146.046875 160.402344 145.609375 C 160.367188 145.535156 159.847656 144.296875 158.796875 142.53125 C 157.75 140.765625 156.175781 138.460938 154.015625 136.269531 C 153.355469 135.601562 152.351562 135.402344 151.488281 135.765625 C 150.621094 136.128906 150.058594 136.988281 150.074219 137.925781 L 152.378906 137.886719 L 150.738281 139.503906 C 152.546875 141.335938 153.929688 143.34375 154.839844 144.878906 C 155.289062 145.644531 155.628906 146.292969 155.851562 146.742188 C 155.957031 146.964844 156.039062 147.136719 156.089844 147.25 L 156.148438 147.371094 L 156.15625 147.398438 L 156.289062 147.339844 L 156.15625 147.398438 L 156.289062 147.339844 L 156.15625 147.398438 L 158.277344 146.503906 L 156.023438 146.03125 L 155.949219 146.386719 L 155.636719 146.1875 L 154.402344 148.132812 L 156.523438 147.238281 L 156.394531 147.292969 L 156.523438 147.242188 L 156.523438 147.238281 L 156.394531 147.292969 L 156.523438 147.242188 C 156.5 147.179688 156.050781 146.082031 155.609375 144.371094 C 155.160156 142.664062 154.722656 140.34375 154.679688 137.847656 L 152.378906 137.886719 L 150.738281 139.503906 L 152.378906 137.886719 " fill-opacity="1" fill-rule="nonzero"/><path fill="#ffffff" d="M 161.253906 159 C 161.15625 153.34375 159.226562 148.753906 159.226562 148.753906 L 156.113281 146.773438 L 155.351562 150.386719 C 155.351562 150.386719 157.277344 154.96875 161.253906 159 " fill-opacity="1" fill-rule="nonzero"/><path fill="#c19f66" d="M 161.253906 159 L 163.554688 158.960938 C 163.5 155.882812 162.957031 153.148438 162.425781 151.160156 C 161.898438 149.175781 161.378906 147.9375 161.347656 147.859375 C 161.167969 147.425781 160.859375 147.0625 160.464844 146.808594 L 157.347656 144.828125 C 156.710938 144.421875 155.917969 144.359375 155.222656 144.652344 C 154.527344 144.941406 154.015625 145.554688 153.859375 146.296875 L 153.097656 149.910156 C 153 150.371094 153.046875 150.84375 153.226562 151.277344 C 153.257812 151.351562 153.78125 152.585938 154.832031 154.355469 C 155.882812 156.125 157.453125 158.421875 159.617188 160.617188 C 160.273438 161.285156 161.28125 161.484375 162.144531 161.125 C 163.011719 160.757812 163.570312 159.898438 163.554688 158.960938 L 161.253906 159 L 162.890625 157.382812 C 161.078125 155.550781 159.699219 153.539062 158.792969 152.007812 C 158.335938 151.242188 157.996094 150.589844 157.777344 150.144531 C 157.667969 149.921875 157.585938 149.75 157.535156 149.636719 L 157.480469 149.515625 L 157.46875 149.492188 L 157.402344 149.523438 L 157.472656 149.492188 L 157.46875 149.492188 L 157.402344 149.523438 L 157.472656 149.492188 L 155.351562 150.386719 L 157.601562 150.863281 L 157.679688 150.496094 L 157.992188 150.695312 L 159.226562 148.753906 L 157.105469 149.644531 L 157.242188 149.585938 L 157.105469 149.644531 L 157.242188 149.585938 L 157.105469 149.644531 C 157.128906 149.707031 157.578125 150.800781 158.023438 152.511719 C 158.46875 154.222656 158.910156 156.539062 158.953125 159.039062 L 161.253906 159 L 162.890625 157.382812 L 161.253906 159 " fill-opacity="1" fill-rule="nonzero"/><path fill="#ffffff" d="M 167.371094 144.003906 C 161.714844 144.101562 157.128906 146.03125 157.128906 146.03125 L 155.144531 149.144531 L 158.753906 149.910156 C 158.753906 149.910156 163.34375 147.976562 167.371094 144.003906 " fill-opacity="1" fill-rule="nonzero"/><path fill="#c19f66" d="M 167.371094 144.003906 L 167.332031 141.703125 C 164.25 141.757812 161.523438 142.300781 159.535156 142.832031 C 157.550781 143.363281 156.308594 143.882812 156.234375 143.910156 C 155.800781 144.09375 155.441406 144.398438 155.1875 144.796875 L 153.203125 147.90625 C 152.796875 148.542969 152.726562 149.34375 153.019531 150.039062 C 153.3125 150.734375 153.929688 151.242188 154.667969 151.398438 L 158.28125 152.160156 C 158.738281 152.253906 159.214844 152.210938 159.648438 152.027344 C 159.722656 151.996094 160.960938 151.472656 162.726562 150.421875 C 164.496094 149.375 166.796875 147.804688 168.992188 145.644531 C 169.660156 144.984375 169.859375 143.976562 169.492188 143.109375 C 169.132812 142.246094 168.269531 141.683594 167.332031 141.703125 L 167.371094 144.003906 L 165.757812 142.363281 C 163.921875 144.179688 161.914062 145.554688 160.378906 146.464844 C 159.613281 146.921875 158.964844 147.257812 158.519531 147.476562 C 158.292969 147.589844 158.121094 147.667969 158.007812 147.71875 L 157.886719 147.773438 L 157.863281 147.785156 L 157.9375 147.957031 L 157.863281 147.785156 L 157.9375 147.957031 L 157.863281 147.785156 L 158.753906 149.910156 L 159.230469 147.65625 L 158.871094 147.578125 L 159.066406 147.269531 L 157.128906 146.03125 L 158.019531 148.15625 L 157.976562 148.046875 L 158.019531 148.15625 L 157.976562 148.046875 L 158.019531 148.15625 C 158.082031 148.128906 159.179688 147.679688 160.886719 147.234375 C 162.59375 146.789062 164.914062 146.347656 167.414062 146.304688 L 167.371094 144.003906 L 165.757812 142.363281 L 167.371094 144.003906 " fill-opacity="1" fill-rule="nonzero"/><path fill="#ffffff" d="M 146.257812 152.882812 C 151.914062 152.78125 156.503906 150.855469 156.503906 150.855469 L 158.488281 147.738281 L 154.871094 146.976562 C 154.871094 146.976562 150.289062 148.910156 146.257812 152.882812 " fill-opacity="1" fill-rule="nonzero"/><path fill="#c19f66" d="M 146.257812 152.882812 L 146.300781 155.183594 C 149.378906 155.128906 152.109375 154.582031 154.09375 154.054688 C 156.082031 153.527344 157.320312 153.007812 157.394531 152.972656 C 157.828125 152.792969 158.191406 152.488281 158.445312 152.089844 L 160.429688 148.976562 C 160.835938 148.339844 160.902344 147.542969 160.609375 146.847656 C 160.320312 146.152344 159.703125 145.644531 158.960938 145.488281 L 155.347656 144.726562 C 154.886719 144.628906 154.414062 144.675781 153.976562 144.859375 C 153.832031 144.925781 149.03125 146.929688 144.640625 151.246094 C 143.972656 151.902344 143.773438 152.910156 144.136719 153.773438 C 144.496094 154.640625 145.359375 155.203125 146.300781 155.183594 L 146.257812 152.882812 L 147.871094 154.519531 C 149.710938 152.710938 151.71875 151.328125 153.25 150.421875 C 154.015625 149.964844 154.664062 149.625 155.109375 149.40625 C 155.335938 149.296875 155.507812 149.214844 155.621094 149.164062 L 155.738281 149.109375 L 155.765625 149.097656 L 155.714844 148.980469 L 155.765625 149.097656 L 155.714844 148.980469 L 155.765625 149.097656 L 154.871094 146.976562 L 154.398438 149.230469 L 154.761719 149.304688 L 154.5625 149.617188 L 156.503906 150.855469 L 155.609375 148.730469 L 155.667969 148.867188 L 155.609375 148.730469 L 155.667969 148.867188 L 155.609375 148.730469 C 155.550781 148.757812 154.453125 149.203125 152.746094 149.652344 C 151.039062 150.097656 148.714844 150.539062 146.214844 150.578125 L 146.257812 152.882812 L 147.871094 154.519531 L 146.257812 152.882812 " fill-opacity="1" fill-rule="nonzero"/><path fill="#ffffff" d="M 159.359375 142.199219 C 157.050781 144.597656 155.9375 147.3125 155.9375 147.3125 L 156.410156 149.433594 L 158.230469 148.246094 C 158.230469 148.246094 159.339844 145.53125 159.359375 142.199219 " fill-opacity="1" fill-rule="nonzero"/><path fill="#c19f66" d="M 159.359375 142.199219 L 157.703125 140.601562 C 156.375 141.980469 155.425781 143.40625 154.789062 144.5 C 154.15625 145.59375 153.839844 146.367188 153.808594 146.441406 C 153.628906 146.875 153.589844 147.351562 153.691406 147.808594 L 154.164062 149.933594 C 154.324219 150.667969 154.84375 151.28125 155.542969 151.566406 C 156.242188 151.851562 157.039062 151.773438 157.671875 151.363281 L 159.488281 150.171875 C 159.886719 149.914062 160.183594 149.550781 160.363281 149.113281 C 160.390625 149.039062 160.703125 148.269531 161.019531 147.039062 C 161.328125 145.8125 161.648438 144.128906 161.664062 142.214844 C 161.667969 141.277344 161.097656 140.421875 160.230469 140.070312 C 159.359375 139.714844 158.355469 139.929688 157.703125 140.601562 L 159.359375 142.199219 L 157.058594 142.183594 C 157.050781 143.597656 156.804688 144.9375 156.558594 145.902344 C 156.433594 146.382812 156.3125 146.769531 156.226562 147.027344 C 156.179688 147.15625 156.148438 147.253906 156.125 147.3125 L 156.101562 147.371094 L 156.097656 147.382812 L 157.027344 147.753906 L 156.101562 147.375 L 156.097656 147.382812 L 157.027344 147.753906 L 156.101562 147.375 L 158.230469 148.246094 L 156.972656 146.316406 L 155.152344 147.503906 L 156.410156 149.433594 L 158.65625 148.933594 L 158.1875 146.8125 L 155.9375 147.3125 L 158.070312 148.183594 L 157.121094 147.796875 L 158.066406 148.1875 L 158.070312 148.183594 L 157.121094 147.796875 L 158.066406 148.1875 C 158.066406 148.175781 159.101562 145.765625 161.019531 143.796875 L 159.359375 142.199219 L 157.058594 142.183594 L 159.359375 142.199219 " fill-opacity="1" fill-rule="nonzero"/><path fill="#ffffff" d="M 154.269531 154.683594 C 156.582031 152.289062 157.6875 149.578125 157.6875 149.578125 L 157.21875 147.453125 L 155.394531 148.640625 C 155.394531 148.640625 154.292969 151.351562 154.269531 154.683594 " fill-opacity="1" fill-rule="nonzero"/><path fill="#c19f66" d="M 154.269531 154.683594 L 155.925781 156.28125 C 157.253906 154.90625 158.203125 153.480469 158.835938 152.386719 C 159.472656 151.289062 159.789062 150.523438 159.820312 150.449219 C 159.996094 150.011719 160.039062 149.535156 159.9375 149.078125 L 159.464844 146.957031 C 159.300781 146.21875 158.785156 145.609375 158.085938 145.324219 C 157.386719 145.039062 156.589844 145.113281 155.960938 145.527344 L 154.140625 146.714844 C 153.742188 146.972656 153.441406 147.335938 153.265625 147.773438 C 153.234375 147.847656 152.921875 148.621094 152.609375 149.84375 C 152.300781 151.070312 151.980469 152.753906 151.964844 154.667969 C 151.960938 155.605469 152.53125 156.460938 153.398438 156.816406 C 154.269531 157.171875 155.277344 156.957031 155.925781 156.28125 L 154.269531 154.683594 L 156.570312 154.699219 C 156.578125 153.28125 156.824219 151.941406 157.070312 150.980469 C 157.195312 150.5 157.316406 150.113281 157.402344 149.855469 C 157.445312 149.726562 157.480469 149.632812 157.503906 149.574219 L 157.527344 149.511719 L 157.53125 149.503906 L 156.578125 149.121094 L 157.527344 149.507812 L 157.53125 149.503906 L 156.578125 149.121094 L 157.527344 149.507812 L 155.394531 148.640625 L 156.652344 150.570312 L 158.472656 149.382812 L 157.21875 147.453125 L 154.96875 147.953125 L 155.441406 150.074219 L 157.6875 149.578125 L 155.558594 148.707031 L 156.515625 149.097656 L 155.558594 148.699219 L 155.558594 148.707031 L 156.515625 149.097656 L 155.558594 148.699219 C 155.5625 148.714844 154.527344 151.117188 152.613281 153.085938 L 154.269531 154.683594 L 156.570312 154.699219 L 154.269531 154.683594 " fill-opacity="1" fill-rule="nonzero"/><path fill="#ffffff" d="M 163.058594 150.992188 C 160.660156 148.675781 157.945312 147.570312 157.945312 147.570312 L 155.824219 148.042969 L 157.015625 149.859375 C 157.015625 149.859375 159.726562 150.964844 163.058594 150.992188 " fill-opacity="1" fill-rule="nonzero"/><path fill="#c19f66" d="M 163.058594 150.992188 L 164.65625 149.332031 C 163.273438 148.003906 161.851562 147.054688 160.753906 146.417969 C 159.65625 145.789062 158.890625 145.46875 158.816406 145.441406 C 158.378906 145.257812 157.90625 145.222656 157.449219 145.324219 L 155.328125 145.789062 C 154.589844 145.953125 153.976562 146.472656 153.691406 147.171875 C 153.410156 147.871094 153.484375 148.667969 153.898438 149.300781 L 155.089844 151.121094 C 155.347656 151.515625 155.710938 151.8125 156.144531 151.992188 C 156.21875 152.019531 156.992188 152.332031 158.21875 152.648438 C 159.445312 152.960938 161.125 153.277344 163.042969 153.289062 C 163.988281 153.296875 164.832031 152.730469 165.191406 151.855469 C 165.546875 150.980469 165.335938 149.984375 164.65625 149.332031 L 163.058594 150.992188 L 163.074219 148.6875 C 161.65625 148.679688 160.316406 148.433594 159.359375 148.183594 C 158.875 148.0625 158.488281 147.941406 158.230469 147.855469 C 158.101562 147.808594 158.007812 147.773438 157.945312 147.753906 L 157.886719 147.730469 L 157.878906 147.726562 L 157.464844 148.761719 L 157.882812 147.730469 L 157.878906 147.726562 L 157.464844 148.761719 L 157.882812 147.730469 L 157.015625 149.859375 L 158.941406 148.597656 L 157.75 146.777344 L 155.824219 148.042969 L 156.320312 150.285156 L 158.445312 149.820312 L 157.945312 147.570312 L 157.078125 149.703125 L 157.480469 148.707031 L 157.070312 149.699219 L 157.078125 149.703125 L 157.480469 148.707031 L 157.070312 149.699219 C 157.082031 149.695312 159.492188 150.734375 161.460938 152.644531 L 163.058594 150.992188 L 163.074219 148.6875 L 163.058594 150.992188 " fill-opacity="1" fill-rule="nonzero"/><path fill="#ffffff" d="M 150.574219 145.898438 C 152.972656 148.210938 155.679688 149.316406 155.679688 149.316406 L 157.804688 148.847656 L 156.617188 147.023438 C 156.617188 147.023438 153.90625 145.917969 150.574219 145.898438 " fill-opacity="1" fill-rule="nonzero"/><path fill="#c19f66" d="M 150.574219 145.898438 L 148.976562 147.550781 C 151.734375 150.203125 154.660156 151.375 154.8125 151.449219 C 155.246094 151.625 155.722656 151.667969 156.179688 151.566406 L 158.300781 151.09375 C 159.039062 150.925781 159.652344 150.410156 159.9375 149.714844 C 160.222656 149.015625 160.144531 148.21875 159.730469 147.589844 L 158.542969 145.765625 C 158.285156 145.371094 157.921875 145.070312 157.484375 144.894531 C 157.410156 144.863281 156.640625 144.550781 155.414062 144.238281 C 154.1875 143.925781 152.503906 143.609375 150.589844 143.597656 C 149.648438 143.585938 148.796875 144.160156 148.441406 145.027344 C 148.089844 145.898438 148.296875 146.902344 148.976562 147.550781 L 150.574219 145.898438 L 150.558594 148.195312 C 151.972656 148.207031 153.3125 148.453125 154.273438 148.699219 C 154.753906 148.820312 155.140625 148.941406 155.398438 149.03125 C 155.527344 149.074219 155.625 149.109375 155.683594 149.132812 L 155.742188 149.15625 L 155.753906 149.160156 L 156.140625 148.195312 L 155.742188 149.15625 L 155.753906 149.160156 L 156.140625 148.195312 L 155.742188 149.15625 L 156.617188 147.023438 L 154.6875 148.285156 L 155.875 150.101562 L 157.804688 148.847656 L 157.304688 146.597656 L 155.183594 147.070312 L 155.679688 149.316406 L 156.550781 147.1875 L 156.1875 148.078125 L 156.558594 147.191406 L 156.550781 147.1875 L 156.1875 148.078125 L 156.558594 147.191406 C 156.546875 147.191406 154.144531 146.15625 152.171875 144.242188 L 150.574219 145.898438 L 150.558594 148.195312 L 150.574219 145.898438 " fill-opacity="1" fill-rule="nonzero"/><path fill="#ffffff" d="M 170.839844 123.472656 C 170.65625 126.03125 171.339844 128.175781 171.339844 128.175781 L 172.664062 129.195312 L 173.15625 127.597656 C 173.15625 127.597656 172.46875 125.453125 170.839844 123.472656 " fill-opacity="1" fill-rule="nonzero"/><path fill="#c19f66" d="M 170.839844 123.472656 L 168.542969 123.308594 C 168.515625 123.667969 168.503906 124.019531 168.503906 124.359375 C 168.511719 126.882812 169.105469 128.738281 169.148438 128.878906 C 169.289062 129.328125 169.5625 129.714844 169.9375 130 L 171.261719 131.019531 C 171.859375 131.480469 172.648438 131.621094 173.367188 131.390625 C 174.082031 131.160156 174.644531 130.59375 174.863281 129.871094 L 175.355469 128.273438 C 175.492188 127.824219 175.492188 127.347656 175.347656 126.898438 C 175.289062 126.742188 174.554688 124.375 172.609375 122.007812 C 172.015625 121.285156 171.03125 120.996094 170.136719 121.28125 C 169.246094 121.566406 168.609375 122.375 168.542969 123.308594 L 170.839844 123.472656 L 169.0625 124.941406 C 169.722656 125.734375 170.214844 126.609375 170.535156 127.269531 C 170.691406 127.601562 170.804688 127.878906 170.875 128.0625 C 170.910156 128.15625 170.933594 128.222656 170.949219 128.261719 L 170.964844 128.304688 L 170.964844 128.308594 L 172.203125 127.902344 L 170.960938 128.300781 L 170.964844 128.308594 L 172.203125 127.902344 L 170.960938 128.300781 L 173.15625 127.597656 L 170.953125 126.921875 L 170.464844 128.519531 L 172.664062 129.195312 L 174.070312 127.371094 L 172.742188 126.355469 L 171.339844 128.175781 L 173.535156 127.476562 L 172.199219 127.902344 L 173.535156 127.484375 L 173.535156 127.476562 L 172.199219 127.902344 L 173.535156 127.484375 L 173.535156 127.476562 C 173.488281 127.339844 173.101562 125.964844 173.109375 124.359375 C 173.109375 124.121094 173.117188 123.882812 173.132812 123.640625 L 170.839844 123.472656 L 169.0625 124.941406 L 170.839844 123.472656 " fill-opacity="1" fill-rule="nonzero"/><path fill="#ffffff" d="M 173.992188 133.355469 C 174.175781 130.796875 173.488281 128.648438 173.488281 128.648438 L 172.164062 127.628906 L 171.675781 129.230469 C 171.675781 129.230469 172.363281 131.378906 173.992188 133.355469 " fill-opacity="1" fill-rule="nonzero"/><path fill="#c19f66" d="M 173.992188 133.355469 L 176.289062 133.515625 C 176.316406 133.15625 176.324219 132.808594 176.324219 132.472656 C 176.316406 129.949219 175.722656 128.09375 175.683594 127.953125 C 175.539062 127.5 175.265625 127.113281 174.894531 126.828125 L 173.570312 125.808594 C 172.96875 125.347656 172.183594 125.210938 171.464844 125.441406 C 170.746094 125.667969 170.1875 126.238281 169.964844 126.960938 L 169.476562 128.558594 C 169.339844 129.007812 169.339844 129.484375 169.480469 129.933594 C 169.542969 130.089844 170.277344 132.453125 172.21875 134.820312 C 172.816406 135.542969 173.800781 135.832031 174.695312 135.550781 C 175.585938 135.261719 176.222656 134.457031 176.289062 133.515625 L 173.992188 133.355469 L 175.769531 131.890625 C 175.109375 131.09375 174.613281 130.21875 174.296875 129.558594 C 174.140625 129.226562 174.027344 128.953125 173.953125 128.765625 C 173.921875 128.675781 173.894531 128.609375 173.882812 128.566406 L 173.867188 128.527344 L 173.863281 128.523438 L 172.636719 128.925781 L 173.867188 128.53125 L 173.863281 128.523438 L 172.636719 128.925781 L 173.867188 128.53125 L 171.675781 129.230469 L 173.875 129.90625 L 174.367188 128.304688 L 172.164062 127.628906 L 170.761719 129.457031 L 172.085938 130.476562 L 173.488281 128.648438 L 171.296875 129.351562 L 172.761719 128.882812 L 171.296875 129.34375 L 171.296875 129.351562 L 172.761719 128.882812 L 171.296875 129.34375 L 171.296875 129.351562 C 171.339844 129.484375 171.726562 130.863281 171.722656 132.472656 C 171.722656 132.710938 171.714844 132.949219 171.695312 133.191406 L 173.992188 133.355469 L 175.769531 131.890625 L 173.992188 133.355469 " fill-opacity="1" fill-rule="nonzero"/><path fill="#ffffff" d="M 177.359375 126.835938 C 174.796875 126.652344 172.652344 127.339844 172.652344 127.339844 L 171.628906 128.667969 L 173.230469 129.152344 C 173.230469 129.152344 175.378906 128.46875 177.359375 126.835938 " fill-opacity="1" fill-rule="nonzero"/><path fill="#c19f66" d="M 177.359375 126.835938 L 177.527344 124.542969 C 177.164062 124.515625 176.808594 124.503906 176.472656 124.503906 C 173.941406 124.511719 172.09375 125.105469 171.953125 125.148438 C 171.503906 125.289062 171.117188 125.5625 170.828125 125.9375 L 169.808594 127.261719 C 169.347656 127.859375 169.210938 128.648438 169.441406 129.367188 C 169.671875 130.085938 170.238281 130.648438 170.960938 130.867188 L 172.5625 131.355469 C 173.011719 131.492188 173.484375 131.488281 173.933594 131.34375 C 174.089844 131.289062 176.453125 130.550781 178.820312 128.613281 C 179.546875 128.015625 179.835938 127.035156 179.550781 126.140625 C 179.265625 125.246094 178.460938 124.609375 177.527344 124.542969 L 177.359375 126.835938 L 175.894531 125.0625 C 175.101562 125.71875 174.222656 126.214844 173.5625 126.53125 C 173.226562 126.691406 172.953125 126.804688 172.769531 126.871094 C 172.675781 126.910156 172.609375 126.933594 172.566406 126.949219 L 172.527344 126.960938 L 172.523438 126.960938 L 172.941406 128.238281 L 172.53125 126.960938 L 172.523438 126.960938 L 172.941406 128.238281 L 172.53125 126.960938 L 173.230469 129.152344 L 173.902344 126.949219 L 172.300781 126.464844 L 171.628906 128.667969 L 173.457031 130.070312 L 174.476562 128.742188 L 172.652344 127.339844 L 173.355469 129.53125 L 172.90625 128.125 L 173.34375 129.535156 L 173.355469 129.53125 L 172.90625 128.125 L 173.34375 129.535156 L 173.355469 129.53125 C 173.488281 129.488281 174.863281 129.101562 176.472656 129.109375 C 176.703125 129.109375 176.949219 129.117188 177.191406 129.132812 L 177.359375 126.835938 L 175.894531 125.0625 L 177.359375 126.835938 " fill-opacity="1" fill-rule="nonzero"/><path fill="#ffffff" d="M 167.472656 129.992188 C 170.03125 130.179688 172.179688 129.488281 172.179688 129.488281 L 173.199219 128.164062 L 171.597656 127.679688 C 171.597656 127.679688 169.453125 128.363281 167.472656 129.992188 " fill-opacity="1" fill-rule="nonzero"/><path fill="#c19f66" d="M 167.472656 129.992188 L 167.308594 132.289062 C 167.675781 132.316406 168.023438 132.324219 168.363281 132.324219 C 170.886719 132.316406 172.738281 131.722656 172.878906 131.683594 C 173.328125 131.539062 173.71875 131.265625 174 130.894531 L 175.023438 129.566406 C 175.480469 128.96875 175.621094 128.179688 175.390625 127.460938 C 175.160156 126.742188 174.589844 126.179688 173.867188 125.960938 L 172.265625 125.476562 C 171.8125 125.335938 171.347656 125.339844 170.898438 125.484375 C 170.742188 125.542969 168.378906 126.277344 166.011719 128.21875 C 165.285156 128.816406 165 129.796875 165.28125 130.695312 C 165.566406 131.585938 166.375 132.222656 167.308594 132.289062 L 167.472656 129.992188 L 168.9375 131.765625 C 169.734375 131.109375 170.609375 130.617188 171.269531 130.300781 C 171.601562 130.140625 171.875 130.027344 172.058594 129.960938 C 172.152344 129.921875 172.222656 129.898438 172.261719 129.882812 L 172.300781 129.871094 L 172.304688 129.871094 L 171.894531 128.613281 L 172.296875 129.871094 L 172.304688 129.871094 L 171.894531 128.613281 L 172.296875 129.871094 L 171.597656 127.679688 L 170.929688 129.882812 L 172.53125 130.367188 L 173.199219 128.164062 L 171.375 126.761719 L 170.355469 128.085938 L 172.179688 129.488281 L 171.476562 127.296875 L 171.917969 128.675781 L 171.488281 127.296875 L 171.476562 127.296875 L 171.917969 128.675781 L 171.488281 127.296875 L 171.476562 127.296875 C 171.34375 127.339844 169.96875 127.726562 168.363281 127.71875 C 168.121094 127.71875 167.882812 127.714844 167.636719 127.695312 L 167.472656 129.992188 L 168.9375 131.765625 L 167.472656 129.992188 " fill-opacity="1" fill-rule="nonzero"/><path fill="#ffffff" d="M 173.816406 125.703125 C 172.675781 126.691406 172.070312 127.871094 172.070312 127.871094 L 172.195312 128.84375 L 173.0625 128.382812 C 173.0625 128.382812 173.667969 127.203125 173.816406 125.703125 " fill-opacity="1" fill-rule="nonzero"/><path fill="#c19f66" d="M 173.816406 125.703125 L 172.3125 123.960938 C 171.550781 124.617188 171.003906 125.300781 170.632812 125.832031 C 170.257812 126.363281 170.058594 126.746094 170.019531 126.820312 C 169.8125 127.230469 169.726562 127.703125 169.789062 128.160156 L 169.910156 129.136719 C 170.007812 129.882812 170.46875 130.542969 171.136719 130.886719 C 171.808594 131.234375 172.609375 131.230469 173.277344 130.875 L 174.144531 130.410156 C 174.5625 130.191406 174.890625 129.855469 175.109375 129.433594 C 175.144531 129.363281 175.339844 128.980469 175.554688 128.371094 C 175.769531 127.757812 176.007812 126.921875 176.109375 125.925781 C 176.199219 124.988281 175.707031 124.089844 174.875 123.65625 C 174.039062 123.226562 173.023438 123.347656 172.3125 123.960938 L 173.816406 125.703125 L 171.527344 125.480469 C 171.476562 125.980469 171.339844 126.484375 171.214844 126.839844 C 171.152344 127.015625 171.089844 127.15625 171.054688 127.242188 L 171.011719 127.332031 L 171.011719 127.339844 L 172.039062 127.855469 L 171.015625 127.328125 L 171.011719 127.339844 L 172.039062 127.855469 L 171.015625 127.328125 L 173.0625 128.382812 L 171.976562 126.351562 L 171.113281 126.8125 L 172.195312 128.84375 L 174.476562 128.554688 L 174.351562 127.578125 L 172.070312 127.871094 L 174.117188 128.917969 L 173.070312 128.382812 L 174.109375 128.933594 L 174.117188 128.917969 L 173.070312 128.382812 L 174.109375 128.933594 C 174.109375 128.933594 174.136719 128.878906 174.195312 128.789062 C 174.359375 128.515625 174.785156 127.902344 175.320312 127.441406 L 173.816406 125.703125 L 171.527344 125.480469 L 173.816406 125.703125 " fill-opacity="1" fill-rule="nonzero"/><path fill="#ffffff" d="M 171.011719 131.128906 C 172.160156 130.140625 172.765625 128.960938 172.765625 128.960938 L 172.636719 127.984375 L 171.769531 128.449219 C 171.769531 128.449219 171.164062 129.625 171.011719 131.128906 " fill-opacity="1" fill-rule="nonzero"/><path fill="#c19f66" d="M 171.011719 131.128906 L 172.519531 132.867188 C 173.277344 132.210938 173.824219 131.53125 174.199219 131 C 174.570312 130.472656 174.773438 130.089844 174.8125 130.015625 C 175.027344 129.601562 175.109375 129.128906 175.046875 128.664062 L 174.917969 127.6875 C 174.824219 126.9375 174.359375 126.28125 173.691406 125.9375 C 173.023438 125.59375 172.21875 125.597656 171.554688 125.957031 L 170.683594 126.417969 C 170.265625 126.640625 169.9375 126.972656 169.722656 127.394531 C 169.6875 127.464844 169.492188 127.847656 169.273438 128.457031 C 169.0625 129.070312 168.824219 129.90625 168.722656 130.902344 C 168.628906 131.839844 169.117188 132.738281 169.957031 133.167969 C 170.792969 133.605469 171.804688 133.488281 172.519531 132.867188 L 171.011719 131.128906 L 173.304688 131.351562 C 173.355469 130.847656 173.492188 130.34375 173.617188 129.988281 C 173.679688 129.8125 173.738281 129.675781 173.777344 129.585938 L 173.816406 129.5 L 173.820312 129.488281 L 172.765625 128.964844 L 173.816406 129.503906 L 173.820312 129.488281 L 172.765625 128.964844 L 173.816406 129.503906 L 171.769531 128.449219 L 172.855469 130.476562 L 173.722656 130.011719 L 172.636719 127.984375 L 170.355469 128.28125 L 170.484375 129.257812 L 172.765625 128.960938 L 170.71875 127.90625 L 171.792969 128.457031 L 170.730469 127.890625 L 170.71875 127.90625 L 171.792969 128.457031 L 170.730469 127.890625 C 170.730469 127.890625 170.699219 127.941406 170.644531 128.035156 C 170.476562 128.3125 170.046875 128.925781 169.507812 129.382812 L 171.011719 131.128906 L 173.304688 131.351562 L 171.011719 131.128906 " fill-opacity="1" fill-rule="nonzero"/><path fill="#ffffff" d="M 175.132812 129.816406 C 174.140625 128.675781 172.964844 128.066406 172.964844 128.066406 L 171.984375 128.195312 L 172.449219 129.0625 C 172.449219 129.0625 173.625 129.671875 175.132812 129.816406 " fill-opacity="1" fill-rule="nonzero"/><path fill="#c19f66" d="M 175.132812 129.816406 L 176.871094 128.308594 C 176.210938 127.550781 175.53125 127.003906 175.003906 126.632812 C 174.472656 126.257812 174.089844 126.058594 174.019531 126.019531 C 173.601562 125.800781 173.132812 125.722656 172.664062 125.78125 L 171.6875 125.910156 C 170.941406 126.007812 170.285156 126.46875 169.941406 127.136719 C 169.597656 127.808594 169.597656 128.605469 169.953125 129.273438 L 170.414062 130.140625 C 170.636719 130.558594 170.972656 130.894531 171.394531 131.109375 C 171.464844 131.144531 171.851562 131.339844 172.460938 131.558594 C 173.074219 131.769531 173.910156 132.007812 174.910156 132.105469 C 175.851562 132.199219 176.742188 131.710938 177.179688 130.871094 C 177.609375 130.03125 177.488281 129.019531 176.871094 128.308594 L 175.132812 129.816406 L 175.351562 127.527344 C 174.851562 127.476562 174.34375 127.339844 173.988281 127.214844 C 173.8125 127.152344 173.671875 127.089844 173.585938 127.054688 L 173.496094 127.011719 L 173.484375 127.011719 L 172.957031 128.070312 L 173.5 127.015625 L 173.484375 127.011719 L 172.957031 128.070312 L 173.5 127.015625 L 172.449219 129.0625 L 174.480469 127.984375 L 174.019531 127.113281 L 171.984375 128.195312 L 172.285156 130.476562 L 173.261719 130.347656 L 172.964844 128.066406 L 171.90625 130.109375 L 172.453125 129.054688 L 171.890625 130.101562 L 171.90625 130.109375 L 172.453125 129.054688 L 171.890625 130.101562 C 171.890625 130.101562 171.941406 130.128906 172.035156 130.1875 C 172.3125 130.355469 172.929688 130.785156 173.394531 131.324219 L 175.132812 129.816406 L 175.351562 127.527344 L 175.132812 129.816406 " fill-opacity="1" fill-rule="nonzero"/><path fill="#ffffff" d="M 169.703125 127.015625 C 170.691406 128.15625 171.871094 128.761719 171.871094 128.761719 L 172.84375 128.636719 L 172.382812 127.769531 C 172.382812 127.769531 171.207031 127.15625 169.703125 127.015625 " fill-opacity="1" fill-rule="nonzero"/><path fill="#c19f66" d="M 169.703125 127.015625 L 167.960938 128.519531 C 168.621094 129.277344 169.300781 129.824219 169.832031 130.199219 C 170.363281 130.570312 170.742188 130.773438 170.816406 130.808594 C 171.230469 131.023438 171.703125 131.105469 172.171875 131.042969 L 173.144531 130.917969 C 173.890625 130.820312 174.546875 130.359375 174.890625 129.691406 C 175.238281 129.019531 175.230469 128.21875 174.875 127.554688 L 174.414062 126.6875 C 174.195312 126.269531 173.859375 125.941406 173.441406 125.722656 C 173.371094 125.683594 172.984375 125.492188 172.375 125.273438 C 171.757812 125.058594 170.921875 124.820312 169.921875 124.722656 C 168.988281 124.632812 168.085938 125.125 167.65625 125.957031 C 167.226562 126.792969 167.347656 127.8125 167.960938 128.519531 L 169.703125 127.015625 L 169.480469 129.304688 C 169.980469 129.351562 170.484375 129.488281 170.839844 129.613281 C 171.015625 129.675781 171.152344 129.738281 171.242188 129.773438 L 171.328125 129.816406 L 171.339844 129.820312 L 171.871094 128.757812 L 171.324219 129.8125 L 171.339844 129.820312 L 171.871094 128.757812 L 171.324219 129.8125 L 172.382812 127.769531 L 170.351562 128.851562 L 170.8125 129.71875 L 172.84375 128.636719 L 172.546875 126.355469 L 171.574219 126.480469 L 171.871094 128.761719 L 172.929688 126.71875 L 172.40625 127.722656 L 172.941406 126.726562 L 172.929688 126.71875 L 172.40625 127.722656 L 172.941406 126.726562 C 172.941406 126.726562 172.890625 126.699219 172.796875 126.640625 C 172.519531 126.472656 171.902344 126.046875 171.441406 125.507812 L 169.703125 127.015625 L 169.480469 129.304688 L 169.703125 127.015625 " fill-opacity="1" fill-rule="nonzero"/><path fill="#ffffff" d="M 86.203125 261.988281 C 87.160156 258.320312 90.941406 256.132812 94.671875 257.019531 C 155.726562 271.570312 219.351562 271.566406 280.410156 257.019531 C 284.128906 256.136719 287.917969 258.320312 288.871094 261.988281 C 291.78125 269.90625 295.75 271.15625 299.1875 284.546875 C 300.140625 288.210938 297.472656 292.078125 293.203125 293.097656 C 223.730469 309.652344 151.34375 309.652344 81.875 293.097656 C 77.609375 292.078125 74.933594 288.214844 75.886719 284.546875 C 80.976562 271.953125 86.203125 261.988281 86.203125 261.988281 " fill-opacity="1" fill-rule="nonzero"/><g clip-path="url(#a27d5c8563)"><path fill="#c19f66" d="M 86.203125 261.988281 L 88.429688 262.566406 C 88.703125 261.53125 89.300781 260.6875 90.113281 260.078125 C 90.921875 259.472656 91.9375 259.125 92.996094 259.125 C 93.371094 259.125 93.75 259.164062 94.132812 259.257812 L 94.136719 259.257812 C 124.855469 266.578125 156.214844 270.230469 187.578125 270.234375 C 218.914062 270.230469 250.25 266.570312 280.9375 259.257812 C 281.324219 259.167969 281.703125 259.125 282.078125 259.125 C 283.136719 259.125 284.15625 259.472656 284.964844 260.078125 C 285.777344 260.6875 286.371094 261.53125 286.644531 262.566406 C 286.667969 262.660156 286.679688 262.691406 286.710938 262.78125 C 287.492188 264.902344 288.355469 266.605469 289.238281 268.125 C 289.898438 269.261719 290.558594 270.292969 291.210938 271.339844 C 292.1875 272.914062 293.136719 274.515625 294.097656 276.652344 C 295.054688 278.789062 296.019531 281.460938 296.960938 285.121094 L 296.960938 285.125 C 297.042969 285.433594 297.078125 285.742188 297.078125 286.050781 C 297.082031 287.019531 296.695312 288.039062 295.929688 288.921875 C 295.167969 289.808594 294.046875 290.527344 292.667969 290.855469 C 258.078125 299.097656 222.761719 303.207031 187.445312 303.207031 C 152.1875 303.207031 116.9375 299.085938 82.410156 290.855469 C 81.027344 290.527344 79.90625 289.808594 79.144531 288.925781 C 78.382812 288.039062 77.996094 287.019531 77.996094 286.050781 C 77.996094 285.742188 78.035156 285.433594 78.113281 285.132812 L 75.886719 284.546875 L 78.023438 285.410156 C 80.542969 279.171875 83.105469 273.570312 85.03125 269.539062 C 85.992188 267.519531 86.800781 265.898438 87.363281 264.777344 C 87.644531 264.21875 87.867188 263.785156 88.015625 263.492188 C 88.09375 263.347656 88.148438 263.238281 88.1875 263.164062 C 88.222656 263.089844 88.242188 263.058594 88.242188 263.058594 C 88.320312 262.910156 88.390625 262.730469 88.429688 262.566406 L 86.203125 261.988281 L 84.164062 260.917969 C 84.144531 260.960938 78.890625 270.976562 73.753906 283.683594 C 73.71875 283.773438 73.683594 283.871094 73.660156 283.964844 C 73.476562 284.660156 73.390625 285.363281 73.390625 286.050781 C 73.394531 288.246094 74.253906 290.3125 75.660156 291.9375 C 77.070312 293.5625 79.039062 294.78125 81.34375 295.335938 C 116.21875 303.644531 151.828125 307.8125 187.445312 307.8125 C 223.117188 307.8125 258.792969 303.660156 293.738281 295.335938 C 296.042969 294.78125 298.007812 293.5625 299.417969 291.933594 C 300.820312 290.308594 301.683594 288.246094 301.683594 286.050781 C 301.683594 285.363281 301.597656 284.660156 301.417969 283.96875 L 301.417969 283.976562 C 300.535156 280.53125 299.605469 277.828125 298.65625 275.585938 C 297.230469 272.226562 295.753906 269.921875 294.457031 267.855469 C 293.160156 265.773438 292.050781 263.949219 291.03125 261.195312 L 288.871094 261.988281 L 291.097656 261.410156 C 290.558594 259.328125 289.320312 257.585938 287.722656 256.394531 C 286.117188 255.195312 284.144531 254.519531 282.078125 254.519531 C 281.347656 254.519531 280.605469 254.605469 279.871094 254.78125 C 249.53125 262.007812 218.558594 265.628906 187.578125 265.628906 C 156.574219 265.628906 125.570312 262.015625 95.203125 254.78125 C 94.46875 254.605469 93.722656 254.519531 92.996094 254.519531 C 90.925781 254.519531 88.957031 255.195312 87.355469 256.394531 C 85.75 257.585938 84.515625 259.328125 83.976562 261.40625 L 86.203125 261.988281 L 84.164062 260.917969 L 86.203125 261.988281 " fill-opacity="1" fill-rule="nonzero"/></g></svg>