<svg xmlns="http://www.w3.org/2000/svg" xmlns:xlink="http://www.w3.org/1999/xlink" width="500" zoomAndPan="magnify" viewBox="0 0 375 374.999991" height="500" preserveAspectRatio="xMidYMid meet" version="1.0"><defs><clipPath id="3625603fe3"><path d="M 55 38 L 320.585938 38 L 320.585938 338.25 L 55 338.25 Z M 55 38 " clip-rule="nonzero"/></clipPath></defs><path fill="#c19f66" d="M 260.457031 301.09375 C 260.5625 300.996094 260.660156 300.882812 260.75 300.753906 C 260.636719 300.863281 260.539062 300.980469 260.457031 301.09375 Z M 260.457031 301.09375 " fill-opacity="1" fill-rule="nonzero"/><g clip-path="url(#3625603fe3)"><path fill="#c19f66" d="M 125.722656 332.140625 C 139.628906 334.082031 153.578125 335.667969 167.589844 336.625 C 175.992188 337.203125 184.414062 337.511719 192.824219 338.003906 C 197.308594 338.265625 201.789062 338.398438 206.285156 337.835938 C 194.242188 336.808594 182.203125 335.78125 170.164062 334.753906 C 175.453125 334.613281 180.726562 334.609375 185.996094 334.617188 C 189.257812 334.621094 192.527344 334.507812 195.78125 334.6875 C 203.984375 335.136719 212.199219 335.152344 220.386719 334.851562 C 230.144531 334.496094 239.875 333.34375 249.632812 332.964844 C 263.796875 332.414062 277.894531 331.441406 291.835938 328.78125 C 299.980469 327.226562 307.828125 324.953125 313.984375 318.914062 C 314.484375 318.425781 315.039062 318.074219 315.730469 317.972656 C 317.9375 317.640625 318.90625 316.085938 319.578125 314.179688 C 320.386719 311.898438 320.636719 309.625 320.121094 307.222656 C 318.707031 300.617188 315.824219 294.6875 311.925781 289.234375 C 307.402344 282.910156 303.292969 276.351562 299.894531 269.339844 C 297.929688 265.292969 295.6875 261.382812 293.101562 257.6875 C 290.773438 254.359375 288.789062 250.828125 287.160156 247.117188 C 281.402344 234 276.949219 220.472656 274.269531 206.378906 C 273.988281 204.890625 274.269531 202.882812 272.070312 202.265625 C 271.777344 202.183594 271.566406 201.535156 271.460938 201.113281 C 270.609375 197.746094 269.730469 194.386719 268.984375 190.996094 C 267.105469 182.453125 266.84375 173.636719 264.632812 165.152344 C 264.488281 164.597656 264.390625 164.242188 265.148438 163.867188 C 266.546875 163.167969 266.554688 162.917969 265.347656 162.226562 C 264.484375 161.730469 263.5625 161.394531 264.285156 160.296875 C 265.296875 158.753906 264.882812 157.21875 264.394531 155.753906 C 263.203125 152.210938 263.144531 148.507812 262.769531 144.859375 C 262.113281 138.5 261.484375 132.125 261.222656 125.738281 C 261.085938 122.46875 260.195312 119.269531 260.449219 116.015625 C 260.621094 113.832031 260.257812 111.796875 259.824219 109.691406 C 258.710938 104.257812 256.644531 99.140625 254.8125 93.953125 C 253.257812 89.558594 250.886719 85.503906 247.496094 82.339844 C 243.324219 78.449219 239.304688 74.378906 234.335938 71.339844 C 229.332031 68.28125 224.261719 65.507812 218.734375 63.535156 C 215.203125 62.273438 211.542969 61.726562 207.878906 61.195312 C 206.242188 60.960938 205.832031 60.355469 206.058594 58.796875 C 206.289062 57.253906 206.65625 55.53125 206.214844 54.121094 C 205.042969 50.382812 203.738281 46.625 201.011719 43.640625 C 197.359375 39.644531 193.027344 37.511719 187.472656 38.875 C 186.816406 39.035156 186.148438 39.210938 185.484375 39.222656 C 180.296875 39.3125 176.421875 42.019531 172.890625 45.445312 C 170.136719 48.113281 169.097656 51.429688 169.039062 55.183594 C 169.011719 57.046875 169.460938 59.046875 167.898438 60.613281 C 166.878906 61.632812 166.566406 62.53125 168.445312 62.871094 C 169.261719 63.019531 169.578125 63.554688 169.488281 64.316406 C 169.394531 65.152344 168.722656 65.300781 168.035156 65.449219 C 165.953125 65.910156 163.925781 66.65625 161.765625 66.695312 C 158.488281 66.757812 155.679688 68.113281 152.980469 69.792969 C 152.527344 70.070312 152.195312 70.628906 151.515625 70.34375 C 151.066406 69.21875 152.792969 69.222656 152.578125 68.011719 C 151.023438 69.019531 149.464844 69.875 148.089844 70.964844 C 146.972656 71.84375 145.351562 72.496094 145.144531 74.035156 C 144.972656 75.304688 144.4375 75.753906 143.367188 76.085938 C 142.371094 76.398438 141.816406 77.339844 141.0625 78 C 137.863281 80.808594 135.109375 84.082031 131.601562 86.582031 C 129.601562 88.007812 127.972656 89.964844 127.492188 92.5625 C 127.152344 94.378906 126.34375 95.945312 125.074219 97.289062 C 123.808594 98.625 123.0625 100.257812 122.449219 101.960938 C 121.957031 103.328125 121.40625 104.664062 120.835938 106 C 117.679688 113.386719 115.539062 121.027344 115.757812 129.171875 C 115.816406 131.417969 115.46875 133.648438 115.328125 135.878906 C 115.144531 138.8125 113.746094 141.746094 115.222656 144.761719 C 115.5625 145.457031 115.289062 146.554688 115.058594 147.402344 C 114.046875 151.109375 113.972656 154.960938 113.328125 158.722656 C 113.066406 160.238281 112.515625 161.796875 112.65625 163.328125 C 112.78125 164.621094 113.691406 165.878906 112.179688 166.949219 C 112.050781 167.042969 112.121094 167.691406 112.300781 167.902344 C 113.132812 168.851562 112.746094 169.339844 111.867188 170.011719 C 111.121094 170.582031 111.320312 171.679688 111.253906 172.5625 C 111.066406 175.027344 111.160156 177.535156 110.703125 179.945312 C 109.980469 183.800781 110.808594 187.660156 110.339844 191.492188 C 110.160156 192.941406 109.894531 194.375 109.632812 195.8125 C 107.851562 205.53125 106.113281 215.253906 102.632812 224.566406 C 101.660156 227.175781 100.59375 229.691406 99.355469 232.203125 C 97.808594 235.332031 96.28125 238.722656 96.191406 242.390625 C 96.167969 243.378906 95.769531 244.128906 95.316406 244.875 C 93.976562 247.082031 92.722656 249.359375 91.167969 251.410156 C 86.359375 257.753906 81.375 263.960938 77.277344 270.8125 C 73.300781 277.453125 69.75 284.351562 65.132812 290.601562 C 64.941406 290.863281 64.921875 291.234375 65.390625 291.601562 C 68.625 290.484375 68.855469 286.640625 71.289062 284.78125 C 73.09375 279.890625 76.589844 276.015625 79.285156 271.664062 C 80.726562 269.339844 81.777344 266.652344 84.089844 264.917969 C 84.644531 265.171875 83.570312 266.0625 84.851562 266.179688 C 87.898438 261.769531 91.015625 257.238281 94.152344 252.722656 C 94.773438 251.832031 95.085938 250.4375 96.417969 250.445312 C 99.425781 250.460938 102.09375 249.152344 104.910156 248.453125 C 126.753906 243.035156 148.777344 238.492188 170.964844 234.738281 C 175.722656 233.929688 180.480469 233.160156 185.351562 233.117188 C 197.050781 233.011719 208.746094 232.945312 220.441406 233.3125 C 228.535156 233.566406 236.601562 234.160156 244.636719 235.109375 C 247.285156 235.421875 247.238281 235.476562 247.636719 238.015625 C 248.503906 243.519531 250.183594 248.777344 252.480469 253.84375 C 251.652344 247.808594 248.472656 242.277344 248.453125 236.039062 C 251.960938 235.695312 254.558594 236.589844 256.34375 239.265625 C 255.878906 237.011719 255.949219 237.042969 257.855469 237.324219 C 259.226562 237.53125 260.078125 237.957031 260.167969 239.585938 C 260.28125 241.628906 261.300781 243.457031 262.113281 245.308594 C 265.273438 252.523438 268.882812 259.519531 272.492188 266.519531 C 272.683594 266.890625 272.730469 267.601562 273.667969 267.257812 C 272.480469 264.566406 271.363281 261.878906 270.121094 259.25 C 267.285156 253.25 264.367188 247.292969 261.53125 241.292969 C 260.585938 239.300781 261.347656 238.257812 263.480469 238.5625 C 264.613281 238.726562 265.351562 239.28125 265.945312 240.488281 C 270.886719 250.585938 275.957031 260.625 281.011719 270.671875 C 283.019531 274.660156 285.082031 278.625 287.089844 282.539062 C 286.460938 283.042969 286.003906 283.058594 285.574219 282.925781 C 283.535156 282.289062 281.542969 281.488281 279.476562 280.992188 C 274.363281 279.765625 269.347656 278.1875 264.195312 277.066406 C 257.808594 275.675781 251.542969 273.722656 245.011719 273.035156 C 243.421875 272.867188 241.878906 271.691406 240.589844 271.917969 C 237.285156 272.492188 234.085938 271.746094 230.84375 271.800781 C 225.34375 271.902344 219.855469 272.273438 214.363281 272.417969 C 205.332031 272.65625 196.292969 272.515625 187.257812 272.496094 C 185.660156 272.496094 183.847656 273.003906 182.8125 271.113281 C 181.234375 271.632812 179.765625 272.34375 177.980469 272.324219 C 162.921875 272.140625 147.898438 272.671875 132.886719 274.117188 C 127.613281 274.628906 122.421875 275.488281 117.238281 276.375 C 106.140625 278.269531 95.296875 281.242188 84.613281 284.78125 C 81.410156 285.839844 78.183594 286.820312 74.964844 287.832031 C 74.546875 287.964844 74.066406 288.179688 73.714844 287.753906 C 73.261719 287.207031 73.613281 286.714844 73.945312 286.257812 C 74.484375 285.507812 75.738281 285.0625 74.84375 283.5 C 72.6875 285.550781 70.839844 287.769531 69.429688 290.234375 C 68.265625 292.28125 66.929688 293.914062 64.738281 294.824219 C 61.511719 296.164062 59.292969 298.589844 57.402344 301.472656 C 54.324219 306.164062 55.320312 312.507812 59.835938 315.75 C 60.929688 316.535156 62.058594 317.324219 63.277344 317.867188 C 70.257812 320.976562 77.535156 323.195312 85.011719 324.703125 C 92.917969 326.300781 100.863281 327.722656 108.796875 329.179688 C 114.433594 330.214844 120.054688 331.347656 125.722656 332.140625 Z M 222.355469 330.730469 C 222.21875 331.449219 221.488281 331.292969 220.953125 331.246094 C 220.082031 331.171875 219.167969 331.507812 218.351562 330.863281 C 218.023438 330.609375 217.316406 330.304688 217.15625 330.449219 C 214.5625 332.753906 212.191406 329.84375 209.640625 330.160156 C 206.984375 330.488281 204.257812 330.183594 201.566406 330.296875 C 200.292969 330.351562 199.25 329.8125 198.132812 329.429688 C 198.003906 328.101562 198.515625 327.515625 199.988281 327.449219 C 203.269531 327.308594 206.472656 327.980469 209.710938 328.242188 C 213.503906 328.550781 217.277344 329.15625 221.058594 329.640625 C 221.714844 329.726562 222.535156 329.785156 222.355469 330.730469 Z M 315.207031 308.75 C 315.292969 308.882812 315.226562 309.292969 315.132812 309.332031 C 313.859375 309.847656 313.203125 308.980469 312.242188 308.101562 C 313.511719 308.007812 314.527344 307.71875 315.207031 308.75 Z M 305.359375 310.59375 C 305.558594 310.429688 306.007812 310.390625 306.253906 310.5 C 307.109375 310.871094 306.601562 311.304688 306.257812 311.738281 C 306.152344 311.871094 306.152344 312.082031 306.117188 312.269531 C 305.960938 312.144531 305.796875 312.023438 305.652344 311.882812 C 305.269531 311.519531 304.695312 311.148438 305.359375 310.59375 Z M 298.730469 315.160156 C 299.703125 314.515625 300.808594 313.996094 301.625 313.1875 C 302.984375 311.839844 304.429688 311.621094 306.113281 312.285156 C 306.113281 312.296875 306.113281 312.304688 306.109375 312.3125 C 303.644531 313.136719 302.253906 315.296875 300.398438 316.90625 C 302.882812 316.085938 304.503906 314 306.722656 312.792969 C 307.8125 312.203125 308.644531 311.414062 310.035156 312.292969 C 311.433594 313.171875 311.3125 314.8125 312.199219 315.929688 C 312.332031 316.101562 311.617188 317.058594 311.183594 317.550781 C 309.363281 319.621094 307.035156 321.011719 304.546875 322.074219 C 299.367188 324.289062 293.871094 325.328125 288.367188 326.417969 C 280.324219 328.007812 272.148438 328.335938 264.042969 329.230469 C 256.5 330.0625 248.878906 330.5 241.253906 330.425781 C 239.488281 330.410156 237.710938 330.75 235.957031 330.296875 C 235.480469 330.175781 234.753906 330.195312 234.996094 329.320312 C 233.722656 329.871094 232.449219 329.890625 231.070312 329.652344 C 221.96875 328.089844 212.785156 327.1875 203.597656 326.308594 C 201.914062 326.148438 200.246094 326.042969 198.625 326.660156 C 196.96875 327.296875 196.910156 327.53125 198.082031 329.410156 C 198.066406 329.40625 198.046875 329.398438 198.03125 329.394531 C 197.335938 330.703125 196.089844 330.28125 195.03125 330.285156 C 191.921875 330.296875 188.851562 330.253906 185.761719 331.054688 C 183.941406 331.523438 181.898438 331.136719 179.929688 331.136719 C 179.757812 330.230469 180.5 330.382812 180.976562 330.355469 C 185.746094 330.054688 190.285156 328.882812 194.542969 326.695312 C 197.949219 324.945312 201.621094 324.433594 205.351562 324.742188 C 211.945312 325.289062 218.527344 325.984375 225.101562 326.761719 C 228.472656 327.160156 231.847656 327.355469 235.230469 327.523438 C 235.234375 328.035156 235.234375 328.550781 235.238281 329.0625 C 236.492188 328.058594 238.488281 328.007812 239.050781 326.109375 C 237.652344 326.1875 236.5625 327.15625 235.238281 327.441406 C 233.617188 326.640625 231.660156 326.917969 230.113281 325.878906 C 232.328125 324.035156 234.75 323.339844 237.695312 324.035156 C 239.148438 324.375 239.144531 325.082031 239.050781 326.128906 C 240.304688 324.773438 241.757812 324.558594 243.605469 324.796875 C 250.769531 325.722656 257.960938 326.445312 265.15625 327.160156 C 260.425781 326.164062 255.6875 325.242188 250.882812 324.644531 C 249.527344 324.476562 247.933594 324.667969 246.898438 323.359375 C 246.792969 323.390625 246.6875 323.421875 246.582031 323.445312 C 245.550781 323.699219 244.414062 324.234375 243.605469 323.171875 C 243.105469 322.507812 244.59375 321.585938 246.519531 321.4375 C 246.804688 321.414062 247.09375 321.441406 247.382812 321.457031 C 247.394531 321.890625 247.410156 322.328125 247.425781 322.765625 C 248.292969 322.328125 249.195312 322.023438 250.183594 322.003906 C 252.148438 321.957031 249.382812 320.921875 250.453125 320.679688 C 249.449219 320.902344 248.449219 321.125 247.445312 321.347656 C 247.152344 320.796875 246.242188 320.351562 247.246094 319.578125 C 248.21875 318.824219 249.078125 317.910156 250.472656 318.042969 C 251.394531 318.132812 251.554688 318.660156 251.355469 319.4375 C 253.253906 318.832031 254.953125 318.636719 257.105469 319.226562 C 259.378906 319.847656 262.039062 319.738281 264.550781 319.746094 C 262.992188 319.335938 261.433594 318.921875 259.671875 318.453125 C 260.484375 316.996094 262.527344 316.925781 262.503906 315.191406 C 264.40625 314.558594 266.328125 314.09375 268.160156 315.28125 C 269.089844 315.882812 269.898438 315.421875 270.710938 315.21875 C 271.628906 314.984375 270.851562 314.011719 271.253906 313.5 C 269.890625 314.28125 267.957031 314.269531 265.457031 313.464844 C 267.285156 311.890625 268.894531 310.335938 270.683594 309.027344 C 271.925781 308.117188 273.445312 308.878906 274.421875 309.539062 C 275.414062 310.207031 274.242188 310.996094 273.65625 311.589844 C 276.902344 309.351562 280.203125 310.695312 283.496094 311.410156 C 283.234375 312.679688 281.8125 313.113281 281.148438 314.882812 C 283.132812 313.621094 284.742188 312.734375 286.183594 311.628906 C 287.0625 310.957031 287.640625 309.882812 289.007812 310.273438 C 289.359375 310.371094 289.277344 310.128906 289.40625 309.871094 C 290.804688 307.058594 291.339844 306.855469 294.195312 307.796875 C 295.03125 308.074219 295.835938 308.4375 297.304688 309.019531 C 292.433594 311.953125 288.628906 315.421875 284.558594 318.816406 C 285.746094 319.382812 286.199219 318.515625 286.757812 318.125 C 290.152344 315.753906 293.554688 313.390625 296.855469 310.894531 C 298.230469 309.851562 299.976562 309.644531 301.292969 308.332031 C 302.414062 307.214844 303.382812 308.953125 304.84375 309.457031 C 302.480469 311.339844 300.410156 312.988281 298.34375 314.632812 C 298.472656 314.808594 298.601562 314.984375 298.730469 315.160156 Z M 186.058594 310.382812 C 187.128906 310.128906 188.195312 309.882812 189.863281 310.378906 C 188.179688 311.1875 187.117188 310.992188 186.058594 310.382812 Z M 186.460938 312.988281 C 184.929688 315.398438 182.992188 315.730469 179.761719 314.1875 C 181.796875 312.769531 183.949219 312.007812 186.460938 312.988281 Z M 185.316406 300.722656 C 187.066406 299.25 188.925781 301.269531 190.703125 300.324219 C 189.015625 301.785156 187.140625 301.082031 185.316406 300.722656 Z M 190.625 304.03125 C 190.609375 304.527344 190.292969 304.851562 189.847656 304.910156 C 189.28125 304.988281 188.644531 304.78125 188.597656 304.171875 C 188.566406 303.785156 189.15625 303.558594 189.605469 303.484375 C 190.070312 303.40625 190.488281 303.457031 190.625 304.03125 Z M 191.28125 314.132812 C 191.394531 313.683594 191.789062 313.476562 192.242188 313.46875 C 192.585938 313.460938 192.832031 313.632812 192.789062 314.109375 C 192.679688 314.527344 192.289062 314.652344 191.855469 314.636719 C 191.5625 314.625 191.179688 314.542969 191.28125 314.132812 Z M 217.25 316.589844 C 220.074219 314.484375 223.066406 314.402344 226.375 314.992188 C 229.757812 315.59375 233.21875 315.746094 236.640625 316.15625 C 237.621094 316.269531 238.664062 316.320312 239.550781 317.050781 C 238.539062 318.921875 237.046875 319.828125 234.898438 319.46875 C 230.851562 318.796875 226.71875 319.121094 222.625 318.269531 C 222.722656 319.457031 223.652344 319.132812 224.117188 319.113281 C 227.273438 318.988281 230.277344 320.316406 233.445312 320.019531 C 233.984375 319.96875 234.640625 320.007812 234.886719 320.621094 C 235.230469 321.472656 234.410156 321.746094 233.964844 322.179688 C 233.203125 322.925781 232.265625 322.589844 231.402344 322.488281 C 225.609375 321.78125 219.804688 322.191406 213.996094 322.257812 C 219.839844 322.460938 225.6875 322.585938 231.441406 323.65625 C 231.390625 324.742188 230.472656 325.148438 230.050781 325.875 C 227.085938 326.617188 224.277344 325.460938 221.410156 325.269531 C 216.050781 324.910156 210.71875 324.132812 205.324219 324.226562 C 204.8125 324.234375 204.210938 324.386719 203.628906 323.503906 C 206.320312 322.160156 208.90625 320.660156 211.648438 319.5625 C 213.648438 318.765625 215.5625 317.847656 217.25 316.589844 Z M 214.832031 298.351562 C 215.71875 296.855469 216.851562 297.605469 218.015625 297.792969 C 217.917969 298.113281 217.921875 298.238281 217.859375 298.292969 C 217.03125 299.050781 216.1875 299.839844 214.949219 299.238281 C 214.648438 299.09375 214.648438 298.660156 214.832031 298.351562 Z M 223.097656 312.292969 C 223.960938 312.152344 223.695312 312.824219 223.703125 313.289062 C 223.191406 313.226562 222.640625 313.964844 222.3125 313.453125 C 221.953125 312.894531 222.613281 312.371094 223.097656 312.292969 Z M 227.054688 310.402344 C 228.292969 308.730469 230.050781 309.28125 231.851562 309.214844 C 231.878906 311.515625 229.269531 311.542969 228.867188 313.207031 C 227.207031 314.132812 225.542969 314.804688 223.808594 313.316406 C 224.847656 312.292969 226.304688 311.730469 227.074219 310.402344 C 227.066406 310.402344 227.0625 310.402344 227.054688 310.40625 Z M 229.90625 303.394531 C 229.414062 302.765625 230.011719 302.183594 230.398438 301.671875 C 230.660156 301.324219 231.09375 300.964844 231.484375 301.289062 C 232.253906 301.929688 231.617188 302.648438 231.425781 303.332031 C 232.277344 302.386719 233.007812 301.238281 235.339844 301.359375 C 232.382812 304.015625 230.214844 306.609375 227.34375 308.472656 C 227.207031 307.125 228.25 306.429688 229.046875 305.613281 C 229.808594 304.832031 230.621094 304.105469 231.414062 303.355469 C 230.90625 303.546875 230.238281 303.820312 229.90625 303.394531 Z M 284.566406 308.433594 C 283.378906 307.925781 281.878906 308.101562 280.964844 306.921875 C 283.6875 303.898438 284.753906 303.875 289.628906 306.714844 C 288.433594 308.785156 286.714844 309.355469 284.566406 308.433594 Z M 285.65625 309.605469 C 285.464844 310.945312 284.457031 311.128906 283.5 311.378906 C 283.5 311.386719 283.5 311.390625 283.5 311.394531 C 282.199219 310.933594 280.90625 310.460938 279.597656 310.027344 C 279.039062 309.839844 278.417969 309.566406 278.515625 308.980469 C 278.628906 308.273438 279.351562 307.875 280.035156 308.019531 C 281.929688 308.425781 283.890625 308.65625 285.65625 309.605469 Z M 275.449219 305.636719 C 277.3125 302.65625 278.332031 302.402344 281.558594 304.101562 C 279.289062 307.035156 279.179688 307.0625 275.449219 305.636719 Z M 278.035156 307.554688 C 276.199219 308.558594 274.394531 308.570312 272.621094 307.59375 C 274.242188 305.652344 275.789062 307.097656 278.035156 307.554688 Z M 270.71875 304.460938 C 269.589844 303.996094 268.265625 304.503906 267.300781 303.585938 C 269.234375 300.535156 269.214844 300.601562 272.390625 301.417969 C 273.71875 301.761719 275.132812 301.78125 276.511719 301.933594 C 275.066406 305.046875 273.765625 305.710938 270.71875 304.460938 Z M 238.789062 319.699219 C 240.886719 316.019531 243.792969 317.253906 246.679688 317.605469 C 245.375 319.808594 242.742188 320.507812 238.789062 319.699219 Z M 242.714844 321.621094 C 240.453125 324.6875 237.929688 322.582031 235.488281 322.660156 C 237.214844 320.273438 238.632812 320.070312 242.714844 321.621094 Z M 241.28125 313.949219 C 241.679688 313.917969 242.234375 313.976562 242.308594 314.574219 C 242.394531 315.265625 241.871094 315.613281 241.355469 315.742188 C 240.839844 315.871094 240.246094 315.8125 239.710938 315.714844 C 236.769531 315.167969 233.816406 314.777344 230.816406 314.726562 C 229.859375 314.710938 228.65625 314.789062 228.957031 313.207031 C 230.164062 312.351562 231.859375 312.601562 232.789062 310.734375 C 233.707031 308.898438 236.503906 309.613281 237.171875 311.574219 C 239.953125 309.578125 242.742188 311.246094 245.507812 311.625 C 245.964844 311.6875 245.640625 312.296875 245.496094 312.695312 C 242.617188 314.371094 239.839844 313.015625 237.042969 312.34375 C 236.984375 312.328125 237.011719 311.957031 236.996094 311.753906 C 236.125 312.371094 234.902344 312.292969 233.753906 313.589844 C 236.605469 312.867188 238.863281 314.136719 241.28125 313.949219 Z M 246.636719 316.707031 C 245.535156 316.710938 244.449219 316.480469 243.394531 315.679688 C 245.4375 313.820312 247.332031 314.792969 249.414062 315.492188 C 248.855469 317.117188 247.609375 316.703125 246.636719 316.707031 Z M 245.605469 312.726562 C 247.9375 311.957031 250.261719 311.476562 252.578125 312.921875 C 252.300781 314.28125 251.222656 314.875 250.121094 314.566406 C 248.574219 314.132812 246.417969 314.9375 245.605469 312.726562 Z M 253.609375 316.007812 C 253.976562 316.140625 254.074219 316.550781 253.859375 316.78125 C 253.074219 317.628906 252.132812 317.542969 251.019531 317.046875 C 251.667969 315.664062 252.585938 315.636719 253.609375 316.007812 Z M 253.964844 314.996094 C 253.839844 314.894531 253.753906 314.53125 253.832031 314.421875 C 254.347656 313.703125 254.960938 313.074219 255.957031 313.191406 C 256.375 313.242188 256.78125 313.40625 257.199219 313.519531 C 257.058594 314.382812 256.707031 314.644531 256.347656 314.882812 C 255.578125 315.394531 254.777344 315.636719 253.964844 314.996094 Z M 255.019531 317.429688 C 255.117188 317.144531 255.289062 316.78125 255.535156 316.664062 C 256.847656 316.042969 258.074219 316.292969 259.335938 317.074219 C 258.1875 318.871094 256.679688 318.035156 255.328125 317.917969 C 255.203125 317.90625 254.980469 317.550781 255.019531 317.429688 Z M 256.390625 304.480469 C 254.359375 303.703125 252.242188 303.304688 250.085938 303.054688 C 249.652344 303.003906 249.207031 302.730469 249.230469 302.234375 C 249.257812 301.71875 249.769531 301.425781 250.179688 301.488281 C 252.136719 301.785156 254.097656 302.089844 256.019531 302.554688 C 257.242188 302.851562 256.136719 303.851562 256.390625 304.480469 Z M 263.109375 304.140625 C 262.523438 305.867188 261.269531 305.273438 260.265625 305.1875 C 258.96875 305.074219 257.796875 304.222656 256.421875 304.480469 C 258.558594 302.308594 260.789062 303.160156 263.109375 304.140625 Z M 263.394531 306.84375 C 264.84375 307.105469 265.0625 307.769531 263.878906 308.722656 C 263.878906 308.71875 263.878906 308.714844 263.878906 308.707031 C 262.773438 309.78125 261.261719 310.328125 260.28125 311.601562 C 259.835938 312.1875 259.109375 312.664062 258.238281 312.523438 C 257.804688 312.453125 257.289062 312.359375 257.226562 311.835938 C 257.199219 311.582031 257.40625 311.164062 257.628906 311.039062 C 259.191406 310.167969 260.285156 308.757812 261.625 307.636719 C 262.136719 307.207031 262.695312 306.714844 263.394531 306.84375 Z M 264.773438 305.105469 C 265.839844 304.214844 266.804688 304.527344 267.707031 305.398438 C 267.769531 305.460938 267.867188 305.484375 267.957031 305.515625 C 267.8125 305.601562 267.667969 305.691406 267.523438 305.785156 C 266.628906 306.359375 265.707031 306.667969 264.757812 305.929688 C 264.460938 305.699219 264.492188 305.339844 264.773438 305.105469 Z M 258.710938 316.078125 C 258.273438 315.988281 257.871094 315.847656 257.703125 315.351562 C 257.507812 314.785156 257.925781 314.511719 258.257812 314.28125 C 259.609375 313.339844 261.039062 313.675781 262.34375 315.183594 C 261.183594 315.691406 260.0625 316.351562 258.710938 316.078125 Z M 261.6875 313.128906 C 260.902344 312.789062 260.765625 312.253906 261.382812 311.601562 C 262.253906 310.679688 263.796875 310.339844 263.875 308.734375 C 265.488281 308.1875 267.027344 306.917969 269.011719 308.394531 C 267.894531 310.5625 265.382812 311.300781 263.917969 313.117188 C 263.496094 313.640625 262.429688 313.453125 261.6875 313.128906 Z M 268.636719 307.054688 C 267.851562 306.816406 267.882812 306.167969 268.0625 305.523438 C 269.371094 305.328125 270.621094 305.246094 271.582031 306.390625 C 270.765625 307.792969 269.652344 307.355469 268.636719 307.050781 Z M 260.722656 302.390625 C 260.070312 302.042969 260.128906 301.554688 260.457031 301.09375 C 259.796875 301.734375 258.859375 301.847656 258.085938 301.777344 C 255.917969 301.578125 253.71875 301.328125 251.511719 300.402344 C 252.777344 297.964844 254.539062 297.109375 257.054688 297.726562 C 258.246094 298.019531 259.464844 298.195312 260.675781 298.402344 C 261.554688 298.554688 261.710938 299.097656 261.507812 299.855469 C 262.785156 299.238281 264.128906 299.015625 265.53125 299.140625 C 266.039062 299.917969 267.246094 299.46875 267.703125 300.328125 C 265.503906 303.394531 263.699219 303.957031 260.722656 302.386719 Z M 259.976562 297.761719 C 256.734375 296.667969 253.332031 296.753906 250.03125 296.152344 C 250.035156 296.140625 250.042969 296.132812 250.046875 296.121094 C 251.734375 294.914062 253.597656 294.789062 255.601562 295.183594 C 258.085938 295.675781 260.589844 296.058594 263.089844 296.4375 C 263.992188 296.574219 264.515625 296.875 264.179688 297.839844 C 262.769531 298.246094 261.292969 298.203125 259.976562 297.761719 Z M 252.628906 297.402344 C 249.824219 300.671875 249.804688 300.679688 246.835938 299.53125 C 247.210938 297.761719 249.390625 297.683594 250.027344 296.160156 C 250.882812 296.566406 251.734375 296.976562 252.628906 297.402344 Z M 247.753906 301.269531 C 246.898438 302.019531 245.679688 302.058594 244.109375 301.390625 C 245.578125 300.136719 246.636719 300.667969 247.753906 301.269531 Z M 245.148438 305.132812 C 247.753906 302.304688 250.671875 304.21875 253.40625 304.75 C 254.460938 304.953125 253.992188 306.171875 253.46875 306.945312 C 255.542969 304.4375 257.945312 305.320312 260.625 306.328125 C 259.089844 308.65625 256.703125 309.914062 254.71875 311.460938 C 253.507812 312.410156 251.53125 311.425781 249.984375 310.941406 C 249.449219 310.777344 249.675781 310 250.199219 309.613281 C 247.394531 311.433594 244.472656 310.082031 241.621094 309.835938 C 240.453125 309.734375 240.796875 308.832031 241.496094 308.21875 C 239.960938 308.898438 238.429688 309.523438 236.675781 309.332031 C 235.738281 309.230469 235.277344 308.828125 235.324219 307.90625 C 237.066406 307.027344 238.648438 305.925781 240.042969 304.539062 C 240.734375 303.847656 241.519531 303.144531 242.398438 302.761719 C 244.183594 301.976562 245.191406 302.910156 245.148438 305.132812 Z M 238.207031 300.617188 C 239.1875 299.675781 240.058594 299.527344 241.109375 300.316406 C 240.355469 300.882812 239.390625 300.984375 238.207031 300.617188 Z M 239.535156 302.132812 C 238.914062 304.765625 235.796875 305.394531 235.257812 307.878906 C 233.652344 308.671875 232.007812 309.070312 229.910156 308.265625 C 231.800781 305.765625 234.140625 303.953125 236.3125 302.015625 C 237.167969 301.253906 238.375 301.652344 239.535156 302.132812 Z M 203.679688 305.003906 C 203.484375 304.917969 203.128906 304.785156 203.132812 304.761719 C 203.269531 304.296875 203.59375 304.007812 204.089844 304.050781 C 204.265625 304.0625 204.554688 304.261719 204.570312 304.402344 C 204.65625 305.128906 204.054688 304.917969 203.679688 305.003906 Z M 203.480469 307.007812 C 202.101562 308.78125 200.78125 308.855469 198.957031 307.601562 C 200.523438 307.117188 201.746094 306.363281 203.480469 307.007812 Z M 195.75 304.820312 C 196.722656 304.09375 197.863281 303.828125 199.171875 304.023438 C 198.230469 305.816406 196.921875 304.917969 195.75 304.820312 Z M 197.921875 301.234375 C 200.101562 299.476562 202.164062 300.496094 204.339844 300.523438 C 202.789062 301.71875 200.652344 301.957031 197.921875 301.234375 Z M 196.140625 298.832031 C 197.421875 297.398438 198.925781 296.910156 200.660156 297.363281 C 199.5625 299.007812 197.925781 298.035156 196.140625 298.832031 Z M 196.222656 300.332031 C 195.335938 301.429688 194.65625 302.144531 193.550781 301.367188 C 193.414062 301.273438 193.324219 300.972656 193.359375 300.800781 C 193.472656 300.296875 194.042969 300.203125 196.222656 300.332031 Z M 194.21875 303.753906 C 194.382812 303.824219 194.695312 303.882812 194.703125 303.972656 C 194.785156 304.660156 194.242188 304.835938 193.742188 304.96875 C 193.574219 305.011719 193.1875 304.835938 193.191406 304.804688 C 193.28125 304.230469 193.644531 303.886719 194.21875 303.753906 Z M 301.433594 283.339844 C 301.792969 283.085938 301.980469 283.378906 302.144531 283.65625 C 302.273438 284.097656 301.96875 284.1875 301.65625 284.238281 C 301.34375 284.289062 300.9375 284.304688 300.867188 283.96875 C 300.835938 283.800781 301.195312 283.503906 301.433594 283.339844 Z M 293.214844 306.359375 C 295.316406 303.941406 296.007812 303.996094 300.296875 307.039062 C 297.71875 308.777344 297.335938 308.726562 293.214844 306.359375 Z M 300.035156 290.894531 C 297.660156 291.566406 296.007812 290.128906 294.273438 288.882812 C 296.410156 288.824219 298.242188 289.777344 300.035156 290.894531 Z M 296.804688 273.4375 C 294.832031 272.535156 292.558594 268.820312 289.507812 261.355469 C 292.632812 264.832031 294.757812 268.964844 296.804688 273.4375 Z M 285.078125 264.160156 C 285.296875 264.386719 285.597656 264.574219 285.699219 264.839844 C 285.878906 265.3125 286.179688 265.832031 285.738281 266.332031 C 285.710938 266.363281 285.480469 266.292969 285.453125 266.226562 C 285.226562 265.636719 285.019531 265.042969 284.828125 264.4375 C 284.8125 264.390625 284.960938 264.289062 285.078125 264.160156 Z M 278.210938 253.988281 C 277.019531 252.722656 276.082031 251.347656 275.972656 248.941406 C 277.707031 250.667969 278.058594 252.285156 278.210938 253.988281 Z M 275.441406 245.328125 C 275.144531 245.15625 275.035156 244.820312 275.167969 244.476562 C 275.269531 244.21875 275.472656 244.148438 275.703125 244.273438 C 275.988281 244.433594 276.257812 244.613281 276.136719 245.109375 C 276.035156 245.347656 275.757812 245.507812 275.441406 245.328125 Z M 253.472656 113.976562 C 253.882812 114.558594 254.097656 115.308594 253.308594 115.558594 C 252.660156 115.761719 252.65625 114.902344 252.511719 114.433594 C 252.417969 114.132812 252.351562 113.792969 252.679688 113.554688 C 253.050781 113.488281 253.28125 113.710938 253.472656 113.976562 Z M 250.042969 94.777344 C 252.5 99.699219 253.277344 102.851562 252.402344 105.6875 C 249.609375 100.867188 248.660156 95.882812 246.507812 91.414062 C 245.941406 91.613281 246.277344 92.324219 245.890625 92.492188 C 245.285156 92.757812 245.097656 92.132812 244.992188 91.773438 C 244.417969 89.863281 243.820312 87.960938 242.761719 86.058594 C 244.648438 86.703125 248.167969 91.015625 250.042969 94.773438 Z M 245.722656 96.679688 C 245.277344 95.859375 244.667969 95.449219 245.0625 94.710938 C 245.558594 95.132812 245.902344 95.597656 245.722656 96.679688 Z M 242.925781 92.96875 C 240.339844 90.804688 239.828125 88.277344 239.214844 85.015625 C 241.5625 87.480469 242.742188 89.699219 242.925781 92.96875 Z M 233.644531 77.613281 C 236.382812 80.25 237.789062 83.324219 238.667969 87.394531 C 236.199219 85.6875 234.722656 83.671875 233.160156 81.761719 C 232.671875 81.167969 232.433594 80.429688 231.640625 80.042969 C 229.015625 78.765625 228.308594 76.378906 228.355469 73.632812 C 229.457031 75.964844 232.039062 76.070312 233.644531 77.613281 Z M 231.488281 88.117188 C 231.648438 89.054688 230.90625 88.460938 230.476562 88.289062 C 229.773438 86.101562 227.714844 84.589844 227.164062 81.902344 C 229.832031 83.453125 231.058594 85.601562 231.488281 88.117188 Z M 228.53125 80.484375 C 226.722656 79.210938 225.585938 77.9375 225.09375 76.097656 C 226.816406 76.921875 228.359375 77.914062 228.53125 80.484375 Z M 226.683594 75.304688 C 224.757812 74.820312 223.917969 72.554688 221.855469 72.480469 C 220.328125 72.019531 219.527344 70.96875 219.136719 69.410156 C 223.621094 69.726562 226.285156 71.808594 226.683594 75.304688 Z M 223.277344 74.277344 C 221.652344 74.476562 222.207031 73.1875 221.886719 72.539062 C 222.332031 73.09375 222.777344 73.652344 223.277344 74.277344 Z M 218.230469 69.929688 C 217.304688 70.613281 216.679688 69.351562 215.871094 69.628906 C 215.820312 68.96875 214.828125 68.996094 214.769531 68.199219 C 216.464844 67.730469 217.925781 67.570312 218.230469 69.929688 Z M 173.671875 60.964844 C 174.144531 57.730469 175.277344 54.667969 176.054688 51.527344 C 176.742188 48.761719 178.605469 46.28125 181.09375 44.617188 C 182.675781 43.558594 184.453125 42.992188 186.519531 43.417969 C 188.839844 43.898438 191.132812 44.957031 193.644531 43.734375 C 194.585938 43.277344 196.570312 45.289062 197.21875 46.714844 C 198.351562 49.214844 198.578125 51.851562 198.691406 54.535156 C 198.742188 55.816406 198.449219 57.242188 199.972656 58.605469 C 200.589844 56.582031 199.488281 54.703125 200.535156 53.03125 C 202.929688 55.617188 202.183594 59.734375 199.164062 60.925781 C 197.679688 61.507812 196.492188 61.039062 196.109375 59.398438 C 195.550781 57.03125 194.171875 55.128906 192.96875 53.117188 C 192.363281 52.105469 191.464844 51.515625 190.277344 51.285156 C 186.363281 50.515625 182.273438 52.578125 180.617188 56.175781 C 179.816406 57.914062 179.109375 59.640625 178.929688 61.597656 C 178.742188 63.632812 176.78125 64.929688 174.851562 64.292969 C 173.238281 63.757812 173.460938 62.414062 173.671875 60.960938 Z M 191.300781 56.554688 C 192.203125 58.320312 193.238281 60.03125 193.910156 62.476562 C 190.316406 62.097656 187.238281 61.953125 184.171875 62.761719 C 182.535156 63.191406 181.957031 62.5625 181.898438 60.835938 C 181.777344 57.179688 185.515625 53.824219 189.152344 53.304688 C 190.503906 53.109375 190.945312 53.753906 190.746094 55.472656 C 190.675781 56.066406 191.117188 56.199219 191.300781 56.554688 Z M 126.128906 110.519531 C 126.234375 106.226562 126.667969 102.042969 129.191406 98.304688 C 130.292969 96.671875 130.539062 94.382812 131.816406 92.964844 C 135.621094 88.734375 139.105469 84.203125 143.925781 80.90625 C 149.53125 77.074219 155.316406 73.707031 161.773438 71.558594 C 162.917969 71.175781 163.988281 70.53125 165.355469 71.003906 C 159.765625 74.152344 153.855469 76.652344 148.503906 80.277344 C 152.042969 78.753906 155.585938 77.238281 159.121094 75.714844 C 164.800781 73.269531 170.558594 71.046875 176.421875 69.078125 C 181.558594 67.355469 186.835938 66.371094 192.152344 65.484375 C 192.472656 65.429688 192.914062 65.25 193.109375 65.390625 C 195.738281 67.300781 198.683594 66.125 201.484375 66.320312 C 204.136719 66.507812 206.777344 66.832031 209.421875 67.113281 C 209.632812 67.132812 209.824219 67.308594 210.03125 67.394531 C 210.976562 67.789062 212.027344 66.308594 212.828125 67.386719 C 213.605469 68.433594 213.09375 69.785156 213.179688 70.996094 C 213.308594 72.785156 213.566406 74.582031 213.484375 76.363281 C 213.265625 81.132812 213.300781 81.777344 215.453125 85.984375 C 215.984375 87.027344 215.441406 88.5625 217.085938 89.261719 C 217.488281 87.777344 216.453125 86.679688 216.09375 85.539062 C 214.578125 80.765625 214.9375 75.757812 213.964844 70.929688 C 213.546875 68.875 215.066406 69.910156 215.863281 69.800781 C 217.0625 71.164062 218.089844 72.769531 219.539062 73.738281 C 221.246094 74.878906 222.382812 76.421875 223.078125 78.097656 C 224.417969 81.324219 227.296875 83.539062 228.464844 86.832031 C 228.777344 87.714844 229.523438 88.1875 230.445312 88.351562 C 232.449219 91.894531 234.453125 95.445312 236.460938 98.996094 C 236.261719 96.992188 235.359375 95.246094 234.570312 93.4375 C 234.054688 92.257812 233.550781 90.992188 233.53125 89.527344 C 235.667969 90.292969 235.886719 92.648438 237.71875 93.714844 C 237.578125 91.871094 236.578125 90.5 235.949219 89 C 235.421875 89.367188 234.871094 89.375 234.480469 88.859375 C 232.875 86.753906 231.125 84.714844 230.738281 81.503906 C 232.359375 82.207031 233.078125 83.335938 233.722656 84.5625 C 234.308594 85.679688 234.910156 86.785156 235.503906 87.898438 C 235.34375 87.542969 235.371094 87.179688 235.617188 86.800781 C 236.777344 87.125 237.234375 88.253906 238.046875 88.984375 C 239.675781 90.445312 240.011719 93.039062 241.480469 94.199219 C 243.164062 95.53125 243.859375 97.269531 245.105469 98.671875 C 246.613281 100.367188 247.675781 102.414062 249.371094 103.925781 C 249.972656 104.46875 250.507812 104.992188 250.460938 105.871094 C 248.128906 107.097656 245.777344 106.964844 243.390625 106.097656 C 242.777344 105.875 242.203125 105.410156 241.484375 105.636719 C 239.265625 106.34375 238.28125 104.882812 237.332031 103.355469 C 237.089844 102.359375 236.847656 101.363281 236.601562 100.367188 C 236.375 101.480469 235.996094 102.628906 237.265625 103.375 C 237.195312 104.445312 236.589844 104.960938 235.53125 104.617188 C 231.902344 103.445312 228.144531 102.914062 224.390625 102.402344 C 213.207031 100.878906 202.140625 98.382812 190.769531 98.398438 C 181.738281 98.410156 172.847656 99.539062 164.066406 101.582031 C 162.117188 102.035156 160.167969 102.460938 158.09375 101.953125 C 163.605469 99.289062 169.636719 98.296875 175.347656 96.296875 C 167.890625 97.328125 160.589844 99.039062 153.5 101.554688 C 149.6875 102.90625 145.773438 103.910156 141.984375 105.335938 C 138.835938 106.519531 135.507812 107.191406 132.074219 106.917969 C 131.414062 106.867188 130.578125 106.761719 130.53125 107.703125 C 130.488281 108.523438 131.21875 108.761719 131.925781 108.851562 C 132.472656 108.921875 133.023438 108.980469 134.101562 109.105469 C 131.65625 111.019531 129.171875 111.734375 126.921875 112.683594 C 125.808594 112.132812 126.113281 111.230469 126.128906 110.519531 Z M 247.285156 111.960938 C 243.464844 110.382812 239.648438 108.804688 235.832031 107.226562 C 235.917969 107.007812 236.003906 106.792969 236.089844 106.574219 C 239.972656 107.996094 244.351562 108.175781 247.285156 111.960938 Z M 234.011719 105.976562 C 233.921875 106.128906 233.773438 106.425781 233.746094 106.414062 C 233.453125 106.296875 233.101562 106.199219 232.917969 105.96875 C 232.585938 105.558594 232.9375 105.414062 233.289062 105.410156 C 233.652344 105.40625 233.875 105.652344 234.011719 105.976562 Z M 224.308594 107.171875 C 222.425781 107.367188 220.625 107.1875 218.761719 106.832031 C 213.824219 105.875 208.824219 105.242188 203.847656 104.484375 C 203.625 104.453125 203.367188 104.542969 203.175781 104.464844 C 199.210938 102.800781 195 102.441406 190.757812 102.011719 C 202.246094 101.738281 213.3125 104.234375 224.308594 107.171875 Z M 100.488281 235.832031 C 100.777344 237.894531 100.339844 238.75 97.457031 241.730469 C 97.402344 239.992188 98.050781 238.726562 100.488281 235.832031 Z M 254.128906 234.023438 C 247.410156 234.035156 240.917969 232.140625 234.234375 231.730469 C 223.566406 231.078125 212.894531 230.925781 202.210938 230.941406 C 201.214844 230.941406 200.160156 231.191406 199.234375 230.703125 C 198.714844 230.429688 200.691406 229.878906 199.226562 229.535156 C 198.710938 229.414062 198.117188 229.605469 197.558594 229.664062 C 192.972656 230.117188 188.394531 230.65625 183.800781 231.007812 C 172.601562 231.867188 161.371094 232.289062 150.195312 233.4375 C 148.886719 233.570312 147.589844 233.796875 146.289062 233.980469 C 146.300781 234.023438 146.308594 234.066406 146.320312 234.109375 L 159.863281 234.109375 C 159.390625 235.148438 158.316406 234.847656 157.53125 234.976562 C 153.4375 235.648438 149.425781 236.824219 145.347656 237.410156 C 140.113281 238.164062 135.074219 239.6875 129.949219 240.820312 C 128.375 241.167969 128.039062 239.503906 126.71875 239.90625 C 125.53125 240.265625 125.800781 241.75 124.269531 242.070312 C 119.492188 243.078125 119.535156 243.265625 118.316406 238.429688 C 118.273438 238.257812 118.070312 238.125 117.832031 237.847656 C 116.863281 238.464844 117.617188 239.148438 117.722656 239.789062 C 118.175781 242.660156 117.140625 244.003906 114.296875 244.269531 C 114.1875 244.28125 114.074219 244.210938 113.964844 244.222656 C 111.324219 244.449219 110.125 243.292969 110.371094 240.75 C 109.78125 240.019531 108.835938 240.476562 108.1875 240.125 C 106.390625 239.152344 105.070312 239.324219 104.25 241.363281 C 104.132812 241.652344 103.800781 242.054688 103.5625 242.0625 C 101.402344 242.105469 101.609375 243.53125 101.523438 245.0625 C 101.402344 247.132812 99.976562 248.082031 96.992188 248.285156 C 98.679688 245.929688 99.167969 242.992188 101.957031 241.652344 C 102.476562 241.402344 102.851562 240.972656 102.941406 240.363281 C 103.375 237.375 105.050781 234.953125 106.566406 232.457031 C 106.917969 231.882812 107.179688 231.300781 106.710938 230.652344 C 105.304688 230.925781 105.542969 232.910156 104.058594 233.050781 C 103.5625 231.804688 104.132812 230.832031 104.878906 229.972656 C 106.652344 227.925781 107.148438 225.433594 107.546875 222.867188 C 108.597656 216.109375 109.0625 209.167969 110.949219 202.644531 C 113.8125 192.75 115.191406 182.679688 116.183594 172.53125 C 116.738281 166.863281 117.417969 161.152344 116.816406 155.402344 C 116.78125 159.449219 115.402344 163.320312 115.527344 167.386719 C 114.507812 161.019531 115.554688 154.8125 116.867188 148.660156 C 117.460938 149.636719 116.488281 150.878906 117.488281 151.921875 C 119.6875 148.859375 120.789062 145.355469 121.191406 141.574219 C 121.980469 134.199219 123.308594 126.90625 124.375 119.570312 C 124.625 117.855469 125.34375 116.769531 126.820312 115.847656 C 131.625 112.84375 136.636719 110.460938 142.195312 109.152344 C 153.597656 106.46875 165.042969 104.253906 176.824219 104.46875 C 180.304688 104.535156 183.773438 104.746094 187.246094 105.101562 C 194.722656 105.871094 202.1875 106.804688 209.71875 107.019531 C 211.273438 107.0625 212.871094 107.242188 214.367188 107.648438 C 217.628906 108.542969 220.972656 108.472656 224.285156 108.785156 C 225.371094 108.886719 226.128906 109.457031 227.007812 109.945312 C 227.808594 110.390625 228.792969 110.65625 228.632812 109.003906 C 228.511719 107.796875 229.511719 108.152344 229.988281 108.382812 C 231.710938 109.222656 233.578125 109.570312 235.359375 110.183594 C 238.96875 111.417969 242.695312 112.160156 246.359375 113.15625 C 249.019531 113.878906 250.925781 115.019531 251.898438 117.84375 C 254.792969 126.222656 257.175781 134.644531 257.488281 143.625 C 257.785156 152.257812 258.4375 160.871094 260.425781 169.367188 C 262.0625 176.359375 263.03125 183.511719 264.183594 190.609375 C 264.941406 195.28125 265.9375 199.878906 267.265625 204.421875 C 268.007812 206.953125 269.21875 209.347656 268.722656 212.25 C 268.5 213.578125 269.691406 215.160156 270.261719 216.617188 C 272.148438 221.425781 274.078125 226.21875 275.917969 231.042969 C 276.875 233.5625 276.347656 235.050781 274.175781 236.886719 C 273.433594 237.515625 273.054688 236.894531 272.453125 236.621094 C 271.316406 236.097656 272.21875 237.222656 271.890625 237.519531 C 271.273438 238.078125 270.671875 237.964844 270.023438 237.839844 C 269.140625 237.667969 268.25 237.507812 267.386719 237.261719 C 263.007812 236.007812 258.363281 235.859375 254.128906 234.019531 Z M 272.902344 241.632812 C 272.871094 241.835938 272.753906 242.125 272.601562 242.191406 C 271.761719 242.546875 271.453125 241.78125 271 241.351562 C 270.699219 241.066406 270.207031 240.878906 270.34375 240.289062 C 270.789062 239.742188 271.328125 239.992188 271.828125 240.179688 C 272.484375 240.425781 273.03125 240.804688 272.902344 241.632812 Z M 268.738281 244.796875 C 268.273438 243.964844 267.515625 243.132812 268.039062 241.988281 C 269.839844 241.6875 270.285156 243.113281 270.875 244.25 C 275.234375 252.628906 279.546875 261.035156 283.914062 269.414062 C 285.878906 273.191406 287.933594 276.921875 290.222656 280.566406 C 289.429688 276.355469 287.371094 272.53125 286.339844 268.070312 C 287.996094 268.628906 288.644531 269.734375 288.925781 270.65625 C 289.902344 273.867188 291.890625 276.484375 293.617188 279.242188 C 294.003906 279.855469 294.074219 281.765625 295.824219 280.582031 C 296.027344 280.445312 296.515625 281.109375 296.5 281.570312 C 296.4375 283.117188 296.726562 284.601562 297.476562 285.96875 C 296.601562 286.257812 295.949219 286.09375 295.679688 285.664062 C 294.675781 284.0625 292.90625 283.90625 291.558594 284.148438 C 289.414062 284.527344 288.734375 283.410156 288.015625 281.917969 C 281.964844 269.347656 275.570312 256.960938 268.738281 244.796875 Z M 293.546875 303.625 C 291.078125 306.367188 290.167969 306.3125 284.332031 303.265625 C 287.9375 300.613281 290.457031 303.441406 293.546875 303.625 Z M 284.652344 301.5 C 283.09375 303.320312 281.453125 303.550781 280.042969 302.09375 C 279.710938 301.753906 280.039062 301.351562 280.339844 301.039062 C 281.882812 300.132812 283.265625 300.683594 284.652344 301.5 Z M 269.019531 287.210938 C 269.96875 286.539062 270.875 286.636719 271.894531 287.457031 C 271.164062 288.484375 270.25 288.59375 269.398438 288.785156 C 268.921875 288.890625 268.472656 288.6875 268.339844 288.199219 C 268.191406 287.671875 268.667969 287.457031 269.019531 287.210938 Z M 268.101562 291.835938 C 268.277344 291.800781 268.488281 291.957031 268.703125 292.035156 C 268.242188 292.457031 267.378906 292.378906 267.320312 292.144531 C 267.171875 291.53125 267.8125 291.890625 268.101562 291.835938 Z M 267.601562 297.152344 C 271.300781 297.941406 274.988281 298.769531 278.679688 299.585938 C 279.46875 299.761719 280.085938 300.144531 280.265625 300.996094 C 279.027344 301.28125 277.789062 301.566406 276.550781 301.851562 C 276.546875 301.859375 276.542969 301.863281 276.539062 301.871094 C 275.511719 301.183594 274.503906 300.433594 273.152344 300.511719 C 273.042969 300.519531 272.917969 300.464844 272.828125 300.5 C 271.335938 301.109375 271.691406 297.746094 269.664062 299.117188 C 268.445312 299.941406 266.910156 299.007812 265.507812 299.054688 C 265.085938 298.648438 264.667969 298.246094 264.253906 297.839844 C 265.230469 297.007812 266.394531 296.890625 267.601562 297.152344 Z M 266.527344 281.589844 C 264.953125 282.988281 262.992188 283.230469 260.640625 282.308594 C 262.890625 282.035156 264.46875 281.839844 266.527344 281.589844 Z M 260.546875 284.863281 C 258.316406 286.503906 256.007812 286.558594 253.476562 286.203125 C 255.457031 283.53125 256.578125 283.320312 260.546875 284.863281 Z M 254.089844 280.460938 C 254.339844 280.449219 254.832031 280.382812 254.527344 280.882812 C 254.3125 281.246094 253.898438 281.441406 253.425781 281.378906 C 253.296875 281.265625 253.035156 281.089844 253.058594 281.035156 C 253.238281 280.589844 253.664062 280.480469 254.089844 280.460938 Z M 248.3125 296.292969 C 246.652344 298.941406 244.273438 300.113281 241.257812 299.183594 C 239.832031 298.746094 238.527344 298.757812 236.796875 299.261719 C 237.355469 297.359375 238.65625 296.707031 239.820312 296.015625 C 240.496094 295.617188 241.214844 295.371094 241.273438 294.46875 C 244.292969 293.699219 247.285156 293.675781 250.292969 294.507812 C 250.113281 295.972656 249.007812 295.867188 248.3125 296.292969 Z M 249.773438 277.132812 C 248.566406 279.160156 246.902344 279.125 244.589844 278.683594 C 246.363281 276.972656 247.875 276.707031 249.773438 277.132812 Z M 249.191406 282.710938 C 247.21875 285.070312 246.433594 285.300781 243.230469 284.570312 C 244.867188 282.648438 246.855469 282.65625 249.191406 282.710938 Z M 242.15625 282.628906 C 241.226562 283.863281 240.304688 284.855469 238.570312 284.304688 C 239.320312 282.851562 240.515625 282.292969 242.15625 282.628906 Z M 240.777344 276.136719 C 239.074219 277.1875 237.425781 277.335938 235.679688 275.695312 C 237.59375 275.007812 239.179688 275.507812 240.777344 276.136719 Z M 235.394531 277.996094 C 236.148438 277.390625 236.925781 277.359375 237.699219 277.953125 C 237.667969 278.109375 237.683594 278.25 237.621094 278.320312 C 236.917969 279.078125 236.117188 279.074219 235.300781 278.542969 C 235.234375 278.5 235.28125 278.089844 235.398438 277.996094 Z M 232.308594 297.929688 C 233.039062 296.542969 232.429688 294.613281 234.304688 293.65625 C 236.574219 292.492188 238.847656 293.1875 241.117188 293.347656 C 241.503906 293.375 241.4375 293.996094 241.234375 294.414062 C 239.433594 294.996094 237.898438 295.917969 236.59375 297.363281 C 235.507812 298.566406 234.21875 299.777344 232.226562 298.898438 C 232.25 298.539062 232.175781 298.179688 232.308594 297.929688 Z M 230.742188 275.320312 C 230.796875 274.953125 231.191406 274.96875 231.503906 274.957031 C 231.792969 275.019531 232.21875 274.96875 232.109375 275.449219 C 232.03125 275.792969 231.714844 275.945312 231.363281 275.925781 C 230.996094 275.902344 230.691406 275.6875 230.742188 275.320312 Z M 229.910156 280.828125 C 230.667969 280.914062 232.035156 280.492188 232.046875 281.707031 C 232.054688 282.652344 231.207031 283.589844 230.019531 283.5625 C 229.054688 283.539062 228.09375 283.285156 226.730469 283.070312 C 227.710938 281.628906 228.527344 280.664062 229.910156 280.828125 Z M 229.476562 277.363281 C 228.644531 278.660156 227.640625 279.128906 226.039062 278.582031 C 227.035156 277.078125 227.996094 276.636719 229.476562 277.363281 Z M 227.238281 308.65625 C 227.152344 309.242188 227.066406 309.828125 226.980469 310.417969 C 226.214844 310.546875 225.535156 311.136719 224.640625 310.878906 C 224.867188 309.320312 225.992188 308.914062 227.238281 308.652344 Z M 224.164062 277.34375 C 222.277344 278.757812 221.035156 277.320312 219.785156 277.652344 C 221.042969 276.359375 222.289062 276.921875 224.164062 277.34375 Z M 220.351562 280.46875 C 219.054688 283.164062 218.292969 283.398438 213.714844 282.523438 C 215.605469 280.378906 216.476562 280.109375 220.351562 280.46875 Z M 213.886719 303.828125 C 214.191406 303.8125 214.550781 303.875 214.480469 304.226562 C 214.441406 304.441406 214.09375 304.640625 213.84375 304.746094 C 213.738281 304.789062 213.417969 304.59375 213.382812 304.457031 C 213.28125 304.082031 213.59375 303.945312 213.886719 303.828125 Z M 212.3125 284.414062 C 212.742188 284.414062 213.207031 284.5 213.25 285.128906 C 213.023438 286.058594 212.265625 286.160156 211.480469 286.171875 C 210.902344 286.175781 210.171875 285.941406 210.363281 285.332031 C 210.613281 284.539062 211.527344 284.414062 212.3125 284.414062 Z M 210.535156 276.414062 C 209.433594 277.625 208.378906 278.21875 206.449219 277.945312 C 207.679688 276.46875 208.796875 276.035156 210.535156 276.414062 Z M 207.210938 298.339844 C 207.097656 299.328125 205.914062 299.828125 205.527344 299.285156 C 204.398438 297.707031 203.183594 299.027344 201.605469 299.039062 C 202.875 297.019531 204.496094 297.421875 205.875 297.222656 C 206.5625 297.125 207.308594 297.488281 207.210938 298.339844 Z M 204.972656 281.226562 C 205.085938 281.246094 205.15625 281.546875 205.25 281.726562 C 204.921875 282.289062 204.378906 282.300781 203.832031 282.230469 C 203.550781 282.199219 203.417969 281.992188 203.546875 281.816406 C 203.890625 281.332031 204.398438 281.140625 204.972656 281.226562 Z M 200.578125 277.1875 C 201.582031 275.851562 202.914062 275.832031 204.425781 276.265625 C 202.972656 278.128906 201.71875 278.699219 200.75 278.027344 C 200.390625 277.78125 200.402344 277.417969 200.578125 277.1875 Z M 200.117188 284.457031 C 200.320312 284.625 200.601562 284.769531 200.734375 285 C 200.84375 285.1875 200.621094 285.390625 200.394531 285.292969 C 200.128906 285.179688 199.90625 284.964844 199.664062 284.792969 C 199.792969 284.695312 199.921875 284.601562 200.117188 284.457031 Z M 195.402344 294.082031 C 196.695312 294.023438 197.949219 293.003906 199.484375 294.039062 C 197.9375 294.714844 196.632812 294.3125 195.402344 294.082031 Z M 194.914062 280.71875 C 195.703125 279.964844 196.953125 279.703125 198.65625 279.933594 C 197.3125 280.3125 196.261719 281 194.914062 280.71875 Z M 194.28125 275.46875 C 195.332031 275.242188 196.433594 274.90625 197.753906 276.039062 C 196.492188 276.511719 195.59375 276.878906 194.675781 277.1875 C 194.0625 277.390625 193.25 277.679688 193.050781 276.773438 C 192.882812 276 193.632812 275.609375 194.28125 275.46875 Z M 195.492188 296.722656 C 193.46875 300.058594 191.417969 296.765625 189.570312 297.5 C 191.289062 296.039062 193.214844 296.519531 195.492188 296.722656 Z M 187.015625 294.335938 C 186.238281 294.253906 185.460938 294.144531 184.683594 294.058594 C 184.242188 294.007812 183.738281 293.941406 183.613281 294.519531 C 183.46875 295.171875 183.808594 295.574219 184.449219 295.722656 C 185.382812 295.9375 186.425781 295.476562 187.285156 296.132812 C 187.253906 297.054688 186.554688 297.382812 185.957031 297.519531 C 184.652344 297.820312 183.511719 297.933594 183.207031 299.71875 C 183.011719 300.855469 181.765625 301.234375 180.460938 301.039062 C 178.6875 300.773438 176.890625 300.671875 175.101562 300.542969 C 174.363281 300.488281 173.6875 300.828125 173.597656 301.578125 C 173.484375 302.535156 174.34375 302.496094 174.992188 302.585938 C 176.300781 302.773438 177.609375 302.949219 178.890625 303.125 C 179.089844 304.414062 177.636719 304.71875 177.527344 306.34375 C 180.207031 303.527344 183.082031 302.476562 186.628906 303.511719 C 186.324219 304.925781 185.195312 304.875 184.128906 304.910156 C 182.558594 304.960938 181.222656 305.023438 181.550781 307.351562 C 181.683594 308.269531 180.738281 309.34375 180.25 310.414062 C 180.746094 310.878906 180.933594 310.042969 181.324219 309.929688 C 181.871094 309.777344 182.378906 309.558594 183.074219 310.101562 C 181.601562 311.183594 180.976562 312.914062 179.734375 314.175781 C 179.410156 314.335938 179.113281 314.5 178.796875 314.613281 C 178.054688 314.875 177.152344 315.050781 177.328125 316.105469 C 177.472656 316.945312 178.34375 316.824219 178.957031 316.996094 C 181.609375 317.742188 184.378906 317.351562 187.109375 317.828125 C 184.726562 319.316406 181.71875 318.078125 179.28125 319.707031 C 180.257812 321.429688 182 320.363281 183.234375 320.980469 C 183.261719 322.113281 182.15625 322.378906 181.632812 322.261719 C 179.484375 321.785156 177.464844 322.753906 175.351562 322.574219 C 174.136719 322.472656 173.089844 322.570312 172.015625 321.550781 C 170.945312 320.535156 169.289062 320.71875 167.824219 321.15625 C 166.808594 321.457031 165.796875 321.746094 165.515625 320.195312 C 165.464844 319.914062 165.148438 319.445312 164.972656 319.457031 C 163.445312 319.527344 161.925781 318.546875 160.703125 318.679688 C 158.933594 318.871094 157.632812 318.40625 156.300781 317.625 C 153.878906 316.207031 152.015625 314.179688 150.113281 312.121094 C 148.78125 310.675781 147.578125 308.992188 146.046875 307.832031 C 143.214844 305.691406 141.546875 302.550781 138.910156 300.273438 C 137.410156 298.972656 137.878906 297.984375 140.339844 296.78125 C 139.582031 296.382812 138.460938 297.121094 137.882812 295.859375 C 139.917969 293.925781 142.644531 294.238281 145.070312 294.011719 C 149.964844 293.554688 154.894531 293.492188 159.898438 293.261719 C 159.730469 294.480469 158.875 294.394531 158.171875 294.480469 C 156.054688 294.742188 153.9375 295.007812 151.816406 295.203125 C 151.089844 295.269531 150.535156 295.511719 150.082031 296.054688 L 150.078125 296.0625 C 154.679688 295.082031 159.378906 294.984375 164.039062 294.507812 C 170.050781 293.890625 176.085938 293.511719 182.109375 293 C 184.585938 292.789062 186.992188 293 189.730469 293.867188 C 188.640625 294.464844 187.832031 294.421875 187.019531 294.335938 Z M 157.5625 283.445312 C 158.101562 282.382812 158.902344 281.578125 160.472656 281.109375 C 159.878906 282.703125 158.75 283.074219 157.5625 283.445312 Z M 179.597656 281.871094 C 180.871094 279.984375 182.488281 280.410156 184.472656 280.300781 C 182.96875 282.042969 181.574219 282.382812 179.597656 281.871094 Z M 175.527344 278.929688 C 179.230469 274.898438 184.074219 275.21875 189.015625 275.257812 C 187.695312 276.949219 185.015625 278.679688 182.457031 278.335938 C 179.886719 277.988281 178.085938 280.761719 175.371094 279.394531 C 175.457031 279.125 175.464844 279 175.527344 278.929688 Z M 172.515625 280.796875 C 173.675781 280.03125 174.898438 280.121094 176.65625 280.453125 C 175.394531 281.746094 174.589844 282.753906 173.167969 282.796875 C 172.648438 282.8125 172.015625 282.617188 171.789062 282.074219 C 171.527344 281.453125 172.085938 281.078125 172.515625 280.796875 Z M 164.640625 283.78125 C 165.683594 281.402344 167.566406 281.386719 169.203125 280.121094 C 168.355469 282.394531 167.171875 283.414062 164.640625 283.78125 Z M 166.890625 277.460938 C 166.886719 278.386719 166.472656 278.796875 165.710938 278.769531 C 166.105469 278.332031 166.5 277.898438 166.890625 277.460938 Z M 165.589844 278.851562 C 165.644531 279.890625 164.714844 280.039062 163.730469 280.648438 C 164.21875 279.550781 164.765625 279.054688 165.589844 278.851562 Z M 153.304688 279.21875 C 153.863281 277.351562 155.855469 276.519531 157.433594 275.507812 C 157.964844 275.167969 158.945312 275.28125 159.292969 275.808594 C 159.855469 276.671875 160.820312 276.507812 161.976562 277.082031 C 157.464844 280.429688 153.707031 283.960938 148.007812 284.777344 C 148.757812 283.144531 149.980469 282.269531 151.222656 281.492188 C 152.152344 280.910156 152.914062 280.523438 153.304688 279.21875 Z M 143.90625 281.074219 C 145.011719 278.75 147.375 277.683594 149.984375 277.433594 C 150.695312 277.367188 151.359375 277.460938 151.6875 278.183594 C 152.019531 278.917969 151.648438 279.589844 151.101562 279.945312 C 148.164062 281.851562 146.363281 284.953125 143.585938 287.011719 C 141.589844 288.492188 139.125 287.960938 136.78125 288.910156 C 136.707031 287.820312 136.996094 287.644531 137.265625 287.464844 C 139.871094 285.75 142.445312 284.136719 143.90625 281.074219 Z M 141.355469 280.6875 C 140.539062 282.742188 138.859375 283.792969 136.761719 284.34375 C 137.859375 282.652344 139.300781 281.34375 141.355469 280.6875 Z M 135.199219 277.746094 C 135.515625 277.261719 136.136719 277.03125 136.585938 277.582031 C 137.105469 278.222656 137.375 279.070312 136.464844 279.566406 C 134.859375 280.449219 133.175781 281.1875 131.523438 281.988281 C 132.09375 279.804688 134.164062 279.332031 135.199219 277.746094 Z M 133.101562 289.371094 C 132.78125 289.503906 132.480469 289.367188 132.394531 289.023438 C 132.292969 288.605469 132.640625 288.480469 132.949219 288.40625 C 133.25 288.328125 133.546875 288.371094 133.820312 288.90625 C 133.625 289.039062 133.386719 289.257812 133.101562 289.371094 Z M 133.664062 296.042969 C 130.039062 297.988281 126.355469 298.464844 124.488281 297.085938 C 127.492188 296.953125 130.28125 295.3125 133.664062 296.042969 Z M 132.367188 286.433594 C 129.875 287.753906 126.9375 288.085938 124.457031 290.371094 C 125.398438 286.75 128.5 284.773438 136.472656 282.363281 C 135.386719 284.292969 134.011719 285.5625 132.367188 286.433594 Z M 121.429688 291.082031 C 121.257812 291.019531 120.992188 290.808594 121.007812 290.703125 C 121.066406 290.382812 121.328125 290.203125 121.675781 290.183594 C 121.980469 290.289062 122.273438 290.472656 122.183594 290.820312 C 122.089844 291.179688 121.726562 291.191406 121.429688 291.082031 Z M 121.460938 296.097656 C 120.554688 296.207031 119.726562 296.882812 118.597656 296.5 C 119.554688 295.648438 120.535156 296.074219 121.460938 296.097656 Z M 121.433594 287.652344 C 120.316406 288.570312 118.882812 289.042969 117.929688 290.207031 C 119.015625 287.867188 121.554688 286.78125 122.703125 284.527344 C 122.839844 285.796875 122.484375 286.785156 121.433594 287.652344 Z M 114.140625 286.101562 C 113.9375 285.136719 114.800781 284.851562 115.210938 284.320312 C 116.886719 282.65625 119.289062 281.960938 120.832031 280.117188 C 122.492188 281.84375 122.46875 282.519531 120.523438 283.285156 C 118.390625 284.117188 116.566406 285.636719 114.140625 286.101562 Z M 116.308594 296.925781 C 114.976562 297.125 113.714844 297.957031 112.289062 297.363281 C 113.542969 296.453125 114.898438 296.433594 116.308594 296.925781 Z M 119.371094 285.523438 C 118.464844 286.425781 117.699219 287.191406 116.933594 287.953125 C 117.171875 286.5625 117.648438 285.457031 119.371094 285.523438 Z M 122.714844 284.527344 C 124.257812 284.644531 124.546875 282.441406 126.429688 282.65625 C 125.367188 283.964844 124.570312 285.230469 122.714844 284.527344 Z M 115.582031 279.238281 C 115.929688 278.96875 116.347656 278.691406 116.761719 278.628906 C 120.363281 278.09375 123.972656 277.605469 127.867188 277.0625 C 127.660156 278.871094 126.574219 279.761719 125.671875 279.582031 C 123.960938 279.242188 122.492188 280.371094 120.871094 280.039062 C 120.722656 279.023438 120.046875 279.46875 119.65625 279.695312 C 118.574219 280.316406 117.441406 280.769531 116.234375 281.03125 C 115.695312 281.148438 115.050781 281.28125 114.820312 280.59375 C 114.605469 279.957031 115.160156 279.574219 115.582031 279.238281 Z M 115.136719 284.332031 C 112.417969 285.449219 110.695312 287.921875 108.238281 289.414062 C 107.046875 290.136719 106.015625 290.867188 103.984375 290.050781 C 107.277344 287.589844 109.34375 284.179688 113.449219 283.328125 C 114.445312 283.121094 114.90625 283.460938 115.136719 284.335938 Z M 106.597656 297.339844 C 104.863281 298.882812 102.644531 299.257812 99.882812 298.378906 C 102.050781 297.910156 104.148438 297.246094 106.597656 297.339844 Z M 97.519531 284.144531 C 98.90625 283.402344 100.371094 282.902344 102.347656 282.785156 C 101.253906 284.757812 99.375 284.699219 97.921875 285.398438 C 97.621094 285.542969 97.253906 285.3125 97.136719 284.957031 C 97.019531 284.601562 97.214844 284.308594 97.519531 284.144531 Z M 96.324219 289.984375 C 96.675781 289.429688 97.109375 288.859375 97.644531 288.503906 C 99.3125 287.390625 100.664062 285.8125 102.601562 285.085938 C 103.007812 284.933594 103.585938 284.71875 103.695312 284.402344 C 105.152344 280.164062 109.175781 280.894531 112.742188 279.460938 C 112.316406 280.347656 112.261719 280.671875 112.117188 280.722656 C 107.617188 282.261719 105.453125 286.617188 101.855469 289.242188 C 100.589844 290.164062 99.496094 291.316406 97.972656 291.851562 C 97.40625 292.050781 96.84375 292.074219 96.453125 291.5625 C 96.09375 291.09375 96.011719 290.476562 96.324219 289.984375 Z M 93.167969 288.390625 C 92.871094 290.191406 91.945312 291.304688 90.390625 291.730469 C 91.007812 290.359375 91.238281 288.734375 93.167969 288.390625 Z M 84.414062 289.394531 C 84.042969 290.535156 82.980469 291.609375 81.230469 292.617188 C 82.070312 290.671875 83.097656 289.9375 84.414062 289.394531 Z M 81.527344 296.246094 C 81.851562 294.847656 82.761719 294.582031 83.238281 293.933594 C 84.019531 294.480469 83.785156 294.78125 81.527344 296.246094 Z M 78.144531 290.769531 C 77.132812 293.101562 75.972656 294.230469 73.820312 295.0625 C 74.53125 292.863281 75.570312 291.625 78.144531 290.769531 Z M 74.660156 289.277344 C 74.8125 289.320312 75.035156 289.6875 74.988281 289.773438 C 74.464844 290.71875 73.554688 290.847656 72.195312 290.847656 C 72.992188 289.90625 73.457031 288.941406 74.660156 289.277344 Z M 72.667969 293.367188 C 70.710938 295.851562 68.75 298.339844 66.792969 300.824219 C 66.609375 300.679688 66.421875 300.53125 66.234375 300.386719 C 67.664062 297.4375 67.96875 293.621094 72.667969 293.367188 Z M 65.140625 303.902344 C 65.210938 303.570312 65.453125 303.382812 65.800781 303.351562 C 66.183594 303.316406 66.386719 303.484375 66.378906 303.882812 C 66.273438 304.328125 66.019531 304.660156 65.539062 304.605469 C 65.1875 304.566406 65.070312 304.230469 65.140625 303.902344 Z M 57.09375 304.671875 C 58.191406 301.441406 60.5 299.910156 62.625 297.925781 C 62.734375 302.070312 61.792969 303.253906 57.09375 304.671875 Z M 60.699219 305.621094 C 60.292969 306.492188 59.6875 307.199219 58.890625 307.738281 C 59.277344 306.835938 59.878906 306.132812 60.699219 305.621094 Z M 106.542969 326.617188 C 99.941406 325.664062 93.628906 323.625 87.222656 321.953125 C 81.03125 320.339844 74.792969 318.867188 68.742188 316.726562 C 66.621094 315.976562 64.496094 315.222656 62.542969 314.101562 C 61.671875 313.601562 60.835938 312.996094 60.105469 312.3125 C 59.46875 311.722656 58.527344 310.597656 59.375 310.089844 C 60.304688 309.53125 61 307.765625 62.335938 308.574219 C 63.445312 309.246094 63.9375 308.890625 64.550781 308.148438 C 66.546875 305.734375 69.671875 305.496094 72.230469 304.171875 C 72.40625 304.082031 72.78125 304.058594 72.871094 304.164062 C 74.664062 306.3125 75.742188 304.152344 77.0625 303.484375 C 78.265625 302.875 79.4375 302.1875 80.679688 301.675781 C 81.496094 301.34375 82.722656 300.804688 83.234375 301.152344 C 85.363281 302.582031 87.097656 301.449219 89.078125 300.863281 C 92 300 95.105469 300.5 98.121094 300.261719 C 98.449219 300.238281 98.773438 300.425781 98.839844 300.816406 C 98.898438 301.183594 98.691406 301.417969 98.449219 301.671875 C 97.691406 302.460938 96.308594 302.199219 95.726562 303.265625 C 96.9375 303.339844 98.078125 303.101562 99.25 302.722656 C 107.546875 300.035156 116.132812 299.355469 124.785156 299.140625 C 126.238281 299.105469 127.6875 298.894531 129.136719 298.804688 C 131.886719 298.628906 133.945312 299.519531 134.90625 302.355469 C 135.550781 304.261719 136.289062 306.15625 137.195312 307.949219 C 138.984375 311.492188 141.347656 314.640625 144.324219 317.285156 C 151.226562 323.417969 158.839844 328.214844 168.148438 329.746094 C 170.519531 330.136719 172.964844 329.972656 175.367188 330.613281 C 174.878906 331.414062 173.988281 331.5 173.527344 331.359375 C 170.671875 330.472656 167.8125 331.5 164.914062 331.15625 C 159.652344 330.53125 154.3125 330.585938 149.007812 330.324219 C 144.429688 330.09375 139.855469 329.605469 135.28125 329.613281 C 130.496094 329.621094 125.828125 328.59375 121.054688 328.425781 C 118.078125 328.320312 114.984375 328.335938 112.011719 327.101562 C 110.4375 326.453125 108.40625 326.882812 106.542969 326.617188 Z M 106.542969 326.617188 " fill-opacity="1" fill-rule="nonzero"/></g><path fill="#c19f66" d="M 95.6875 303.335938 C 95.699219 303.3125 95.714844 303.289062 95.726562 303.265625 C 95.695312 303.265625 95.660156 303.265625 95.625 303.261719 Z M 95.6875 303.335938 " fill-opacity="1" fill-rule="nonzero"/><path fill="#c19f66" d="M 262.347656 266.449219 C 259.449219 257 256.117188 247.734375 250.820312 239.308594 C 254.664062 248.355469 258.503906 257.402344 262.347656 266.449219 Z M 262.347656 266.449219 " fill-opacity="1" fill-rule="nonzero"/><path fill="#c19f66" d="M 104.117188 214.863281 C 104.640625 212.6875 105.082031 210.488281 105.472656 208.285156 C 105.660156 207.222656 106.8125 206.285156 105.878906 204.777344 C 104.546875 209.171875 104.078125 213.519531 102.597656 217.597656 C 103.902344 217.136719 103.871094 215.882812 104.117188 214.863281 Z M 104.117188 214.863281 " fill-opacity="1" fill-rule="nonzero"/><path fill="#c19f66" d="M 257.230469 243.417969 C 257.257812 243.414062 257.28125 243.414062 257.304688 243.414062 C 257.296875 243.398438 257.292969 243.382812 257.285156 243.367188 C 257.28125 243.351562 257.277344 243.339844 257.277344 243.328125 C 257.261719 243.355469 257.253906 243.378906 257.242188 243.40625 C 257.234375 243.414062 257.230469 243.417969 257.230469 243.417969 Z M 257.28125 243.371094 C 257.273438 243.375 257.265625 243.382812 257.257812 243.394531 C 257.265625 243.382812 257.273438 243.375 257.28125 243.371094 Z M 257.28125 243.371094 " fill-opacity="1" fill-rule="nonzero"/><path fill="#c19f66" d="M 262.375 254.230469 C 261.203125 251.195312 260.054688 248.152344 258.832031 245.136719 C 258.542969 244.421875 258.519531 243.324219 257.304688 243.414062 C 258.34375 245.976562 259.328125 248.554688 260.472656 251.0625 C 260.980469 252.171875 261.164062 253.539062 262.375 254.230469 Z M 262.375 254.230469 " fill-opacity="1" fill-rule="nonzero"/><path fill="#c19f66" d="M 158.894531 63.996094 C 157.710938 65.09375 155.949219 65.015625 155.222656 66.742188 C 156.554688 66.035156 157.886719 65.328125 159.21875 64.621094 C 159.109375 64.410156 159 64.203125 158.890625 63.996094 Z M 158.894531 63.996094 " fill-opacity="1" fill-rule="nonzero"/><path fill="#c19f66" d="M 164.695312 62.382812 C 163.523438 62 162.625 61.96875 161.59375 63.457031 C 163 63.457031 163.980469 63.574219 164.695312 62.382812 Z M 164.695312 62.382812 " fill-opacity="1" fill-rule="nonzero"/><path fill="#c19f66" d="M 102.59375 217.609375 C 102.59375 217.605469 102.59375 217.601562 102.597656 217.597656 C 102.59375 217.597656 102.59375 217.597656 102.589844 217.601562 L 102.589844 217.617188 C 102.589844 217.621094 102.589844 217.628906 102.589844 217.632812 C 102.894531 218.828125 101.902344 219.832031 101.871094 221.480469 C 102.957031 219.960938 103.03125 218.820312 102.59375 217.609375 Z M 102.59375 217.609375 " fill-opacity="1" fill-rule="nonzero"/><path fill="#c19f66" d="M 257.277344 243.328125 C 257.972656 241.847656 256.824219 240.78125 256.414062 239.554688 C 255.96875 240.976562 257.011719 242.074219 257.277344 243.328125 Z M 257.277344 243.328125 " fill-opacity="1" fill-rule="nonzero"/><path fill="#c19f66" d="M 256.414062 239.554688 C 256.425781 239.515625 256.433594 239.476562 256.449219 239.4375 L 256.457031 239.429688 C 256.417969 239.371094 256.382812 239.320312 256.34375 239.265625 C 256.359375 239.34375 256.375 239.417969 256.394531 239.503906 C 256.398438 239.519531 256.40625 239.539062 256.414062 239.554688 Z M 256.414062 239.554688 " fill-opacity="1" fill-rule="nonzero"/><path fill="#c19f66" d="M 263.339844 256.578125 C 263.027344 255.820312 262.746094 255.140625 262.46875 254.464844 C 262.363281 255.289062 262.257812 256.113281 263.339844 256.578125 Z M 263.339844 256.578125 " fill-opacity="1" fill-rule="nonzero"/><path fill="#c19f66" d="M 262.429688 254.375 C 262.445312 254.40625 262.457031 254.4375 262.46875 254.464844 C 262.476562 254.414062 262.480469 254.359375 262.488281 254.304688 L 262.496094 254.296875 C 262.453125 254.277344 262.414062 254.253906 262.375 254.230469 C 262.394531 254.277344 262.414062 254.328125 262.433594 254.375 Z M 262.429688 254.375 " fill-opacity="1" fill-rule="nonzero"/><path fill="#c19f66" d="M 107.097656 202.175781 C 107.234375 201.90625 107.3125 201.589844 107 201.347656 C 106.851562 201.457031 106.59375 201.550781 106.574219 201.679688 C 106.535156 201.964844 106.617188 202.261719 106.652344 202.554688 C 106.804688 202.433594 107.015625 202.335938 107.097656 202.175781 Z M 107.097656 202.175781 " fill-opacity="1" fill-rule="nonzero"/><path fill="#c19f66" d="M 271.121094 231.382812 C 270.304688 228.257812 269.511719 225.128906 268.667969 222.015625 C 261.359375 194.988281 254.035156 167.964844 248.132812 140.582031 C 247.503906 137.679688 247.230469 134.6875 246.097656 131.90625 C 246.027344 132.480469 245.960938 133.054688 245.894531 133.625 C 245.8125 133.636719 245.726562 133.648438 245.644531 133.660156 C 245.550781 133.023438 245.460938 132.386719 245.371094 131.75 C 245.171875 131.75 244.972656 131.753906 244.773438 131.753906 C 244.84375 132.96875 244.828125 134.199219 245.011719 135.398438 C 245.96875 141.707031 247.074219 147.996094 247.957031 154.316406 C 250.582031 173.097656 252.988281 191.910156 256.125 210.617188 C 257.289062 217.554688 258.585938 224.464844 260.617188 231.222656 C 260.714844 230.773438 260.742188 230.332031 260.664062 229.90625 C 257.679688 214.238281 255.339844 198.464844 252.96875 182.699219 C 250.800781 168.308594 248.679688 153.914062 246.539062 139.523438 C 247.789062 140.671875 247.691406 142.324219 248 143.777344 C 253.25 168.765625 259.503906 193.503906 266.464844 218.0625 C 267.746094 222.574219 269.136719 227.058594 270.476562 231.554688 Z M 246.515625 139.351562 C 246.410156 138.566406 246.308594 137.785156 246.203125 137 C 246.683594 137.773438 246.773438 138.554688 246.515625 139.351562 Z M 246.515625 139.351562 " fill-opacity="1" fill-rule="nonzero"/><path fill="#c19f66" d="M 246.039062 131.757812 C 246.058594 131.804688 246.078125 131.855469 246.097656 131.90625 C 246.105469 131.824219 246.117188 131.746094 246.125 131.664062 Z M 246.039062 131.757812 " fill-opacity="1" fill-rule="nonzero"/><path fill="#c19f66" d="M 240.394531 139.050781 C 239.347656 131.9375 238.007812 124.863281 236.796875 117.773438 C 236.578125 116.511719 236.527344 115.136719 235.042969 114.40625 C 234.109375 115.722656 234.695312 116.90625 234.792969 118.089844 C 235.035156 121.039062 236.742188 123.550781 237.179688 126.449219 C 239.921875 144.441406 242.199219 162.503906 245.292969 180.441406 C 247.089844 190.84375 248.980469 201.226562 251.878906 211.292969 C 251.878906 210.960938 251.929688 210.617188 251.875 210.292969 C 247.691406 186.601562 243.886719 162.851562 240.394531 139.050781 Z M 240.394531 139.050781 " fill-opacity="1" fill-rule="nonzero"/><path fill="#c19f66" d="M 262.882812 196.40625 C 264.167969 200.558594 265.46875 204.707031 267.414062 208.632812 C 267.027344 206.566406 266.335938 204.59375 265.71875 202.601562 C 260.933594 187.25 256.972656 171.699219 254.320312 155.824219 C 254.128906 154.6875 254.332031 153.34375 253.152344 152.550781 C 253.277344 152.824219 253.433594 153.097656 253.472656 153.382812 C 255.480469 167.972656 258.523438 182.335938 262.882812 196.40625 Z M 262.882812 196.40625 " fill-opacity="1" fill-rule="nonzero"/><path fill="#c19f66" d="M 253.152344 152.550781 C 253.140625 152.519531 253.125 152.484375 253.109375 152.453125 L 253.078125 152.496094 C 253.105469 152.511719 253.128906 152.53125 253.152344 152.550781 Z M 253.152344 152.550781 " fill-opacity="1" fill-rule="nonzero"/><path fill="#c19f66" d="M 226.828125 111.839844 C 226.363281 112.351562 226.113281 112.507812 226.128906 112.632812 C 226.945312 119.074219 227.621094 125.542969 228.714844 131.9375 C 229.054688 133.925781 228.421875 136.269531 230.179688 137.941406 L 230.183594 137.957031 C 229.578125 132.839844 229.003906 127.722656 228.355469 122.613281 C 227.914062 119.117188 227.371094 115.636719 226.828125 111.84375 Z M 226.828125 111.839844 " fill-opacity="1" fill-rule="nonzero"/><path fill="#c19f66" d="M 238.355469 115.996094 C 238.816406 116.066406 239.105469 115.675781 239.144531 115.183594 C 238.972656 114.65625 238.746094 114.175781 238.078125 114.203125 C 237.714844 114.21875 237.503906 114.453125 237.496094 114.820312 C 237.480469 115.425781 237.78125 115.90625 238.355469 115.996094 Z M 238.355469 115.996094 " fill-opacity="1" fill-rule="nonzero"/><path fill="#c19f66" d="M 252.964844 149.238281 C 253.011719 150.300781 253.058594 151.363281 253.109375 152.425781 C 253.539062 151.367188 253.535156 150.308594 252.964844 149.238281 Z M 252.964844 149.238281 " fill-opacity="1" fill-rule="nonzero"/><path fill="#c19f66" d="M 253.109375 152.453125 C 253.109375 152.445312 253.109375 152.433594 253.109375 152.425781 C 253.101562 152.445312 253.097656 152.460938 253.089844 152.480469 C 253.078125 152.496094 253.109375 152.453125 253.109375 152.453125 Z M 253.109375 152.453125 " fill-opacity="1" fill-rule="nonzero"/><path fill="#c19f66" d="M 252.699219 145.945312 C 252.664062 145.4375 252.632812 144.933594 252.597656 144.429688 C 252.484375 144.441406 252.371094 144.457031 252.257812 144.472656 C 252.324219 144.972656 252.386719 145.476562 252.449219 145.980469 C 252.53125 145.96875 252.617188 145.957031 252.699219 145.945312 Z M 252.699219 145.945312 " fill-opacity="1" fill-rule="nonzero"/><path fill="#c19f66" d="M 230.015625 140.289062 L 230.183594 140.289062 L 230.183594 137.957031 C 230.183594 137.957031 230.179688 137.941406 230.183594 137.945312 C 230.125 138.730469 230.070312 139.511719 230.015625 140.289062 Z M 230.015625 140.289062 " fill-opacity="1" fill-rule="nonzero"/><path fill="#c19f66" d="M 246.125 131.664062 C 246.097656 131.664062 246.066406 131.664062 246.039062 131.664062 C 246.039062 131.695312 246.039062 131.726562 246.039062 131.757812 C 246.039062 131.757812 246.125 131.664062 246.125 131.664062 Z M 246.125 131.664062 " fill-opacity="1" fill-rule="nonzero"/><path fill="#c19f66" d="M 245.453125 131.75 C 245.445312 131.722656 245.441406 131.691406 245.433594 131.664062 C 245.410156 131.664062 245.382812 131.664062 245.359375 131.664062 C 245.363281 131.691406 245.367188 131.722656 245.371094 131.75 C 245.398438 131.75 245.425781 131.75 245.453125 131.75 Z M 245.453125 131.75 " fill-opacity="1" fill-rule="nonzero"/><path fill="#c19f66" d="M 245.4375 128.507812 C 245.359375 129.5625 245.136719 130.613281 245.433594 131.664062 C 245.636719 131.664062 245.835938 131.664062 246.039062 131.664062 C 246.070312 130.566406 246.011719 129.488281 245.4375 128.511719 Z M 245.4375 128.507812 " fill-opacity="1" fill-rule="nonzero"/><path fill="#c19f66" d="M 245.367188 128.386719 C 245.394531 128.429688 245.414062 128.46875 245.4375 128.507812 C 245.441406 128.433594 245.449219 128.359375 245.453125 128.285156 Z M 245.367188 128.386719 " fill-opacity="1" fill-rule="nonzero"/><path fill="#c19f66" d="M 244.699219 131.636719 C 244.691406 131.675781 244.6875 131.714844 244.675781 131.753906 C 244.675781 131.753906 244.699219 131.746094 244.722656 131.734375 C 244.699219 131.746094 244.675781 131.753906 244.675781 131.753906 C 244.710938 131.753906 244.742188 131.753906 244.773438 131.753906 C 244.773438 131.742188 244.773438 131.726562 244.769531 131.714844 C 244.746094 131.691406 244.722656 131.664062 244.699219 131.636719 Z M 244.699219 131.636719 " fill-opacity="1" fill-rule="nonzero"/><path fill="#c19f66" d="M 244.691406 128.375 C 244.484375 128.347656 244.28125 128.324219 244.074219 128.300781 C 244.070312 127.054688 244.066406 125.8125 244.0625 124.566406 C 243.578125 125.8125 243.234375 127.0625 244.007812 128.304688 C 244.277344 129.40625 243.824219 130.671875 244.699219 131.636719 C 244.9375 130.550781 244.78125 129.460938 244.691406 128.375 Z M 244.691406 128.375 " fill-opacity="1" fill-rule="nonzero"/><path fill="#c19f66" d="M 245.453125 128.285156 C 245.421875 128.285156 245.390625 128.285156 245.359375 128.289062 C 245.363281 128.320312 245.367188 128.355469 245.367188 128.386719 C 245.367188 128.386719 245.453125 128.285156 245.453125 128.285156 Z M 245.453125 128.285156 " fill-opacity="1" fill-rule="nonzero"/><path fill="#c19f66" d="M 244.71875 124.566406 C 244.738281 125.808594 244.753906 127.046875 244.773438 128.289062 C 244.96875 128.289062 245.164062 128.289062 245.359375 128.289062 C 245.261719 127.027344 245.164062 125.765625 244.71875 124.566406 Z M 244.71875 124.566406 " fill-opacity="1" fill-rule="nonzero"/><path fill="#c19f66" d="M 244.773438 128.289062 C 244.742188 128.289062 244.714844 128.289062 244.683594 128.292969 C 244.683594 128.320312 244.6875 128.347656 244.691406 128.375 L 244.773438 128.382812 C 244.773438 128.351562 244.773438 128.320312 244.773438 128.289062 Z M 244.773438 128.289062 " fill-opacity="1" fill-rule="nonzero"/><path fill="#c19f66" d="M 230.789062 94.214844 C 231.148438 95.226562 231.269531 96.566406 233.066406 96.667969 C 231.917969 94.496094 230.65625 92.671875 229.867188 90.578125 C 229.429688 89.414062 228.476562 88.507812 227.230469 88.046875 C 227.800781 89.054688 228.371094 90.058594 228.941406 91.066406 C 229.539062 92.125 230.371094 93.03125 230.789062 94.214844 Z M 230.789062 94.214844 " fill-opacity="1" fill-rule="nonzero"/><path fill="#c19f66" d="M 227.042969 87.859375 C 226.746094 85.828125 225.457031 84.359375 224.199219 82.871094 C 225.167969 84.519531 224.523438 87.121094 227.042969 87.859375 Z M 227.042969 87.859375 " fill-opacity="1" fill-rule="nonzero"/><path fill="#c19f66" d="M 227.128906 87.90625 L 227.058594 87.980469 C 227.117188 88 227.171875 88.023438 227.230469 88.046875 C 227.199219 87.996094 227.171875 87.945312 227.140625 87.894531 C 227.105469 87.882812 227.078125 87.871094 227.042969 87.859375 C 227.046875 87.898438 227.054688 87.9375 227.0625 87.976562 C 227.058594 87.980469 227.105469 87.933594 227.128906 87.90625 Z M 227.128906 87.90625 " fill-opacity="1" fill-rule="nonzero"/><path fill="#c19f66" d="M 226.164062 92.3125 C 226.117188 92.300781 225.894531 92.617188 225.898438 92.78125 C 225.902344 93.222656 226.082031 93.582031 226.585938 93.667969 C 226.847656 93.640625 226.941406 93.492188 226.894531 93.226562 C 226.816406 92.78125 226.605469 92.441406 226.164062 92.3125 Z M 226.164062 92.3125 " fill-opacity="1" fill-rule="nonzero"/><path fill="#c19f66" d="M 95.683594 303.332031 C 95.6875 303.335938 95.625 303.261719 95.625 303.261719 C 95.605469 303.273438 95.585938 303.285156 95.566406 303.292969 C 95.605469 303.308594 95.644531 303.316406 95.683594 303.332031 Z M 95.683594 303.332031 " fill-opacity="1" fill-rule="nonzero"/><path fill="#c19f66" d="M 92.910156 304.71875 C 93.796875 304.242188 94.679688 303.769531 95.566406 303.292969 C 94.335938 302.898438 93.429688 303.332031 92.910156 304.71875 Z M 92.910156 304.71875 " fill-opacity="1" fill-rule="nonzero"/><path fill="#c19f66" d="M 148.585938 296.050781 C 147.5625 296.050781 146.5 296.050781 145.304688 296.050781 C 146.496094 296.433594 147.5625 296.175781 148.585938 296.050781 Z M 148.585938 296.050781 " fill-opacity="1" fill-rule="nonzero"/><path fill="#c19f66" d="M 148.585938 296.050781 C 149.070312 296.050781 149.542969 296.050781 150.015625 296.050781 C 149.542969 295.96875 149.070312 295.996094 148.585938 296.050781 Z M 148.585938 296.050781 " fill-opacity="1" fill-rule="nonzero"/><path fill="#c19f66" d="M 150.015625 296.050781 C 150.039062 296.054688 150.058594 296.058594 150.078125 296.0625 C 150.078125 296.0625 150.082031 296.050781 150.082031 296.050781 C 150.0625 296.050781 150.039062 296.050781 150.015625 296.050781 Z M 150.015625 296.050781 " fill-opacity="1" fill-rule="nonzero"/><path fill="#c19f66" d="M 278.578125 316.113281 C 278.074219 316.402344 277.25 315.664062 277.039062 316.613281 C 277.007812 316.765625 277.21875 317.003906 277.363281 317.15625 C 277.980469 317.816406 278.546875 317.210938 279.101562 317.035156 C 279.65625 316.855469 279.90625 316.355469 280.003906 315.78125 C 279.414062 315.335938 278.972656 315.886719 278.578125 316.113281 Z M 278.578125 316.113281 " fill-opacity="1" fill-rule="nonzero"/><path fill="#c19f66" d="M 307.601562 316.5625 C 306.132812 317.160156 305.5 317.921875 305.433594 319.128906 C 306.648438 318.792969 307.230469 318.015625 307.601562 316.5625 Z M 307.601562 316.5625 " fill-opacity="1" fill-rule="nonzero"/><path fill="#c19f66" d="M 295.492188 317.429688 C 295.6875 317.375 295.914062 317.375 296.019531 317.261719 C 296.246094 317.011719 296.863281 316.96875 296.546875 316.390625 C 296.203125 316.730469 295.511719 316.71875 295.492188 317.429688 Z M 295.492188 317.429688 " fill-opacity="1" fill-rule="nonzero"/><path fill="#c19f66" d="M 254.9375 321.894531 C 254.523438 322.003906 253.910156 322.121094 253.792969 322.40625 C 253.632812 322.796875 254.171875 322.6875 254.546875 322.738281 C 254.753906 322.476562 255.449219 322.945312 255.445312 322.1875 C 255.445312 322.082031 255.082031 321.859375 254.9375 321.894531 Z M 254.9375 321.894531 " fill-opacity="1" fill-rule="nonzero"/><path fill="#c19f66" d="M 271.394531 313.339844 C 272.613281 313.316406 273.441406 312.769531 273.792969 311.570312 C 272.957031 312.109375 271.789062 312.203125 271.394531 313.339844 Z M 271.394531 313.339844 " fill-opacity="1" fill-rule="nonzero"/><path fill="#c19f66" d="M 298.296875 319.292969 C 298.476562 319.121094 298.703125 318.914062 298.917969 318.699219 C 299.132812 318.484375 299.054688 318.253906 298.78125 318.320312 C 298.503906 318.390625 298.253906 318.648438 298.039062 318.863281 C 297.828125 319.078125 297.914062 319.246094 298.296875 319.292969 Z M 298.296875 319.292969 " fill-opacity="1" fill-rule="nonzero"/><path fill="#c19f66" d="M 218.914062 318.351562 C 218.144531 318.09375 217.445312 318.078125 216.683594 318.398438 C 217.457031 318.660156 218.15625 318.734375 218.914062 318.351562 Z M 218.914062 318.351562 " fill-opacity="1" fill-rule="nonzero"/><path fill="#c19f66" d="M 241.320312 308.292969 C 242.632812 307.601562 243.855469 306.128906 245.398438 307.523438 C 244.808594 306.84375 244.132812 306.1875 245.117188 305.179688 C 243.335938 305.589844 241.25 305.625 241.320312 308.292969 Z M 241.320312 308.292969 " fill-opacity="1" fill-rule="nonzero"/><path fill="#c19f66" d="M 245.683594 307.808594 C 245.585938 307.703125 245.492188 307.609375 245.398438 307.523438 C 245.496094 307.636719 245.589844 307.75 245.675781 307.867188 Z M 245.683594 307.808594 " fill-opacity="1" fill-rule="nonzero"/><path fill="#c19f66" d="M 253.214844 307.203125 C 251.699219 307.402344 250.039062 307.417969 250.101562 309.636719 C 251.066406 308.734375 252.800781 308.8125 253.214844 307.203125 Z M 253.214844 307.203125 " fill-opacity="1" fill-rule="nonzero"/><path fill="#c19f66" d="M 245.746094 307.785156 C 246.574219 307.683594 247.398438 307.605469 248.390625 307.507812 C 247.175781 306.535156 246.421875 306.988281 245.746094 307.785156 Z M 245.746094 307.785156 " fill-opacity="1" fill-rule="nonzero"/><path fill="#c19f66" d="M 245.691406 307.789062 C 245.683594 307.8125 245.675781 307.867188 245.675781 307.867188 C 245.699219 307.839844 245.722656 307.8125 245.746094 307.785156 C 245.726562 307.785156 245.710938 307.789062 245.691406 307.789062 Z M 245.691406 307.789062 " fill-opacity="1" fill-rule="nonzero"/><path fill="#c19f66" d="M 241.417969 297.097656 C 241.367188 297.152344 241.351562 297.34375 241.359375 297.347656 C 241.765625 297.476562 241.820312 297.054688 242.046875 296.910156 C 242.070312 296.8125 242.117188 296.648438 242.109375 296.644531 C 241.699219 296.507812 241.609375 296.886719 241.417969 297.097656 Z M 241.417969 297.097656 " fill-opacity="1" fill-rule="nonzero"/><path fill="#c19f66" d="M 248.128906 296.269531 C 248.171875 296.289062 248.210938 296.308594 248.253906 296.328125 C 248.253906 296.328125 248.257812 296.324219 248.261719 296.324219 C 248.277344 296.3125 248.292969 296.304688 248.3125 296.292969 C 248.316406 296.285156 248.320312 296.277344 248.324219 296.269531 Z M 248.128906 296.269531 " fill-opacity="1" fill-rule="nonzero"/><path fill="#c19f66" d="M 246.023438 296.269531 L 248.128906 296.269531 C 247.464844 295.949219 246.796875 295.800781 246.023438 296.269531 Z M 246.023438 296.269531 " fill-opacity="1" fill-rule="nonzero"/></svg>