<svg xmlns="http://www.w3.org/2000/svg" xmlns:xlink="http://www.w3.org/1999/xlink" width="1587" zoomAndPan="magnify" viewBox="0 0 1190.25 1683.749949" height="2245" preserveAspectRatio="xMidYMid meet" version="1.0"><defs><clipPath id="3acdb3f9a6"><path d="M 46 706.003906 L 1144 706.003906 L 1144 841.632812 L 46 841.632812 Z M 46 706.003906 " clip-rule="nonzero"/></clipPath></defs><g clip-path="url(#3acdb3f9a6)"><path fill="#b99117" d="M 128.9375 714.714844 C 132.320312 714.714844 135.699219 713.226562 137.324219 709.183594 L 140.699219 709.183594 C 139.421875 710.082031 138.730469 711.269531 138.871094 712.8125 C 139.757812 722.511719 145.871094 730 130.441406 727.535156 C 121.574219 726.125 112.152344 727.203125 114.484375 736.113281 C 108.386719 736.6875 102.535156 736.664062 97.226562 737.332031 C 91.550781 738.042969 86.296875 741.375 84.082031 747.230469 C 82.480469 751.488281 82.988281 756.121094 85.109375 759.875 C 87.296875 763.582031 91.058594 766.34375 95.539062 767.078125 C 101.722656 768.09375 107.234375 765.210938 110.6875 760.648438 C 113.921875 756.386719 116.824219 751.304688 120.371094 746.3125 C 126.925781 752.789062 132.570312 745.167969 135.78125 736.78125 C 141.363281 722.1875 144.789062 731.226562 152.746094 736.84375 C 160.199219 742.109375 171.328125 716.25 174.109375 709.183594 L 192.273438 709.183594 C 195.054688 716.246094 206.183594 742.113281 213.640625 736.84375 C 221.59375 731.226562 225.019531 722.1875 230.605469 736.785156 C 233.816406 745.167969 239.457031 752.789062 246.011719 746.3125 C 249.558594 751.304688 252.460938 756.386719 255.695312 760.648438 C 259.148438 765.210938 264.664062 768.089844 270.839844 767.085938 C 275.328125 766.339844 279.085938 763.589844 281.277344 759.875 C 283.394531 756.125 283.902344 751.488281 282.296875 747.238281 C 280.082031 741.378906 274.835938 738.042969 269.15625 737.335938 C 263.851562 736.664062 257.996094 736.691406 251.898438 736.117188 C 254.230469 727.203125 244.8125 726.125 235.945312 727.539062 C 220.511719 730 226.625 722.511719 227.511719 712.8125 C 227.65625 711.269531 226.964844 710.085938 225.6875 709.183594 L 229.058594 709.183594 C 230.6875 713.226562 234.0625 714.714844 237.445312 714.714844 C 240.054688 714.714844 242.671875 712.046875 246.097656 709.183594 L 261.195312 709.183594 L 268.628906 712.953125 C 275.992188 716.679688 284.878906 723.300781 292.835938 722.867188 C 300.964844 722.417969 298.070312 715.800781 296.023438 709.183594 L 311.457031 709.183594 C 306.042969 717.632812 301.28125 727.5 306.507812 729.90625 C 315.347656 733.988281 324.890625 732.4375 315.042969 744.570312 C 309.386719 751.542969 305.609375 760.238281 314.492188 762.675781 C 311.941406 768.242188 308.992188 773.300781 306.917969 778.230469 C 304.695312 783.503906 304.957031 789.714844 308.917969 794.5625 C 311.804688 798.078125 316.070312 799.957031 320.378906 799.996094 C 324.691406 799.957031 328.953125 798.078125 331.84375 794.5625 C 335.800781 789.714844 336.066406 783.503906 333.839844 778.230469 C 331.765625 773.300781 328.816406 768.246094 326.265625 762.675781 C 335.152344 760.238281 331.375 751.542969 325.714844 744.570312 C 315.871094 732.4375 325.410156 733.988281 334.253906 729.90625 C 339.480469 727.5 334.71875 717.632812 329.300781 709.183594 L 344.738281 709.183594 C 342.691406 715.800781 339.796875 722.417969 347.921875 722.867188 C 355.878906 723.300781 364.765625 716.679688 372.128906 712.953125 L 379.5625 709.183594 L 394.664062 709.183594 C 398.085938 712.046875 400.703125 714.714844 403.316406 714.714844 C 406.695312 714.714844 410.070312 713.226562 411.699219 709.183594 L 415.074219 709.183594 C 413.792969 710.085938 413.105469 711.269531 413.246094 712.8125 C 414.132812 722.511719 420.246094 730 404.816406 727.539062 C 395.949219 726.125 386.527344 727.203125 388.859375 736.117188 C 382.761719 736.691406 376.910156 736.664062 371.601562 737.335938 C 365.925781 738.042969 360.675781 741.378906 358.460938 747.238281 C 356.855469 751.488281 357.363281 756.125 359.484375 759.875 C 361.671875 763.589844 365.433594 766.339844 369.917969 767.085938 C 376.097656 768.089844 381.609375 765.210938 385.0625 760.648438 C 388.296875 756.386719 391.199219 751.304688 394.746094 746.3125 C 401.300781 752.789062 406.945312 745.167969 410.152344 736.785156 C 415.738281 722.1875 419.164062 731.226562 427.117188 736.84375 C 434.574219 742.113281 445.703125 716.246094 448.484375 709.183594 L 466.648438 709.183594 C 469.429688 716.25 480.558594 742.113281 488.015625 736.84375 C 495.96875 731.226562 499.398438 722.1875 504.980469 736.78125 C 508.1875 745.167969 513.832031 752.789062 520.386719 746.3125 C 523.933594 751.304688 526.835938 756.386719 530.070312 760.648438 C 533.523438 765.210938 539.035156 768.089844 545.21875 767.078125 C 549.699219 766.34375 553.460938 763.582031 555.648438 759.875 C 557.769531 756.121094 558.277344 751.488281 556.675781 747.230469 C 554.460938 741.378906 549.207031 738.042969 543.53125 737.332031 C 538.222656 736.664062 532.371094 736.6875 526.273438 736.113281 C 528.605469 727.203125 519.183594 726.125 510.316406 727.535156 C 494.886719 730 501 722.511719 501.886719 712.8125 C 502.03125 711.269531 501.335938 710.082031 500.058594 709.183594 L 503.433594 709.183594 C 505.058594 713.226562 508.4375 714.714844 511.820312 714.714844 C 514.429688 714.714844 517.042969 712.042969 520.46875 709.183594 L 535.570312 709.183594 L 543.003906 712.953125 C 550.367188 716.679688 559.253906 723.300781 567.210938 722.863281 C 575.335938 722.421875 572.441406 715.800781 570.394531 709.183594 L 585.832031 709.183594 C 580.414062 717.632812 575.652344 727.496094 580.878906 729.90625 C 589.71875 733.988281 599.261719 732.4375 589.414062 744.566406 C 583.757812 751.542969 579.980469 760.238281 588.867188 762.675781 C 586.316406 768.242188 583.367188 773.300781 581.289062 778.230469 C 579.066406 783.5 579.328125 789.714844 583.289062 794.5625 C 586.179688 798.078125 590.441406 799.957031 594.753906 799.996094 C 599.0625 799.957031 603.328125 798.074219 606.214844 794.5625 C 610.175781 789.714844 610.4375 783.5 608.214844 778.230469 C 606.140625 773.300781 603.191406 768.242188 600.640625 762.675781 C 609.523438 760.238281 605.746094 751.542969 600.089844 744.566406 C 590.242188 732.4375 599.785156 733.984375 608.625 729.90625 C 613.851562 727.496094 609.089844 717.632812 603.675781 709.183594 L 619.109375 709.183594 C 617.0625 715.800781 614.167969 722.421875 622.296875 722.863281 C 630.25 723.300781 639.136719 716.679688 646.5 712.953125 L 653.9375 709.183594 L 669.035156 709.183594 C 672.460938 712.042969 675.074219 714.714844 677.6875 714.714844 C 681.070312 714.714844 684.445312 713.226562 686.074219 709.183594 L 689.449219 709.183594 C 688.167969 710.082031 687.476562 711.269531 687.617188 712.8125 C 688.503906 722.511719 694.617188 730 679.1875 727.535156 C 670.320312 726.125 660.902344 727.203125 663.234375 736.113281 C 657.136719 736.6875 651.28125 736.664062 645.972656 737.332031 C 640.300781 738.042969 635.046875 741.375 632.828125 747.230469 C 631.230469 751.488281 631.734375 756.121094 633.855469 759.875 C 636.042969 763.582031 639.804688 766.34375 644.289062 767.078125 C 650.46875 768.089844 655.984375 765.210938 659.433594 760.648438 C 662.667969 756.386719 665.574219 751.304688 669.117188 746.3125 C 675.671875 752.789062 681.316406 745.167969 684.527344 736.78125 C 690.109375 722.1875 693.539062 731.226562 701.492188 736.84375 C 708.945312 742.109375 720.074219 716.25 722.859375 709.183594 L 741.019531 709.183594 C 743.800781 716.246094 754.933594 742.113281 762.386719 736.84375 C 770.339844 731.226562 773.769531 722.1875 779.351562 736.785156 C 782.5625 745.167969 788.207031 752.789062 794.757812 746.3125 C 798.304688 751.304688 801.210938 756.386719 804.441406 760.648438 C 807.894531 765.210938 813.410156 768.089844 819.585938 767.085938 C 824.074219 766.339844 827.835938 763.589844 830.023438 759.875 C 832.144531 756.125 832.652344 751.488281 831.046875 747.238281 C 828.832031 741.378906 823.582031 738.042969 817.902344 737.335938 C 812.597656 736.664062 806.742188 736.691406 800.648438 736.117188 C 802.980469 727.203125 793.558594 726.125 784.691406 727.539062 C 769.257812 730 775.375 722.511719 776.261719 712.8125 C 776.402344 711.269531 775.714844 710.085938 774.433594 709.183594 L 777.808594 709.183594 C 779.433594 713.226562 782.8125 714.714844 786.191406 714.714844 C 788.804688 714.714844 791.417969 712.046875 794.84375 709.183594 L 809.945312 709.183594 L 817.378906 712.953125 C 824.742188 716.679688 833.625 723.300781 841.582031 722.867188 C 849.710938 722.417969 846.816406 715.800781 844.769531 709.183594 L 860.207031 709.183594 C 854.789062 717.632812 850.027344 727.5 855.253906 729.90625 C 864.09375 733.988281 873.636719 732.4375 863.789062 744.570312 C 858.132812 751.542969 854.355469 760.238281 863.242188 762.675781 C 860.691406 768.242188 857.742188 773.300781 855.664062 778.230469 C 853.441406 783.503906 853.703125 789.714844 857.664062 794.5625 C 860.554688 798.078125 864.816406 799.957031 869.128906 799.996094 C 873.4375 799.957031 877.703125 798.078125 880.589844 794.5625 C 884.550781 789.714844 884.8125 783.503906 882.589844 778.230469 C 880.515625 773.300781 877.566406 768.246094 875.015625 762.675781 C 883.898438 760.238281 880.121094 751.542969 874.464844 744.570312 C 864.617188 732.4375 874.160156 733.988281 883.003906 729.90625 C 888.226562 727.5 883.464844 717.632812 878.050781 709.183594 L 893.488281 709.183594 C 891.4375 715.800781 888.542969 722.417969 896.671875 722.867188 C 904.628906 723.300781 913.515625 716.679688 920.875 712.953125 L 928.308594 709.183594 L 943.410156 709.183594 C 946.835938 712.046875 949.453125 714.714844 952.0625 714.714844 C 955.445312 714.714844 958.820312 713.226562 960.449219 709.183594 L 963.820312 709.183594 C 962.542969 710.085938 961.851562 711.269531 961.992188 712.8125 C 962.882812 722.511719 968.996094 730 953.5625 727.539062 C 944.695312 726.125 935.273438 727.203125 937.605469 736.117188 C 931.511719 736.691406 925.65625 736.664062 920.351562 737.335938 C 914.671875 738.042969 909.421875 741.378906 907.210938 747.238281 C 905.605469 751.488281 906.113281 756.125 908.230469 759.875 C 910.421875 763.589844 914.179688 766.339844 918.667969 767.085938 C 924.84375 768.089844 930.359375 765.210938 933.8125 760.648438 C 937.046875 756.386719 939.949219 751.304688 943.496094 746.3125 C 950.050781 752.789062 955.691406 745.167969 958.902344 736.785156 C 964.488281 722.1875 967.914062 731.226562 975.867188 736.84375 C 983.324219 742.113281 994.453125 716.246094 997.234375 709.183594 L 1015.394531 709.183594 C 1018.179688 716.25 1029.308594 742.113281 1036.761719 736.84375 C 1044.71875 731.226562 1048.144531 722.1875 1053.726562 736.78125 C 1056.9375 745.167969 1062.582031 752.789062 1069.136719 746.3125 C 1072.683594 751.304688 1075.585938 756.386719 1078.820312 760.648438 C 1082.273438 765.210938 1087.785156 768.089844 1093.96875 767.078125 C 1098.449219 766.34375 1102.210938 763.582031 1104.398438 759.875 C 1106.519531 756.121094 1107.027344 751.488281 1105.425781 747.230469 C 1103.207031 741.378906 1097.957031 738.042969 1092.28125 737.332031 C 1086.972656 736.664062 1081.117188 736.6875 1075.023438 736.113281 C 1077.351562 727.203125 1067.933594 726.125 1059.066406 727.535156 C 1043.636719 730 1049.75 722.511719 1050.636719 712.8125 C 1050.777344 711.269531 1050.085938 710.082031 1048.804688 709.183594 L 1052.179688 709.183594 C 1053.808594 713.226562 1057.1875 714.714844 1060.566406 714.714844 C 1063.179688 714.714844 1065.792969 712.042969 1069.21875 709.183594 L 1084.316406 709.183594 L 1091.753906 712.953125 C 1099.117188 716.679688 1108.003906 723.300781 1115.960938 722.863281 C 1124.085938 722.421875 1121.191406 715.800781 1119.144531 709.183594 L 1134.578125 709.183594 C 1129.164062 717.632812 1124.402344 727.496094 1129.628906 729.90625 C 1138.46875 733.984375 1148.011719 732.4375 1138.164062 744.566406 C 1132.507812 751.542969 1128.730469 760.238281 1137.613281 762.675781 C 1135.0625 768.242188 1132.113281 773.300781 1130.039062 778.230469 C 1127.816406 783.5 1128.078125 789.714844 1132.039062 794.5625 C 1134.925781 798.078125 1139.191406 799.957031 1143.5 799.996094 L 1143.5 791.164062 C 1140.5 791.214844 1138.054688 788.945312 1138.054688 785.914062 C 1138.054688 783.800781 1139.972656 773.894531 1141.371094 763.269531 C 1142.039062 763.3125 1142.75 763.339844 1143.5 763.335938 L 1143.5 706.015625 L 46.003906 706.015625 L 46.003906 763.335938 C 46.757812 763.335938 47.46875 763.3125 48.132812 763.269531 C 49.53125 773.894531 51.449219 783.800781 51.449219 785.914062 C 51.449219 788.945312 49.003906 791.214844 46.003906 791.164062 L 46.003906 799.996094 C 50.316406 799.957031 54.578125 798.074219 57.46875 794.5625 C 61.425781 789.714844 61.6875 783.5 59.464844 778.230469 C 57.390625 773.300781 54.441406 768.242188 51.890625 762.675781 C 60.777344 760.238281 57 751.542969 51.339844 744.566406 C 41.496094 732.4375 51.035156 733.984375 59.878906 729.90625 C 65.105469 727.496094 60.34375 717.632812 54.925781 709.183594 L 70.359375 709.183594 C 68.3125 715.800781 65.417969 722.421875 73.546875 722.863281 C 81.5 723.300781 90.390625 716.679688 97.75 712.953125 L 105.1875 709.183594 L 120.289062 709.183594 C 123.710938 712.042969 126.324219 714.714844 128.9375 714.714844 Z M 594.753906 791.164062 C 591.753906 791.21875 589.308594 788.945312 589.308594 785.914062 C 589.308594 783.800781 591.226562 773.894531 592.625 763.269531 C 593.289062 763.316406 594 763.339844 594.753906 763.335938 C 595.507812 763.339844 596.214844 763.316406 596.882812 763.269531 C 598.28125 773.894531 600.199219 783.800781 600.199219 785.914062 C 600.199219 788.945312 597.753906 791.21875 594.753906 791.164062 Z M 869.128906 791.164062 C 872.128906 791.21875 874.574219 788.945312 874.574219 785.914062 C 874.574219 783.800781 872.65625 773.894531 871.257812 763.269531 C 870.589844 763.316406 869.878906 763.339844 869.128906 763.335938 C 868.375 763.339844 867.664062 763.316406 867 763.269531 C 865.601562 773.894531 863.683594 783.800781 863.683594 785.914062 C 863.683594 788.945312 866.128906 791.21875 869.128906 791.164062 Z M 594.753906 811.8125 C 596.261719 806.886719 599.453125 803.335938 601.972656 800.386719 C 604.535156 802.082031 605.523438 804.742188 605.523438 807.410156 C 605.523438 811.8125 597.445312 816.21875 594.753906 825.03125 C 592.0625 816.21875 583.984375 811.8125 583.984375 807.410156 C 583.984375 804.742188 584.96875 802.082031 587.535156 800.386719 C 590.054688 803.335938 593.246094 806.886719 594.753906 811.8125 Z M 869.128906 811.8125 C 867.621094 806.886719 864.429688 803.335938 861.910156 800.386719 C 859.34375 802.082031 858.359375 804.742188 858.359375 807.410156 C 858.359375 811.8125 866.4375 816.21875 869.128906 825.03125 C 871.816406 816.21875 879.898438 811.8125 879.898438 807.410156 C 879.898438 804.742188 878.910156 802.082031 876.347656 800.386719 C 873.828125 803.335938 870.636719 806.886719 869.128906 811.8125 Z M 751.246094 769.753906 C 753.019531 769.207031 754.015625 767.328125 753.46875 765.550781 C 752.925781 763.777344 751.042969 762.78125 749.269531 763.328125 C 747.496094 763.871094 746.5 765.753906 747.042969 767.527344 C 747.589844 769.300781 749.472656 770.296875 751.246094 769.753906 Z M 742.707031 823.914062 C 742.707031 821.246094 741.722656 818.585938 739.15625 816.894531 C 736.636719 819.839844 733.445312 823.390625 731.941406 828.320312 C 730.433594 823.390625 727.242188 819.839844 724.722656 816.894531 C 722.15625 818.585938 721.171875 821.25 721.167969 823.917969 C 721.167969 828.320312 729.25 832.722656 731.941406 841.535156 C 734.628906 832.722656 742.707031 828.316406 742.707031 823.914062 Z M 715.910156 764.078125 C 714.550781 762.8125 712.425781 762.890625 711.160156 764.253906 C 709.894531 765.613281 709.976562 767.738281 711.335938 769.003906 C 712.695312 770.265625 714.820312 770.191406 716.085938 768.828125 C 717.347656 767.46875 717.269531 765.339844 715.910156 764.078125 Z M 778.585938 753.96875 C 780.359375 753.421875 781.355469 751.542969 780.808594 749.765625 C 780.261719 747.992188 778.382812 746.996094 776.609375 747.542969 C 774.832031 748.085938 773.839844 749.96875 774.382812 751.742188 C 774.929688 753.515625 776.8125 754.511719 778.585938 753.964844 Z M 663.164062 777.117188 C 669.21875 771.78125 677.917969 759.640625 681.007812 755.214844 C 676.175781 757.628906 662.898438 764.460938 656.738281 769.679688 C 638.441406 785.117188 645.222656 792.96875 663.164062 777.117188 Z M 694.109375 808.007812 C 698.464844 801.335938 697.171875 790.328125 697.628906 782.089844 L 698.558594 764.988281 C 692.714844 770.625 693.03125 782.929688 689 788.652344 C 684.453125 795.125 676.113281 790.308594 679.445312 783.132812 C 682.386719 776.78125 693.199219 770.902344 695.160156 763.023438 L 680.8125 772.382812 C 673.902344 776.894531 663.726562 781.28125 660.125 788.386719 C 655.3125 797.886719 669.089844 796.332031 676.175781 799.828125 C 682.746094 804.214844 688.289062 816.925781 694.109375 808.007812 Z M 712.007812 801.589844 C 713.441406 793.644531 712.722656 778.730469 712.398438 773.339844 C 710.109375 778.230469 703.945312 791.832031 702.351562 799.746094 C 697.597656 823.207031 707.785156 825.152344 712.007812 801.589844 Z M 761.527344 799.742188 C 759.9375 791.828125 753.773438 778.230469 751.480469 773.335938 C 751.15625 778.726562 750.433594 793.640625 751.871094 801.589844 C 756.09375 825.148438 766.285156 823.203125 761.527344 799.742188 Z M 803.753906 788.386719 C 800.152344 781.28125 789.976562 776.894531 783.066406 772.378906 L 768.71875 763.023438 C 770.679688 770.902344 781.492188 776.78125 784.433594 783.132812 C 787.765625 790.308594 779.425781 795.125 774.878906 788.652344 C 770.847656 782.925781 771.164062 770.625 765.320312 764.988281 L 766.25 782.089844 C 766.707031 790.328125 765.414062 801.335938 769.769531 808.007812 C 775.59375 816.925781 781.132812 804.214844 787.703125 799.824219 C 794.785156 796.332031 808.566406 797.890625 803.753906 788.386719 Z M 807.144531 769.675781 C 800.980469 764.460938 787.703125 757.625 782.875 755.214844 C 785.964844 759.640625 794.660156 771.78125 800.71875 777.117188 C 818.65625 792.964844 825.4375 785.113281 807.144531 769.675781 Z M 841.828125 754.253906 C 839.515625 752.917969 836.71875 752.441406 833.972656 753.816406 C 835.261719 757.472656 836.742188 762.011719 840.257812 765.78125 C 835.238281 764.621094 830.566406 765.609375 826.753906 766.320312 C 826.9375 769.386719 828.75 771.570312 831.058594 772.90625 C 834.871094 775.105469 842.726562 770.3125 851.707031 772.390625 C 845.417969 765.652344 845.640625 756.457031 841.828125 754.253906 Z M 623.621094 765.78125 C 627.136719 762.011719 628.613281 757.472656 629.90625 753.816406 C 627.15625 752.441406 624.359375 752.917969 622.050781 754.253906 C 618.234375 756.457031 618.460938 765.652344 612.175781 772.390625 C 621.152344 770.3125 629.003906 775.105469 632.820312 772.90625 C 635.128906 771.570312 636.941406 769.386719 637.125 766.320312 C 633.316406 765.609375 628.640625 764.621094 623.621094 765.78125 Z M 688.746094 753.042969 C 690.007812 751.683594 689.929688 749.554688 688.570312 748.292969 C 687.210938 747.03125 685.085938 747.105469 683.820312 748.464844 C 682.554688 749.824219 682.636719 751.953125 683.996094 753.21875 C 685.355469 754.480469 687.480469 754.402344 688.746094 753.042969 Z M 714.746094 755.960938 C 717.09375 751.894531 716.953125 746.398438 709.507812 742.097656 C 702.058594 737.796875 697.226562 740.425781 694.878906 744.492188 C 692.535156 748.554688 697.636719 756.917969 695.429688 766.480469 C 702.601562 759.785156 712.402344 760.023438 714.746094 755.960938 Z M 769 744.492188 C 766.652344 740.425781 761.820312 737.796875 754.375 742.097656 C 746.921875 746.398438 746.785156 751.894531 749.132812 755.960938 C 751.476562 760.023438 761.273438 759.789062 768.449219 766.480469 C 766.238281 756.921875 771.34375 748.554688 769 744.492188 Z M 667.214844 722.304688 C 669.023438 722.71875 670.828125 721.589844 671.242188 719.777344 C 671.65625 717.96875 670.527344 716.167969 668.714844 715.753906 C 666.90625 715.335938 665.101562 716.46875 664.6875 718.277344 C 664.273438 720.089844 665.40625 721.890625 667.214844 722.304688 Z M 636.804688 735.152344 C 644.402344 732.425781 656.960938 724.34375 661.464844 721.367188 C 656.085938 721.832031 641.222656 723.292969 633.574219 725.871094 C 610.878906 733.484375 614.285156 743.28125 636.804688 735.152344 Z M 745.8125 746.410156 C 754.503906 742.402344 735.566406 717.769531 731.9375 713.328125 C 728.3125 717.769531 709.371094 742.402344 718.066406 746.410156 C 726.90625 750.492188 736.449219 748.941406 726.601562 761.074219 C 720.945312 768.046875 717.167969 776.742188 726.050781 779.179688 C 723.5 784.746094 720.550781 789.804688 718.476562 794.734375 C 716.253906 800.007812 716.515625 806.21875 720.476562 811.066406 C 723.363281 814.582031 727.628906 816.460938 731.9375 816.5 C 736.246094 816.460938 740.515625 814.582031 743.394531 811.066406 C 747.359375 806.21875 747.625 800.007812 745.398438 794.734375 C 743.328125 789.804688 740.375 784.75 737.824219 779.179688 C 746.710938 776.742188 742.933594 768.046875 737.277344 761.074219 C 727.429688 748.941406 736.972656 750.492188 745.8125 746.410156 Z M 799.191406 719.777344 C 799.605469 717.96875 798.472656 716.164062 796.664062 715.75 C 794.855469 715.335938 793.050781 716.46875 792.636719 718.277344 C 792.222656 720.085938 793.351562 721.886719 795.164062 722.304688 C 796.972656 722.71875 798.777344 721.585938 799.191406 719.777344 Z M 827.074219 735.152344 C 849.589844 743.277344 853 733.480469 830.304688 725.871094 C 822.65625 723.289062 807.792969 721.828125 802.417969 721.363281 C 806.917969 724.34375 819.476562 732.425781 827.074219 735.152344 Z M 820.355469 748.457031 C 822.871094 749.910156 823.726562 753.121094 822.28125 755.628906 C 820.832031 758.140625 817.621094 759 815.105469 757.546875 C 813.273438 756.492188 805.65625 749.875 797.152344 743.351562 C 797.523438 742.800781 797.902344 742.195312 798.277344 741.542969 C 798.652344 740.890625 798.988281 740.269531 799.28125 739.667969 C 808.679688 743.652344 817.773438 746.96875 820.355469 748.457031 Z M 643.328125 748.113281 C 645.160156 747.058594 654.695312 743.765625 664.597656 739.664062 C 664.890625 740.265625 665.226562 740.890625 665.601562 741.542969 C 665.980469 742.195312 666.351562 742.796875 666.722656 743.351562 C 658.574219 749.496094 651.15625 755.71875 648.578125 757.207031 C 646.058594 758.660156 642.847656 757.796875 641.402344 755.289062 C 639.949219 752.777344 640.808594 749.570312 643.328125 748.113281 Z M 726.496094 802.417969 C 726.492188 800.304688 728.410156 790.398438 729.808594 779.773438 C 730.476562 779.820312 731.1875 779.84375 731.941406 779.84375 C 732.691406 779.84375 733.398438 779.820312 734.066406 779.777344 C 735.3125 789.902344 736.988281 799.4375 736.992188 802.417969 C 736.992188 805.324219 734.636719 807.675781 731.742188 807.671875 C 728.84375 807.675781 726.492188 805.324219 726.496094 802.417969 Z M 1143.503906 811.8125 C 1141.996094 806.882812 1138.804688 803.332031 1136.285156 800.386719 C 1133.71875 802.078125 1132.734375 804.742188 1132.730469 807.410156 C 1132.730469 811.8125 1140.8125 816.214844 1143.503906 825.03125 Z M 987.011719 769.75 C 985.234375 769.207031 984.238281 767.324219 984.785156 765.550781 C 985.332031 763.777344 987.210938 762.78125 988.984375 763.328125 C 990.761719 763.871094 991.757812 765.753906 991.210938 767.527344 C 990.664062 769.300781 988.785156 770.296875 987.011719 769.75 Z M 995.546875 823.914062 C 995.546875 821.246094 996.53125 818.585938 999.097656 816.890625 C 1001.617188 819.839844 1004.8125 823.390625 1006.316406 828.320312 C 1007.824219 823.390625 1011.015625 819.839844 1013.535156 816.890625 C 1016.097656 818.585938 1017.085938 821.246094 1017.085938 823.914062 C 1017.085938 828.320312 1009.007812 832.722656 1006.316406 841.535156 C 1003.625 832.722656 995.546875 828.316406 995.546875 823.914062 Z M 1022.347656 764.078125 C 1023.707031 762.8125 1025.832031 762.890625 1027.097656 764.25 C 1028.359375 765.613281 1028.28125 767.738281 1026.921875 769 C 1025.558594 770.265625 1023.433594 770.191406 1022.171875 768.828125 C 1020.90625 767.46875 1020.984375 765.339844 1022.347656 764.078125 Z M 959.671875 753.964844 C 957.894531 753.421875 956.898438 751.539062 957.445312 749.765625 C 957.992188 747.992188 959.871094 746.996094 961.648438 747.542969 C 963.421875 748.085938 964.417969 749.96875 963.871094 751.742188 C 963.324219 753.515625 961.445312 754.511719 959.671875 753.964844 Z M 1075.09375 777.117188 C 1069.035156 771.78125 1060.339844 759.640625 1057.25 755.214844 C 1062.082031 757.628906 1075.355469 764.460938 1081.519531 769.679688 C 1099.8125 785.117188 1093.035156 792.964844 1075.09375 777.117188 Z M 1044.144531 808.007812 C 1039.792969 801.335938 1041.082031 790.328125 1040.625 782.089844 L 1039.695312 764.988281 C 1045.539062 770.625 1045.222656 782.925781 1049.253906 788.648438 C 1053.804688 795.125 1062.140625 790.308594 1058.8125 783.132812 C 1055.871094 776.78125 1045.058594 770.902344 1043.097656 763.023438 L 1057.441406 772.378906 C 1064.351562 776.894531 1074.527344 781.28125 1078.128906 788.386719 C 1082.941406 797.886719 1069.164062 796.332031 1062.078125 799.828125 C 1055.507812 804.214844 1049.96875 816.925781 1044.144531 808.007812 Z M 1026.25 801.585938 C 1024.8125 793.644531 1025.53125 778.730469 1025.859375 773.339844 C 1028.148438 778.230469 1034.3125 791.832031 1035.902344 799.746094 C 1040.660156 823.207031 1030.46875 825.148438 1026.25 801.585938 Z M 976.730469 799.742188 C 978.320312 791.828125 984.484375 778.230469 986.773438 773.335938 C 987.101562 778.726562 987.820312 793.640625 986.382812 801.585938 C 982.164062 825.148438 971.972656 823.203125 976.730469 799.742188 Z M 934.503906 788.386719 C 938.101562 781.28125 948.28125 776.894531 955.1875 772.378906 L 969.535156 763.023438 C 967.574219 770.902344 956.761719 776.78125 953.820312 783.132812 C 950.488281 790.308594 958.828125 795.121094 963.378906 788.648438 C 967.40625 782.925781 967.09375 770.621094 972.9375 764.984375 L 972.003906 782.089844 C 971.550781 790.328125 972.839844 801.335938 968.484375 808.007812 C 962.664062 816.925781 957.121094 804.214844 950.554688 799.824219 C 943.46875 796.332031 929.6875 797.886719 934.503906 788.386719 Z M 931.113281 769.675781 C 937.277344 764.460938 950.550781 757.625 955.382812 755.214844 C 952.292969 759.640625 943.59375 771.78125 937.539062 777.117188 C 919.597656 792.964844 912.820312 785.113281 931.113281 769.675781 Z M 896.425781 754.253906 C 898.738281 752.917969 901.535156 752.441406 904.285156 753.816406 C 902.992188 757.472656 901.515625 762.011719 898 765.777344 C 903.019531 764.621094 907.691406 765.609375 911.5 766.316406 C 911.320312 769.386719 909.507812 771.570312 907.195312 772.90625 C 903.382812 775.105469 895.53125 770.3125 886.550781 772.390625 C 892.839844 765.652344 892.613281 756.453125 896.425781 754.253906 Z M 1114.636719 765.78125 C 1111.121094 762.011719 1109.640625 757.472656 1108.347656 753.816406 C 1111.097656 752.441406 1113.894531 752.917969 1116.207031 754.253906 C 1120.019531 756.453125 1119.792969 765.652344 1126.082031 772.390625 C 1117.101562 770.3125 1109.25 775.105469 1105.4375 772.902344 C 1103.125 771.570312 1101.3125 769.386719 1101.128906 766.320312 C 1104.941406 765.609375 1109.613281 764.621094 1114.636719 765.78125 Z M 1049.511719 753.042969 C 1048.246094 751.683594 1048.324219 749.554688 1049.683594 748.289062 C 1051.046875 747.027344 1053.171875 747.105469 1054.433594 748.464844 C 1055.699219 749.824219 1055.621094 751.953125 1054.261719 753.21875 C 1052.902344 754.480469 1050.773438 754.402344 1049.511719 753.042969 Z M 1023.507812 755.960938 C 1021.160156 751.894531 1021.300781 746.398438 1028.75 742.097656 C 1036.199219 737.796875 1041.027344 740.425781 1043.375 744.492188 C 1045.71875 748.554688 1040.617188 756.917969 1042.828125 766.480469 C 1035.652344 759.785156 1025.851562 760.023438 1023.507812 755.960938 Z M 969.257812 744.488281 C 971.605469 740.425781 976.433594 737.796875 983.882812 742.097656 C 991.332031 746.398438 991.472656 751.894531 989.125 755.960938 C 986.777344 760.023438 976.980469 759.785156 969.804688 766.480469 C 972.015625 756.921875 966.910156 748.554688 969.257812 744.488281 Z M 1071.042969 722.304688 C 1069.230469 722.71875 1067.429688 721.589844 1067.015625 719.777344 C 1066.597656 717.96875 1067.730469 716.167969 1069.539062 715.753906 C 1071.347656 715.335938 1073.152344 716.46875 1073.566406 718.277344 C 1073.980469 720.085938 1072.851562 721.890625 1071.042969 722.304688 Z M 1101.453125 735.152344 C 1093.851562 732.425781 1081.296875 724.34375 1076.792969 721.367188 C 1082.171875 721.832031 1097.03125 723.292969 1104.679688 725.871094 C 1127.378906 733.484375 1123.96875 743.28125 1101.453125 735.152344 Z M 992.441406 746.410156 C 983.75 742.402344 1002.6875 717.769531 1006.316406 713.328125 C 1009.941406 717.769531 1028.882812 742.402344 1020.191406 746.410156 C 1011.347656 750.492188 1001.808594 748.941406 1011.652344 761.070312 C 1017.3125 768.046875 1021.089844 776.742188 1012.203125 779.179688 C 1014.753906 784.746094 1017.703125 789.804688 1019.777344 794.734375 C 1022 800.003906 1021.738281 806.21875 1017.78125 811.066406 C 1014.890625 814.582031 1010.628906 816.460938 1006.316406 816.5 C 1002.007812 816.460938 997.738281 814.582031 994.863281 811.066406 C 990.894531 806.21875 990.628906 800.003906 992.855469 794.734375 C 994.929688 789.804688 997.878906 784.75 1000.429688 779.179688 C 991.542969 776.742188 995.320312 768.046875 1000.976562 761.074219 C 1010.824219 748.9375 1001.285156 750.488281 992.441406 746.410156 Z M 939.0625 719.777344 C 938.652344 717.964844 939.78125 716.164062 941.589844 715.75 C 943.402344 715.335938 945.203125 716.46875 945.617188 718.277344 C 946.035156 720.085938 944.902344 721.886719 943.09375 722.304688 C 941.28125 722.71875 939.480469 721.585938 939.0625 719.777344 Z M 911.179688 735.152344 C 888.664062 743.277344 885.253906 733.480469 907.949219 725.871094 C 915.601562 723.289062 930.460938 721.828125 935.839844 721.363281 C 931.335938 724.34375 918.78125 732.425781 911.183594 735.152344 Z M 917.902344 748.457031 C 915.386719 749.910156 914.527344 753.121094 915.976562 755.628906 C 917.425781 758.140625 920.632812 759 923.152344 757.546875 C 924.984375 756.492188 932.601562 749.875 941.105469 743.351562 C 940.734375 742.800781 940.355469 742.195312 939.976562 741.542969 C 939.605469 740.890625 939.269531 740.269531 938.976562 739.667969 C 929.578125 743.652344 920.480469 746.96875 917.902344 748.457031 Z M 1094.925781 748.113281 C 1093.097656 747.054688 1083.558594 743.765625 1073.660156 739.664062 C 1073.363281 740.265625 1073.03125 740.890625 1072.652344 741.542969 C 1072.277344 742.195312 1071.90625 742.796875 1071.53125 743.351562 C 1079.679688 749.496094 1087.097656 755.714844 1089.679688 757.207031 C 1092.195312 758.660156 1095.40625 757.796875 1096.855469 755.289062 C 1098.304688 752.777344 1097.445312 749.566406 1094.925781 748.113281 Z M 1011.761719 802.417969 C 1011.761719 800.304688 1009.84375 790.398438 1008.445312 779.773438 C 1007.78125 779.820312 1007.070312 779.84375 1006.316406 779.84375 C 1005.5625 779.84375 1004.855469 779.820312 1004.191406 779.773438 C 1002.945312 789.902344 1001.265625 799.4375 1001.265625 802.417969 C 1001.265625 805.324219 1003.617188 807.675781 1006.511719 807.671875 C 1009.414062 807.671875 1011.761719 805.324219 1011.761719 802.417969 Z M 320.378906 791.164062 C 317.378906 791.214844 314.933594 788.945312 314.933594 785.910156 C 314.933594 783.800781 316.851562 773.890625 318.25 763.269531 C 318.917969 763.3125 319.628906 763.335938 320.378906 763.335938 C 321.132812 763.335938 321.84375 763.3125 322.511719 763.269531 C 323.90625 773.890625 325.828125 783.800781 325.824219 785.910156 C 325.824219 788.945312 323.378906 791.214844 320.378906 791.164062 Z M 320.378906 811.8125 C 321.886719 806.882812 325.078125 803.332031 327.597656 800.386719 C 330.164062 802.078125 331.148438 804.742188 331.148438 807.410156 C 331.148438 811.8125 323.070312 816.214844 320.378906 825.03125 C 317.691406 816.214844 309.609375 811.8125 309.609375 807.410156 C 309.613281 804.742188 310.597656 802.078125 313.160156 800.386719 C 315.679688 803.332031 318.875 806.882812 320.378906 811.8125 Z M 438.261719 769.75 C 436.488281 769.207031 435.492188 767.324219 436.039062 765.550781 C 436.582031 763.777344 438.464844 762.78125 440.238281 763.324219 C 442.011719 763.871094 443.007812 765.75 442.464844 767.527344 C 441.917969 769.300781 440.035156 770.296875 438.261719 769.75 Z M 446.800781 823.914062 C 446.800781 821.246094 447.785156 818.585938 450.351562 816.890625 C 452.871094 819.835938 456.0625 823.390625 457.570312 828.316406 C 459.074219 823.390625 462.265625 819.839844 464.785156 816.890625 C 467.351562 818.585938 468.335938 821.246094 468.339844 823.914062 C 468.339844 828.316406 460.257812 832.722656 457.566406 841.535156 C 454.878906 832.722656 446.800781 828.316406 446.800781 823.914062 Z M 473.597656 764.074219 C 474.957031 762.8125 477.082031 762.890625 478.347656 764.25 C 479.613281 765.609375 479.53125 767.738281 478.171875 769 C 476.8125 770.265625 474.6875 770.1875 473.421875 768.828125 C 472.160156 767.46875 472.238281 765.339844 473.597656 764.074219 Z M 410.921875 753.964844 C 409.148438 753.421875 408.152344 751.539062 408.699219 749.765625 C 409.246094 747.992188 411.125 746.992188 412.898438 747.539062 C 414.671875 748.085938 415.667969 749.964844 415.125 751.742188 C 414.578125 753.515625 412.695312 754.511719 410.921875 753.964844 Z M 526.34375 777.117188 C 520.289062 771.78125 511.589844 759.640625 508.5 755.214844 C 513.332031 757.625 526.609375 764.460938 532.769531 769.675781 C 551.066406 785.113281 544.285156 792.964844 526.34375 777.117188 Z M 495.398438 808.007812 C 491.042969 801.335938 492.335938 790.328125 491.878906 782.089844 L 490.949219 764.984375 C 496.792969 770.621094 496.476562 782.925781 500.507812 788.648438 C 505.054688 795.125 513.394531 790.308594 510.0625 783.132812 C 507.121094 776.78125 496.308594 770.902344 494.347656 763.023438 L 508.695312 772.378906 C 515.601562 776.894531 525.777344 781.28125 529.378906 788.386719 C 534.191406 797.886719 520.414062 796.332031 513.332031 799.824219 C 506.757812 804.214844 501.21875 816.925781 495.398438 808.003906 Z M 477.5 801.585938 C 476.066406 793.640625 476.785156 778.726562 477.109375 773.339844 C 479.398438 778.230469 485.5625 791.828125 487.15625 799.742188 C 491.910156 823.203125 481.722656 825.148438 477.5 801.585938 Z M 427.980469 799.742188 C 429.570312 791.828125 435.734375 778.230469 438.027344 773.335938 C 438.351562 778.726562 439.074219 793.640625 437.636719 801.585938 C 433.414062 825.148438 423.226562 823.203125 427.980469 799.742188 Z M 385.753906 788.386719 C 389.355469 781.28125 399.53125 776.894531 406.441406 772.378906 L 420.789062 763.023438 C 418.828125 770.902344 408.015625 776.78125 405.074219 783.132812 C 401.742188 790.308594 410.082031 795.121094 414.628906 788.648438 C 418.660156 782.925781 418.347656 770.621094 424.1875 764.984375 L 423.257812 782.085938 C 422.800781 790.328125 424.09375 801.335938 419.738281 808.003906 C 413.914062 816.925781 408.375 804.214844 401.804688 799.824219 C 394.722656 796.332031 380.941406 797.886719 385.753906 788.386719 Z M 382.367188 769.675781 C 388.527344 764.460938 401.804688 757.625 406.632812 755.214844 C 403.542969 759.640625 394.847656 771.78125 388.789062 777.113281 C 370.851562 792.964844 364.070312 785.113281 382.367188 769.675781 Z M 347.679688 754.25 C 349.992188 752.917969 352.789062 752.4375 355.535156 753.816406 C 354.242188 757.472656 352.765625 762.011719 349.25 765.777344 C 354.269531 764.621094 358.941406 765.609375 362.753906 766.316406 C 362.570312 769.386719 360.757812 771.570312 358.449219 772.902344 C 354.636719 775.105469 346.78125 770.3125 337.800781 772.390625 C 344.089844 765.652344 343.867188 756.453125 347.679688 754.253906 Z M 565.886719 765.777344 C 562.371094 762.011719 560.894531 757.472656 559.601562 753.816406 C 562.351562 752.441406 565.148438 752.917969 567.457031 754.25 C 571.273438 756.453125 571.046875 765.652344 577.332031 772.390625 C 568.355469 770.3125 560.503906 775.105469 556.6875 772.902344 C 554.378906 771.570312 552.566406 769.386719 552.382812 766.320312 C 556.195312 765.609375 560.867188 764.621094 565.886719 765.777344 Z M 500.761719 753.042969 C 499.5 751.679688 499.578125 749.554688 500.9375 748.289062 C 502.296875 747.027344 504.421875 747.105469 505.6875 748.464844 C 506.953125 749.824219 506.871094 751.953125 505.511719 753.214844 C 504.152344 754.480469 502.027344 754.402344 500.761719 753.042969 Z M 474.761719 755.960938 C 472.414062 751.894531 472.554688 746.398438 480 742.097656 C 487.449219 737.796875 492.28125 740.425781 494.628906 744.492188 C 496.972656 748.554688 491.871094 756.917969 494.078125 766.480469 C 486.90625 759.785156 477.105469 760.023438 474.761719 755.960938 Z M 420.511719 744.488281 C 422.855469 740.425781 427.6875 737.796875 435.132812 742.097656 C 442.585938 746.398438 442.722656 751.894531 440.375 755.960938 C 438.03125 760.023438 428.234375 759.785156 421.058594 766.480469 C 423.269531 756.921875 418.164062 748.554688 420.511719 744.488281 Z M 522.292969 722.304688 C 520.484375 722.71875 518.683594 721.585938 518.269531 719.777344 C 517.851562 717.96875 518.984375 716.167969 520.792969 715.753906 C 522.601562 715.335938 524.40625 716.46875 524.820312 718.277344 C 525.234375 720.085938 524.105469 721.890625 522.292969 722.304688 Z M 552.703125 735.152344 C 545.105469 732.425781 532.550781 724.34375 528.042969 721.363281 C 533.421875 721.828125 548.285156 723.292969 555.933594 725.871094 C 578.628906 733.484375 575.222656 743.277344 552.703125 735.152344 Z M 443.695312 746.410156 C 435.003906 742.402344 453.941406 717.769531 457.570312 713.328125 C 461.195312 717.769531 480.136719 742.402344 471.445312 746.410156 C 462.601562 750.488281 453.058594 748.941406 462.90625 761.070312 C 468.5625 768.046875 472.339844 776.742188 463.457031 779.179688 C 466.007812 784.746094 468.957031 789.804688 471.03125 794.734375 C 473.253906 800.003906 472.992188 806.21875 469.03125 811.066406 C 466.144531 814.582031 461.878906 816.460938 457.570312 816.5 C 453.261719 816.460938 448.992188 814.582031 446.113281 811.066406 C 442.148438 806.21875 441.882812 800.003906 444.109375 794.734375 C 446.179688 789.804688 449.132812 784.75 451.683594 779.179688 C 442.796875 776.742188 446.574219 768.046875 452.230469 761.070312 C 462.078125 748.9375 452.535156 750.488281 443.695312 746.410156 Z M 390.316406 719.777344 C 389.902344 717.964844 391.035156 716.164062 392.84375 715.75 C 394.652344 715.335938 396.457031 716.464844 396.871094 718.277344 C 397.285156 720.085938 396.15625 721.886719 394.34375 722.304688 C 392.535156 722.71875 390.734375 721.585938 390.316406 719.777344 Z M 362.433594 735.152344 C 339.917969 743.277344 336.507812 733.480469 359.203125 725.867188 C 366.855469 723.289062 381.714844 721.828125 387.09375 721.363281 C 382.589844 724.339844 370.03125 732.421875 362.433594 735.152344 Z M 369.15625 748.453125 C 366.636719 749.910156 365.78125 753.121094 367.230469 755.628906 C 368.679688 758.140625 371.886719 759 374.40625 757.546875 C 376.234375 756.492188 383.855469 749.875 392.355469 743.351562 C 391.984375 742.796875 391.609375 742.195312 391.230469 741.542969 C 390.855469 740.890625 390.523438 740.265625 390.230469 739.667969 C 380.832031 743.652344 371.734375 746.964844 369.15625 748.453125 Z M 546.179688 748.113281 C 544.351562 747.054688 534.8125 743.765625 524.910156 739.664062 C 524.617188 740.265625 524.28125 740.890625 523.90625 741.542969 C 523.53125 742.195312 523.15625 742.796875 522.785156 743.347656 C 530.933594 749.496094 538.351562 755.714844 540.933594 757.203125 C 543.449219 758.660156 546.660156 757.796875 548.109375 755.289062 C 549.558594 752.777344 548.699219 749.566406 546.179688 748.113281 Z M 463.015625 802.417969 C 463.015625 800.304688 461.097656 790.398438 459.699219 779.773438 C 459.03125 779.820312 458.324219 779.84375 457.570312 779.839844 C 456.816406 779.84375 456.109375 779.820312 455.445312 779.773438 C 454.199219 789.902344 452.519531 799.4375 452.519531 802.417969 C 452.519531 805.324219 454.871094 807.671875 457.765625 807.671875 C 460.667969 807.671875 463.015625 805.324219 463.015625 802.417969 Z M 46.007812 811.8125 C 47.515625 806.882812 50.707031 803.332031 53.226562 800.386719 C 55.789062 802.078125 56.777344 804.742188 56.777344 807.410156 C 56.777344 811.8125 48.699219 816.214844 46.007812 825.03125 Z M 202.5 769.75 C 204.273438 769.207031 205.269531 767.324219 204.722656 765.550781 C 204.179688 763.773438 202.296875 762.78125 200.523438 763.324219 C 198.75 763.871094 197.75 765.75 198.296875 767.527344 C 198.84375 769.300781 200.726562 770.296875 202.5 769.75 Z M 193.960938 823.914062 C 193.960938 821.246094 192.976562 818.582031 190.410156 816.890625 C 187.890625 819.835938 184.699219 823.386719 183.191406 828.316406 C 181.6875 823.386719 178.496094 819.839844 175.976562 816.890625 C 173.410156 818.582031 172.425781 821.246094 172.421875 823.914062 C 172.421875 828.316406 180.503906 832.71875 183.191406 841.535156 C 185.882812 832.722656 193.960938 828.316406 193.960938 823.914062 Z M 167.164062 764.074219 C 165.804688 762.8125 163.679688 762.890625 162.414062 764.25 C 161.148438 765.609375 161.230469 767.738281 162.589844 769 C 163.949219 770.265625 166.074219 770.1875 167.339844 768.828125 C 168.601562 767.464844 168.523438 765.339844 167.164062 764.074219 Z M 229.839844 753.964844 C 231.613281 753.421875 232.609375 751.539062 232.0625 749.765625 C 231.515625 747.992188 229.636719 746.992188 227.863281 747.539062 C 226.085938 748.085938 225.09375 749.964844 225.636719 751.742188 C 226.183594 753.515625 228.066406 754.511719 229.839844 753.964844 Z M 114.414062 777.117188 C 120.472656 771.78125 129.171875 759.640625 132.261719 755.214844 C 127.429688 757.625 114.152344 764.460938 107.992188 769.675781 C 89.695312 785.113281 96.476562 792.964844 114.414062 777.117188 Z M 145.363281 808.003906 C 149.71875 801.335938 148.425781 790.328125 148.882812 782.085938 L 149.8125 764.984375 C 143.96875 770.621094 144.285156 782.925781 140.253906 788.648438 C 135.707031 795.121094 127.367188 790.308594 130.699219 783.132812 C 133.640625 776.78125 144.453125 770.902344 146.414062 763.023438 L 132.066406 772.378906 C 125.15625 776.894531 114.980469 781.277344 111.378906 788.386719 C 106.566406 797.886719 120.34375 796.328125 127.429688 799.824219 C 134 804.210938 139.542969 816.925781 145.363281 808.003906 Z M 163.261719 801.585938 C 164.695312 793.640625 163.976562 778.726562 163.652344 773.339844 C 161.363281 778.230469 155.199219 791.828125 153.605469 799.742188 C 148.851562 823.203125 159.039062 825.148438 163.261719 801.585938 Z M 212.78125 799.742188 C 211.191406 791.828125 205.023438 778.226562 202.734375 773.335938 C 202.410156 778.726562 201.6875 793.640625 203.125 801.585938 C 207.347656 825.148438 217.535156 823.203125 212.78125 799.742188 Z M 255.007812 788.386719 C 251.40625 781.277344 241.230469 776.894531 234.320312 772.378906 L 219.972656 763.023438 C 221.933594 770.902344 232.746094 776.78125 235.6875 783.128906 C 239.019531 790.308594 230.679688 795.121094 226.132812 788.648438 C 222.101562 782.925781 222.414062 770.621094 216.574219 764.984375 L 217.503906 782.085938 C 217.960938 790.328125 216.667969 801.332031 221.023438 808.003906 C 226.847656 816.925781 232.386719 804.210938 238.957031 799.824219 C 246.039062 796.332031 259.820312 797.886719 255.007812 788.386719 Z M 258.394531 769.675781 C 252.234375 764.460938 238.957031 757.625 234.125 755.214844 C 237.21875 759.640625 245.914062 771.777344 251.972656 777.113281 C 269.910156 792.964844 276.691406 785.113281 258.394531 769.675781 Z M 293.082031 754.25 C 290.769531 752.917969 287.972656 752.4375 285.226562 753.8125 C 286.515625 757.472656 287.992188 762.011719 291.511719 765.777344 C 286.492188 764.621094 281.820312 765.605469 278.007812 766.316406 C 278.191406 769.382812 280.003906 771.570312 282.3125 772.902344 C 286.125 775.105469 293.980469 770.3125 302.960938 772.386719 C 296.671875 765.652344 296.894531 756.453125 293.082031 754.25 Z M 74.875 765.777344 C 78.390625 762.007812 79.867188 757.472656 81.160156 753.816406 C 78.410156 752.4375 75.613281 752.917969 73.304688 754.25 C 69.488281 756.453125 69.714844 765.652344 63.429688 772.390625 C 72.40625 770.3125 80.257812 775.105469 84.074219 772.902344 C 86.382812 771.566406 88.195312 769.386719 88.378906 766.320312 C 84.566406 765.609375 79.894531 764.621094 74.875 765.777344 Z M 140 753.042969 C 141.261719 751.679688 141.183594 749.554688 139.824219 748.289062 C 138.464844 747.027344 136.339844 747.105469 135.074219 748.464844 C 133.808594 749.824219 133.886719 751.949219 135.25 753.214844 C 136.609375 754.476562 138.734375 754.402344 140 753.039062 Z M 166 755.960938 C 168.347656 751.894531 168.207031 746.398438 160.761719 742.097656 C 153.308594 737.796875 148.480469 740.425781 146.132812 744.492188 C 143.789062 748.554688 148.890625 756.917969 146.683594 766.480469 C 153.855469 759.785156 163.65625 760.023438 166 755.960938 Z M 220.253906 744.488281 C 217.90625 740.421875 213.074219 737.796875 205.625 742.097656 C 198.175781 746.394531 198.039062 751.890625 200.386719 755.957031 C 202.730469 760.023438 212.527344 759.785156 219.703125 766.476562 C 217.492188 756.917969 222.597656 748.550781 220.253906 744.488281 Z M 118.46875 722.304688 C 120.277344 722.714844 122.082031 721.585938 122.496094 719.777344 C 122.910156 717.964844 121.777344 716.164062 119.96875 715.75 C 118.160156 715.335938 116.355469 716.464844 115.941406 718.277344 C 115.527344 720.085938 116.65625 721.890625 118.46875 722.304688 Z M 88.058594 735.152344 C 95.65625 732.425781 108.214844 724.34375 112.71875 721.363281 C 107.339844 721.828125 92.476562 723.292969 84.828125 725.871094 C 62.132812 733.480469 65.542969 743.277344 88.058594 735.152344 Z M 197.066406 746.410156 C 205.757812 742.402344 186.820312 717.769531 183.191406 713.324219 C 179.566406 717.769531 160.625 742.402344 169.320312 746.410156 C 178.160156 750.488281 187.703125 748.941406 177.855469 761.070312 C 172.199219 768.046875 168.421875 776.742188 177.304688 779.179688 C 174.753906 784.746094 171.804688 789.804688 169.730469 794.734375 C 167.507812 800.003906 167.769531 806.21875 171.730469 811.066406 C 174.617188 814.578125 178.882812 816.460938 183.191406 816.496094 C 187.5 816.457031 191.769531 814.582031 194.648438 811.066406 C 198.613281 806.21875 198.878906 800.003906 196.652344 794.734375 C 194.582031 789.800781 191.628906 784.746094 189.082031 779.179688 C 197.96875 776.742188 194.1875 768.042969 188.53125 761.070312 C 178.683594 748.9375 188.226562 750.488281 197.066406 746.410156 Z M 250.445312 719.777344 C 250.859375 717.964844 249.726562 716.164062 247.917969 715.746094 C 246.109375 715.335938 244.304688 716.464844 243.890625 718.273438 C 243.476562 720.085938 244.605469 721.886719 246.417969 722.300781 C 248.226562 722.714844 250.03125 721.585938 250.445312 719.777344 Z M 278.328125 735.152344 C 300.84375 743.277344 304.253906 733.480469 281.558594 725.867188 C 273.910156 723.289062 259.046875 721.828125 253.667969 721.363281 C 258.171875 724.339844 270.730469 732.421875 278.328125 735.152344 Z M 271.609375 748.453125 C 274.125 749.910156 274.980469 753.121094 273.535156 755.625 C 272.082031 758.140625 268.875 759 266.359375 757.546875 C 264.527344 756.488281 256.910156 749.875 248.40625 743.351562 C 248.777344 742.796875 249.15625 742.195312 249.53125 741.542969 C 249.90625 740.890625 250.242188 740.265625 250.535156 739.667969 C 259.929688 743.652344 269.027344 746.964844 271.609375 748.453125 Z M 94.582031 748.113281 C 96.414062 747.054688 105.949219 743.765625 115.851562 739.664062 C 116.144531 740.261719 116.480469 740.890625 116.855469 741.542969 C 117.234375 742.195312 117.605469 742.796875 117.976562 743.347656 C 109.828125 749.492188 102.410156 755.714844 99.832031 757.203125 C 97.3125 758.660156 94.101562 757.796875 92.65625 755.285156 C 91.203125 752.773438 92.0625 749.566406 94.582031 748.113281 Z M 177.746094 802.417969 C 177.746094 800.304688 179.664062 790.398438 181.0625 779.773438 C 181.730469 779.816406 182.441406 779.84375 183.191406 779.839844 C 183.945312 779.839844 184.652344 779.820312 185.320312 779.773438 C 186.566406 789.902344 188.242188 799.4375 188.246094 802.417969 C 188.246094 805.320312 185.890625 807.671875 182.996094 807.671875 C 180.097656 807.671875 177.746094 805.324219 177.75 802.417969 Z M 177.746094 802.417969 " fill-opacity="1" fill-rule="evenodd"/></g></svg>