<?xml version="1.0" encoding="UTF-8" standalone="no"?>
<svg
   width="1463.3334"
   zoomAndPan="magnify"
   viewBox="0 0 1097.5 135.51956"
   height="180.69275"
   preserveAspectRatio="xMidYMid"
   version="1.0"
   id="svg2"
   xmlns="http://www.w3.org/2000/svg"
   xmlns:svg="http://www.w3.org/2000/svg">
  <defs
     id="defs1">
    <clipPath
       id="3acdb3f9a6">
      <path
         d="m 46,706.00391 h 1098 v 135.6289 H 46 Z m 0,0"
         clip-rule="nonzero"
         id="path1" />
    </clipPath>
  </defs>
  <g
     clip-path="url(#3acdb3f9a6)"
     id="g2"
     transform="translate(-46.003907,-706.01561)">
    <path
       fill="#b99117"
       d="m 128.9375,714.71484 c 3.38281,0 6.76172,-1.48828 8.38672,-5.53125 h 3.375 c -1.27735,0.89844 -1.96875,2.08594 -1.82813,3.62891 0.88672,9.69922 7,17.1875 -8.42968,14.72266 -8.86719,-1.41016 -18.28907,-0.33204 -15.95703,8.57812 -6.09766,0.57422 -11.94922,0.55078 -17.257818,1.21875 -5.675781,0.71094 -10.929687,4.04297 -13.144531,9.89844 -1.601562,4.25781 -1.09375,8.89062 1.027344,12.64453 2.1875,3.70703 5.949219,6.46875 10.429687,7.20312 6.183598,1.01563 11.695318,-1.86718 15.148438,-6.42968 3.23438,-4.26172 6.13672,-9.34375 9.68359,-14.33594 6.55469,6.47656 12.19922,-1.14453 15.41016,-9.53125 5.58203,-14.59375 9.00781,-5.55469 16.96484,0.0625 7.45313,5.26562 18.58203,-20.59375 21.36328,-27.66016 h 18.16407 c 2.78125,7.0625 13.91015,32.92969 21.36718,27.66016 7.95313,-5.61719 11.37891,-14.65625 16.96485,-0.0586 3.21094,8.38281 8.85156,16.0039 15.40625,9.52734 3.54687,4.99219 6.44922,10.07422 9.68359,14.33594 3.45313,4.5625 8.96875,7.4414 15.14453,6.4375 4.48828,-0.7461 8.2461,-3.4961 10.4375,-7.21094 2.11719,-3.75 2.625,-8.38672 1.01953,-12.63672 -2.21484,-5.85937 -7.46093,-9.19531 -13.14062,-9.90234 -5.30469,-0.67188 -11.16016,-0.64453 -17.25781,-1.21875 2.33203,-8.91407 -7.08594,-9.99219 -15.95313,-8.57813 -15.43359,2.46094 -9.32031,-5.02734 -8.43359,-14.72656 0.14453,-1.54297 -0.54688,-2.72656 -1.82422,-3.62891 h 3.37109 c 1.62891,4.04297 5.00391,5.53125 8.38672,5.53125 2.60938,0 5.22656,-2.66797 8.65235,-5.53125 h 15.09765 l 7.4336,3.76953 c 7.36328,3.72657 16.25,10.34766 24.20703,9.91407 8.1289,-0.44922 5.23437,-7.06641 3.1875,-13.6836 h 15.43359 c -5.41406,8.44922 -10.17578,18.31641 -4.94922,20.72266 8.83985,4.08203 18.38281,2.53125 8.53516,14.66406 -5.65625,6.97266 -9.4336,15.66797 -0.55078,18.10547 -2.55078,5.56641 -5.5,10.625 -7.57422,15.55469 -2.22266,5.27344 -1.96094,11.48437 2,16.33203 2.88672,3.51562 7.15234,5.39453 11.46094,5.43359 4.3125,-0.0391 8.57421,-1.91797 11.46484,-5.43359 3.95703,-4.84766 4.22266,-11.05859 1.99609,-16.33203 -2.07422,-4.92969 -5.02343,-9.98438 -7.57422,-15.55469 8.88672,-2.4375 5.10938,-11.13281 -0.55078,-18.10547 -9.84375,-12.13281 -0.30468,-10.58203 8.53907,-14.66406 5.22656,-2.40625 0.46484,-12.27344 -4.95313,-20.72266 h 15.4375 c -2.04687,6.61719 -4.94141,13.23438 3.18359,13.6836 7.95704,0.43359 16.84375,-6.1875 24.20704,-9.91407 l 7.43359,-3.76953 h 15.10156 c 3.42188,2.86328 6.03906,5.53125 8.65235,5.53125 3.3789,0 6.7539,-1.48828 8.38281,-5.53125 h 3.375 c -1.28125,0.90235 -1.96875,2.08594 -1.82813,3.62891 0.88672,9.69922 7,17.1875 -8.42968,14.72656 -8.86719,-1.41406 -18.28907,-0.33594 -15.95704,8.57813 -6.09765,0.57422 -11.94921,0.54687 -17.25781,1.21875 -5.67578,0.70703 -10.92578,4.04297 -13.14062,9.90234 -1.60547,4.25 -1.09766,8.88672 1.02343,12.63672 2.1875,3.71484 5.94922,6.46484 10.4336,7.21094 6.17969,1.0039 11.6914,-1.875 15.14453,-6.4375 3.23437,-4.26172 6.13672,-9.34375 9.68359,-14.33594 6.55469,6.47656 12.19922,-1.14453 15.40625,-9.52734 5.58594,-14.59766 9.01172,-5.5586 16.96485,0.0586 7.45703,5.26953 18.58593,-20.59766 21.36718,-27.66016 h 18.16407 c 2.78125,7.06641 13.91015,32.92969 21.36718,27.66016 7.95313,-5.61719 11.38282,-14.65625 16.96485,-0.0625 3.20703,8.38672 8.85156,16.00781 15.40625,9.53125 3.54687,4.99219 6.44922,10.07422 9.68359,14.33594 3.45313,4.5625 8.96485,7.4414 15.14844,6.42968 4.48047,-0.73437 8.24219,-3.49609 10.42969,-7.20312 2.12109,-3.75391 2.6289,-8.38672 1.02734,-12.64453 -2.21484,-5.85156 -7.46875,-9.1875 -13.14453,-9.89844 -5.30859,-0.66797 -11.16016,-0.64453 -17.25781,-1.21875 2.33203,-8.91016 -7.08985,-9.98828 -15.95703,-8.57812 C 494.88672,730 501,722.51172 501.88672,712.8125 c 0.14453,-1.54297 -0.55078,-2.73047 -1.82813,-3.62891 h 3.375 c 1.625,4.04297 5.00391,5.53125 8.38672,5.53125 2.60938,0 5.22266,-2.67187 8.64844,-5.53125 h 15.10156 l 7.4336,3.76953 c 7.36328,3.72657 16.25,10.34766 24.20703,9.91016 8.125,-0.44141 5.23047,-7.0625 3.18359,-13.67969 h 15.4375 c -5.41797,8.44922 -10.17969,18.3125 -4.95312,20.72266 8.83984,4.08203 18.38281,2.53125 8.53515,14.66016 -5.65625,6.97656 -9.43359,15.67187 -0.54687,18.10937 -2.55078,5.56641 -5.5,10.625 -7.57813,15.55469 -2.22265,5.26953 -1.96094,11.48437 2,16.33203 2.89063,3.51562 7.15235,5.39453 11.46485,5.43359 4.30859,-0.0391 8.57421,-1.92187 11.46093,-5.43359 3.96094,-4.84766 4.22266,-11.0625 2,-16.33203 -2.07422,-4.92969 -5.02343,-9.98828 -7.57422,-15.55469 8.88282,-2.4375 5.10547,-11.13281 -0.55078,-18.10937 -9.84765,-12.12891 -0.30468,-10.58204 8.53516,-14.66016 5.22656,-2.41016 0.46484,-12.27344 -4.94922,-20.72266 h 15.43359 c -2.04687,6.61719 -4.9414,13.23828 3.1875,13.67969 7.95313,0.4375 16.83985,-6.18359 24.20313,-9.91016 l 7.4375,-3.76953 h 15.09766 c 3.42578,2.85938 6.03906,5.53125 8.65234,5.53125 3.38281,0 6.75781,-1.48828 8.38672,-5.53125 h 3.375 c -1.28125,0.89844 -1.97266,2.08594 -1.83203,3.62891 0.88672,9.69922 7,17.1875 -8.42969,14.72266 -8.86719,-1.41016 -18.28516,-0.33204 -15.95313,8.57812 -6.09765,0.57422 -11.95312,0.55078 -17.26171,1.21875 -5.67188,0.71094 -10.92579,4.04297 -13.14454,9.89844 -1.59765,4.25781 -1.09375,8.89062 1.02735,12.64453 2.1875,3.70703 5.94922,6.46875 10.43359,7.20312 6.17969,1.01172 11.69531,-1.86718 15.14453,-6.42968 3.23438,-4.26172 6.14063,-9.34375 9.6836,-14.33594 6.55468,6.47656 12.19922,-1.14453 15.41015,-9.53125 5.58203,-14.59375 9.01172,-5.55469 16.96485,0.0625 7.45312,5.26562 18.58203,-20.59375 21.36718,-27.66016 h 18.16016 c 2.78125,7.0625 13.91406,32.92969 21.36719,27.66016 7.95312,-5.61719 11.38281,-14.65625 16.96484,-0.0586 3.21094,8.38281 8.85547,16.0039 15.40625,9.52734 3.54688,4.99219 6.45313,10.07422 9.6836,14.33594 3.45312,4.5625 8.96875,7.4414 15.14453,6.4375 4.48828,-0.7461 8.25,-3.4961 10.4375,-7.21094 2.12109,-3.75 2.6289,-8.38672 1.02343,-12.63672 -2.21484,-5.85937 -7.46484,-9.19531 -13.14453,-9.90234 -5.30468,-0.67188 -11.16015,-0.64453 -17.2539,-1.21875 2.33203,-8.91407 -7.08985,-9.99219 -15.95703,-8.57813 -15.4336,2.46094 -9.31641,-5.02734 -8.42969,-14.72656 0.14062,-1.54297 -0.54688,-2.72656 -1.82813,-3.62891 h 3.375 c 1.625,4.04297 5.00391,5.53125 8.38282,5.53125 2.61328,0 5.22656,-2.66797 8.65234,-5.53125 h 15.10156 l 7.4336,3.76953 c 7.36328,3.72657 16.24609,10.34766 24.20312,9.91407 8.12891,-0.44922 5.23438,-7.06641 3.1875,-13.6836 h 15.4375 c -5.41797,8.44922 -10.17969,18.31641 -4.95312,20.72266 8.83984,4.08203 18.38281,2.53125 8.53515,14.66406 -5.65625,6.97266 -9.43359,15.66797 -0.54687,18.10547 -2.55078,5.56641 -5.5,10.625 -7.57813,15.55469 -2.22265,5.27344 -1.96094,11.48437 2,16.33203 2.89063,3.51562 7.15235,5.39453 11.46485,5.43359 4.30859,-0.0391 8.57421,-1.91797 11.46093,-5.43359 3.96094,-4.84766 4.22266,-11.05859 2,-16.33203 -2.07422,-4.92969 -5.02343,-9.98438 -7.57422,-15.55469 8.88282,-2.4375 5.10547,-11.13281 -0.55078,-18.10547 -9.84765,-12.13281 -0.30468,-10.58203 8.53907,-14.66406 5.22265,-2.40625 0.46093,-12.27344 -4.95313,-20.72266 h 15.4375 c -2.05078,6.61719 -4.94531,13.23438 3.18359,13.6836 7.95704,0.43359 16.84375,-6.1875 24.20313,-9.91407 l 7.43359,-3.76953 h 15.10157 c 3.42578,2.86328 6.04296,5.53125 8.65234,5.53125 3.38281,0 6.75781,-1.48828 8.38672,-5.53125 h 3.37109 c -1.27734,0.90235 -1.96875,2.08594 -1.82812,3.62891 0.89062,9.69922 7.0039,17.1875 -8.42969,14.72656 -8.86719,-1.41406 -18.28906,-0.33594 -15.95703,8.57813 -6.09375,0.57422 -11.94922,0.54687 -17.25391,1.21875 -5.67969,0.70703 -10.92969,4.04297 -13.14062,9.90234 -1.60547,4.25 -1.09766,8.88672 1.01953,12.63672 2.1914,3.71484 5.94922,6.46484 10.4375,7.21094 6.17578,1.0039 11.6914,-1.875 15.14453,-6.4375 3.23437,-4.26172 6.13672,-9.34375 9.68359,-14.33594 6.55469,6.47656 12.19532,-1.14453 15.40625,-9.52734 5.58594,-14.59766 9.01172,-5.5586 16.96485,0.0586 7.45703,5.26953 18.58593,-20.59766 21.36718,-27.66016 h 18.16013 c 2.7852,7.06641 13.9141,32.92969 21.3672,27.66016 7.9571,-5.61719 11.3828,-14.65625 16.9649,-0.0625 3.2109,8.38672 8.8554,16.00781 15.4101,9.53125 3.5469,4.99219 6.4492,10.07422 9.6836,14.33594 3.4531,4.5625 8.9649,7.4414 15.1485,6.42968 4.4804,-0.73437 8.2421,-3.49609 10.4296,-7.20312 2.1211,-3.75391 2.6289,-8.38672 1.0274,-12.64453 -2.2188,-5.85156 -7.4688,-9.1875 -13.1445,-9.89844 -5.3086,-0.66797 -11.1641,-0.64453 -17.2579,-1.21875 2.3282,-8.91016 -7.0898,-9.98828 -15.957,-8.57812 -15.4297,2.46484 -9.3164,-5.02344 -8.4297,-14.72266 0.1406,-1.54297 -0.5508,-2.73047 -1.832,-3.62891 h 3.375 c 1.6289,4.04297 5.0078,5.53125 8.3867,5.53125 2.6133,0 5.2266,-2.67187 8.6524,-5.53125 h 15.0976 l 7.4375,3.76953 c 7.3633,3.72657 16.25,10.34766 24.207,9.91016 8.125,-0.44141 5.2305,-7.0625 3.1836,-13.67969 h 15.4336 c -5.414,8.44922 -10.1758,18.3125 -4.9492,20.72266 8.8399,4.07812 18.3828,2.53125 8.5352,14.66016 -5.6563,6.97656 -9.4336,15.67187 -0.5508,18.10937 -2.5508,5.56641 -5.5,10.625 -7.5742,15.55469 -2.2227,5.26953 -1.961,11.48437 2,16.33203 2.8867,3.51562 7.1523,5.39453 11.4609,5.43359 v -8.83203 c -3,0.0508 -5.4453,-2.21875 -5.4453,-5.25 0,-2.11328 1.918,-12.01953 3.3164,-22.64453 0.668,0.043 1.3789,0.0703 2.1289,0.0664 V 706.01562 H 46.003906 v 57.32032 c 0.753906,0 1.464844,-0.0234 2.128906,-0.0664 1.398438,10.625 3.316407,20.53125 3.316407,22.64453 0,3.03125 -2.445313,5.30078 -5.445313,5.25 v 8.83203 c 4.3125,-0.0391 8.574219,-1.92187 11.464844,-5.43359 3.957031,-4.84766 4.21875,-11.0625 1.996094,-16.33203 -2.074219,-4.92969 -5.023438,-9.98828 -7.574219,-15.55469 8.886719,-2.4375 5.109375,-11.13281 -0.550781,-18.10937 -9.84375,-12.12891 -0.304688,-10.58204 8.539062,-14.66016 5.226563,-2.41016 0.464844,-12.27344 -4.953125,-20.72266 h 15.433594 c -2.046875,6.61719 -4.941406,13.23828 3.1875,13.67969 C 81.5,723.30079 90.390625,716.6797 97.75,712.95313 l 7.4375,-3.76953 h 15.10156 c 3.42188,2.85938 6.03516,5.53125 8.64844,5.53125 z m 465.81641,76.44922 c -3,0.0547 -5.44532,-2.21875 -5.44532,-5.25 0,-2.11328 1.91797,-12.01953 3.31641,-22.64453 0.66406,0.0469 1.375,0.0703 2.12891,0.0664 0.7539,0.004 1.46093,-0.0195 2.1289,-0.0664 1.39844,10.625 3.31641,20.53125 3.31641,22.64453 0,3.03125 -2.44531,5.30469 -5.44531,5.25 z m 274.375,0 c 3,0.0547 5.44531,-2.21875 5.44531,-5.25 0,-2.11328 -1.91797,-12.01953 -3.31641,-22.64453 -0.66797,0.0469 -1.3789,0.0703 -2.1289,0.0664 -0.75391,0.004 -1.46485,-0.0195 -2.12891,-0.0664 -1.39844,10.625 -3.31641,20.53125 -3.31641,22.64453 0,3.03125 2.44532,5.30469 5.44532,5.25 z m -274.375,20.64844 c 1.50781,-4.92578 4.69921,-8.47656 7.21875,-11.42578 2.5625,1.69531 3.55078,4.35547 3.55078,7.02344 0,4.40234 -8.07813,8.80859 -10.76953,17.62109 -2.69141,-8.8125 -10.76954,-13.21875 -10.76954,-17.62109 0,-2.66797 0.98438,-5.32813 3.55079,-7.02344 2.51953,2.94922 5.71093,6.5 7.21875,11.42578 z m 274.375,0 c -1.50782,-4.92578 -4.69922,-8.47656 -7.21875,-11.42578 -2.56641,1.69531 -3.55079,4.35547 -3.55079,7.02344 0,4.40234 8.07813,8.80859 10.76954,17.62109 2.6875,-8.8125 10.76953,-13.21875 10.76953,-17.62109 0,-2.66797 -0.98828,-5.32813 -3.55078,-7.02344 -2.51954,2.94922 -5.71094,6.5 -7.21875,11.42578 z M 751.24609,769.75391 c 1.77344,-0.54688 2.76953,-2.42579 2.22266,-4.20313 -0.54297,-1.77344 -2.42578,-2.76953 -4.19922,-2.22266 -1.77344,0.54297 -2.76953,2.42579 -2.22656,4.19922 0.54687,1.77344 2.42969,2.76953 4.20312,2.22657 z m -8.53906,54.16015 c 0,-2.66797 -0.98437,-5.32812 -3.55078,-7.01953 -2.51953,2.94531 -5.71094,6.49609 -7.21484,11.42578 -1.50782,-4.92969 -4.69922,-8.48047 -7.21875,-11.42578 -2.56641,1.69141 -3.55079,4.35547 -3.55469,7.02344 0,4.40234 8.08203,8.80469 10.77344,17.61719 2.6875,-8.8125 10.76562,-13.21875 10.76562,-17.6211 z m -26.79687,-59.83594 c -1.35938,-1.26562 -3.48438,-1.1875 -4.75,0.17579 -1.26563,1.35937 -1.1836,3.48437 0.17578,4.75 1.35937,1.26171 3.48437,1.1875 4.75,-0.17579 1.26172,-1.35937 1.18359,-3.48828 -0.17578,-4.75 z m 62.67578,-10.10937 c 1.77343,-0.54688 2.76953,-2.42578 2.22265,-4.20313 -0.54687,-1.77343 -2.42578,-2.76953 -4.19922,-2.22265 -1.77734,0.54297 -2.76953,2.42578 -2.22656,4.19922 0.54688,1.77343 2.42969,2.76953 4.20313,2.22265 z m -115.42188,23.14844 c 6.05469,-5.33594 14.75391,-17.47657 17.84375,-21.90235 -4.83203,2.41407 -18.10937,9.2461 -24.26953,14.46485 -18.29687,15.4375 -11.51562,23.28906 6.42578,7.4375 z m 30.94531,30.89062 c 4.35547,-6.67187 3.0625,-17.67969 3.51954,-25.91797 l 0.92968,-17.10156 c -5.84375,5.63672 -5.52734,17.94141 -9.55859,23.66406 -4.54688,6.47266 -12.88672,1.65625 -9.55469,-5.51953 2.94141,-6.35156 13.75391,-12.23047 15.71485,-20.10937 l -14.34766,9.35937 c -6.91016,4.51172 -17.08594,8.89844 -20.6875,16.00391 -4.8125,9.5 8.96484,7.94531 16.05078,11.4414 6.57031,4.38672 12.11328,17.09766 17.93359,8.17969 z m 17.89844,-6.41797 c 1.4336,-7.94531 0.71485,-22.85937 0.39063,-28.25 -2.28907,4.89063 -8.45313,18.49219 -10.04688,26.40625 -4.7539,23.46094 5.4336,25.40625 9.65625,1.84375 z m 49.51953,-1.84765 c -1.58984,-7.91407 -7.7539,-21.51172 -10.04687,-26.40625 -0.32422,5.39062 -1.04688,20.30468 0.39062,28.2539 4.22266,23.5586 14.41407,21.61328 9.65625,-1.84765 z m 42.22657,-11.35547 c -3.60157,-7.10547 -13.77735,-11.49219 -20.6875,-16.00781 l -14.34766,-9.35547 c 1.96094,7.8789 12.77344,13.75781 15.71484,20.10937 3.33203,7.17578 -5.00781,11.99219 -9.55468,5.51953 -4.03125,-5.72656 -3.71485,-18.02734 -9.5586,-23.66406 l 0.92969,17.10156 c 0.45703,8.23828 -0.83594,19.2461 3.51953,25.91797 5.82422,8.91797 11.36328,-3.79297 17.93359,-8.18359 7.08204,-3.49219 20.86329,-1.9336 16.05079,-11.4375 z m 3.39062,-18.71094 c -6.16406,-5.21484 -19.44141,-12.05078 -24.26953,-14.46094 3.08984,4.42578 11.78516,16.56641 17.84375,21.90235 17.9375,15.84765 24.71875,7.99609 6.42578,-7.44141 z m 34.68359,-15.42187 c -2.3125,-1.33594 -5.10937,-1.8125 -7.85546,-0.4375 1.28906,3.65625 2.76953,8.19531 6.28515,11.96484 -5.01953,-1.16016 -9.6914,-0.17188 -13.5039,0.53906 0.18359,3.06641 1.99609,5.25 4.30468,6.58594 3.8125,2.19922 11.66797,-2.59375 20.64844,-0.51563 -6.28906,-6.73828 -6.06641,-15.93359 -9.87891,-18.13671 z m -218.20703,11.52734 c 3.51563,-3.76953 4.99219,-8.30859 6.28516,-11.96484 -2.75,-1.375 -5.54688,-0.89844 -7.85547,0.4375 -3.81641,2.20312 -3.58984,11.39843 -9.875,18.13671 8.97656,-2.07812 16.82813,2.71485 20.64453,0.51563 2.3086,-1.33594 4.1211,-3.51953 4.30469,-6.58594 -3.80859,-0.71094 -8.48438,-1.69922 -13.50391,-0.53906 z m 65.125,-12.73828 c 1.26172,-1.35938 1.1836,-3.48828 -0.17578,-4.75 -1.35937,-1.26172 -3.48437,-1.1875 -4.75,0.17187 -1.26562,1.35938 -1.18359,3.48828 0.17578,4.75391 1.35938,1.26172 3.48438,1.18359 4.75,-0.17578 z m 26,2.91797 c 2.34766,-4.06641 2.20703,-9.5625 -5.23828,-13.86328 -7.44922,-4.30079 -12.28125,-1.67188 -14.6289,2.39453 -2.34375,4.0625 2.75781,12.42578 0.55078,21.98828 7.17187,-6.69531 16.97265,-6.45703 19.3164,-10.51953 z M 769,744.49219 c -2.34766,-4.06641 -7.17969,-6.69532 -14.625,-2.39453 -7.45313,4.30078 -7.58984,9.79687 -5.24219,13.86328 2.34375,4.0625 12.14063,3.82812 19.31641,10.51953 -2.21094,-9.5586 2.89453,-17.92578 0.55078,-21.98828 z m -101.78516,-22.1875 c 1.8086,0.41406 3.61328,-0.71485 4.02735,-2.52735 0.41406,-1.80859 -0.71485,-3.60937 -2.52735,-4.02343 -1.80859,-0.41797 -3.61328,0.71484 -4.02734,2.52343 -0.41406,1.8125 0.71875,3.61328 2.52734,4.02735 z m -30.41015,12.84765 c 7.59765,-2.72656 20.15625,-10.80859 24.66015,-13.78515 -5.3789,0.46484 -20.24218,1.92578 -27.89062,4.5039 -22.69531,7.61328 -19.28906,17.41016 3.23047,9.28125 z m 109.00781,11.25782 c 8.69141,-4.00782 -10.24609,-28.64063 -13.875,-33.08204 -3.625,4.44141 -22.56641,29.07422 -13.87109,33.08204 8.83984,4.08203 18.38281,2.53125 8.53515,14.66406 -5.65625,6.97265 -9.43359,15.66797 -0.55078,18.10547 -2.55078,5.5664 -5.5,10.625 -7.57422,15.55468 -2.22265,5.27344 -1.96094,11.48438 2,16.33204 2.88672,3.51562 7.15235,5.39453 11.46094,5.43359 4.30859,-0.0391 8.57812,-1.91797 11.45703,-5.43359 3.96484,-4.84766 4.23047,-11.0586 2.00391,-16.33204 -2.07032,-4.92968 -5.02344,-9.98437 -7.57422,-15.55468 8.88672,-2.4375 5.10937,-11.13282 -0.54688,-18.10547 -9.84765,-12.13281 -0.30468,-10.58203 8.53516,-14.66406 z m 53.37891,-26.63282 c 0.41406,-1.80859 -0.71875,-3.61328 -2.52735,-4.02734 -1.80859,-0.41406 -3.61328,0.71875 -4.02734,2.52734 -0.41406,1.8086 0.71484,3.60938 2.52734,4.02735 1.8086,0.41406 3.61328,-0.71875 4.02735,-2.52735 z m 27.88281,15.375 c 22.51562,8.125 25.92578,-1.67187 3.23047,-9.28125 -7.64844,-2.58203 -22.51172,-4.04297 -27.88672,-4.50781 4.5,2.98047 17.05859,11.0625 24.65625,13.78906 z m -6.71875,13.30469 c 2.51562,1.45313 3.37109,4.66406 1.92578,7.17188 -1.44922,2.51171 -4.66016,3.37109 -7.17578,1.91796 -1.83203,-1.05468 -9.44922,-7.67187 -17.95313,-14.19531 0.3711,-0.55078 0.75,-1.15625 1.125,-1.80859 0.375,-0.65235 0.71094,-1.27344 1.00391,-1.875 9.39844,3.98437 18.49219,7.30078 21.07422,8.78906 z m -177.02735,-0.34375 c 1.83204,-1.05469 11.36719,-4.34766 21.26954,-8.44922 0.29296,0.60156 0.6289,1.22656 1.0039,1.87891 0.37891,0.65234 0.75,1.2539 1.1211,1.80859 -8.14844,6.14453 -15.56641,12.36719 -18.14454,13.85547 -2.51953,1.45313 -5.73046,0.58984 -7.17578,-1.91797 -1.45312,-2.51172 -0.59375,-5.71875 1.92578,-7.17578 z m 83.16797,54.30469 c -0.004,-2.11328 1.91407,-12.01953 3.3125,-22.64453 0.66797,0.0469 1.37891,0.0703 2.13282,0.0703 0.75,0 1.45703,-0.0234 2.125,-0.0664 1.24609,10.125 2.92187,19.66016 2.92578,22.64063 0,2.90625 -2.35547,5.25781 -5.25,5.2539 -2.89844,0.004 -5.25,-2.34765 -5.2461,-5.2539 z m 417.00781,9.39453 c -1.5078,-4.92969 -4.6992,-8.48047 -7.2187,-11.42578 -2.5664,1.6914 -3.5508,4.35547 -3.5547,7.02344 0,4.40234 8.082,8.80468 10.7734,17.62109 z M 987.01172,769.75 c -1.77735,-0.54297 -2.77344,-2.42578 -2.22656,-4.19922 0.54687,-1.77344 2.42578,-2.76953 4.19921,-2.22266 1.77735,0.54297 2.77344,2.42579 2.22657,4.19922 -0.54688,1.77344 -2.42578,2.76953 -4.19922,2.22266 z m 8.53515,54.16406 c 0,-2.66797 0.98438,-5.32812 3.55079,-7.02344 2.51954,2.94922 5.71484,6.5 7.21874,11.42969 1.5078,-4.92969 4.6992,-8.48047 7.2188,-11.42969 2.5625,1.69532 3.5507,4.35547 3.5507,7.02344 0,4.40625 -8.0781,8.8086 -10.7695,17.6211 -2.6914,-8.8125 -10.76953,-13.21875 -10.76953,-17.6211 z m 26.80083,-59.83594 c 1.3593,-1.26562 3.4843,-1.1875 4.75,0.17188 1.2617,1.36328 1.1836,3.48828 -0.1758,4.75 -1.3633,1.26562 -3.4883,1.19141 -4.75,-0.17188 -1.2657,-1.35937 -1.1875,-3.48828 0.1758,-4.75 z m -62.67583,-10.11328 c -1.77734,-0.54297 -2.77343,-2.42578 -2.22656,-4.19922 0.54688,-1.77343 2.42578,-2.76953 4.20313,-2.22265 1.77343,0.54297 2.76953,2.42578 2.22265,4.19922 -0.54687,1.77343 -2.42578,2.76953 -4.19922,2.22265 z m 115.42193,23.15235 c -6.0586,-5.33594 -14.754,-17.47657 -17.8438,-21.90235 4.832,2.41407 18.1055,9.2461 24.2695,14.46485 18.293,15.4375 11.5157,23.28515 -6.4257,7.4375 z m -30.9493,30.89062 c -4.3515,-6.67187 -3.0625,-17.67969 -3.5195,-25.91797 l -0.9297,-17.10156 c 5.8438,5.63672 5.5274,17.9375 9.5586,23.66016 4.5508,6.47656 12.8867,1.66015 9.5586,-5.51563 -2.9414,-6.35156 -13.7539,-12.23047 -15.7148,-20.10937 l 14.3437,9.35547 c 6.9102,4.51562 17.0859,8.90234 20.6875,16.00781 4.8125,9.5 -8.9648,7.94531 -16.0508,11.4414 -6.5703,4.38672 -12.1093,17.09766 -17.9336,8.17969 z m -17.8945,-6.42187 c -1.4375,-7.94141 -0.7187,-22.85547 -0.3906,-28.2461 2.289,4.89063 8.4531,18.49219 10.0429,26.40625 4.7579,23.46094 -5.4335,25.40235 -9.6523,1.83985 z m -49.51953,-1.84375 c 1.58984,-7.91407 7.7539,-21.51172 10.04297,-26.40625 0.32812,5.39062 1.04687,20.30468 -0.39063,28.25 -4.21875,23.5625 -14.41015,21.61718 -9.65234,-1.84375 z m -42.22656,-11.35547 c 3.59765,-7.10547 13.77734,-11.49219 20.68359,-16.00781 l 14.34766,-9.35547 c -1.96094,7.8789 -12.77344,13.75781 -15.71485,20.10937 -3.33203,7.17578 5.00781,11.98828 9.5586,5.51563 4.02734,-5.72266 3.71484,-18.02735 9.55859,-23.66407 l -0.93359,17.10547 c -0.45313,8.23828 0.83593,19.2461 -3.51954,25.91797 -5.82031,8.91797 -11.36328,-3.79297 -17.92968,-8.18359 -7.08594,-3.49219 -20.86719,-1.9375 -16.05078,-11.4375 z m -3.39063,-18.71094 c 6.16406,-5.21484 19.4375,-12.05078 24.26953,-14.46094 -3.08984,4.42578 -11.78906,16.56641 -17.84375,21.90235 -17.9414,15.84765 -24.71875,7.99609 -6.42578,-7.44141 z m -34.6875,-15.42187 c 2.3125,-1.33594 5.10938,-1.8125 7.85938,-0.4375 -1.29297,3.65625 -2.76954,8.19531 -6.28516,11.96093 5.01953,-1.15625 9.69141,-0.16797 13.5,0.53907 -0.17969,3.07031 -1.99219,5.2539 -4.30469,6.58984 -3.8125,2.19922 -11.66406,-2.59375 -20.64453,-0.51563 6.28906,-6.73828 6.0625,-15.9375 9.875,-18.13671 z m 218.21092,11.52734 c -3.5156,-3.76953 -4.9961,-8.30859 -6.289,-11.96484 2.75,-1.375 5.5468,-0.89844 7.8593,0.4375 3.8125,2.19921 3.586,11.39843 9.875,18.13671 -8.9804,-2.07812 -16.832,2.71485 -20.6445,0.51172 -2.3125,-1.33203 -4.125,-3.51562 -4.3086,-6.58203 3.8125,-0.71094 8.4844,-1.69922 13.5078,-0.53906 z m -65.125,-12.73828 c -1.2656,-1.35938 -1.1875,-3.48828 0.1719,-4.75391 1.3633,-1.26172 3.4883,-1.18359 4.75,0.17578 1.2656,1.35938 1.1875,3.48828 -0.1719,4.75391 -1.3594,1.26172 -3.4883,1.18359 -4.75,-0.17578 z m -26.0039,2.91797 c -2.3476,-4.06641 -2.207,-9.5625 5.2422,-13.86328 7.4492,-4.30079 12.2773,-1.67188 14.625,2.39453 2.3438,4.0625 -2.7578,12.42578 -0.5469,21.98828 -7.1758,-6.69531 -16.9765,-6.45703 -19.3203,-10.51953 z m -54.24999,-11.47266 c 2.34766,-4.0625 7.17578,-6.69141 14.625,-2.39062 7.44922,4.30078 7.58985,9.79687 5.24219,13.86328 -2.34766,4.0625 -12.14453,3.82422 -19.32031,10.51953 2.21093,-9.5586 -2.89453,-17.92578 -0.54688,-21.99219 z M 1071.043,722.30469 c -1.8125,0.41406 -3.6133,-0.71485 -4.0274,-2.52735 -0.4179,-1.80859 0.7149,-3.60937 2.5235,-4.02343 1.8086,-0.41797 3.6132,0.71484 4.0273,2.52343 0.4141,1.8086 -0.7148,3.61328 -2.5234,4.02735 z m 30.4101,12.84765 c -7.6015,-2.72656 -20.1562,-10.80859 -24.6601,-13.78515 5.3789,0.46484 20.2383,1.92578 27.8867,4.5039 22.6992,7.61328 19.2891,17.41016 -3.2266,9.28125 z m -109.01169,11.25782 c -8.69141,-4.00782 10.24609,-28.64063 13.87499,-33.08204 3.625,4.44141 22.5664,29.07422 13.875,33.08204 -8.8437,4.08203 -18.3828,2.53125 -8.5391,14.66015 5.6602,6.97656 9.4375,15.67188 0.5508,18.10938 2.5508,5.5664 5.5,10.625 7.5742,15.55468 2.2227,5.26954 1.961,11.48438 -1.9961,16.33204 -2.8906,3.51562 -7.1523,5.39453 -11.4648,5.43359 -4.3086,-0.0391 -8.57812,-1.91797 -11.45312,-5.43359 -3.96875,-4.84766 -4.23437,-11.0625 -2.00781,-16.33204 2.07422,-4.92968 5.02344,-9.98437 7.57423,-15.55468 -8.88673,-2.4375 -5.10939,-11.13282 0.5469,-18.10547 9.8476,-12.13672 0.3086,-10.58594 -8.53519,-14.66406 z M 939.0625,719.77734 c -0.41016,-1.8125 0.71875,-3.61328 2.52734,-4.02734 1.8125,-0.41406 3.61328,0.71875 4.02735,2.52734 0.41797,1.8086 -0.71485,3.60938 -2.52344,4.02735 -1.8125,0.41406 -3.61328,-0.71875 -4.03125,-2.52735 z m -27.88281,15.375 c -22.51563,8.125 -25.92578,-1.67187 -3.23047,-9.28125 7.65234,-2.58203 22.51172,-4.04297 27.89062,-4.50781 -4.5039,2.98047 -17.05859,11.0625 -24.65625,13.78906 z m 6.72265,13.30469 c -2.51562,1.45313 -3.375,4.66406 -1.92578,7.17188 1.44922,2.51171 4.65625,3.37109 7.17578,1.91796 1.83203,-1.05468 9.44922,-7.67187 17.95313,-14.19531 -0.3711,-0.55078 -0.75,-1.15625 -1.12891,-1.80859 -0.37109,-0.65235 -0.70703,-1.27344 -1,-1.875 -9.39844,3.98437 -18.49609,7.30078 -21.07422,8.78906 z m 177.02346,-0.34375 c -1.8281,-1.05859 -11.3672,-4.34766 -21.2656,-8.44922 -0.2969,0.60156 -0.6289,1.22656 -1.0079,1.87891 -0.375,0.65234 -0.746,1.2539 -1.121,1.80859 8.1484,6.14453 15.5664,12.36328 18.1484,13.85547 2.5156,1.45313 5.7266,0.58984 7.1758,-1.91797 1.4492,-2.51172 0.5898,-5.72265 -1.9297,-7.17578 z m -83.1641,54.30469 c 0,-2.11328 -1.918,-12.01953 -3.3164,-22.64453 -0.6641,0.0469 -1.375,0.0703 -2.1289,0.0703 -0.7539,0 -1.4609,-0.0234 -2.125,-0.0703 -1.2461,10.1289 -2.9258,19.66406 -2.9258,22.64453 0,2.90625 2.3516,5.25781 5.2461,5.2539 2.9024,0 5.25,-2.34765 5.25,-5.2539 z M 320.37891,791.16406 c -3,0.0508 -5.44532,-2.21875 -5.44532,-5.2539 0,-2.10938 1.91797,-12.01954 3.31641,-22.64063 0.66797,0.043 1.37891,0.0664 2.12891,0.0664 0.7539,0 1.46484,-0.0234 2.13281,-0.0664 1.39453,10.62109 3.3164,20.53125 3.3125,22.64063 0,3.03515 -2.44531,5.30468 -5.44531,5.2539 z m 0,20.64844 c 1.50781,-4.92969 4.69921,-8.48047 7.21875,-11.42578 2.5664,1.6914 3.55078,4.35547 3.55078,7.02344 0,4.40234 -8.07813,8.80468 -10.76953,17.62109 -2.6875,-8.81641 -10.76954,-13.21875 -10.76954,-17.62109 0.004,-2.66797 0.98829,-5.33204 3.55079,-7.02344 2.51953,2.94531 5.71484,6.49609 7.21875,11.42578 z M 438.26172,769.75 c -1.77344,-0.54297 -2.76953,-2.42578 -2.22266,-4.19922 0.54297,-1.77344 2.42578,-2.76953 4.19922,-2.22656 1.77344,0.54687 2.76953,2.42578 2.22656,4.20312 -0.54687,1.77344 -2.42968,2.76953 -4.20312,2.22266 z m 8.53906,54.16406 c 0,-2.66797 0.98438,-5.32812 3.55078,-7.02344 2.51953,2.94532 5.71094,6.5 7.21875,11.42579 1.50391,-4.92579 4.69531,-8.47657 7.21485,-11.42579 2.5664,1.69532 3.55078,4.35547 3.55468,7.02344 0,4.40235 -8.08203,8.8086 -10.77343,17.6211 -2.6875,-8.8125 -10.76563,-13.21875 -10.76563,-17.6211 z m 26.79688,-59.83984 c 1.35937,-1.26172 3.48437,-1.1836 4.75,0.17578 1.26562,1.35937 1.18359,3.48828 -0.17579,4.75 -1.35937,1.26562 -3.48437,1.1875 -4.75,-0.17188 -1.26171,-1.35937 -1.18359,-3.48828 0.17579,-4.7539 z m -62.67579,-10.10938 c -1.77343,-0.54297 -2.76953,-2.42578 -2.22265,-4.19922 0.54687,-1.77343 2.42578,-2.77343 4.19922,-2.22656 1.77343,0.54688 2.76953,2.42578 2.22656,4.20313 -0.54688,1.77343 -2.42969,2.76953 -4.20313,2.22265 z m 115.42188,23.15235 c -6.05469,-5.33594 -14.75391,-17.47657 -17.84375,-21.90235 4.83203,2.41016 18.10937,9.2461 24.26953,14.46094 18.29688,15.4375 11.51563,23.28906 -6.42578,7.44141 z m -30.94531,30.89062 c -4.35547,-6.67187 -3.0625,-17.67969 -3.51953,-25.91797 l -0.92969,-17.10547 c 5.84375,5.63672 5.52734,17.94141 9.55859,23.66407 4.54688,6.47656 12.88672,1.66015 9.55469,-5.51563 -2.94141,-6.35156 -13.75391,-12.23047 -15.71484,-20.10937 l 14.34765,9.35547 c 6.90625,4.51562 17.08203,8.90234 20.6836,16.00781 4.8125,9.5 -8.96485,7.94531 -16.04688,11.4375 -6.57422,4.39062 -12.11328,17.10156 -17.93359,8.17969 z M 477.5,801.58594 c -1.43359,-7.94532 -0.71484,-22.85938 -0.39063,-28.2461 2.28907,4.89063 8.45313,18.48828 10.04688,26.40235 4.75391,23.46093 -5.43359,25.40625 -9.65625,1.84375 z m -49.51953,-1.84375 c 1.58984,-7.91407 7.7539,-21.51172 10.04687,-26.40625 0.32422,5.39062 1.04688,20.30468 -0.39062,28.25 -4.22266,23.5625 -14.41016,21.61718 -9.65625,-1.84375 z m -42.22656,-11.35547 c 3.60156,-7.10547 13.77734,-11.49219 20.6875,-16.00781 l 14.34765,-9.35547 c -1.96094,7.8789 -12.77344,13.75781 -15.71484,20.10937 -3.33203,7.17578 5.00781,11.98828 9.55469,5.51563 4.03125,-5.72266 3.71875,-18.02735 9.55859,-23.66407 l -0.92969,17.10157 c -0.45703,8.24218 0.83594,19.25 -3.51953,25.91797 -5.82422,8.92187 -11.36328,-3.78907 -17.93359,-8.17969 -7.08203,-3.49219 -20.86328,-1.9375 -16.05078,-11.4375 z m -3.38672,-18.71094 c 6.16015,-5.21484 19.4375,-12.05078 24.26562,-14.46094 -3.08984,4.42578 -11.78515,16.56641 -17.84375,21.89844 -17.9375,15.85156 -24.71875,8 -6.42187,-7.4375 z M 347.67969,754.25 c 2.3125,-1.33203 5.10937,-1.8125 7.85547,-0.43359 -1.29297,3.65625 -2.76954,8.19531 -6.28516,11.96093 5.01953,-1.15625 9.69141,-0.16797 13.50391,0.53907 -0.1836,3.07031 -1.9961,5.2539 -4.30469,6.58593 -3.8125,2.20313 -11.66797,-2.58984 -20.64844,-0.51172 6.28906,-6.73828 6.06641,-15.9375 9.87891,-18.13671 z m 218.20703,11.52734 c -3.51563,-3.76562 -4.99219,-8.30468 -6.28516,-11.96093 2.75,-1.375 5.54688,-0.89844 7.85547,0.43359 3.81641,2.20312 3.58984,11.40234 9.875,18.14062 -8.97656,-2.07812 -16.82812,2.71485 -20.64453,0.51172 -2.30859,-1.33203 -4.12109,-3.51562 -4.30469,-6.58203 3.8125,-0.71094 8.48438,-1.69922 13.50391,-0.54297 z m -65.125,-12.73437 c -1.26172,-1.36328 -1.1836,-3.48828 0.17578,-4.75391 1.35937,-1.26172 3.48437,-1.18359 4.75,0.17578 1.26562,1.35938 1.18359,3.48828 -0.17578,4.75 -1.35938,1.26563 -3.48438,1.1875 -4.75,-0.17187 z m -26,2.91797 c -2.34766,-4.06641 -2.20703,-9.5625 5.23828,-13.86328 7.44922,-4.30079 12.28125,-1.67188 14.62891,2.39453 2.34375,4.0625 -2.75782,12.42578 -0.55079,21.98828 -7.17187,-6.69531 -16.97265,-6.45703 -19.3164,-10.51953 z m -54.25,-11.47266 c 2.34375,-4.0625 7.17578,-6.69141 14.62109,-2.39062 7.45313,4.30078 7.58985,9.79687 5.24219,13.86328 -2.34375,4.0625 -12.14063,3.82422 -19.31641,10.51953 2.21094,-9.5586 -2.89453,-17.92578 -0.54687,-21.99219 z m 101.78125,-22.18359 c -1.8086,0.41406 -3.60938,-0.71875 -4.02344,-2.52735 -0.41797,-1.80859 0.71484,-3.60937 2.52344,-4.02343 1.80859,-0.41797 3.61328,0.71484 4.02734,2.52343 0.41406,1.8086 -0.71484,3.61328 -2.52734,4.02735 z m 30.41015,12.84765 c -7.59765,-2.72656 -20.15234,-10.80859 -24.66015,-13.78906 5.3789,0.46484 20.24219,1.92969 27.89062,4.50781 22.69532,7.61328 19.28907,17.40625 -3.23047,9.28125 z m -109.00781,11.25782 c -8.6914,-4.00782 10.2461,-28.64063 13.875,-33.08204 3.625,4.44141 22.56641,29.07422 13.875,33.08204 -8.84375,4.07812 -18.38672,2.53125 -8.53906,14.66015 5.65625,6.97656 9.43359,15.67188 0.55078,18.10938 2.55078,5.5664 5.5,10.625 7.57422,15.55468 2.22266,5.26954 1.96094,11.48438 -2,16.33204 -2.88672,3.51562 -7.15234,5.39453 -11.46094,5.43359 -4.30859,-0.0391 -8.57812,-1.91797 -11.45703,-5.43359 -3.96484,-4.84766 -4.23047,-11.0625 -2.00391,-16.33204 2.07032,-4.92968 5.02344,-9.98437 7.57422,-15.55468 -8.88672,-2.4375 -5.10937,-11.13282 0.54688,-18.10938 9.84765,-12.13281 0.30469,-10.58203 -8.53516,-14.66015 z m -53.3789,-26.63282 c -0.41407,-1.8125 0.71875,-3.61328 2.52734,-4.02734 1.80859,-0.41406 3.61328,0.71484 4.02734,2.52734 0.41407,1.8086 -0.71484,3.60938 -2.52734,4.02735 -1.80859,0.41406 -3.60938,-0.71875 -4.02734,-2.52735 z m -27.88282,15.375 c -22.51562,8.125 -25.92578,-1.67187 -3.23047,-9.28515 7.65235,-2.57813 22.51172,-4.03907 27.89063,-4.50391 -4.50391,2.97656 -17.0625,11.05859 -24.66016,13.78906 z m 6.72266,13.30078 c -2.51953,1.45704 -3.375,4.66797 -1.92578,7.17579 1.44922,2.51171 4.65625,3.37109 7.17578,1.91796 1.82812,-1.05468 9.44922,-7.67187 17.94922,-14.19531 -0.3711,-0.55469 -0.7461,-1.15625 -1.125,-1.80859 -0.375,-0.65235 -0.70703,-1.27735 -1,-1.875 -9.39844,3.98437 -18.4961,7.29687 -21.07422,8.78515 z m 177.02344,-0.33984 c -1.82813,-1.05859 -11.36719,-4.34766 -21.26953,-8.44922 -0.29297,0.60156 -0.62891,1.22656 -1.00391,1.87891 -0.375,0.65234 -0.75,1.2539 -1.12109,1.80469 8.14843,6.14843 15.5664,12.36718 18.14843,13.85546 2.51563,1.45704 5.72657,0.59375 7.17578,-1.91406 1.44922,-2.51172 0.58985,-5.72265 -1.92968,-7.17578 z m -83.16407,54.30469 c 0,-2.11328 -1.91796,-12.01953 -3.3164,-22.64453 -0.66797,0.0469 -1.375,0.0703 -2.12891,0.0664 -0.7539,0.004 -1.46094,-0.0195 -2.125,-0.0664 -1.24609,10.1289 -2.92578,19.66406 -2.92578,22.64453 0,2.90625 2.35156,5.2539 5.24609,5.2539 2.90235,0 5.25,-2.34765 5.25,-5.2539 z M 46.007812,811.8125 c 1.507813,-4.92969 4.699219,-8.48047 7.21875,-11.42578 2.5625,1.6914 3.550782,4.35547 3.550782,7.02344 0,4.40234 -8.078125,8.80468 -10.769532,17.62109 z M 202.5,769.75 c 1.77344,-0.54297 2.76953,-2.42578 2.22266,-4.19922 -0.54297,-1.77734 -2.42579,-2.76953 -4.19922,-2.22656 -1.77344,0.54687 -2.77344,2.42578 -2.22657,4.20312 0.54688,1.77344 2.42969,2.76953 4.20313,2.22266 z m -8.53906,54.16406 c 0,-2.66797 -0.98438,-5.33203 -3.55078,-7.02344 -2.51954,2.94532 -5.71094,6.4961 -7.21875,11.42579 -1.50391,-4.92969 -4.69532,-8.47657 -7.21485,-11.42579 -2.5664,1.69141 -3.55078,4.35547 -3.55469,7.02344 0,4.40235 8.08204,8.80469 10.76954,17.6211 2.6914,-8.8125 10.76953,-13.21875 10.76953,-17.6211 z m -26.79688,-59.83984 c -1.35937,-1.26172 -3.48437,-1.1836 -4.75,0.17578 -1.26562,1.35937 -1.18359,3.48828 0.17578,4.75 1.35938,1.26562 3.48438,1.1875 4.75,-0.17188 1.26172,-1.36328 1.1836,-3.48828 -0.17578,-4.7539 z m 62.67578,-10.10938 c 1.77344,-0.54297 2.76953,-2.42578 2.22266,-4.19922 -0.54688,-1.77343 -2.42578,-2.77343 -4.19922,-2.22656 -1.77734,0.54688 -2.76953,2.42578 -2.22656,4.20313 0.54687,1.77343 2.42969,2.76953 4.20312,2.22265 z m -115.42578,23.15235 c 6.0586,-5.33594 14.75781,-17.47657 17.84766,-21.90235 -4.83203,2.41016 -18.10938,9.2461 -24.26953,14.46094 -18.296878,15.4375 -11.515628,23.28906 6.42187,7.44141 z m 30.94922,30.88672 c 4.35547,-6.66797 3.0625,-17.67579 3.51953,-25.91797 l 0.92969,-17.10157 c -5.84375,5.63672 -5.52734,17.94141 -9.55859,23.66407 -4.54688,6.47265 -12.88672,1.66015 -9.55469,-5.51563 2.9414,-6.35156 13.7539,-12.23047 15.71484,-20.10937 l -14.34765,9.35547 c -6.91016,4.51562 -17.08594,8.89843 -20.6875,16.00781 -4.8125,9.5 8.96484,7.9414 16.05078,11.4375 6.57031,4.38672 12.11328,17.10156 17.93359,8.17969 z m 17.89844,-6.41797 c 1.43359,-7.94532 0.71484,-22.85938 0.39062,-28.2461 -2.28906,4.89063 -8.45312,18.48828 -10.04687,26.40235 -4.75391,23.46093 5.43359,25.40625 9.65625,1.84375 z m 49.51953,-1.84375 c -1.58984,-7.91407 -7.75781,-21.51563 -10.04688,-26.40625 -0.32421,5.39062 -1.04687,20.30468 0.39063,28.25 4.22266,23.5625 14.41016,21.61718 9.65625,-1.84375 z m 42.22656,-11.35547 c -3.60156,-7.10938 -13.77734,-11.49219 -20.6875,-16.00781 l -14.34765,-9.35547 c 1.96093,7.8789 12.77343,13.75781 15.71484,20.10547 3.33203,7.17968 -5.00781,11.99218 -9.55469,5.51953 -4.03125,-5.72266 -3.71875,-18.02735 -9.55859,-23.66407 l 0.92969,17.10157 c 0.45703,8.24218 -0.83594,19.24609 3.51953,25.91797 5.82422,8.92187 11.36328,-3.79297 17.93359,-8.17969 7.08203,-3.49219 20.86328,-1.9375 16.05078,-11.4375 z m 3.38672,-18.71094 c -6.16016,-5.21484 -19.4375,-12.05078 -24.26953,-14.46094 3.09375,4.42578 11.78906,16.5625 17.84766,21.89844 17.9375,15.85156 24.71875,8 6.42187,-7.4375 z M 293.08203,754.25 c -2.3125,-1.33203 -5.10937,-1.8125 -7.85547,-0.4375 1.28906,3.66016 2.76563,8.19922 6.28516,11.96484 -5.01953,-1.15625 -9.69141,-0.17187 -13.50391,0.53907 0.1836,3.0664 1.9961,5.2539 4.30469,6.58593 3.8125,2.20313 11.66797,-2.58984 20.64844,-0.51562 -6.28907,-6.73438 -6.06641,-15.9336 -9.87891,-18.13672 z M 74.875,765.77734 c 3.515625,-3.76953 4.992188,-8.30468 6.285156,-11.96093 -2.75,-1.37891 -5.546875,-0.89844 -7.855468,0.43359 -3.816407,2.20312 -3.589844,11.40234 -9.875,18.14062 8.976562,-2.07812 16.828124,2.71485 20.644531,0.51172 2.308593,-1.33593 4.121093,-3.51562 4.304687,-6.58203 -3.8125,-0.71094 -8.484375,-1.69922 -13.503906,-0.54297 z M 140,753.04297 c 1.26172,-1.36328 1.18359,-3.48828 -0.17578,-4.75391 -1.35938,-1.26172 -3.48438,-1.18359 -4.75,0.17578 -1.26563,1.35938 -1.1875,3.48438 0.17578,4.75 1.35937,1.26172 3.48437,1.1875 4.75,-0.17578 z m 26,2.91797 c 2.34766,-4.06641 2.20703,-9.5625 -5.23828,-13.86328 -7.45313,-4.30079 -12.28125,-1.67188 -14.62891,2.39453 -2.34375,4.0625 2.75781,12.42578 0.55078,21.98828 7.17188,-6.69531 16.97266,-6.45703 19.31641,-10.51953 z m 54.25391,-11.47266 c -2.34766,-4.06641 -7.17969,-6.69141 -14.62891,-2.39062 -7.44922,4.29687 -7.58594,9.79296 -5.23828,13.85937 2.34375,4.06641 12.14062,3.82813 19.3164,10.51953 -2.21093,-9.55859 2.89454,-17.92578 0.55079,-21.98828 z M 118.46875,722.30469 c 1.80859,0.41015 3.61328,-0.71875 4.02734,-2.52735 0.41407,-1.8125 -0.71875,-3.61328 -2.52734,-4.02734 -1.80859,-0.41406 -3.61328,0.71484 -4.02734,2.52734 -0.41407,1.8086 0.71484,3.61328 2.52734,4.02735 z m -30.410156,12.84765 c 7.597656,-2.72656 20.156246,-10.80859 24.660156,-13.78906 -5.37891,0.46484 -20.242188,1.92969 -27.890625,4.50781 -22.695313,7.60938 -19.285156,17.40625 3.230469,9.28125 z m 109.007816,11.25782 c 8.6914,-4.00782 -10.2461,-28.64063 -13.875,-33.08594 -3.625,4.44531 -22.56641,29.07812 -13.8711,33.08594 8.83985,4.07812 18.38281,2.53125 8.53516,14.66015 -5.65625,6.97656 -9.4336,15.67188 -0.55078,18.10938 -2.55078,5.5664 -5.5,10.625 -7.57422,15.55468 -2.22266,5.26954 -1.96094,11.48438 2,16.33204 2.88672,3.51171 7.15234,5.39453 11.46094,5.42968 4.30859,-0.0391 8.57812,-1.91406 11.45703,-5.42968 3.96484,-4.84766 4.23047,-11.0625 2.0039,-16.33204 -2.07031,-4.93359 -5.02343,-9.98828 -7.57031,-15.55468 8.88672,-2.4375 5.10547,-11.13672 -0.55078,-18.10938 -9.84766,-12.13281 -0.30469,-10.58203 8.53516,-14.66015 z m 53.3789,-26.63282 c 0.41406,-1.8125 -0.71875,-3.61328 -2.52734,-4.03125 -1.8086,-0.41015 -3.61328,0.71875 -4.02735,2.52735 -0.41406,1.8125 0.71485,3.61328 2.52735,4.02734 1.80859,0.41406 3.61328,-0.71484 4.02734,-2.52344 z m 27.88281,15.375 c 22.51563,8.125 25.92579,-1.67187 3.23047,-9.28515 -7.64843,-2.57813 -22.51172,-4.03907 -27.89062,-4.50391 4.5039,2.97656 17.0625,11.05859 24.66015,13.78906 z m -6.71875,13.30078 c 2.51563,1.45704 3.3711,4.66797 1.92579,7.17188 -1.45313,2.51562 -4.66016,3.375 -7.17579,1.92187 -1.83203,-1.05859 -9.44921,-7.67187 -17.95312,-14.19531 0.37109,-0.55469 0.75,-1.15625 1.125,-1.80859 0.375,-0.65235 0.71094,-1.27735 1.00391,-1.875 9.39453,3.98437 18.49218,7.29687 21.07421,8.78515 z M 94.582031,748.11328 c 1.832031,-1.05859 11.367189,-4.34766 21.269529,-8.44922 0.29297,0.59766 0.62891,1.22656 1.00391,1.87891 0.37891,0.65234 0.75,1.2539 1.12109,1.80469 -8.14843,6.14453 -15.5664,12.36718 -18.144529,13.85546 -2.519531,1.45704 -5.730469,0.59375 -7.175781,-1.91796 -1.453125,-2.51172 -0.59375,-5.71875 1.925781,-7.17188 z m 83.164059,54.30469 c 0,-2.11328 1.91797,-12.01953 3.31641,-22.64453 0.66797,0.043 1.37891,0.0703 2.12891,0.0664 0.7539,0 1.46093,-0.0195 2.1289,-0.0664 1.2461,10.1289 2.92188,19.66406 2.92578,22.64453 0,2.90234 -2.35547,5.2539 -5.25,5.2539 -2.89843,0 -5.25,-2.34765 -5.24609,-5.2539 z m 0,0"
       fill-opacity="1"
       fill-rule="evenodd"
       id="path2" />
  </g>
</svg>
