<svg xmlns="http://www.w3.org/2000/svg" xmlns:xlink="http://www.w3.org/1999/xlink" width="500" zoomAndPan="magnify" viewBox="0 0 375 374.999991" height="500" preserveAspectRatio="xMidYMid meet" version="1.0"><defs><clipPath id="d84269a492"><path d="M 65 8.695312 L 337 8.695312 L 337 366 L 65 366 Z M 65 8.695312 " clip-rule="nonzero"/></clipPath></defs><g clip-path="url(#d84269a492)"><path fill="#c19f66" d="M 102.5 305.046875 C 103 304.199219 103.515625 303.382812 104.0625 302.601562 L 124.5625 255.582031 C 125.074219 254.410156 125.492188 253.195312 125.839844 251.964844 C 126.191406 250.71875 126.484375 249.449219 126.714844 248.175781 C 130.464844 227.671875 133.964844 207.128906 137.535156 186.59375 C 139.789062 173.644531 164.167969 168.941406 174.96875 166.601562 C 176.925781 166.179688 178.886719 165.765625 180.828125 165.285156 C 182.445312 164.878906 183.949219 163.859375 185.039062 162.609375 C 187.8125 159.425781 189.324219 155.828125 188.289062 151.609375 C 187.003906 146.386719 182.984375 142.914062 180.566406 138.402344 C 179.96875 137.292969 179.441406 136.140625 178.988281 134.96875 C 178.203125 134.953125 177.972656 135.679688 177.835938 136.402344 C 177.578125 137.792969 177.640625 139.46875 177.660156 140.882812 C 177.6875 142.960938 177.757812 145.492188 177.136719 147.484375 C 176.726562 148.800781 175.960938 150.300781 174.703125 150.992188 C 174.148438 151.292969 173.519531 151.425781 172.894531 151.3125 C 172.269531 151.203125 171.730469 150.878906 171.308594 150.417969 C 170.355469 149.378906 170.089844 147.78125 170.132812 146.417969 C 170.210938 143.964844 170.511719 141.703125 170.90625 139.289062 C 171.347656 136.605469 171.636719 134.25 171.578125 131.503906 C 171.496094 127.003906 169.386719 121.550781 167.84375 117.332031 C 166.378906 113.296875 164.609375 108.675781 164.175781 104.402344 C 164.050781 103.128906 164.019531 100.972656 165.746094 100.800781 C 167.375 100.640625 169.574219 103.757812 170.46875 104.898438 C 170.617188 105.089844 170.765625 105.277344 170.917969 105.46875 C 170.984375 104.90625 171.171875 104.371094 171.464844 103.886719 C 171.304688 103.761719 171.15625 103.625 171.019531 103.472656 C 170.363281 102.75 170.003906 101.792969 170.003906 100.8125 C 170.003906 99.832031 170.363281 98.878906 171.019531 98.152344 C 171.109375 98.054688 171.203125 97.964844 171.300781 97.878906 C 170.78125 97.15625 170.53125 96.261719 170.53125 95.378906 C 170.53125 94.46875 170.800781 93.542969 171.351562 92.8125 C 171.613281 92.464844 171.929688 92.167969 172.300781 91.949219 C 172.113281 91.421875 172.019531 90.863281 172.019531 90.304688 C 172.019531 89.277344 172.339844 88.238281 172.984375 87.425781 C 173.199219 87.15625 173.449219 86.910156 173.730469 86.710938 C 173.609375 86.414062 173.519531 86.101562 173.460938 85.789062 C 173.261719 84.65625 173.519531 83.484375 174.128906 82.515625 C 174.492188 81.941406 174.96875 81.457031 175.539062 81.089844 C 175.511719 80.789062 175.523438 80.492188 175.5625 80.195312 C 175.707031 79.050781 176.277344 77.867188 176.914062 76.917969 C 177.582031 75.925781 178.484375 74.960938 179.492188 74.3125 C 179.679688 74.191406 179.871094 74.082031 180.070312 73.984375 C 180.078125 73.816406 180.089844 73.648438 180.125 73.484375 C 180.308594 72.308594 181 71.160156 181.78125 70.28125 C 182.613281 69.34375 183.695312 68.519531 184.855469 68.035156 C 185.171875 67.902344 185.507812 67.789062 185.855469 67.714844 C 185.667969 66.597656 185.925781 65.4375 186.527344 64.484375 C 187.09375 63.589844 187.9375 62.910156 188.9375 62.566406 C 188.902344 62.253906 188.902344 61.941406 188.929688 61.628906 C 189.035156 60.523438 189.523438 59.460938 190.285156 58.648438 C 190.769531 58.132812 191.359375 57.726562 192.019531 57.476562 C 192.308594 57.371094 192.609375 57.292969 192.917969 57.253906 C 193.113281 56.804688 193.394531 56.390625 193.746094 56.042969 C 194.144531 55.640625 194.628906 55.328125 195.164062 55.128906 C 195.300781 54.640625 195.546875 54.1875 195.875 53.796875 C 196.15625 53.453125 196.496094 53.164062 196.871094 52.9375 C 194.894531 51.105469 194.46875 48.492188 194.992188 45.863281 L 202.296875 8.988281 C 202.332031 8.816406 202.484375 8.691406 202.65625 8.691406 C 202.835938 8.691406 202.984375 8.816406 203.019531 8.988281 L 210.324219 45.863281 C 210.875 48.613281 210.148438 51.15625 208.050781 52.921875 C 208.441406 53.152344 208.785156 53.445312 209.070312 53.796875 C 209.375 54.152344 209.601562 54.566406 209.746094 55.007812 C 210.425781 55.183594 211.050781 55.542969 211.558594 56.042969 C 211.898438 56.386719 212.171875 56.785156 212.371094 57.226562 C 212.769531 57.25 213.171875 57.335938 213.554688 57.476562 C 214.210938 57.726562 214.804688 58.132812 215.289062 58.648438 C 216.050781 59.460938 216.535156 60.523438 216.636719 61.628906 C 216.671875 61.945312 216.664062 62.269531 216.632812 62.585938 C 217.5625 62.921875 218.371094 63.554688 218.914062 64.382812 L 218.980469 64.484375 C 219.585938 65.4375 219.839844 66.597656 219.65625 67.714844 C 220 67.789062 220.335938 67.898438 220.660156 68.035156 C 221.8125 68.519531 222.894531 69.34375 223.726562 70.28125 C 224.507812 71.160156 225.199219 72.308594 225.390625 73.484375 C 225.417969 73.6875 225.4375 73.886719 225.4375 74.085938 C 225.566406 74.160156 225.695312 74.234375 225.8125 74.3125 C 226.824219 74.960938 227.71875 75.925781 228.386719 76.917969 C 229.03125 77.867188 229.59375 79.050781 229.742188 80.195312 C 229.785156 80.496094 229.800781 80.800781 229.773438 81.097656 C 230.308594 81.445312 230.773438 81.898438 231.125 82.433594 L 231.191406 82.535156 C 231.800781 83.5 232.058594 84.675781 231.859375 85.808594 C 231.800781 86.121094 231.714844 86.433594 231.589844 86.726562 C 231.863281 86.925781 232.101562 87.164062 232.3125 87.425781 C 232.957031 88.234375 233.277344 89.277344 233.277344 90.304688 C 233.277344 90.867188 233.1875 91.421875 232.996094 91.949219 C 233.367188 92.167969 233.6875 92.464844 233.949219 92.808594 C 234.496094 93.539062 234.769531 94.46875 234.769531 95.378906 C 234.769531 96.257812 234.515625 97.15625 234 97.875 C 234.09375 97.964844 234.191406 98.054688 234.277344 98.152344 C 234.9375 98.878906 235.292969 99.832031 235.292969 100.8125 C 235.292969 101.792969 234.9375 102.75 234.277344 103.472656 C 234.148438 103.613281 234.011719 103.742188 233.859375 103.863281 C 234.15625 104.335938 234.34375 104.859375 234.417969 105.40625 C 234.550781 105.238281 234.691406 105.066406 234.816406 104.898438 C 235.710938 103.757812 237.910156 100.640625 239.542969 100.800781 C 241.265625 100.972656 241.234375 103.128906 241.105469 104.402344 C 240.679688 108.679688 238.910156 113.296875 237.441406 117.332031 C 235.902344 121.550781 233.789062 127.003906 233.703125 131.503906 C 233.65625 134.25 233.9375 136.605469 234.378906 139.289062 C 234.773438 141.703125 235.074219 143.964844 235.152344 146.417969 C 235.199219 147.78125 234.933594 149.378906 233.976562 150.417969 C 233.554688 150.878906 233.015625 151.203125 232.394531 151.3125 C 231.769531 151.425781 231.132812 151.292969 230.585938 150.992188 C 229.320312 150.300781 228.558594 148.804688 228.144531 147.484375 C 227.527344 145.492188 227.597656 142.960938 227.628906 140.882812 C 227.644531 139.46875 227.699219 137.792969 227.445312 136.402344 C 227.316406 135.675781 227.085938 134.953125 226.300781 134.96875 C 225.839844 136.140625 225.316406 137.292969 224.722656 138.402344 C 223.199219 141.234375 220.882812 143.824219 219.191406 146.625 C 215.710938 152.363281 215.609375 157.289062 220.246094 162.609375 C 221.335938 163.859375 222.839844 164.878906 224.453125 165.285156 C 226.394531 165.765625 228.363281 166.179688 230.3125 166.601562 C 241.121094 168.941406 265.492188 173.644531 267.746094 186.59375 L 278.480469 248.28125 C 278.78125 249.984375 278.667969 251.917969 278.433594 253.625 C 278.164062 255.585938 277.683594 257.65625 276.972656 259.503906 C 273.175781 269.375 268.621094 279.472656 262.792969 288.324219 C 261.574219 290.179688 260.28125 291.992188 258.914062 293.734375 C 272.128906 295.878906 285.410156 298.589844 298.300781 302.226562 C 308.683594 305.152344 319.363281 308.804688 328.953125 313.789062 C 332.679688 315.722656 335.160156 318.84375 336.253906 322.871094 C 337.40625 327.09375 336.867188 331.734375 335.550781 335.855469 C 334.082031 340.449219 331.523438 344.828125 328.335938 348.445312 C 323.210938 354.246094 316.179688 358.40625 308.296875 358.53125 C 293.398438 358.769531 278.242188 359.960938 263.367188 360.925781 C 242.34375 362.289062 221.382812 363.996094 200.320312 364.804688 C 178.070312 365.65625 152.757812 366.011719 130.859375 361.796875 C 108.820312 357.550781 88.183594 366.28125 73.890625 350.308594 C 70.777344 346.835938 68.253906 342.636719 66.792969 338.195312 C 65.5 334.234375 64.972656 329.785156 66.109375 325.71875 C 67.210938 321.777344 69.691406 318.773438 73.332031 316.878906 C 77.703125 314.609375 82.21875 312.59375 86.785156 310.746094 C 91.953125 308.65625 97.203125 306.777344 102.5 305.046875 Z M 203.160156 312.558594 C 209.707031 314.117188 206.101562 312.398438 203.882812 312.027344 C 199.550781 311.304688 198.394531 310.976562 194.988281 310.332031 C 193.441406 310.042969 191.839844 309.269531 191.28125 307.695312 C 191.117188 307.242188 191.0625 306.753906 191.117188 306.273438 C 191.171875 305.824219 191.328125 305.382812 191.570312 305.003906 C 192.148438 304.089844 193.152344 303.570312 194.238281 303.726562 C 198.726562 304.382812 203.355469 304.605469 207.882812 304.285156 C 210.464844 304.097656 213.054688 303.730469 215.566406 303.113281 C 215.015625 302.828125 214.476562 302.46875 214.097656 302.023438 C 213.578125 301.417969 213.335938 300.695312 213.492188 299.902344 C 213.617188 299.257812 213.996094 298.707031 214.472656 298.265625 C 215.40625 297.402344 217.097656 296.703125 218.363281 296.664062 C 221.957031 296.550781 224.214844 295.320312 227.132812 293.414062 C 229.609375 291.917969 230.332031 290.625 229.714844 287.8125 C 227.304688 276.84375 226.425781 260.726562 230.574219 250.238281 C 230.644531 250.0625 230.839844 249.96875 231.015625 250.019531 C 231.199219 250.070312 231.3125 250.25 231.28125 250.433594 C 229.019531 263.316406 229.128906 272.246094 231.730469 284.625 C 232.753906 288.976562 235.398438 288.429688 234.355469 282.65625 C 231.679688 267.789062 231.566406 249.863281 237.601562 235.90625 C 237.671875 235.730469 237.867188 235.648438 238.046875 235.703125 C 238.230469 235.761719 238.335938 235.941406 238.296875 236.128906 C 235.082031 251.28125 233.933594 260.929688 236.46875 276.355469 C 238.667969 287.445312 241.78125 279.304688 240.941406 274.375 C 239.210938 264.132812 240.535156 247.773438 242.796875 237.304688 C 245.34375 225.546875 245.929688 216.296875 245.042969 204.183594 L 243.703125 185.859375 C 243.691406 185.664062 243.832031 185.492188 244.023438 185.464844 C 244.21875 185.441406 244.394531 185.574219 244.433594 185.765625 C 245.199219 190.011719 245.921875 194.257812 246.636719 198.511719 C 247.613281 192.640625 249.976562 185.472656 254.9375 182.523438 C 255.085938 182.433594 255.269531 182.460938 255.390625 182.589844 C 255.507812 182.714844 255.527344 182.898438 255.429688 183.042969 C 250.707031 190.085938 248.488281 196.511719 248.488281 204.855469 C 249.988281 201.882812 252.347656 199.484375 255.574219 198.308594 C 255.746094 198.246094 255.925781 198.3125 256.019531 198.464844 C 256.109375 198.617188 256.082031 198.804688 255.957031 198.925781 C 251.46875 203.019531 248.683594 207.128906 249.113281 213.390625 C 249.613281 216.398438 250.125 219.394531 250.644531 222.394531 C 251.816406 219.570312 253.867188 217.222656 256.839844 216.136719 C 257.007812 216.074219 257.191406 216.136719 257.285156 216.292969 C 257.375 216.445312 257.347656 216.636719 257.214844 216.757812 C 251.570312 221.910156 251.148438 224.964844 252.324219 231.6875 C 253.527344 229.039062 255.523438 226.871094 258.335938 225.84375 C 258.507812 225.785156 258.691406 225.847656 258.785156 226 C 258.867188 226.152344 258.84375 226.339844 258.714844 226.464844 C 255.992188 228.949219 253.875 231.546875 253.316406 235.09375 C 254.53125 232.65625 256.457031 230.679688 259.113281 229.710938 C 259.277344 229.652344 259.464844 229.714844 259.550781 229.863281 C 259.644531 230.015625 259.617188 230.207031 259.484375 230.328125 C 256.46875 233.085938 254.195312 235.972656 253.960938 240.140625 C 254.574219 243.160156 255.222656 246.152344 255.910156 249.152344 C 256.046875 249.726562 256.175781 250.300781 256.300781 250.875 C 258.910156 245.933594 263.914062 241.914062 269.71875 242.234375 C 269.898438 242.242188 270.039062 242.371094 270.066406 242.546875 C 270.089844 242.722656 269.992188 242.886719 269.824219 242.945312 C 266.097656 244.25 262.753906 245.914062 260.371094 248.894531 C 263.21875 246.953125 266.605469 245.960938 270.113281 246.597656 C 270.289062 246.628906 270.414062 246.773438 270.417969 246.953125 C 270.417969 247.128906 270.300781 247.28125 270.128906 247.320312 C 263.785156 248.683594 259.300781 250.972656 256.578125 257.089844 C 256.445312 257.816406 256.246094 258.503906 256 259.199219 C 253.484375 266.148438 250.605469 273.128906 247.171875 279.675781 C 245.691406 282.5 244.082031 285.285156 242.28125 287.910156 C 242.609375 288.132812 242.910156 288.398438 243.179688 288.695312 C 244.667969 290.324219 245.179688 292.917969 245.289062 295.058594 C 245.328125 295.898438 245.3125 300.078125 245.675781 301.5 C 249.300781 297.203125 249.65625 292.449219 248.9375 286.953125 C 248.914062 286.777344 249.011719 286.613281 249.183594 286.558594 C 249.355469 286.5 249.535156 286.570312 249.617188 286.722656 C 252 290.863281 251.550781 295.710938 249.550781 299.855469 C 249.730469 299.714844 249.90625 299.574219 250.078125 299.4375 C 253.746094 293.625 253.136719 288.59375 250.625 282.480469 C 250.558594 282.3125 250.609375 282.128906 250.757812 282.03125 C 250.90625 281.933594 251.097656 281.953125 251.222656 282.078125 C 254.660156 285.550781 255.429688 290.5625 254.449219 295.179688 C 256.738281 292.613281 258.773438 289.785156 260.664062 286.921875 C 261.804688 285.179688 262.890625 283.402344 263.929688 281.59375 C 263.898438 281.496094 263.914062 281.382812 263.96875 281.296875 C 267.632812 275.484375 267.046875 270.433594 264.535156 264.316406 C 264.464844 264.152344 264.519531 263.96875 264.667969 263.871094 C 264.816406 263.773438 265.007812 263.792969 265.132812 263.917969 C 267.417969 266.222656 268.546875 269.203125 268.734375 272.351562 C 270.867188 267.851562 272.800781 263.242188 274.589844 258.589844 C 275.230469 256.929688 275.660156 255.050781 275.902344 253.285156 C 276.8125 246.605469 274.121094 243.191406 268.550781 239.847656 C 268.394531 239.753906 268.332031 239.574219 268.390625 239.40625 C 268.453125 239.242188 268.621094 239.140625 268.792969 239.164062 C 271.230469 239.535156 273.289062 240.769531 274.902344 242.535156 C 273.570312 233.820312 273.933594 225.730469 265.265625 220.527344 C 265.117188 220.4375 265.050781 220.253906 265.105469 220.085938 C 265.171875 219.917969 265.335938 219.820312 265.507812 219.847656 C 267.875 220.207031 269.882812 221.378906 271.480469 223.066406 C 270.507812 218.792969 267.898438 216.339844 264.007812 214.003906 C 263.855469 213.914062 263.792969 213.734375 263.851562 213.566406 C 263.914062 213.398438 264.078125 213.300781 264.253906 213.328125 C 266.707031 213.699219 268.78125 214.949219 270.390625 216.734375 L 265.222656 187.03125 C 263.914062 179.480469 252.976562 175.363281 246.648438 173.347656 C 243.277344 172.269531 237.589844 169.789062 235.765625 174.355469 C 231.511719 184.980469 230.074219 201.128906 231.097656 212.460938 C 231.117188 212.652344 230.988281 212.820312 230.800781 212.855469 C 230.613281 212.890625 230.429688 212.78125 230.378906 212.59375 C 227.296875 201.609375 229.523438 184.128906 233.742188 173.640625 C 235.789062 168.535156 230.941406 169.097656 228.53125 172.582031 C 224.402344 178.542969 221.816406 187.738281 221.695312 194.925781 C 221.691406 195.113281 221.550781 195.261719 221.363281 195.285156 C 221.183594 195.300781 221.015625 195.183594 220.96875 195.003906 C 219.203125 187.632812 222.546875 177.488281 226.804688 171.460938 C 227.039062 171.125 228.132812 169.515625 228.292969 168.855469 C 227.570312 169.199219 226.179688 171.078125 225.878906 171.53125 C 212.359375 191.945312 215.226562 214.824219 218.257812 237.671875 C 218.796875 241.738281 219.574219 245.617188 219.996094 249.761719 C 220.757812 257.195312 220.941406 264.921875 219.964844 272.339844 C 218.820312 281.019531 215.925781 290.15625 209.195312 296.144531 C 209.050781 296.269531 208.835938 296.265625 208.699219 296.136719 C 208.558594 296.003906 208.542969 295.789062 208.664062 295.640625 C 217.117188 285.027344 218.613281 272.402344 217.980469 259.398438 C 216.027344 269.578125 211.316406 281.9375 203.351562 287.933594 C 203.203125 288.046875 202.996094 288.027344 202.867188 287.898438 C 202.742188 287.765625 202.722656 287.5625 202.835938 287.417969 C 209.917969 278.160156 214.140625 269.683594 215.828125 258.484375 C 213.335938 265.320312 209.226562 272.375 203.335938 276.300781 C 203.175781 276.398438 202.976562 276.375 202.855469 276.234375 C 202.734375 276.09375 202.734375 275.894531 202.855469 275.75 C 212.667969 264.390625 217.742188 253.238281 215.726562 238.003906 C 212.992188 217.378906 210.417969 196.722656 219.492188 177.628906 C 214.640625 185.570312 211.710938 195.308594 209.019531 203.871094 C 207.878906 207.242188 207.011719 210.753906 205.882812 214.164062 C 204.199219 219.257812 202.164062 224.265625 199.542969 228.957031 C 193.039062 240.578125 183.582031 248.96875 170 250.78125 C 169.804688 250.804688 169.628906 250.675781 169.589844 250.488281 C 169.554688 250.296875 169.671875 250.109375 169.863281 250.0625 C 193.484375 244.011719 200.046875 223.902344 206.574219 203.101562 C 210.117188 191.839844 214.011719 178.867188 222.007812 169.910156 C 222.148438 169.753906 222.554688 169.296875 222.964844 168.8125 C 222.445312 169.265625 221.941406 169.722656 221.761719 169.890625 C 213.101562 177.90625 208.234375 190.785156 203.976562 201.558594 C 196.570312 220.289062 188.972656 239.277344 167.980469 245.875 C 166.984375 246.1875 165.515625 246.597656 164.761719 247.355469 C 163.269531 248.855469 163.5 254.066406 163.496094 256.011719 C 163.460938 264.367188 164.011719 271.707031 162.554688 279.882812 C 162.339844 281.800781 163.707031 282.375 165.101562 281.382812 C 174.117188 275.902344 179.53125 269.285156 184.164062 259.980469 C 184.25 259.816406 184.433594 259.734375 184.613281 259.792969 C 184.785156 259.855469 184.890625 260.03125 184.855469 260.214844 C 183.40625 267.683594 177.949219 275.03125 171.371094 280.257812 C 168.132812 282.828125 166.222656 285.136719 171.339844 281.992188 C 177.515625 278.191406 182.234375 273.878906 187.078125 267.476562 C 187.1875 267.328125 187.390625 267.285156 187.550781 267.375 C 187.714844 267.46875 187.78125 267.660156 187.714844 267.835938 C 184.109375 276.929688 173.921875 284.074219 165.160156 287.828125 C 154.824219 292.257812 166.136719 295.085938 170.894531 296.632812 C 181.9375 300.230469 193.433594 301.0625 204.898438 299.144531 C 205.085938 299.113281 205.265625 299.226562 205.316406 299.40625 C 205.367188 299.585938 205.277344 299.773438 205.105469 299.84375 C 195.703125 303.746094 183.777344 302.554688 173.945312 300.039062 C 177.679688 302.898438 181.382812 306.808594 182.296875 311.402344 C 182.332031 311.570312 182.242188 311.734375 182.082031 311.804688 C 181.925781 311.878906 181.742188 311.832031 181.644531 311.691406 C 170.867188 298.144531 161.441406 294.324219 145.582031 296.585938 C 152.160156 297.300781 160.324219 299.480469 163.875 304.824219 C 163.96875 304.96875 163.953125 305.152344 163.835938 305.28125 C 163.710938 305.40625 163.527344 305.429688 163.378906 305.34375 C 156.429688 301.167969 150.113281 299.007812 142.3125 298.878906 C 145.832031 299.832031 149.46875 301.523438 151.40625 304.433594 C 151.515625 304.597656 151.476562 304.816406 151.324219 304.933594 C 151.164062 305.050781 150.941406 305.023438 150.820312 304.875 C 147.253906 300.613281 135.472656 299.679688 130.214844 300.613281 C 127.320312 301.125 124.464844 301.652344 124.972656 305.257812 C 125.503906 308.992188 125.632812 311.226562 125.332031 314.984375 C 124.917969 319.074219 129.964844 320.070312 134.824219 319.492188 C 142.785156 318.539062 149.246094 319.515625 157.203125 319.945312 C 159.113281 320.046875 163.984375 321.582031 162.179688 318.636719 C 161.375 317.328125 160.050781 316.375 158.804688 315.523438 C 158.664062 315.429688 158.613281 315.261719 158.664062 315.105469 C 158.710938 314.949219 158.859375 314.847656 159.023438 314.851562 C 161.566406 314.910156 163.980469 317.285156 165.4375 319.203125 C 166.097656 320.0625 166.558594 320.53125 167.636719 320.621094 C 168.730469 320.710938 168.125 319.773438 167.753906 318.972656 C 166.015625 315.191406 163.207031 312.722656 159.59375 310.746094 C 159.441406 310.660156 159.371094 310.476562 159.421875 310.304688 C 159.488281 310.136719 159.65625 310.03125 159.832031 310.0625 C 164.195312 310.785156 167.554688 314.148438 169.671875 317.847656 C 172.667969 323.074219 178.796875 320.550781 181.738281 316.773438 C 183.980469 313.894531 185.515625 312.363281 189.183594 311.566406 C 191.144531 311.144531 193.101562 311.070312 195.046875 311.203125 C 197.773438 311.390625 200.484375 311.980469 203.160156 312.558594 Z M 235.644531 309.566406 C 232.566406 310.574219 233.507812 311.003906 235.761719 310.050781 C 238.769531 309.113281 241.71875 307.808594 244.753906 306.949219 C 248.488281 305.898438 254.8125 306.371094 257.871094 308.9375 C 257.894531 308.953125 257.914062 308.96875 257.929688 308.988281 C 258.570312 309.460938 259.183594 310.019531 259.636719 310.667969 C 259.949219 311.066406 260.308594 311.386719 260.785156 311.578125 C 261.9375 312.039062 263.949219 311.625 265.167969 311.457031 C 267.90625 311.085938 270.367188 311.027344 273.125 311.460938 C 273.304688 311.488281 273.441406 311.644531 273.429688 311.835938 C 273.425781 312.015625 273.285156 312.167969 273.101562 312.1875 C 269.496094 312.566406 265.910156 313.375 262.578125 314.832031 C 260.835938 315.59375 259.503906 316.53125 257.890625 317.339844 C 246.96875 322.828125 235.953125 328.078125 224.554688 332.511719 C 211.644531 338.628906 215.308594 339.855469 225.578125 336.417969 C 231.761719 334.347656 238.226562 331.796875 243.136719 329.335938 C 253.441406 324.167969 286.3125 307.730469 296.695312 315.613281 C 296.84375 315.722656 296.886719 315.917969 296.804688 316.082031 C 296.714844 316.242188 296.527344 316.316406 296.359375 316.257812 C 291.925781 314.738281 286.394531 315.476562 281.664062 316.652344 C 289.300781 316.925781 298.523438 318.964844 303.148438 325.046875 C 303.253906 325.195312 303.242188 325.402344 303.113281 325.53125 C 302.980469 325.664062 302.773438 325.675781 302.628906 325.566406 C 291.125 316.800781 277.640625 317.085938 264.824219 322.707031 C 257.933594 325.730469 251.191406 329.117188 244.46875 332.488281 C 236.625 336.421875 228.386719 340.710938 220.136719 343.742188 C 222.5 347.398438 225.273438 350.832031 228.574219 353.667969 C 230.847656 355.4375 233.332031 356.726562 235.988281 357.46875 C 241.359375 358.964844 243.386719 357.3125 239.730469 354.453125 C 235.992188 351.53125 232.753906 348 232.023438 343.945312 C 231.988281 343.769531 232.085938 343.597656 232.261719 343.53125 C 232.429688 343.476562 232.613281 343.542969 232.703125 343.703125 C 236.628906 350.664062 242.785156 354.175781 249.449219 356.722656 C 253.023438 358.085938 258.960938 357.199219 256.039062 355.4375 C 252.648438 353.390625 249.46875 351.058594 248.089844 347.792969 C 248.015625 347.636719 248.074219 347.453125 248.214844 347.351562 C 248.359375 347.253906 248.542969 347.261719 248.675781 347.378906 C 251.910156 350.265625 255.246094 352.160156 258.523438 354.128906 C 260.4375 355.277344 262.820312 355.683594 260.261719 354.1875 C 257.28125 352.441406 254.726562 350.117188 253.5 347.214844 C 253.433594 347.054688 253.480469 346.875 253.621094 346.773438 C 253.765625 346.671875 253.949219 346.683594 254.082031 346.796875 C 259.960938 352.042969 267.261719 354.5625 274.960938 355.695312 C 284.503906 357.105469 293.449219 354.988281 290.292969 353.234375 C 288.421875 352.195312 286.773438 350.753906 285.300781 349.058594 C 285.183594 348.917969 285.183594 348.714844 285.300781 348.574219 C 285.421875 348.4375 285.621094 348.40625 285.777344 348.503906 C 307.183594 362.21875 323.5 353.289062 330.523438 329.96875 C 330.574219 329.789062 330.761719 329.675781 330.945312 329.710938 C 331.132812 329.753906 331.261719 329.929688 331.238281 330.117188 C 330.21875 338.6875 326.324219 346.527344 319.90625 352.160156 C 322.355469 350.742188 324.519531 348.90625 326.421875 346.75 C 329.378906 343.398438 331.753906 339.34375 333.117188 335.078125 C 334.28125 331.4375 334.804688 327.285156 333.785156 323.542969 C 332.882812 320.222656 330.851562 317.65625 327.777344 316.058594 C 318.34375 311.160156 307.824219 307.566406 297.605469 304.6875 C 283.910156 300.828125 276.414062 300.164062 264.050781 308.347656 C 263.890625 308.453125 263.683594 308.421875 263.566406 308.277344 C 263.445312 308.136719 263.449219 307.929688 263.574219 307.792969 C 266.296875 304.84375 270.332031 302.734375 274.417969 301.257812 C 277.601562 300.113281 275.378906 299.941406 271.820312 300.363281 C 267.644531 300.863281 263.679688 302.25 259.648438 304.667969 C 259.5 304.757812 259.316406 304.734375 259.195312 304.605469 C 259.074219 304.484375 259.054688 304.292969 259.15625 304.148438 C 260.484375 302.148438 262.726562 300.835938 265.140625 299.816406 C 269.601562 297.929688 265.949219 297.613281 261.460938 298.679688 C 257.625 299.59375 253.757812 301.882812 243.960938 306.535156 L 243.921875 306.554688 C 241.1875 307.726562 238.402344 308.660156 235.644531 309.566406 Z M 247.84375 220.367188 C 247.507812 226.351562 246.613281 231.796875 245.300781 237.84375 C 244.523438 241.460938 243.769531 244.96875 243.605469 248.683594 C 243.160156 258.925781 243.789062 267.496094 245.464844 277.425781 C 248.601562 271.292969 251.261719 264.800781 253.597656 258.335938 C 253.816406 257.730469 253.976562 257.109375 254.085938 256.476562 L 254.089844 256.429688 C 254.445312 254.128906 253.929688 251.953125 253.417969 249.726562 C 251.1875 240.007812 249.535156 230.1875 247.84375 220.367188 Z M 144.828125 355.617188 C 145.953125 356.335938 146.4375 357.429688 146.605469 358.71875 C 146.628906 358.871094 146.558594 359.007812 146.425781 359.085938 C 146.289062 359.164062 146.132812 359.152344 146.015625 359.054688 C 137.746094 352.542969 127.957031 358.621094 131.351562 359.285156 C 152.765625 363.464844 190.464844 361.328125 213.015625 359.488281 C 232.511719 357.898438 223.34375 354.84375 217.976562 347.253906 C 215.328125 343.503906 212.476562 344.140625 216.023438 347.429688 C 216.128906 347.535156 216.167969 347.6875 216.117188 347.828125 C 216.066406 347.972656 215.9375 348.0625 215.785156 348.066406 C 213.496094 348.183594 212.542969 347.539062 211.039062 345.722656 C 209.210938 343.515625 207.203125 340.988281 204.25 340.34375 C 199.660156 339.347656 194.710938 343.148438 190.957031 345.339844 C 187.894531 347.125 184.5 348.351562 181.078125 349.222656 C 175.582031 350.621094 169.945312 351.644531 164.34375 352.5 C 159.742188 353.203125 155.125 353.792969 150.496094 354.296875 C 149.792969 354.375 144.589844 354.734375 144.261719 355.167969 C 144.304688 355.300781 144.71875 355.542969 144.828125 355.617188 Z M 223.050781 329.351562 C 234.4375 324.929688 245.59375 319.867188 256.503906 314.382812 C 260.070312 312.59375 255.726562 309.628906 252.40625 310.410156 C 250.210938 310.925781 248.027344 312.269531 246.277344 313.652344 C 246.148438 313.753906 245.972656 313.757812 245.835938 313.664062 C 245.707031 313.574219 245.648438 313.410156 245.695312 313.257812 C 246.101562 311.945312 246.601562 310.347656 247.914062 309.675781 C 248.105469 309.578125 248.886719 309.1875 248.933594 308.949219 C 248.523438 308.574219 245.902344 309.28125 245.449219 309.414062 C 242.433594 310.261719 239.445312 311.175781 236.457031 312.105469 C 228.429688 314.605469 222.839844 315.738281 214.289062 316.410156 C 210.351562 316.722656 206.453125 315.878906 202.628906 315.054688 C 198.472656 314.160156 193.964844 313.148438 189.730469 314.066406 C 181.167969 315.933594 179.230469 330.558594 176.160156 336.808594 C 172.007812 345.847656 183.53125 343.460938 195.1875 337.730469 C 205.5 332.664062 219.433594 330.761719 223.050781 329.351562 Z M 105.652344 349.398438 C 106.082031 348.433594 106.222656 346.90625 106.261719 346.027344 C 105.253906 340.015625 105.042969 333.929688 105.46875 327.851562 C 105.480469 327.65625 105.644531 327.507812 105.835938 327.511719 C 106.03125 327.511719 106.195312 327.664062 106.199219 327.855469 C 106.410156 331.796875 108.210938 348.734375 110.488281 351.230469 C 110.507812 351.25 110.542969 351.285156 110.578125 351.320312 C 111.363281 350.078125 111.367188 346.699219 111.34375 345.371094 C 110.613281 339.75 110.46875 334.140625 111.042969 328.5 C 111.054688 328.308594 111.21875 328.164062 111.410156 328.167969 C 111.605469 328.175781 111.761719 328.328125 111.769531 328.519531 C 111.910156 331.382812 113.34375 346.367188 114.859375 349.070312 C 115.640625 347.839844 115.804688 345.546875 115.753906 344.160156 C 115.589844 339.945312 115.894531 336.128906 116.292969 331.957031 L 116.535156 329.585938 C 115.761719 325.503906 115.839844 321.417969 116.238281 317.300781 C 116.257812 317.113281 116.410156 316.96875 116.597656 316.96875 C 116.792969 316.96875 116.953125 317.109375 116.96875 317.300781 C 117.382812 321.332031 118.011719 325.378906 119.035156 329.304688 C 119.300781 330.320312 119.898438 331.914062 120.859375 332.484375 C 120.964844 332.542969 121.113281 332.609375 121.234375 332.597656 C 121.320312 332.589844 121.394531 332.523438 121.441406 332.46875 C 122.015625 331.855469 122.023438 330.417969 121.984375 329.648438 C 121.9375 328.835938 121.882812 328.023438 121.832031 327.207031 C 121.601562 323.632812 121.363281 320.070312 121.648438 316.488281 L 121.769531 314.894531 C 122.109375 310.609375 122.636719 305.011719 120.46875 301.152344 L 120.230469 300.730469 C 120.167969 300.621094 120.164062 300.496094 120.222656 300.382812 L 120.441406 299.949219 C 124.285156 292.445312 128.886719 285.964844 133.851562 279.203125 C 137.652344 274.019531 141.359375 268.878906 144.699219 263.375 C 145.539062 261.984375 146.164062 260.441406 146.652344 258.894531 C 147.167969 257.28125 147.550781 255.625 147.859375 253.96875 L 156.78125 203.640625 C 157.199219 201.804688 159.582031 201.957031 159.34375 204.191406 C 158.070312 216.210938 158.996094 225.65625 161.585938 237.300781 C 162.410156 241.011719 163.726562 244.582031 168.242188 243.09375 C 187.617188 236.71875 194.734375 217.96875 201.597656 200.621094 C 206.242188 188.871094 211.441406 175.121094 221.40625 166.792969 C 220.246094 166.148438 219.191406 165.289062 218.324219 164.292969 C 215.5625 161.121094 207.394531 150.851562 202.640625 150.863281 C 197.890625 150.875 189.730469 161.121094 186.941406 164.316406 C 185.144531 166.039062 188.226562 167.867188 189.550781 168.453125 C 193.210938 170.066406 197.917969 170.707031 201.875 171.078125 C 202.050781 171.09375 202.1875 171.234375 202.207031 171.414062 C 202.214844 171.597656 202.105469 171.753906 201.929688 171.804688 C 197.210938 173.011719 190.820312 171.90625 186.664062 169.421875 C 185.820312 168.921875 184.789062 168.234375 183.84375 167.976562 C 181.949219 167.464844 177.40625 168.695312 175.511719 169.105469 C 166.03125 171.15625 142.027344 175.742188 140.0625 187.03125 C 136.488281 207.570312 132.984375 228.125 129.21875 248.671875 C 128.652344 250.59375 130.394531 250.226562 132.109375 250.109375 C 136.109375 249.832031 141.261719 250.578125 143.414062 254.433594 C 143.492188 254.582031 143.464844 254.761719 143.34375 254.875 C 143.21875 254.992188 143.039062 255.011719 142.894531 254.925781 C 137.871094 251.835938 129.886719 249.757812 126.902344 256.601562 L 106.292969 303.851562 L 106.242188 303.925781 C 97.351562 316.9375 99.609375 331.167969 101.726562 345.84375 L 101.878906 346.921875 C 101.917969 347.253906 102.058594 348.15625 102.308594 348.34375 C 102.46875 348.234375 102.492188 347.886719 102.488281 347.734375 C 102.035156 344.425781 101.871094 341.097656 102.066406 337.761719 C 102.078125 337.570312 102.234375 337.421875 102.429688 337.417969 C 102.621094 337.414062 102.785156 337.558594 102.800781 337.75 C 103.097656 341.035156 103.851562 344.238281 105.011719 347.371094 C 105.117188 347.839844 105.347656 348.777344 105.652344 349.398438 Z M 129.117188 352.019531 C 134.03125 349.5625 137.640625 346.214844 141.121094 341.613281 C 141.222656 341.476562 141.40625 341.429688 141.566406 341.503906 C 141.722656 341.574219 141.8125 341.742188 141.773438 341.910156 C 140.613281 347.511719 134.207031 351.992188 128.714844 354.628906 C 144.925781 351.820312 158.074219 349.34375 168.933594 334.996094 C 169.039062 334.855469 169.21875 334.8125 169.375 334.882812 C 169.535156 334.953125 169.621094 335.125 169.585938 335.292969 C 168.765625 339.234375 165.792969 342.636719 162.582031 345.25 C 167.285156 343.011719 171.644531 340.066406 174.035156 335.234375 C 175.472656 332.320312 178.25 326.195312 173.648438 324.585938 C 169.703125 323.207031 161.976562 323.460938 157.625 323.226562 C 156.597656 323.132812 152.414062 322.664062 151.773438 323.832031 C 151.472656 324.371094 151.75 325.4375 151.886719 325.996094 C 152.820312 329.832031 151.40625 334.660156 148.671875 337.488281 C 148.546875 337.617188 148.351562 337.640625 148.203125 337.539062 C 148.058594 337.441406 148 337.253906 148.066406 337.089844 C 149.445312 333.835938 150.8125 329.769531 149.492188 326.285156 C 148.570312 323.847656 142.71875 322.503906 140.277344 323.027344 C 137.558594 323.613281 136.992188 324.890625 136.855469 327.691406 C 136.574219 333.363281 133.105469 338.65625 127.890625 340.976562 C 127.726562 341.050781 127.535156 340.992188 127.429688 340.839844 C 127.332031 340.6875 127.359375 340.492188 127.492188 340.371094 C 130.753906 337.355469 133.796875 333.742188 134.371094 329.183594 C 135.078125 323.558594 131.273438 322.710938 126.773438 324.757812 C 124.578125 325.753906 124.121094 327.175781 124.539062 329.507812 C 124.621094 331.054688 124.429688 333.003906 123.328125 334.199219 C 122.847656 334.722656 122.226562 335.0625 121.519531 335.140625 C 120.832031 335.21875 120.160156 335.03125 119.566406 334.6875 C 119.242188 334.492188 118.9375 334.25 118.664062 333.976562 C 118.351562 337.382812 118.171875 340.601562 118.304688 344.070312 C 118.382812 346.050781 118.066406 348.910156 116.917969 350.59375 C 116.535156 351.152344 116.007812 351.636719 115.332031 351.808594 C 114.574219 351.996094 113.890625 351.753906 113.335938 351.242188 C 113.171875 351.820312 112.941406 352.40625 112.605469 352.875 C 112.113281 353.570312 111.40625 354.027344 110.535156 353.980469 C 109.765625 353.941406 109.117188 353.507812 108.609375 352.953125 C 108.167969 352.472656 107.8125 351.871094 107.523438 351.261719 C 107.183594 351.746094 106.734375 352.144531 106.148438 352.296875 C 105.433594 352.480469 104.769531 352.25 104.230469 351.753906 C 103.90625 351.453125 103.648438 351.054688 103.4375 350.644531 C 103.140625 350.785156 102.832031 350.871094 102.5 350.890625 C 102.019531 350.921875 101.554688 350.804688 101.136719 350.570312 C 99.976562 349.90625 99.484375 348.484375 99.339844 347.242188 L 99.191406 346.210938 C 98.679688 342.679688 98.164062 339.148438 97.765625 335.601562 C 97.578125 333.886719 97.578125 327.398438 94.597656 329.515625 C 93.03125 330.625 91.675781 331.941406 90.570312 333.515625 C 90.476562 333.664062 90.289062 333.71875 90.125 333.648438 C 89.964844 333.578125 89.875 333.40625 89.914062 333.234375 C 90.597656 330.007812 94.242188 326.554688 97.140625 325.058594 C 97.199219 320.398438 97.804688 315.722656 99.558594 311.378906 C 99.710938 310.988281 100.011719 310.140625 99.6875 309.761719 C 98.5 308.375 89.257812 312.503906 87.742188 313.117188 C 83.253906 314.933594 78.8125 316.917969 74.515625 319.148438 C 71.519531 320.707031 69.472656 323.160156 68.570312 326.402344 C 67.574219 329.972656 68.085938 333.929688 69.226562 337.40625 C 70.566406 341.511719 72.914062 345.394531 75.789062 348.609375 C 77.460938 350.851562 79.71875 351.390625 77.941406 348.664062 C 76.285156 346.113281 75.324219 343.148438 75.003906 339.726562 C 74.988281 339.542969 75.105469 339.378906 75.285156 339.335938 C 75.46875 339.292969 75.648438 339.390625 75.710938 339.5625 C 80.527344 352.117188 90.273438 356.121094 103.539062 355.808594 C 114.707031 355.542969 127.074219 352.855469 133.972656 343.742188 C 134.074219 343.601562 134.257812 343.554688 134.417969 343.625 C 134.578125 343.699219 134.660156 343.863281 134.625 344.035156 C 133.976562 347.171875 131.667969 349.894531 129.117188 352.019531 Z M 214.453125 74.757812 C 214.292969 74.730469 214.128906 74.714844 213.960938 74.714844 C 213.566406 74.714844 213.136719 74.804688 212.820312 75.050781 C 212.566406 75.242188 212.398438 75.5 212.34375 75.8125 C 212.335938 75.898438 212.324219 75.980469 212.324219 76.066406 C 212.324219 76.652344 212.636719 77.214844 213.035156 77.632812 C 213.523438 78.148438 214.179688 78.511719 214.886719 78.628906 C 215.050781 78.660156 215.214844 78.675781 215.375 78.675781 C 215.773438 78.675781 216.199219 78.582031 216.523438 78.339844 C 216.773438 78.152344 216.9375 77.886719 216.996094 77.578125 C 217.007812 77.492188 217.015625 77.410156 217.015625 77.320312 C 217.015625 76.738281 216.703125 76.179688 216.308594 75.757812 C 215.816406 75.242188 215.15625 74.878906 214.453125 74.757812 Z M 123.898438 298.871094 C 129.085938 297.546875 134.308594 296.328125 139.542969 295.214844 C 145.097656 294.03125 150.683594 292.96875 156.289062 292.027344 C 156.308594 289.570312 156.363281 287.054688 157.160156 284.707031 C 157.789062 282.847656 158.238281 281.417969 158.582031 279.445312 C 160.464844 268.632812 161.261719 259.75 160.78125 248.683594 C 160.621094 244.96875 159.867188 241.460938 159.085938 237.84375 C 157.773438 231.789062 156.878906 226.335938 156.539062 220.34375 C 154.550781 231.71875 152.511719 243.082031 150.375 254.4375 C 150.039062 256.199219 149.636719 257.957031 149.097656 259.667969 C 148.546875 261.414062 147.835938 263.132812 146.882812 264.699219 C 143.503906 270.273438 139.765625 275.46875 135.914062 280.714844 C 131.5625 286.640625 127.414062 292.414062 123.898438 298.871094 Z M 239.058594 294.53125 C 234.464844 292.292969 232.703125 292.828125 228.523438 295.5625 C 225.160156 297.761719 222.585938 299.089844 218.4375 299.214844 C 217.726562 299.238281 216.730469 299.664062 216.207031 300.144531 C 216.152344 300.191406 216.023438 300.324219 216.039062 300.355469 C 218.292969 302.953125 226.839844 300.953125 229.886719 300.535156 C 230.078125 300.511719 230.253906 300.632812 230.296875 300.824219 C 230.339844 301.007812 230.230469 301.191406 230.050781 301.25 C 222.730469 303.574219 215.816406 306.28125 208.0625 306.832031 C 203.355469 307.171875 198.542969 306.9375 193.875 306.257812 C 193.820312 306.253906 193.757812 306.332031 193.730469 306.367188 C 193.695312 306.429688 193.671875 306.503906 193.660156 306.578125 C 193.648438 306.664062 193.660156 306.75 193.691406 306.832031 C 193.90625 307.4375 194.914062 307.71875 195.460938 307.820312 C 202.976562 309.238281 210.460938 310.238281 218.136719 309.9375 C 224.464844 309.6875 239.59375 308.96875 241.910156 301.625 C 242.550781 299.613281 242.835938 297.289062 242.730469 295.183594 C 242.65625 293.683594 242.332031 291.570312 241.285156 290.414062 C 240.242188 289.277344 238.484375 292.222656 239.539062 294.015625 C 239.617188 294.160156 239.597656 294.332031 239.488281 294.453125 C 239.378906 294.574219 239.203125 294.605469 239.058594 294.53125 Z M 198.480469 41.386719 L 197.5 46.355469 C 197.109375 48.3125 197.402344 50.34375 199.175781 51.507812 C 199.269531 51.570312 199.371094 51.632812 199.46875 51.683594 C 198.4375 50.570312 197.847656 49.125 197.839844 47.601562 C 197.828125 46.539062 198.101562 45.492188 198.636719 44.621094 C 199.027344 43.324219 198.964844 42.4375 198.480469 41.386719 Z M 199.695312 35.289062 C 199.742188 35.253906 199.792969 35.214844 199.839844 35.179688 C 200.367188 34.765625 200.304688 33.625 200.191406 32.765625 Z M 205.128906 32.789062 C 205.023438 33.648438 204.96875 34.765625 205.488281 35.179688 C 205.535156 35.214844 205.574219 35.25 205.621094 35.28125 Z M 206.828125 41.394531 C 206.390625 42.351562 206.304688 43.167969 206.621094 44.363281 C 207.152344 45.136719 207.429688 46.023438 207.441406 46.964844 C 207.449219 48.179688 206.984375 49.347656 206.105469 50.203125 C 205.46875 50.824219 204.601562 51.152344 203.714844 51.125 C 202.824219 51.089844 201.980469 50.710938 201.355469 50.078125 C 200.730469 49.4375 200.375 48.585938 200.367188 47.691406 C 200.355469 46.800781 200.699219 45.953125 201.332031 45.332031 C 201.734375 44.941406 202.277344 44.734375 202.832031 44.753906 C 203.386719 44.773438 203.90625 45.007812 204.296875 45.402344 L 204.425781 45.535156 C 204.457031 45.570312 204.484375 45.605469 204.5 45.644531 C 204.757812 46.003906 204.898438 46.433594 204.902344 46.878906 C 204.90625 47.4375 204.695312 47.96875 204.292969 48.355469 C 203.96875 48.671875 203.441406 48.667969 203.132812 48.339844 C 202.816406 48.015625 202.816406 47.496094 203.148438 47.179688 C 203.226562 47.101562 203.261719 46.996094 203.261719 46.890625 C 203.257812 46.761719 203.203125 46.640625 203.109375 46.546875 L 203.101562 46.539062 C 203.019531 46.453125 202.898438 46.402344 202.78125 46.394531 C 202.675781 46.390625 202.570312 46.425781 202.492188 46.5 C 202.175781 46.8125 202.007812 47.234375 202.015625 47.675781 C 202.015625 48.144531 202.207031 48.585938 202.53125 48.921875 C 202.855469 49.257812 203.296875 49.464844 203.769531 49.476562 C 204.203125 49.492188 204.628906 49.335938 204.949219 49.035156 C 205.503906 48.488281 205.796875 47.75 205.789062 46.976562 C 205.78125 46.164062 205.453125 45.394531 204.890625 44.820312 C 204.324219 44.242188 203.566406 43.890625 202.757812 43.863281 C 201.992188 43.839844 201.238281 44.113281 200.683594 44.652344 C 199.890625 45.425781 199.46875 46.480469 199.476562 47.589844 C 199.488281 48.738281 199.957031 49.828125 200.753906 50.648438 C 201.558594 51.472656 202.640625 51.972656 203.789062 52.011719 C 204.117188 52.019531 204.433594 51.996094 204.734375 51.941406 C 205.101562 51.804688 205.4375 51.636719 205.773438 51.429688 C 207.589844 50.300781 208.230469 48.4375 207.816406 46.355469 Z M 204.808594 42.738281 C 204.855469 41.644531 205.230469 40.808594 205.820312 39.789062 C 206.746094 38.1875 205.910156 37.59375 204.519531 36.507812 C 204.949219 37.824219 204.972656 38.765625 204.683594 40.351562 C 204.550781 41.105469 204.453125 41.804688 204.425781 42.566406 C 204.554688 42.617188 204.683594 42.671875 204.808594 42.738281 Z M 202.792969 42.21875 C 202.835938 41.484375 202.929688 40.789062 203.066406 40.050781 C 203.351562 38.476562 203.261719 37.734375 202.664062 36.21875 C 202.0625 37.734375 201.96875 38.476562 202.253906 40.058594 C 202.390625 40.792969 202.488281 41.484375 202.527344 42.21875 C 202.617188 42.214844 202.703125 42.214844 202.792969 42.21875 Z M 200.894531 42.570312 C 200.871094 41.808594 200.773438 41.109375 200.636719 40.351562 C 200.351562 38.769531 200.375 37.824219 200.800781 36.507812 C 199.402344 37.605469 198.585938 38.195312 199.511719 39.804688 C 200.101562 40.820312 200.472656 41.65625 200.53125 42.742188 C 200.648438 42.679688 200.773438 42.621094 200.894531 42.570312 Z M 171.253906 109.800781 C 170.25 108.792969 169.328125 107.585938 168.453125 106.46875 C 168.28125 106.25 167.449219 105.121094 166.988281 104.59375 C 166.996094 105.0625 167.070312 105.78125 167.09375 105.976562 C 167.460938 109.691406 168.980469 112.984375 170.25 116.457031 C 171.90625 121.023438 174.039062 126.582031 174.132812 131.464844 C 174.191406 134.367188 173.898438 136.855469 173.429688 139.699219 C 173.050781 141.996094 172.761719 144.164062 172.6875 146.496094 C 172.664062 147.132812 172.726562 148.1875 173.191406 148.6875 C 173.21875 148.71875 173.285156 148.785156 173.332031 148.792969 C 173.367188 148.800781 173.445312 148.765625 173.480469 148.746094 C 174.082031 148.417969 174.503906 147.335938 174.695312 146.722656 C 175.214844 145.0625 175.125 142.660156 175.105469 140.917969 C 175.089844 139.308594 175.03125 137.53125 175.324219 135.976562 C 175.789062 127.769531 178.847656 125.648438 172.269531 119.074219 C 171.640625 118.445312 171.289062 117.601562 171.289062 116.710938 C 171.289062 115.816406 171.640625 114.972656 172.269531 114.34375 C 172.285156 114.332031 172.300781 114.316406 172.316406 114.296875 C 172.191406 114.203125 172.078125 114.097656 171.960938 113.988281 C 171.269531 113.296875 170.882812 112.371094 170.882812 111.394531 C 170.882812 110.839844 171.011719 110.296875 171.253906 109.800781 Z M 175.625 111.675781 C 175.628906 111.523438 175.632812 111.371094 175.648438 111.234375 C 175.613281 110.992188 175.5 110.789062 175.332031 110.617188 C 175.121094 110.40625 174.84375 110.292969 174.546875 110.292969 C 174.257812 110.292969 173.980469 110.40625 173.769531 110.613281 C 173.5625 110.820312 173.445312 111.101562 173.445312 111.394531 C 173.445312 111.691406 173.566406 111.972656 173.769531 112.179688 C 173.980469 112.386719 174.257812 112.5 174.546875 112.5 C 174.84375 112.5 175.121094 112.382812 175.332031 112.179688 C 175.484375 112.023438 175.585938 111.835938 175.625 111.675781 Z M 178.027344 101.109375 C 178.082031 101.003906 178.136719 100.902344 178.1875 100.804688 C 178.273438 100.597656 178.3125 100.390625 178.3125 100.167969 C 178.3125 99.714844 178.132812 99.28125 177.8125 98.964844 C 177.492188 98.640625 177.0625 98.464844 176.605469 98.464844 C 176.152344 98.464844 175.722656 98.640625 175.402344 98.964844 C 175.078125 99.28125 174.898438 99.714844 174.898438 100.167969 C 174.898438 100.621094 175.078125 101.050781 175.402344 101.375 C 175.722656 101.695312 176.152344 101.875 176.605469 101.875 C 177.0625 101.875 177.492188 101.695312 177.8125 101.375 C 177.898438 101.285156 177.976562 101.191406 178.027344 101.109375 Z M 198.679688 90.425781 C 198.964844 90.410156 199.246094 90.394531 199.515625 90.386719 C 199.953125 90.289062 200.335938 90.074219 200.648438 89.761719 C 201.09375 89.316406 201.332031 88.726562 201.332031 88.097656 C 201.332031 87.476562 201.089844 86.886719 200.648438 86.445312 C 200.210938 86.003906 199.613281 85.757812 198.992188 85.757812 C 198.367188 85.757812 197.777344 86 197.335938 86.441406 C 196.894531 86.882812 196.648438 87.476562 196.648438 88.097656 C 196.648438 88.726562 196.894531 89.3125 197.335938 89.753906 C 197.710938 90.132812 198.195312 90.371094 198.679688 90.425781 Z M 205.738281 90.378906 C 206.027344 90.394531 206.308594 90.410156 206.574219 90.429688 C 207.105469 90.367188 207.570312 90.132812 207.953125 89.753906 C 208.394531 89.3125 208.636719 88.726562 208.636719 88.097656 C 208.636719 87.476562 208.394531 86.882812 207.953125 86.445312 C 207.511719 86 206.921875 85.757812 206.292969 85.757812 C 205.667969 85.757812 205.078125 86.003906 204.640625 86.445312 C 204.203125 86.886719 203.949219 87.476562 203.949219 88.097656 C 203.949219 88.722656 204.199219 89.3125 204.636719 89.753906 C 204.953125 90.070312 205.347656 90.292969 205.738281 90.378906 Z M 238.296875 104.59375 C 237.835938 105.117188 237 106.25 236.828125 106.46875 C 235.96875 107.574219 235.0625 108.761719 234.070312 109.761719 C 234.324219 110.269531 234.457031 110.828125 234.457031 111.394531 C 234.457031 112.371094 234.070312 113.296875 233.382812 113.984375 C 233.273438 114.097656 233.152344 114.203125 233.027344 114.296875 C 233.046875 114.316406 233.058594 114.332031 233.074219 114.34375 C 233.703125 114.976562 234.054688 115.816406 234.054688 116.707031 C 234.054688 117.597656 233.703125 118.445312 233.074219 119.074219 C 226.445312 125.707031 229.476562 127.671875 229.964844 135.96875 C 230.253906 137.519531 230.199219 139.308594 230.175781 140.917969 C 230.15625 142.660156 230.074219 145.0625 230.589844 146.722656 C 230.78125 147.335938 231.203125 148.417969 231.804688 148.746094 C 231.839844 148.765625 231.914062 148.800781 231.953125 148.792969 C 232 148.785156 232.070312 148.71875 232.09375 148.6875 C 232.554688 148.1875 232.625 147.132812 232.601562 146.496094 C 232.523438 144.164062 232.234375 141.996094 231.851562 139.699219 C 231.386719 136.855469 231.097656 134.367188 231.152344 131.464844 C 231.242188 126.582031 233.375 121.023438 235.039062 116.457031 C 236.300781 112.984375 237.828125 109.691406 238.195312 105.976562 C 238.21875 105.78125 238.292969 105.0625 238.296875 104.59375 Z M 220.136719 96.785156 C 216.265625 94.160156 211.210938 93.273438 206.648438 92.988281 C 206.527344 92.996094 206.417969 93.003906 206.292969 93.003906 C 206.003906 93.003906 205.726562 92.980469 205.460938 92.929688 C 204.519531 92.890625 203.589844 92.875 202.640625 92.875 C 201.699219 92.875 200.769531 92.890625 199.851562 92.925781 C 199.5625 92.980469 199.285156 93.003906 198.992188 93.003906 C 198.871094 93.003906 198.757812 92.996094 198.664062 92.988281 C 194.074219 93.273438 189.023438 94.160156 185.144531 96.785156 C 183.128906 98.148438 181.546875 99.902344 180.429688 102.070312 L 180.367188 102.183594 C 178.941406 104.945312 178.355469 108.089844 178.207031 111.144531 C 178.214844 111.234375 178.214844 111.3125 178.214844 111.394531 C 178.214844 111.578125 178.203125 111.75 178.175781 111.90625 C 178.164062 112.25 178.160156 112.582031 178.160156 112.929688 C 178.160156 120.875 179.019531 130.121094 182.816406 137.195312 C 186.992188 144.976562 193.871094 148.316406 202.640625 148.316406 C 211.414062 148.316406 218.296875 144.976562 222.472656 137.195312 C 226.261719 130.121094 227.125 120.875 227.125 112.929688 C 227.125 106.65625 225.601562 100.480469 220.136719 96.785156 Z M 208.515625 107.207031 C 212.964844 105.625 217.867188 105.511719 222.34375 107.050781 C 222.921875 107.246094 224.074219 107.539062 224.441406 106.832031 C 225.234375 105.316406 221.40625 103.914062 220.496094 103.683594 C 216.285156 102.617188 211.363281 103.609375 207.355469 105.027344 C 205.21875 105.789062 206.335938 107.976562 208.515625 107.207031 Z M 221.734375 111.488281 C 221.847656 110.679688 220.683594 111.0625 220.449219 110.96875 C 218.691406 109.765625 216.730469 108.972656 214.570312 108.902344 C 212.269531 108.824219 210.074219 109.609375 208.140625 110.808594 C 207.671875 111.097656 206.800781 112.246094 206.847656 112.902344 C 206.65625 113.703125 207.917969 113.453125 208.140625 113.585938 C 210.074219 114.785156 212.269531 115.570312 214.570312 115.492188 C 216.730469 115.421875 218.691406 114.628906 220.460938 113.421875 C 220.871094 113.140625 221.734375 112.058594 221.734375 111.488281 Z M 198.4375 112.902344 C 198.488281 112.246094 197.617188 111.097656 197.148438 110.808594 C 195.210938 109.609375 193.019531 108.824219 190.710938 108.902344 C 188.554688 108.972656 186.597656 109.765625 184.824219 110.976562 C 184.609375 111.0625 183.4375 110.679688 183.546875 111.488281 C 183.554688 112.058594 184.417969 113.140625 184.824219 113.421875 C 186.597656 114.628906 188.554688 115.421875 190.710938 115.492188 C 193.019531 115.570312 195.210938 114.785156 197.148438 113.585938 C 197.363281 113.453125 198.636719 113.703125 198.4375 112.902344 Z M 198.640625 127.871094 C 198.3125 127.308594 199.933594 124.628906 201.089844 124.628906 C 201.285156 124.628906 201.449219 124.46875 201.453125 124.269531 L 201.78125 112.171875 C 201.78125 110.980469 200.417969 109.457031 199.148438 109.746094 C 199 109.777344 198.890625 109.902344 198.867188 110.058594 C 198.851562 110.214844 198.925781 110.359375 199.0625 110.429688 C 199.640625 110.722656 199.917969 111.558594 199.917969 112.160156 L 199.917969 122.859375 C 198.269531 123.59375 196.476562 127.082031 196.902344 128.703125 C 197.042969 129.257812 197.789062 129.667969 198.328125 129.738281 C 198.792969 129.800781 200.347656 131.390625 200.984375 131.691406 C 202.929688 132.59375 202.359375 132.59375 204.300781 131.691406 C 204.941406 131.390625 206.492188 129.800781 206.957031 129.738281 C 207.492188 129.667969 208.238281 129.257812 208.382812 128.703125 C 208.8125 127.082031 207.015625 123.59375 205.367188 122.859375 L 205.367188 112.160156 C 205.367188 111.558594 205.644531 110.722656 206.21875 110.429688 C 206.359375 110.359375 206.4375 110.214844 206.417969 110.058594 C 206.398438 109.902344 206.285156 109.777344 206.132812 109.746094 C 204.867188 109.457031 203.507812 110.980469 203.507812 112.160156 L 203.828125 124.269531 C 203.835938 124.46875 203.996094 124.628906 204.199219 124.628906 C 205.269531 124.628906 206.980469 127.398438 206.65625 127.871094 C 205.726562 128.058594 204.523438 129.132812 203.660156 129.53125 C 203.410156 129.652344 202.851562 130.019531 202.640625 130.085938 C 202.4375 130.019531 201.878906 129.652344 201.625 129.53125 C 200.773438 129.136719 199.566406 128.066406 198.640625 127.871094 Z M 202.621094 135.152344 C 201.980469 135.0625 201.3125 134.769531 200.796875 134.273438 C 200.71875 134.191406 200.617188 134.160156 200.507812 134.167969 C 197.984375 134.371094 196.980469 136.164062 193.839844 136.050781 C 193.652344 136.042969 193.492188 136.179688 193.464844 136.371094 C 193.441406 136.558594 193.558594 136.734375 193.746094 136.773438 C 196.757812 137.46875 199.429688 139.246094 202.648438 139.132812 C 205.855469 139.246094 208.523438 137.46875 211.535156 136.773438 C 211.722656 136.734375 211.847656 136.558594 211.816406 136.371094 C 211.792969 136.179688 211.632812 136.042969 211.441406 136.050781 C 208.304688 136.164062 207.304688 134.371094 204.78125 134.167969 C 204.667969 134.160156 204.570312 134.191406 204.488281 134.269531 C 203.976562 134.769531 203.304688 135.0625 202.621094 135.152344 Z M 197.785156 139.335938 C 197.609375 139.277344 197.414062 139.363281 197.339844 139.539062 C 197.261719 139.710938 197.332031 139.914062 197.496094 140.007812 C 199.0625 140.894531 200.777344 142.128906 202.640625 142.128906 C 204.507812 142.128906 206.222656 140.894531 207.792969 140.007812 C 207.960938 139.910156 208.027344 139.703125 207.945312 139.527344 C 207.859375 139.351562 207.660156 139.273438 207.476562 139.34375 C 204.734375 140.429688 200.578125 140.226562 197.785156 139.335938 Z M 197.925781 105.027344 C 193.925781 103.609375 189 102.617188 184.789062 103.683594 C 183.882812 103.914062 180.046875 105.316406 180.847656 106.832031 C 181.21875 107.539062 182.359375 107.246094 182.9375 107.050781 C 187.417969 105.511719 192.324219 105.625 196.773438 107.207031 C 198.953125 107.976562 200.070312 105.789062 197.925781 105.027344 Z M 211.703125 111.902344 C 211.449219 111.988281 211.203125 112.089844 210.957031 112.199219 C 211.3125 112.351562 211.675781 112.488281 212.046875 112.601562 C 211.894531 112.390625 211.777344 112.15625 211.703125 111.902344 Z M 215.558594 112.824219 C 216.21875 112.699219 216.855469 112.484375 217.46875 112.199219 C 217.035156 111.996094 216.589844 111.828125 216.128906 111.707031 C 216.046875 112.128906 215.839844 112.515625 215.558594 112.824219 Z M 193.582031 111.902344 C 193.507812 112.15625 193.390625 112.390625 193.238281 112.601562 C 193.609375 112.488281 193.972656 112.355469 194.324219 112.199219 C 194.082031 112.089844 193.832031 111.988281 193.582031 111.902344 Z M 189.734375 112.824219 C 189.445312 112.515625 189.246094 112.128906 189.15625 111.707031 C 188.695312 111.828125 188.25 111.996094 187.816406 112.199219 C 188.433594 112.484375 189.070312 112.699219 189.734375 112.824219 Z M 214.074219 61.699219 C 213.992188 61.214844 213.757812 60.757812 213.421875 60.398438 C 213.214844 60.175781 212.953125 59.980469 212.664062 59.871094 C 212.636719 59.859375 212.613281 59.851562 212.582031 59.847656 C 212.507812 60.121094 212.410156 60.386719 212.277344 60.640625 C 212.957031 60.828125 213.570312 61.199219 214.074219 61.699219 Z M 206.988281 55.304688 C 206.761719 55.09375 206.472656 54.960938 206.164062 54.914062 C 205.796875 54.863281 205.414062 54.933594 205.109375 55.144531 C 205.101562 55.152344 205.085938 55.164062 205.066406 55.171875 C 205.242188 55.300781 205.40625 55.4375 205.5625 55.589844 C 205.707031 55.730469 205.832031 55.886719 205.957031 56.050781 C 205.957031 56.050781 205.960938 56.046875 205.964844 56.042969 C 206.265625 55.742188 206.609375 55.492188 206.988281 55.304688 Z M 200.035156 55.3125 C 199.976562 55.25 199.910156 55.191406 199.839844 55.144531 C 199.53125 54.933594 199.148438 54.867188 198.785156 54.914062 C 198.53125 54.953125 198.289062 55.046875 198.085938 55.199219 C 198.546875 55.394531 198.96875 55.683594 199.335938 56.042969 L 199.335938 56.046875 C 199.457031 55.882812 199.589844 55.730469 199.726562 55.589844 C 199.824219 55.492188 199.929688 55.402344 200.035156 55.3125 Z M 222.824219 73.707031 C 222.667969 73.078125 222.222656 72.4375 221.8125 71.972656 C 221.234375 71.320312 220.484375 70.730469 219.675781 70.394531 C 219.410156 70.28125 219.09375 70.179688 218.796875 70.164062 C 219.757812 70.542969 220.636719 71.183594 221.320312 71.9375 C 221.824219 72.488281 222.257812 73.132812 222.542969 73.824219 C 222.636719 73.777344 222.730469 73.738281 222.824219 73.707031 Z M 214.921875 67.195312 C 215.46875 67.320312 216.011719 67.507812 216.507812 67.765625 C 216.625 67.832031 216.746094 67.898438 216.859375 67.96875 C 217 67.777344 217.089844 67.550781 217.128906 67.316406 C 217.214844 66.816406 217.09375 66.304688 216.835938 65.875 L 216.816406 65.851562 C 216.546875 65.421875 216.128906 65.082031 215.632812 64.945312 C 215.570312 64.929688 215.507812 64.914062 215.445312 64.910156 L 215.453125 65.0625 C 215.453125 65.808594 215.277344 66.546875 214.921875 67.195312 Z M 210.632812 66.164062 C 210.898438 66.445312 211.253906 66.65625 211.648438 66.65625 L 211.71875 66.65625 C 212.035156 66.636719 212.304688 66.476562 212.503906 66.234375 C 212.777344 65.910156 212.890625 65.480469 212.890625 65.070312 L 212.890625 64.933594 C 212.859375 64.425781 212.667969 63.933594 212.316406 63.558594 C 212.058594 63.277344 211.695312 63.066406 211.296875 63.066406 L 211.230469 63.066406 C 210.914062 63.082031 210.644531 63.246094 210.441406 63.488281 C 210.175781 63.8125 210.054688 64.242188 210.054688 64.652344 L 210.0625 64.789062 C 210.09375 65.296875 210.285156 65.792969 210.632812 66.164062 Z M 186.390625 70.210938 C 186.191406 70.257812 186 70.324219 185.832031 70.394531 C 185.027344 70.730469 184.273438 71.320312 183.695312 71.972656 C 183.269531 72.453125 182.796875 73.128906 182.664062 73.777344 C 182.699219 73.792969 182.726562 73.808594 182.761719 73.824219 C 183.046875 73.132812 183.476562 72.488281 183.980469 71.9375 C 184.640625 71.21875 185.480469 70.59375 186.390625 70.210938 Z M 192.742188 59.945312 C 192.515625 60.054688 192.316406 60.21875 192.144531 60.398438 C 191.824219 60.738281 191.605469 61.167969 191.511719 61.621094 C 191.953125 61.207031 192.472656 60.882812 193.046875 60.695312 C 192.925781 60.457031 192.820312 60.207031 192.742188 59.945312 Z M 190.0625 64.910156 C 190 64.914062 189.9375 64.929688 189.875 64.945312 C 189.378906 65.082031 188.964844 65.421875 188.691406 65.851562 C 188.414062 66.285156 188.289062 66.8125 188.382812 67.316406 C 188.414062 67.515625 188.480469 67.710938 188.589844 67.882812 C 188.660156 67.84375 188.730469 67.808594 188.804688 67.765625 C 189.351562 67.484375 189.949219 67.273438 190.566406 67.160156 C 190.226562 66.515625 190.054688 65.792969 190.054688 65.050781 Z M 193.855469 66.65625 C 194.25 66.65625 194.609375 66.445312 194.878906 66.164062 C 195.222656 65.792969 195.417969 65.296875 195.445312 64.800781 L 195.453125 64.65625 C 195.453125 64.242188 195.328125 63.8125 195.066406 63.488281 C 194.867188 63.246094 194.59375 63.082031 194.289062 63.066406 L 194.210938 63.066406 C 193.8125 63.066406 193.453125 63.277344 193.1875 63.558594 C 192.84375 63.929688 192.648438 64.425781 192.613281 64.917969 L 192.613281 65.066406 C 192.613281 65.484375 192.730469 65.910156 193 66.234375 C 193.203125 66.476562 193.46875 66.636719 193.773438 66.65625 Z M 208.761719 57.445312 C 208.390625 57.445312 208.035156 57.59375 207.773438 57.851562 C 207.511719 58.113281 207.363281 58.46875 207.363281 58.839844 C 207.363281 59.210938 207.511719 59.5625 207.773438 59.824219 C 208.035156 60.085938 208.390625 60.230469 208.761719 60.230469 C 209.128906 60.230469 209.484375 60.085938 209.746094 59.824219 C 210.003906 59.5625 210.148438 59.210938 210.148438 58.839844 C 210.148438 58.46875 210.003906 58.113281 209.746094 57.851562 C 209.484375 57.59375 209.128906 57.445312 208.761719 57.445312 Z M 203.746094 57.402344 C 203.457031 57.109375 203.0625 56.945312 202.644531 56.945312 C 202.230469 56.945312 201.835938 57.109375 201.539062 57.402344 C 201.25 57.695312 201.082031 58.089844 201.082031 58.503906 C 201.082031 58.921875 201.25 59.3125 201.539062 59.609375 C 201.835938 59.902344 202.226562 60.066406 202.644531 60.066406 C 203.0625 60.066406 203.457031 59.902344 203.746094 59.609375 C 204.042969 59.3125 204.203125 58.921875 204.203125 58.503906 C 204.203125 58.089844 204.042969 57.695312 203.746094 57.402344 Z M 197.523438 57.851562 C 197.261719 57.59375 196.90625 57.445312 196.542969 57.445312 C 196.171875 57.445312 195.8125 57.59375 195.554688 57.851562 C 195.292969 58.113281 195.144531 58.46875 195.144531 58.839844 C 195.144531 59.210938 195.292969 59.5625 195.554688 59.824219 C 195.816406 60.085938 196.171875 60.230469 196.542969 60.230469 C 196.90625 60.230469 197.261719 60.085938 197.523438 59.824219 C 197.785156 59.5625 197.933594 59.210938 197.933594 58.839844 C 197.933594 58.46875 197.785156 58.113281 197.523438 57.851562 Z M 203.382812 67.1875 C 203.113281 67.027344 202.867188 66.839844 202.644531 66.621094 C 202.421875 66.839844 202.175781 67.027344 201.90625 67.1875 C 202.152344 67.152344 202.394531 67.132812 202.640625 67.132812 C 202.890625 67.132812 203.136719 67.152344 203.382812 67.1875 Z M 206.613281 62.554688 C 206.320312 62.261719 205.921875 62.097656 205.507812 62.097656 C 205.097656 62.097656 204.699219 62.257812 204.402344 62.554688 C 204.105469 62.847656 203.945312 63.242188 203.945312 63.660156 C 203.945312 64.074219 204.105469 64.46875 204.402344 64.765625 C 204.699219 65.058594 205.089844 65.21875 205.507812 65.21875 C 205.921875 65.21875 206.320312 65.054688 206.609375 64.761719 C 206.910156 64.46875 207.066406 64.074219 207.066406 63.660156 C 207.066406 63.246094 206.910156 62.847656 206.613281 62.554688 Z M 200.886719 62.554688 C 200.589844 62.257812 200.195312 62.097656 199.777344 62.097656 C 199.363281 62.097656 198.96875 62.261719 198.679688 62.558594 C 198.386719 62.847656 198.21875 63.246094 198.21875 63.660156 C 198.21875 64.074219 198.386719 64.46875 198.679688 64.761719 C 198.96875 65.058594 199.363281 65.21875 199.777344 65.21875 C 200.195312 65.21875 200.59375 65.058594 200.886719 64.765625 C 201.179688 64.46875 201.34375 64.074219 201.34375 63.660156 C 201.34375 63.242188 201.175781 62.847656 200.886719 62.554688 Z M 207.609375 68.636719 C 207.308594 68.554688 206.992188 68.515625 206.691406 68.515625 C 206.527344 68.515625 206.320312 68.527344 206.117188 68.578125 C 206.363281 68.828125 206.582031 69.101562 206.773438 69.390625 C 207.003906 69.089844 207.289062 68.835938 207.609375 68.636719 Z M 199.101562 68.652344 C 198.863281 68.542969 198.53125 68.515625 198.289062 68.515625 C 198.058594 68.515625 197.832031 68.539062 197.609375 68.578125 C 197.960938 68.789062 198.269531 69.050781 198.523438 69.378906 C 198.691406 69.121094 198.886719 68.878906 199.101562 68.652344 Z M 204.804688 71.125 C 204.683594 70.851562 204.519531 70.59375 204.300781 70.378906 C 203.859375 69.9375 203.273438 69.691406 202.640625 69.691406 C 202.023438 69.691406 201.429688 69.933594 200.984375 70.375 C 200.773438 70.59375 200.601562 70.847656 200.484375 71.125 C 201.171875 71.332031 201.820312 71.675781 202.371094 72.152344 C 202.464844 72.238281 202.554688 72.320312 202.640625 72.410156 C 202.734375 72.320312 202.824219 72.238281 202.917969 72.152344 C 203.464844 71.679688 204.109375 71.335938 204.804688 71.125 Z M 191.566406 69.609375 C 191.027344 69.632812 190.457031 69.792969 189.984375 70.039062 C 189.914062 70.074219 189.84375 70.113281 189.777344 70.15625 C 189.945312 70.246094 190.109375 70.351562 190.265625 70.480469 C 190.378906 70.570312 190.484375 70.675781 190.582031 70.78125 C 190.851562 70.351562 191.1875 69.953125 191.566406 69.609375 Z M 188.757812 72.78125 C 188.753906 72.714844 188.742188 72.648438 188.726562 72.589844 C 188.710938 72.542969 188.691406 72.492188 188.648438 72.460938 C 188.589844 72.410156 188.492188 72.386719 188.414062 72.375 C 188.171875 72.335938 187.894531 72.390625 187.660156 72.464844 C 186.984375 72.671875 186.351562 73.140625 185.875 73.660156 C 185.460938 74.117188 185.050781 74.738281 184.964844 75.359375 C 184.960938 75.382812 184.957031 75.402344 184.957031 75.417969 C 185.320312 75.546875 185.65625 75.734375 185.953125 75.984375 C 186.1875 75.234375 186.621094 74.546875 187.160156 73.980469 C 187.621094 73.492188 188.160156 73.089844 188.757812 72.78125 Z M 196.621094 71.414062 C 196.625 71.378906 196.625 71.351562 196.625 71.320312 C 196.625 71.191406 196.597656 71.066406 196.519531 70.960938 C 196.417969 70.828125 196.253906 70.742188 196.101562 70.6875 C 195.910156 70.625 195.703125 70.601562 195.503906 70.601562 C 194.859375 70.601562 194.207031 70.839844 193.671875 71.195312 C 193.273438 71.46875 192.871094 71.855469 192.65625 72.3125 C 193.152344 72.453125 193.621094 72.679688 194.039062 72.988281 C 194.191406 73.105469 194.339844 73.234375 194.480469 73.375 C 194.738281 72.910156 195.082031 72.503906 195.476562 72.152344 C 195.824219 71.855469 196.210938 71.605469 196.621094 71.414062 Z M 228.964844 86.15625 C 229.164062 85.9375 229.289062 85.65625 229.339844 85.367188 C 229.425781 84.875 229.308594 84.355469 229.050781 83.9375 L 229.03125 83.90625 C 228.757812 83.476562 228.335938 83.136719 227.839844 83 C 227.578125 82.925781 227.296875 82.917969 227.023438 82.988281 C 226.992188 83.042969 226.949219 83.09375 226.914062 83.148438 C 227.207031 83.347656 227.464844 83.582031 227.699219 83.847656 C 228.277344 84.511719 228.648438 85.332031 228.789062 86.199219 C 228.847656 86.183594 228.90625 86.167969 228.964844 86.15625 Z M 222.121094 77.867188 C 221.894531 77.808594 221.640625 77.773438 221.40625 77.804688 C 221.265625 77.824219 221.109375 77.875 221 77.96875 C 220.90625 78.050781 220.847656 78.167969 220.820312 78.289062 C 220.777344 78.460938 220.777344 78.65625 220.804688 78.835938 C 220.898438 79.511719 221.3125 80.171875 221.765625 80.667969 C 222.261719 81.199219 222.925781 81.660156 223.640625 81.839844 C 223.871094 81.898438 224.121094 81.933594 224.359375 81.902344 C 224.5 81.882812 224.652344 81.835938 224.757812 81.738281 C 224.859375 81.65625 224.914062 81.539062 224.941406 81.421875 C 224.988281 81.246094 224.984375 81.054688 224.957031 80.875 C 224.867188 80.195312 224.453125 79.535156 223.992188 79.042969 C 223.5 78.507812 222.832031 78.050781 222.121094 77.867188 Z M 219.367188 76.003906 C 219.65625 75.757812 219.992188 75.570312 220.351562 75.445312 C 220.347656 75.417969 220.34375 75.386719 220.339844 75.359375 C 220.25 74.738281 219.847656 74.117188 219.433594 73.660156 C 218.957031 73.140625 218.324219 72.671875 217.644531 72.464844 C 217.414062 72.390625 217.136719 72.335938 216.886719 72.375 C 216.8125 72.386719 216.71875 72.410156 216.65625 72.460938 C 216.613281 72.492188 216.59375 72.542969 216.578125 72.589844 C 216.558594 72.652344 216.550781 72.722656 216.546875 72.796875 C 217.144531 73.101562 217.695312 73.507812 218.160156 74 C 218.699219 74.570312 219.128906 75.253906 219.367188 76.003906 Z M 212.664062 72.332031 C 212.449219 71.867188 212.039062 71.472656 211.632812 71.195312 C 211.097656 70.839844 210.445312 70.601562 209.804688 70.601562 C 209.601562 70.601562 209.394531 70.625 209.207031 70.6875 C 209.046875 70.742188 208.890625 70.828125 208.789062 70.960938 C 208.707031 71.066406 208.679688 71.191406 208.679688 71.320312 C 208.679688 71.351562 208.679688 71.386719 208.683594 71.417969 C 209.089844 71.613281 209.46875 71.859375 209.808594 72.152344 C 210.214844 72.511719 210.566406 72.933594 210.828125 73.40625 C 210.96875 73.261719 211.121094 73.128906 211.285156 73.007812 C 211.699219 72.699219 212.171875 72.472656 212.664062 72.332031 Z M 176.382812 86.167969 C 176.425781 86.175781 176.46875 86.1875 176.511719 86.199219 C 176.652344 85.332031 177.019531 84.511719 177.601562 83.847656 C 177.835938 83.578125 178.109375 83.335938 178.410156 83.132812 C 178.371094 83.078125 178.332031 83.023438 178.296875 82.964844 C 178.027344 82.894531 177.746094 82.90625 177.480469 82.976562 C 176.980469 83.113281 176.5625 83.453125 176.289062 83.886719 C 176.019531 84.316406 175.890625 84.839844 175.980469 85.347656 C 176.035156 85.652344 176.167969 85.945312 176.382812 86.167969 Z M 183.914062 77.785156 C 183.683594 77.753906 183.429688 77.785156 183.195312 77.847656 C 182.488281 78.027344 181.820312 78.488281 181.328125 79.023438 C 180.867188 79.515625 180.457031 80.179688 180.359375 80.855469 C 180.335938 81.035156 180.335938 81.226562 180.378906 81.402344 C 180.410156 81.519531 180.464844 81.640625 180.554688 81.722656 C 180.667969 81.816406 180.820312 81.863281 180.960938 81.882812 C 181.195312 81.914062 181.449219 81.878906 181.679688 81.824219 C 182.394531 81.640625 183.054688 81.179688 183.546875 80.644531 C 184.011719 80.152344 184.421875 79.488281 184.515625 78.8125 C 184.542969 78.636719 184.542969 78.441406 184.5 78.265625 C 184.472656 78.152344 184.414062 78.03125 184.320312 77.949219 C 184.210938 77.855469 184.054688 77.804688 183.914062 77.785156 Z M 191.355469 74.695312 C 191.191406 74.695312 191.027344 74.710938 190.863281 74.738281 C 190.164062 74.859375 189.5 75.222656 189.015625 75.738281 C 188.617188 76.15625 188.308594 76.71875 188.308594 77.304688 C 188.308594 77.390625 188.3125 77.472656 188.324219 77.550781 C 188.378906 77.863281 188.542969 78.128906 188.796875 78.320312 C 189.121094 78.558594 189.546875 78.652344 189.941406 78.652344 C 190.109375 78.652344 190.273438 78.640625 190.433594 78.609375 C 191.136719 78.492188 191.796875 78.125 192.285156 77.609375 C 192.679688 77.191406 192.996094 76.632812 192.996094 76.042969 C 192.996094 75.960938 192.988281 75.878906 192.972656 75.796875 C 192.925781 75.484375 192.753906 75.21875 192.5 75.03125 C 192.183594 74.789062 191.753906 74.695312 191.355469 74.695312 Z M 208.136719 74.085938 C 207.652344 73.664062 207 73.460938 206.359375 73.460938 C 205.726562 73.460938 205.078125 73.664062 204.589844 74.085938 C 204.207031 74.414062 203.953125 74.871094 203.953125 75.382812 C 203.953125 75.894531 204.207031 76.34375 204.589844 76.679688 C 205.074219 77.097656 205.726562 77.296875 206.359375 77.296875 C 207 77.296875 207.652344 77.097656 208.136719 76.679688 C 208.515625 76.34375 208.773438 75.894531 208.773438 75.382812 C 208.773438 74.871094 208.515625 74.414062 208.136719 74.085938 Z M 200.695312 74.085938 C 200.210938 73.664062 199.5625 73.460938 198.925781 73.460938 C 198.289062 73.460938 197.640625 73.664062 197.152344 74.085938 C 196.773438 74.414062 196.515625 74.871094 196.515625 75.382812 C 196.515625 75.894531 196.773438 76.34375 197.152344 76.679688 C 197.640625 77.097656 198.289062 77.296875 198.925781 77.296875 C 199.5625 77.296875 200.210938 77.097656 200.695312 76.679688 C 201.074219 76.34375 201.332031 75.894531 201.332031 75.382812 C 201.332031 74.871094 201.074219 74.414062 200.695312 74.085938 Z M 231.570312 94.117188 C 231.4375 94.117188 231.304688 94.253906 231.234375 94.351562 C 231.015625 94.636719 230.933594 95.027344 230.933594 95.378906 C 230.933594 95.730469 231.015625 96.121094 231.234375 96.40625 C 231.304688 96.5 231.4375 96.644531 231.570312 96.644531 C 231.699219 96.644531 231.832031 96.5 231.90625 96.40625 C 232.121094 96.121094 232.210938 95.730469 232.210938 95.378906 C 232.210938 95.027344 232.121094 94.636719 231.90625 94.351562 C 231.832031 94.257812 231.699219 94.117188 231.570312 94.117188 Z M 229.660156 88.640625 C 229.390625 88.640625 229.160156 88.816406 229.003906 89.019531 C 228.714844 89.375 228.597656 89.855469 228.597656 90.304688 C 228.597656 90.757812 228.714844 91.238281 229.003906 91.59375 C 229.160156 91.792969 229.390625 91.972656 229.660156 91.972656 C 229.921875 91.972656 230.152344 91.792969 230.3125 91.59375 C 230.59375 91.238281 230.71875 90.757812 230.71875 90.304688 C 230.71875 89.855469 230.59375 89.375 230.3125 89.015625 C 230.152344 88.820312 229.921875 88.640625 229.660156 88.640625 Z M 224.726562 85.019531 C 224.3125 85.019531 223.945312 85.226562 223.679688 85.53125 C 223.332031 85.929688 223.164062 86.464844 223.164062 86.988281 C 223.164062 87.511719 223.332031 88.042969 223.679688 88.441406 C 223.945312 88.75 224.3125 88.953125 224.726562 88.953125 C 225.140625 88.953125 225.507812 88.746094 225.773438 88.441406 C 226.125 88.042969 226.289062 87.511719 226.289062 86.988281 C 226.289062 86.464844 226.125 85.929688 225.773438 85.53125 C 225.507812 85.226562 225.140625 85.019531 224.726562 85.019531 Z M 218.25 81.675781 C 217.679688 81.675781 217.144531 81.902344 216.746094 82.304688 C 216.34375 82.699219 216.121094 83.242188 216.121094 83.804688 C 216.121094 84.371094 216.339844 84.910156 216.734375 85.3125 C 217.140625 85.714844 217.675781 85.9375 218.25 85.9375 C 218.8125 85.9375 219.347656 85.710938 219.75 85.3125 C 220.15625 84.910156 220.375 84.371094 220.375 83.804688 C 220.375 83.242188 220.15625 82.699219 219.757812 82.304688 C 219.351562 81.898438 218.816406 81.675781 218.25 81.675781 Z M 210.441406 79.828125 C 209.878906 79.828125 209.332031 80.050781 208.933594 80.449219 C 208.53125 80.851562 208.3125 81.386719 208.3125 81.953125 C 208.3125 82.519531 208.53125 83.058594 208.929688 83.457031 C 209.332031 83.863281 209.871094 84.082031 210.441406 84.082031 C 211.003906 84.082031 211.539062 83.859375 211.945312 83.457031 C 212.34375 83.058594 212.570312 82.519531 212.570312 81.953125 C 212.570312 81.390625 212.347656 80.851562 211.949219 80.449219 C 211.546875 80.050781 211.003906 79.828125 210.441406 79.828125 Z M 204.300781 79.871094 C 203.859375 79.429688 203.269531 79.1875 202.640625 79.1875 C 202.023438 79.1875 201.429688 79.429688 200.984375 79.867188 C 200.542969 80.3125 200.304688 80.902344 200.304688 81.527344 C 200.304688 82.152344 200.546875 82.746094 200.984375 83.183594 C 201.429688 83.625 202.023438 83.871094 202.640625 83.871094 C 203.269531 83.871094 203.859375 83.625 204.300781 83.183594 C 204.742188 82.746094 204.988281 82.152344 204.988281 81.527344 C 204.988281 80.902344 204.742188 80.3125 204.300781 79.871094 Z M 174.0625 94.351562 C 173.992188 94.253906 173.855469 94.117188 173.730469 94.117188 C 173.597656 94.117188 173.460938 94.253906 173.390625 94.351562 C 173.175781 94.636719 173.089844 95.027344 173.089844 95.378906 C 173.089844 95.730469 173.175781 96.121094 173.390625 96.40625 C 173.460938 96.5 173.597656 96.644531 173.730469 96.644531 C 173.855469 96.644531 173.992188 96.5 174.0625 96.40625 C 174.28125 96.121094 174.367188 95.730469 174.367188 95.378906 C 174.367188 95.027344 174.28125 94.636719 174.0625 94.351562 Z M 176.292969 89.015625 C 176.136719 88.816406 175.90625 88.640625 175.640625 88.640625 C 175.375 88.640625 175.144531 88.816406 174.984375 89.015625 C 174.703125 89.375 174.582031 89.855469 174.582031 90.304688 C 174.582031 90.757812 174.703125 91.238281 174.984375 91.59375 C 175.144531 91.792969 175.375 91.972656 175.640625 91.972656 C 175.90625 91.972656 176.136719 91.792969 176.292969 91.59375 C 176.578125 91.238281 176.699219 90.757812 176.699219 90.304688 C 176.699219 89.855469 176.578125 89.375 176.292969 89.015625 Z M 181.621094 85.53125 C 181.351562 85.226562 180.984375 85.019531 180.570312 85.019531 C 180.160156 85.019531 179.789062 85.226562 179.523438 85.53125 C 179.175781 85.929688 179.011719 86.464844 179.011719 86.984375 C 179.011719 87.511719 179.175781 88.042969 179.523438 88.441406 C 179.792969 88.75 180.160156 88.953125 180.570312 88.953125 C 180.984375 88.953125 181.351562 88.75 181.621094 88.441406 C 181.96875 88.042969 182.136719 87.511719 182.136719 86.984375 C 182.136719 86.464844 181.96875 85.929688 181.621094 85.53125 Z M 188.554688 82.304688 C 188.152344 81.902344 187.617188 81.675781 187.050781 81.675781 C 186.480469 81.675781 185.945312 81.898438 185.542969 82.296875 C 185.144531 82.699219 184.925781 83.238281 184.925781 83.804688 C 184.925781 84.371094 185.144531 84.910156 185.542969 85.3125 C 185.945312 85.714844 186.480469 85.9375 187.050781 85.9375 C 187.613281 85.9375 188.152344 85.714844 188.554688 85.316406 C 188.957031 84.914062 189.175781 84.375 189.175781 83.804688 C 189.175781 83.242188 188.957031 82.699219 188.554688 82.304688 Z M 196.363281 80.449219 C 195.964844 80.050781 195.425781 79.828125 194.859375 79.828125 C 194.292969 79.828125 193.753906 80.046875 193.351562 80.445312 C 192.953125 80.847656 192.730469 81.386719 192.730469 81.953125 C 192.730469 82.519531 192.957031 83.058594 193.351562 83.457031 C 193.753906 83.859375 194.292969 84.082031 194.859375 84.082031 C 195.425781 84.082031 195.964844 83.867188 196.363281 83.460938 C 196.761719 83.0625 196.988281 82.523438 196.988281 81.953125 C 196.988281 81.386719 196.761719 80.851562 196.363281 80.449219 Z M 230.714844 115.929688 C 230.507812 115.929688 230.308594 116.007812 230.160156 116.160156 C 230.011719 116.300781 229.929688 116.5 229.929688 116.707031 C 229.929688 116.917969 230.011719 117.117188 230.160156 117.261719 C 230.308594 117.410156 230.503906 117.492188 230.714844 117.492188 C 230.917969 117.492188 231.117188 117.410156 231.265625 117.261719 C 231.410156 117.117188 231.496094 116.917969 231.496094 116.707031 C 231.496094 116.5 231.410156 116.300781 231.265625 116.160156 C 231.117188 116.007812 230.917969 115.929688 230.714844 115.929688 Z M 230.796875 110.292969 C 230.5 110.292969 230.222656 110.40625 230.011719 110.613281 C 229.800781 110.820312 229.6875 111.101562 229.6875 111.394531 C 229.6875 111.691406 229.800781 111.972656 230.011719 112.179688 C 230.222656 112.386719 230.5 112.5 230.796875 112.5 C 231.085938 112.5 231.363281 112.386719 231.570312 112.179688 C 231.78125 111.972656 231.894531 111.691406 231.894531 111.394531 C 231.894531 111.105469 231.78125 110.824219 231.574219 110.617188 C 231.367188 110.40625 231.085938 110.292969 230.796875 110.292969 Z M 230.546875 104.582031 C 230.191406 104.582031 229.851562 104.722656 229.597656 104.976562 C 229.34375 105.226562 229.203125 105.566406 229.203125 105.925781 C 229.203125 106.28125 229.34375 106.621094 229.59375 106.875 C 229.851562 107.128906 230.191406 107.269531 230.546875 107.269531 C 230.910156 107.269531 231.246094 107.128906 231.5 106.875 C 231.753906 106.621094 231.890625 106.285156 231.890625 105.925781 C 231.890625 105.570312 231.753906 105.226562 231.5 104.972656 C 231.246094 104.71875 230.910156 104.582031 230.546875 104.582031 Z M 228.738281 98.464844 C 228.289062 98.464844 227.855469 98.640625 227.535156 98.964844 C 227.207031 99.28125 227.03125 99.714844 227.03125 100.167969 C 227.03125 100.621094 227.210938 101.050781 227.535156 101.375 C 227.855469 101.695312 228.289062 101.875 228.738281 101.875 C 229.195312 101.875 229.625 101.695312 229.945312 101.375 C 230.265625 101.050781 230.445312 100.621094 230.445312 100.167969 C 230.445312 99.714844 230.265625 99.28125 229.945312 98.964844 C 229.625 98.640625 229.195312 98.464844 228.738281 98.464844 Z M 225.375 92.546875 C 224.859375 92.546875 224.355469 92.75 223.984375 93.121094 C 223.617188 93.488281 223.410156 93.988281 223.410156 94.515625 C 223.410156 95.039062 223.617188 95.535156 223.984375 95.90625 C 224.355469 96.277344 224.851562 96.480469 225.375 96.480469 C 225.902344 96.480469 226.398438 96.277344 226.769531 95.902344 C 227.136719 95.535156 227.34375 95.035156 227.34375 94.515625 C 227.34375 93.988281 227.136719 93.492188 226.769531 93.121094 C 226.398438 92.75 225.902344 92.546875 225.375 92.546875 Z M 219.664062 88.960938 C 219.136719 88.960938 218.632812 89.167969 218.269531 89.539062 C 218.109375 89.695312 217.992188 89.863281 217.90625 90.023438 C 217.855469 90.226562 217.800781 90.386719 217.730469 90.546875 C 217.703125 90.679688 217.695312 90.792969 217.695312 90.929688 C 217.695312 91.453125 217.898438 91.953125 218.269531 92.324219 C 218.632812 92.695312 219.136719 92.898438 219.664062 92.898438 C 220.1875 92.898438 220.683594 92.691406 221.054688 92.320312 C 221.425781 91.953125 221.632812 91.453125 221.632812 90.929688 C 221.632812 90.410156 221.425781 89.910156 221.054688 89.539062 C 220.6875 89.167969 220.1875 88.960938 219.664062 88.960938 Z M 215.289062 89.753906 C 215.335938 89.570312 215.398438 89.390625 215.464844 89.230469 C 215.5 89.082031 215.515625 88.949219 215.515625 88.796875 C 215.515625 88.230469 215.292969 87.695312 214.890625 87.292969 C 214.492188 86.886719 213.957031 86.667969 213.382812 86.667969 C 212.820312 86.667969 212.277344 86.890625 211.878906 87.292969 C 211.476562 87.695312 211.25 88.230469 211.25 88.796875 C 211.25 89.367188 211.46875 89.902344 211.875 90.300781 C 212.277344 90.707031 212.8125 90.925781 213.382812 90.925781 C 213.949219 90.925781 214.484375 90.703125 214.886719 90.300781 C 215.058594 90.128906 215.199219 89.925781 215.289062 89.753906 Z M 175.183594 116.160156 C 175.039062 116.007812 174.839844 115.929688 174.632812 115.929688 C 174.421875 115.929688 174.222656 116.007812 174.078125 116.160156 C 173.933594 116.304688 173.851562 116.5 173.851562 116.710938 C 173.851562 116.917969 173.933594 117.117188 174.078125 117.261719 C 174.222656 117.410156 174.421875 117.492188 174.632812 117.492188 C 174.839844 117.492188 175.039062 117.410156 175.183594 117.261719 C 175.332031 117.117188 175.414062 116.917969 175.414062 116.710938 C 175.414062 116.5 175.332031 116.300781 175.183594 116.160156 Z M 175.742188 104.976562 C 175.488281 104.722656 175.152344 104.582031 174.796875 104.582031 C 174.441406 104.582031 174.097656 104.71875 173.84375 104.972656 C 173.589844 105.226562 173.449219 105.570312 173.449219 105.925781 C 173.449219 106.285156 173.59375 106.621094 173.84375 106.875 C 174.097656 107.128906 174.433594 107.269531 174.796875 107.269531 C 175.152344 107.269531 175.488281 107.128906 175.742188 106.878906 C 176 106.625 176.136719 106.285156 176.136719 105.925781 C 176.136719 105.566406 176 105.226562 175.742188 104.976562 Z M 181.359375 93.121094 C 180.988281 92.75 180.488281 92.546875 179.96875 92.546875 C 179.441406 92.546875 178.945312 92.75 178.574219 93.121094 C 178.203125 93.488281 178 93.992188 178 94.515625 C 178 95.035156 178.203125 95.535156 178.574219 95.90625 C 178.945312 96.277344 179.441406 96.480469 179.96875 96.480469 C 180.488281 96.480469 180.988281 96.277344 181.355469 95.902344 C 181.726562 95.535156 181.933594 95.039062 181.933594 94.515625 C 181.933594 93.988281 181.726562 93.492188 181.359375 93.121094 Z M 189.863281 89.203125 C 189.9375 89.378906 190.003906 89.554688 190.039062 89.722656 C 190.148438 89.945312 190.285156 90.128906 190.453125 90.300781 C 190.859375 90.703125 191.394531 90.925781 191.960938 90.925781 C 192.523438 90.925781 193.066406 90.707031 193.464844 90.304688 C 193.863281 89.902344 194.089844 89.367188 194.089844 88.796875 C 194.089844 88.230469 193.863281 87.695312 193.464844 87.292969 C 193.066406 86.890625 192.53125 86.667969 191.960938 86.667969 C 191.394531 86.667969 190.859375 86.886719 190.453125 87.289062 C 190.054688 87.691406 189.832031 88.230469 189.832031 88.796875 C 189.832031 88.949219 189.847656 89.097656 189.863281 89.203125 Z M 187.070312 89.539062 C 186.699219 89.167969 186.203125 88.960938 185.683594 88.960938 C 185.160156 88.960938 184.65625 89.167969 184.285156 89.539062 C 183.917969 89.90625 183.71875 90.410156 183.71875 90.929688 C 183.71875 91.453125 183.917969 91.953125 184.285156 92.324219 C 184.65625 92.695312 185.160156 92.898438 185.683594 92.898438 C 186.207031 92.898438 186.699219 92.691406 187.070312 92.320312 C 187.4375 91.949219 187.648438 91.453125 187.648438 90.929688 C 187.648438 90.792969 187.640625 90.675781 187.621094 90.574219 C 187.546875 90.390625 187.488281 90.226562 187.449219 90.0625 C 187.351562 89.863281 187.226562 89.695312 187.070312 89.539062 Z M 213.738281 69.609375 C 214.121094 69.953125 214.453125 70.351562 214.722656 70.785156 C 214.820312 70.675781 214.929688 70.570312 215.042969 70.480469 C 215.195312 70.351562 215.359375 70.246094 215.535156 70.15625 C 215.460938 70.117188 215.386719 70.074219 215.320312 70.039062 C 214.84375 69.792969 214.285156 69.636719 213.738281 69.609375 " fill-opacity="1" fill-rule="evenodd"/></g></svg>