<svg xmlns="http://www.w3.org/2000/svg" xmlns:xlink="http://www.w3.org/1999/xlink" width="1587" zoomAndPan="magnify" viewBox="0 0 1190.25 1683.749949" height="2245" preserveAspectRatio="xMidYMid meet" version="1.0"><path fill="#a37c2a" d="M 749.414062 845.105469 C 750.546875 843.488281 751.519531 841.707031 752.652344 840.085938 C 756.378906 834.097656 759.457031 827.78125 761.5625 822.925781 C 762.535156 820.496094 763.34375 818.390625 763.992188 816.933594 C 764.480469 815.476562 764.804688 814.667969 764.804688 814.667969 C 764.804688 814.667969 764.964844 814.019531 765.289062 812.722656 C 765.613281 811.589844 766.097656 809.972656 766.585938 808.027344 C 767.394531 804.144531 768.53125 798.960938 769.015625 793.621094 C 770.148438 783.09375 768.691406 772.570312 768.042969 772.570312 C 767.394531 772.570312 767.558594 782.933594 765.613281 792.972656 C 764.804688 797.992188 763.34375 802.847656 762.375 806.570312 C 761.078125 810.132812 760.265625 812.722656 760.265625 812.722656 C 760.265625 812.722656 759.945312 813.535156 759.457031 814.992188 C 758.972656 816.449219 758.160156 818.390625 757.191406 820.65625 C 755.246094 825.351562 752.167969 831.507812 748.605469 837.171875 C 746.011719 841.382812 743.257812 845.429688 740.664062 848.832031 C 735.96875 850.609375 730.945312 852.066406 725.601562 853.363281 C 728.355469 848.019531 731.917969 840.25 734.832031 832.152344 C 737.585938 824.707031 740.019531 816.933594 741.476562 811.105469 C 742.933594 805.277344 743.742188 801.390625 743.742188 801.390625 C 743.742188 801.390625 743.90625 800.582031 744.066406 799.285156 C 744.230469 797.992188 744.714844 796.046875 744.878906 793.78125 C 745.203125 791.515625 745.363281 788.925781 745.6875 786.171875 C 745.851562 783.417969 746.011719 780.34375 746.171875 777.429688 C 746.660156 765.449219 745.203125 753.628906 744.554688 753.628906 C 743.90625 753.628906 744.066406 765.449219 742.773438 777.105469 C 742.449219 780.019531 742.125 782.933594 741.636719 785.6875 C 741.152344 788.4375 740.664062 790.867188 740.339844 793.132812 C 740.019531 795.238281 739.53125 797.179688 739.207031 798.316406 C 738.882812 799.609375 738.722656 800.417969 738.722656 800.417969 C 738.722656 800.417969 738.074219 804.304688 736.453125 809.972656 C 734.996094 815.640625 732.726562 823.085938 729.972656 830.371094 C 726.410156 840.410156 721.710938 849.640625 719.121094 854.660156 C 715.554688 855.304688 711.828125 855.792969 708.105469 856.117188 C 710.210938 849.316406 713.125 838.628906 715.394531 827.621094 C 717.335938 818.554688 718.796875 809.164062 719.769531 802.199219 C 720.578125 795.238281 721.0625 790.542969 721.0625 790.542969 C 721.0625 790.382812 721.0625 789.570312 721.226562 787.953125 C 721.226562 786.332031 721.386719 784.230469 721.550781 781.476562 C 721.710938 778.886719 721.710938 775.648438 721.550781 772.410156 C 721.550781 769.171875 721.550781 765.609375 721.0625 762.210938 C 720.738281 755.246094 719.605469 748.285156 718.632812 743.265625 C 717.335938 738.246094 716.527344 734.847656 716.203125 735.007812 C 715.878906 735.171875 716.203125 738.570312 716.851562 743.589844 C 717.175781 748.769531 717.824219 755.570312 717.824219 762.371094 C 717.984375 765.769531 717.824219 769.171875 717.660156 772.410156 C 717.5 775.648438 717.5 778.5625 717.175781 781.152344 C 717.015625 783.742188 716.691406 785.847656 716.691406 787.46875 C 716.527344 788.925781 716.527344 789.894531 716.527344 790.058594 C 716.527344 790.058594 716.042969 794.589844 715.230469 801.554688 C 714.261719 808.351562 712.964844 817.417969 710.859375 826.488281 C 708.429688 838.304688 705.1875 849.964844 703.082031 856.441406 C 700.488281 856.601562 697.898438 856.601562 695.304688 856.601562 L 694.980469 785.039062 C 694.980469 784.714844 694.496094 769.65625 694.171875 754.761719 C 693.6875 739.867188 693.039062 724.96875 692.390625 724.96875 C 691.742188 724.96875 691.253906 739.867188 690.769531 754.761719 C 690.445312 769.65625 690.121094 784.714844 690.121094 785.039062 L 690.445312 856.761719 C 687.855469 856.761719 685.261719 856.601562 682.667969 856.441406 C 680.5625 849.964844 677.160156 838.304688 674.570312 826.324219 C 672.464844 817.417969 671.007812 808.191406 670.035156 801.390625 C 669.222656 794.589844 668.738281 790.058594 668.738281 790.058594 C 668.738281 790.058594 668.574219 789.085938 668.414062 787.464844 C 668.25 785.847656 668.089844 783.742188 667.765625 781.152344 C 667.441406 778.5625 667.441406 775.648438 667.117188 772.410156 C 666.957031 769.171875 666.792969 765.769531 666.792969 762.371094 C 666.632812 755.570312 667.28125 748.769531 667.441406 743.589844 C 668.089844 738.570312 668.414062 735.007812 668.089844 735.007812 C 667.765625 735.007812 666.792969 738.246094 665.660156 743.265625 C 664.6875 748.285156 663.714844 755.246094 663.390625 762.210938 C 663.066406 765.609375 663.066406 769.171875 663.066406 772.410156 C 663.066406 775.648438 663.066406 778.722656 663.230469 781.476562 C 663.390625 784.066406 663.554688 786.332031 663.554688 787.953125 C 663.554688 789.570312 663.714844 790.542969 663.714844 790.542969 C 663.714844 790.542969 664.203125 795.238281 665.175781 802.199219 C 666.144531 809.164062 667.605469 818.390625 669.710938 827.457031 C 671.976562 838.46875 675.054688 849.152344 677.160156 856.117188 C 673.4375 855.792969 669.710938 855.304688 666.144531 854.660156 C 663.554688 849.800781 658.53125 840.25 654.804688 829.886719 C 652.050781 822.601562 649.621094 815.152344 648.164062 809.488281 C 646.707031 803.820312 645.894531 799.933594 645.894531 799.933594 C 645.894531 799.933594 645.734375 799.125 645.410156 797.828125 C 645.085938 796.535156 644.601562 794.753906 644.277344 792.648438 C 643.953125 790.542969 643.464844 787.953125 642.980469 785.199219 C 642.492188 782.449219 642.171875 779.535156 641.847656 776.78125 C 640.386719 765.125 640.550781 753.464844 639.902344 753.464844 C 639.253906 753.464844 637.957031 765.125 638.445312 777.105469 C 638.605469 780.019531 638.769531 783.09375 639.09375 785.847656 C 639.414062 788.601562 639.738281 791.191406 640.0625 793.457031 C 640.226562 795.722656 640.710938 797.503906 640.875 798.960938 C 641.199219 800.257812 641.199219 801.066406 641.199219 801.230469 C 641.199219 801.230469 642.007812 805.113281 643.464844 810.945312 C 644.925781 816.773438 647.355469 824.382812 650.269531 831.992188 C 653.347656 840.25 657.074219 848.183594 659.988281 853.527344 C 654.644531 852.390625 649.785156 850.933594 645.246094 849.152344 C 642.492188 845.59375 639.414062 841.382812 636.660156 836.6875 C 633.097656 830.859375 630.019531 824.867188 628.074219 820.171875 C 627.105469 817.742188 626.292969 815.800781 625.808594 814.503906 C 625.320312 813.046875 625 812.238281 625 812.238281 C 625 812.078125 624.027344 809.648438 622.730469 806.085938 C 621.597656 802.363281 620.136719 797.503906 619.328125 792.484375 C 617.222656 782.449219 617.382812 772.246094 616.734375 772.085938 C 616.089844 772.085938 614.792969 782.449219 616.089844 792.972656 C 616.574219 798.316406 617.707031 803.496094 618.679688 807.382812 C 619.167969 809.324219 619.652344 810.945312 619.976562 812.078125 C 620.300781 813.210938 620.625 813.859375 620.625 813.859375 C 620.625 813.859375 620.949219 814.667969 621.433594 816.125 C 622.082031 817.582031 622.890625 819.6875 623.863281 822.113281 C 625.96875 826.972656 629.046875 833.285156 632.773438 839.277344 C 633.90625 841.21875 635.203125 843.164062 636.5 845.105469 C 589.035156 822.113281 582.230469 771.761719 589.035156 755.570312 C 602.640625 723.511719 633.90625 732.742188 633.90625 732.742188 C 633.585938 670.082031 691.578125 689.1875 691.578125 689.1875 C 691.578125 689.1875 749.25 670.40625 749.574219 733.066406 C 749.574219 733.066406 780.839844 724.160156 794.613281 756.21875 C 802.0625 772.410156 795.746094 822.277344 749.414062 845.105469 Z M 635.691406 670.082031 C 645.570312 677.855469 662.257812 668.140625 662.257812 668.140625 C 662.257812 668.140625 652.863281 682.066406 692.066406 682.226562 C 728.675781 682.386719 721.710938 668.464844 721.710938 668.464844 C 721.710938 668.464844 738.398438 678.179688 748.28125 670.570312 C 762.210938 659.722656 750.0625 644.179688 750.0625 644.179688 C 743.417969 635.433594 733.863281 630.902344 722.683594 628.636719 C 723.980469 629.769531 725.113281 630.902344 725.921875 631.875 C 726.894531 632.84375 727.542969 633.652344 728.03125 634.464844 C 728.515625 635.109375 728.839844 635.433594 728.839844 635.433594 C 728.839844 635.433594 729.648438 636.570312 730.621094 638.511719 C 731.753906 640.292969 732.726562 642.722656 733.699219 645.3125 C 735.480469 650.492188 735.96875 655.835938 735.320312 655.996094 C 734.671875 656.160156 732.890625 651.300781 730.621094 646.929688 C 729.324219 644.824219 728.03125 642.722656 726.894531 641.265625 C 725.921875 639.644531 724.953125 638.835938 724.953125 638.835938 C 724.953125 638.835938 721.0625 633.492188 715.71875 629.769531 C 714.421875 628.796875 713.125 627.988281 711.828125 627.339844 C 709.398438 627.015625 706.808594 627.015625 704.214844 626.855469 C 704.539062 627.339844 704.863281 627.824219 705.1875 628.3125 C 705.996094 629.605469 706.808594 630.738281 707.617188 632.035156 C 708.265625 633.332031 708.75 634.464844 709.238281 635.433594 C 709.722656 636.40625 710.046875 637.214844 710.371094 637.863281 C 710.695312 638.511719 710.695312 638.835938 710.695312 638.835938 C 710.695312 638.835938 711.019531 639.96875 711.34375 641.585938 C 711.667969 643.207031 712.316406 645.3125 712.476562 647.578125 C 712.800781 651.949219 712.964844 656.160156 712.316406 656.160156 C 711.667969 656.160156 710.371094 652.273438 709.238281 648.226562 C 708.589844 646.28125 707.617188 644.5 707.132812 643.042969 C 706.644531 641.585938 706.160156 640.617188 706.160156 640.617188 C 706.160156 640.617188 706.160156 640.292969 705.835938 639.804688 C 705.511719 639.320312 705.1875 638.511719 704.863281 637.539062 C 704.378906 636.570312 703.890625 635.597656 703.40625 634.464844 C 702.757812 633.492188 702.109375 632.359375 701.300781 631.226562 C 700.652344 630.09375 699.839844 629.121094 699.03125 628.3125 C 698.546875 627.664062 698.058594 627.179688 697.410156 626.691406 C 696.277344 626.691406 695.144531 626.691406 694.007812 626.691406 L 694.171875 645.636719 C 694.171875 645.636719 694.007812 646.769531 694.007812 648.386719 C 693.847656 649.84375 693.6875 651.949219 693.523438 654.054688 C 693.039062 658.101562 692.550781 662.3125 691.902344 662.3125 C 691.253906 662.3125 690.609375 658.265625 690.121094 654.054688 C 689.960938 651.949219 689.796875 649.84375 689.636719 648.386719 C 689.472656 646.769531 689.472656 645.796875 689.472656 645.636719 L 689.3125 626.691406 C 688.015625 626.691406 686.71875 626.691406 685.585938 626.691406 C 685.261719 627.015625 684.9375 627.339844 684.453125 627.824219 C 683.640625 628.796875 682.832031 629.769531 682.183594 630.902344 C 681.535156 632.035156 680.726562 633.167969 680.078125 634.140625 C 679.589844 635.273438 679.105469 636.40625 678.621094 637.214844 C 678.132812 638.1875 677.808594 638.835938 677.648438 639.484375 C 677.324219 639.96875 677.324219 640.292969 677.324219 640.292969 C 677.324219 640.292969 677 641.265625 676.351562 642.722656 C 675.867188 644.179688 674.894531 645.960938 674.246094 648.0625 C 673.113281 652.113281 671.816406 655.996094 671.167969 655.996094 C 670.519531 655.996094 670.683594 651.625 670.84375 647.253906 C 671.003906 645.148438 671.652344 642.882812 671.976562 641.265625 C 672.300781 639.644531 672.625 638.511719 672.625 638.511719 C 672.625 638.511719 672.625 638.1875 672.949219 637.539062 C 673.273438 636.890625 673.597656 636.082031 674.082031 635.109375 C 674.570312 634.140625 675.054688 632.84375 675.703125 631.550781 C 676.351562 630.414062 677.324219 629.121094 677.972656 627.824219 C 678.132812 627.5 678.296875 627.339844 678.457031 627.015625 C 675.378906 627.175781 672.464844 627.5 669.546875 627.988281 C 668.898438 628.472656 668.089844 628.796875 667.441406 629.28125 C 662.097656 633.007812 658.207031 638.347656 658.207031 638.347656 C 658.207031 638.347656 657.234375 639.320312 656.265625 640.777344 C 655.128906 642.234375 653.832031 644.339844 652.539062 646.605469 C 650.109375 650.976562 648.488281 655.996094 647.839844 655.835938 C 647.191406 655.671875 647.679688 650.332031 649.460938 645.148438 C 650.433594 642.558594 651.402344 640.128906 652.539062 638.1875 C 653.511719 636.246094 654.320312 635.109375 654.320312 635.109375 C 654.320312 635.109375 654.644531 634.789062 655.128906 634.140625 C 655.617188 633.492188 656.265625 632.519531 657.234375 631.550781 C 657.722656 631.0625 658.207031 630.414062 658.855469 629.769531 C 648 632.359375 639.09375 636.890625 633.582031 644.015625 C 633.746094 643.691406 621.757812 659.234375 635.691406 670.082031 Z M 581.90625 716.066406 C 581.90625 716.066406 582.230469 715.253906 582.714844 713.796875 C 583.203125 712.503906 584.175781 710.558594 585.144531 708.457031 C 587.25 704.085938 590.816406 698.742188 595.027344 694.046875 C 599.238281 689.351562 604.261719 685.789062 608.3125 683.683594 C 612.363281 681.578125 615.277344 680.769531 615.441406 681.09375 C 615.765625 681.742188 604.910156 686.921875 597.621094 696.472656 C 593.894531 701.167969 590.976562 706.351562 589.195312 710.5625 C 588.222656 712.664062 587.574219 714.445312 587.089844 715.742188 C 586.605469 717.035156 586.441406 717.847656 586.441406 717.847656 C 586.441406 717.847656 584.984375 721.570312 583.527344 727.5625 C 582.066406 733.550781 580.933594 741.648438 580.449219 749.902344 C 580.285156 754.4375 580.285156 759.132812 580.609375 763.34375 C 580.933594 764.476562 581.097656 765.449219 581.257812 766.417969 C 581.257812 764.636719 581.257812 762.855469 581.257812 761.238281 C 581.421875 753.140625 582.390625 744.886719 583.851562 738.894531 C 585.144531 732.902344 586.605469 729.019531 586.605469 729.019531 C 586.605469 729.019531 586.929688 728.207031 587.414062 726.914062 C 588.0625 725.617188 588.710938 723.835938 589.84375 721.894531 C 591.949219 717.847656 595.351562 712.664062 599.726562 708.457031 C 608.3125 699.875 619.8125 696.960938 619.976562 697.609375 C 620.300781 698.253906 609.445312 702.464844 602.15625 711.046875 C 598.429688 715.253906 595.515625 720.113281 593.894531 724 C 592.921875 725.941406 592.4375 727.722656 591.949219 728.855469 C 591.625 730.152344 591.300781 730.800781 591.300781 730.800781 C 591.300781 730.800781 589.84375 734.359375 588.710938 740.027344 C 587.574219 744.5625 586.929688 750.550781 586.441406 756.867188 C 593.246094 721.730469 627.589844 726.265625 627.589844 726.265625 C 638.445312 710.398438 627.75 705.378906 627.75 705.378906 C 627.75 705.378906 642.816406 704.730469 641.359375 688.863281 C 639.738281 669.921875 623.863281 669.757812 623.863281 669.757812 C 627.75 665.226562 625.808594 659.074219 625.320312 655.511719 C 624.996094 653.40625 622.40625 648.875 615.925781 652.113281 C 580.609375 669.921875 574.777344 706.675781 576.722656 736.789062 C 577.207031 732.902344 578.019531 729.179688 578.664062 726.105469 C 580.285156 719.953125 581.90625 716.066406 581.90625 716.066406 Z M 806.113281 727.074219 C 806.921875 730.152344 807.570312 733.875 808.21875 737.761719 C 810 707.644531 803.84375 670.894531 768.367188 652.921875 C 761.886719 649.683594 759.132812 654.054688 758.972656 656.160156 C 758.484375 659.722656 756.703125 665.875 760.589844 670.40625 C 760.589844 670.40625 747.957031 667.492188 746.496094 686.4375 C 745.203125 702.140625 757.027344 705.863281 757.027344 705.863281 C 757.027344 705.863281 746.496094 710.882812 757.511719 726.914062 C 757.511719 726.914062 791.859375 722.542969 798.824219 757.675781 C 798.335938 751.363281 797.527344 745.371094 796.394531 740.835938 C 795.097656 735.171875 793.640625 731.609375 793.640625 731.609375 C 793.640625 731.609375 793.316406 730.800781 792.992188 729.664062 C 792.503906 728.53125 791.855469 726.75 790.886719 724.808594 C 789.101562 720.921875 786.1875 715.902344 782.460938 711.695312 C 775.007812 702.949219 764.316406 698.742188 764.480469 698.09375 C 764.480469 697.445312 776.144531 700.359375 784.730469 709.101562 C 789.101562 713.3125 792.503906 718.492188 794.613281 722.542969 C 795.746094 724.644531 796.394531 726.425781 797.042969 727.722656 C 797.527344 729.019531 797.851562 729.828125 797.851562 729.828125 C 797.851562 729.828125 799.472656 733.714844 800.765625 739.703125 C 802.226562 745.695312 803.199219 753.953125 803.519531 762.046875 C 803.519531 763.828125 803.683594 765.609375 803.519531 767.226562 C 803.683594 766.257812 804.007812 765.125 804.167969 764.152344 C 804.332031 759.941406 804.492188 755.410156 804.167969 750.714844 C 803.683594 742.457031 802.550781 734.199219 800.929688 728.371094 C 799.472656 722.378906 798.011719 718.65625 798.011719 718.65625 C 798.011719 718.65625 797.6875 717.847656 797.203125 716.550781 C 796.71875 715.257812 796.070312 713.476562 795.097656 711.371094 C 793.316406 707.160156 790.238281 701.980469 786.511719 697.285156 C 779.222656 687.570312 768.207031 682.386719 768.53125 681.742188 C 768.691406 681.417969 771.609375 682.226562 775.65625 684.332031 C 779.707031 686.597656 784.730469 690.160156 789.101562 694.855469 C 793.476562 699.550781 796.878906 704.894531 799.148438 709.265625 C 800.28125 711.371094 801.089844 713.3125 801.738281 714.609375 C 802.226562 715.902344 802.550781 716.714844 802.550781 716.875 C 803.035156 716.714844 804.65625 720.761719 806.113281 727.074219 Z M 591.625 813.046875 C 588.710938 814.183594 585.308594 816.125 581.90625 818.230469 C 580.125 819.523438 578.34375 820.65625 576.722656 821.792969 C 575.101562 822.925781 573.804688 824.382812 572.511719 825.355469 C 570.078125 827.457031 568.460938 828.914062 568.460938 828.914062 C 568.296875 828.914062 567.164062 830.210938 565.542969 831.992188 C 563.925781 833.773438 561.65625 836.203125 559.386719 838.46875 C 555.5 843.648438 551.289062 848.992188 550.640625 848.507812 C 549.992188 848.183594 553.230469 842.191406 556.632812 836.203125 C 558.578125 833.449219 560.683594 830.695312 562.304688 828.589844 C 563.925781 826.488281 565.058594 825.191406 565.058594 825.191406 C 565.058594 825.191406 566.839844 823.734375 569.269531 821.304688 C 570.566406 820.171875 572.023438 818.714844 573.804688 817.421875 C 575.589844 816.125 577.371094 814.828125 579.3125 813.535156 C 582.554688 811.429688 585.957031 809.648438 588.871094 808.351562 C 586.28125 804.144531 583.6875 799.449219 581.257812 794.589844 C 578.34375 795.402344 574.941406 796.371094 571.539062 797.667969 C 562.953125 800.742188 555.175781 805.601562 555.175781 805.601562 C 555.175781 805.601562 553.554688 806.570312 551.449219 807.707031 C 549.34375 809.164062 546.429688 810.945312 543.835938 813.046875 C 538.328125 817.097656 533.792969 822.4375 533.144531 821.953125 C 532.65625 821.628906 536.382812 815.316406 541.566406 810.296875 C 543.996094 807.707031 546.914062 805.4375 549.019531 803.65625 C 551.289062 802.039062 552.746094 801.066406 552.746094 800.90625 C 552.746094 800.90625 560.847656 795.722656 569.917969 792.648438 C 573.15625 791.351562 576.234375 790.382812 579.152344 789.570312 C 577.207031 785.199219 575.425781 780.667969 573.804688 775.972656 C 569.757812 775.808594 562.464844 775.648438 555.015625 776.296875 C 543.996094 777.105469 533.46875 780.019531 533.46875 780.019531 C 533.304688 780.019531 531.363281 780.503906 528.445312 781.3125 C 525.53125 782.285156 521.640625 783.417969 517.914062 785.039062 C 515.972656 785.6875 514.191406 786.65625 512.40625 787.628906 C 510.789062 788.4375 509.007812 789.246094 507.710938 790.058594 C 505.117188 791.675781 503.175781 792.648438 503.011719 792.324219 C 502.851562 792 504.308594 790.542969 506.738281 788.4375 C 507.871094 787.304688 509.492188 786.332031 511.113281 785.199219 C 512.730469 784.066406 514.515625 782.933594 516.457031 781.960938 C 520.183594 779.695312 524.070312 778.238281 527.148438 776.941406 C 530.226562 775.808594 532.171875 775.160156 532.332031 775.160156 C 532.332031 775.160156 535.089844 774.515625 539.300781 773.542969 C 543.511719 772.734375 549.019531 771.761719 554.691406 771.277344 C 561.332031 770.628906 567.972656 770.628906 572.347656 770.789062 C 570.726562 765.449219 569.433594 759.941406 568.460938 754.277344 C 567.324219 753.953125 566.03125 753.628906 564.410156 753.304688 C 559.550781 752.332031 553.070312 751.359375 546.429688 750.875 C 539.949219 750.550781 533.304688 750.714844 528.445312 751.199219 C 523.585938 751.523438 520.347656 752.171875 520.347656 752.171875 C 520.347656 752.332031 517.753906 752.332031 514.191406 753.140625 C 512.40625 753.464844 510.300781 753.953125 508.035156 754.277344 C 505.765625 754.761719 503.496094 755.410156 501.066406 756.058594 C 491.671875 758.648438 482.601562 762.695312 482.277344 762.046875 C 481.953125 761.5625 490.539062 756.21875 499.933594 752.65625 C 502.363281 751.847656 504.632812 751.039062 506.898438 750.226562 C 509.167969 749.582031 511.273438 749.09375 513.21875 748.609375 C 516.945312 747.476562 519.535156 747.3125 519.535156 747.3125 C 519.535156 747.3125 522.9375 746.667969 527.960938 746.34375 C 532.980469 745.855469 539.785156 745.695312 546.589844 746.019531 C 553.394531 746.34375 560.199219 747.476562 565.21875 748.445312 C 566.03125 748.609375 566.839844 748.769531 567.488281 748.933594 C 567 745.371094 566.679688 741.808594 566.355469 738.246094 C 566.191406 736.464844 566.355469 734.683594 566.191406 732.902344 C 565.542969 732.578125 564.894531 732.09375 563.925781 731.769531 C 561.167969 730.3125 557.28125 728.695312 553.230469 727.398438 C 549.183594 726.265625 545.132812 724.96875 542.054688 724.808594 C 538.976562 724.324219 536.871094 724 536.871094 724 C 536.871094 724 535.25 723.675781 532.820312 723.511719 C 530.550781 723.351562 527.3125 723.027344 524.234375 722.703125 C 518.078125 722.867188 511.761719 722.867188 511.597656 722.054688 C 511.4375 721.410156 517.753906 720.113281 524.070312 719.140625 C 527.3125 718.980469 530.550781 718.980469 532.980469 718.816406 C 535.410156 718.816406 537.195312 718.816406 537.195312 718.980469 C 537.195312 718.980469 539.300781 719.304688 542.703125 719.789062 C 545.941406 720.113281 550.316406 721.410156 554.527344 722.542969 C 558.738281 724 562.953125 725.617188 565.867188 727.238281 C 566.191406 717.523438 567.648438 708.941406 569.917969 701.332031 C 567.488281 698.902344 564.246094 695.828125 560.683594 693.074219 C 553.554688 687.246094 545.457031 683.523438 545.457031 683.523438 C 545.457031 683.523438 543.835938 682.710938 541.566406 681.578125 C 539.300781 680.609375 536.222656 679.3125 532.980469 678.503906 C 531.363281 678.015625 529.742188 677.53125 528.285156 677.371094 C 526.824219 677.046875 525.367188 676.722656 524.070312 676.722656 C 521.640625 676.398438 519.859375 676.234375 519.859375 675.910156 C 519.859375 675.589844 521.480469 675.101562 524.070312 674.777344 C 525.367188 674.453125 526.824219 674.617188 528.445312 674.617188 C 530.066406 674.617188 531.847656 674.777344 533.628906 675.101562 C 537.195312 675.589844 540.597656 676.558594 543.1875 677.371094 C 545.78125 678.339844 547.398438 678.988281 547.5625 678.988281 C 547.5625 678.988281 556.308594 683.035156 563.761719 689.1875 C 566.839844 691.457031 569.59375 694.046875 571.863281 696.3125 C 573.644531 691.132812 575.910156 686.4375 578.179688 682.226562 C 576.398438 680.285156 573.96875 677.855469 571.539062 675.425781 C 568.945312 672.671875 565.867188 670.570312 563.761719 668.625 C 561.65625 666.84375 560.035156 665.875 560.035156 665.875 C 560.035156 665.875 558.902344 664.902344 557.28125 663.605469 C 555.660156 662.148438 553.394531 660.855469 551.125 659.234375 C 548.859375 657.453125 546.429688 656.484375 544.644531 655.347656 C 542.863281 654.378906 541.566406 653.570312 541.730469 653.246094 C 541.730469 652.921875 543.1875 653.082031 545.292969 653.570312 C 547.398438 654.054688 550.152344 654.703125 552.746094 655.996094 C 555.335938 657.292969 558.09375 658.425781 559.875 659.722656 C 561.65625 660.855469 562.953125 661.664062 562.953125 661.664062 C 562.953125 661.664062 564.570312 662.796875 566.839844 664.578125 C 568.945312 666.519531 572.1875 668.949219 574.777344 671.703125 C 577.046875 673.808594 579.152344 675.910156 580.933594 677.855469 C 591.140625 661.824219 602.640625 654.703125 602.640625 654.703125 C 602.640625 654.703125 542.703125 604.023438 503.175781 645.636719 C 481.140625 668.949219 509.816406 701.332031 509.816406 701.332031 C 509.816406 701.332031 443.070312 700.847656 448.578125 763.019531 C 454.089844 824.867188 505.28125 826.324219 505.28125 826.324219 C 505.28125 826.324219 489.890625 866.316406 527.3125 886.878906 C 566.03125 908.089844 573.96875 853.847656 619.976562 845.589844 C 619.8125 845.914062 605.558594 834.097656 591.625 813.046875 Z M 783.59375 830.046875 C 830.414062 829.238281 848.394531 879.105469 883.0625 852.714844 C 915.949219 827.78125 891.8125 789.085938 891.8125 789.085938 C 891.8125 789.085938 940.25 771.921875 934.09375 716.226562 C 927.289062 654.214844 861.195312 667.492188 861.195312 667.492188 C 861.195312 667.492188 882.414062 630.09375 856.007812 611.632812 C 808.542969 578.28125 760.429688 639.484375 760.429688 639.484375 C 760.429688 639.484375 773.390625 644.339844 786.671875 658.101562 C 787.96875 655.996094 789.589844 653.40625 791.371094 650.976562 C 793.476562 647.738281 796.070312 644.824219 797.691406 642.558594 C 799.472656 640.292969 800.929688 638.996094 800.929688 638.996094 C 800.929688 638.996094 802.0625 637.863281 803.519531 636.40625 C 804.980469 634.789062 807.410156 633.167969 809.675781 631.386719 C 811.785156 629.605469 814.539062 628.472656 816.480469 627.5 C 818.425781 626.691406 819.722656 626.207031 819.882812 626.53125 C 820.046875 626.855469 819.074219 627.824219 817.453125 629.28125 C 815.832031 630.578125 813.726562 632.195312 811.945312 634.300781 C 810.164062 636.40625 808.058594 638.027344 806.761719 639.804688 C 805.464844 641.425781 804.492188 642.558594 804.492188 642.558594 C 804.492188 642.558594 803.199219 643.855469 801.414062 645.960938 C 799.796875 648.226562 797.367188 650.976562 795.257812 654.054688 C 793.316406 656.808594 791.535156 659.722656 790.074219 661.988281 C 793.316406 665.710938 796.394531 669.921875 799.308594 674.617188 C 801.089844 672.027344 803.359375 668.949219 805.789062 666.035156 C 811.785156 658.585938 819.558594 652.921875 819.558594 652.921875 C 819.558594 652.921875 821.179688 651.949219 823.449219 650.492188 C 825.878906 649.195312 828.957031 647.578125 832.195312 646.445312 C 833.816406 645.796875 835.433594 645.3125 837.054688 644.988281 C 838.675781 644.664062 840.132812 644.179688 841.429688 644.339844 C 844.019531 644.179688 845.804688 644.339844 845.804688 644.664062 C 845.804688 644.988281 844.183594 645.636719 841.914062 646.28125 C 840.78125 646.445312 839.324219 647.253906 838.027344 647.738281 C 836.570312 648.226562 835.113281 648.875 833.652344 649.683594 C 830.738281 651.140625 827.984375 653.082031 825.878906 654.378906 C 823.933594 655.835938 822.476562 656.96875 822.476562 656.96875 C 822.476562 656.96875 815.347656 662.3125 809.515625 669.273438 C 806.597656 672.675781 804.007812 676.234375 802.0625 679.148438 C 805.789062 686.113281 809.191406 694.207031 811.460938 703.761719 C 814.050781 701.65625 817.777344 699.226562 821.664062 696.960938 C 825.554688 695.015625 829.441406 692.914062 832.679688 691.941406 C 835.757812 690.808594 837.867188 690 837.867188 690 C 837.867188 689.835938 839.484375 689.511719 841.914062 689.027344 C 844.34375 688.703125 847.585938 688.054688 850.664062 687.570312 C 857.144531 687.40625 863.460938 687.40625 863.625 688.054688 C 863.625 688.703125 857.46875 690 851.3125 691.132812 C 848.234375 692.101562 845.316406 692.914062 843.050781 693.558594 C 840.78125 694.207031 839.324219 694.695312 839.160156 694.695312 C 839.160156 694.695312 837.21875 695.503906 834.300781 696.472656 C 831.222656 697.285156 827.660156 699.390625 823.933594 701.167969 C 820.371094 703.273438 816.804688 705.542969 814.375 707.484375 C 813.566406 708.132812 812.917969 708.617188 812.429688 709.101562 C 812.753906 710.882812 813.242188 712.503906 813.402344 714.285156 C 813.890625 717.847656 814.375 721.410156 814.539062 724.96875 C 815.183594 724.644531 815.832031 724.324219 816.644531 724 C 821.339844 722.054688 827.820312 719.789062 834.300781 718.007812 C 840.945312 716.390625 847.585938 715.09375 852.605469 714.769531 C 857.628906 714.121094 861.03125 714.121094 861.03125 714.121094 C 861.195312 714.121094 863.785156 713.960938 867.511719 714.285156 C 869.457031 714.445312 871.5625 714.609375 873.992188 714.609375 C 876.421875 714.933594 878.851562 715.253906 881.28125 715.742188 C 891.324219 717.359375 900.722656 721.085938 900.558594 721.570312 C 900.398438 722.378906 890.675781 719.953125 880.957031 719.304688 C 878.527344 719.140625 876.097656 718.980469 873.828125 718.816406 C 871.5625 718.816406 869.457031 718.816406 867.511719 718.816406 C 863.785156 718.816406 861.355469 719.140625 861.195312 719.140625 C 861.195312 719.140625 857.953125 719.140625 853.09375 719.789062 C 848.234375 720.273438 841.753906 721.410156 835.433594 722.867188 C 829.117188 724.484375 822.960938 726.75 818.425781 728.53125 C 816.96875 729.179688 815.671875 729.664062 814.699219 730.3125 C 814.863281 736.140625 814.863281 741.808594 814.375 747.3125 C 818.585938 746.34375 825.066406 744.886719 831.710938 744.398438 C 837.378906 743.75 843.050781 743.589844 847.261719 743.589844 C 851.472656 743.75 854.390625 743.914062 854.390625 743.914062 C 854.550781 743.914062 856.65625 744.238281 859.898438 744.722656 C 863.136719 745.371094 867.347656 746.019531 871.398438 747.476562 C 873.503906 748.125 875.449219 748.769531 877.230469 749.742188 C 879.011719 750.550781 880.796875 751.199219 882.253906 752.171875 C 885.007812 753.789062 886.789062 755.085938 886.628906 755.410156 C 886.464844 755.734375 884.519531 755.085938 881.605469 754.113281 C 880.148438 753.464844 878.367188 753.140625 876.582031 752.65625 C 874.800781 752.007812 872.695312 751.523438 870.75 751.199219 C 866.703125 750.226562 862.652344 749.90625 859.574219 749.582031 C 856.496094 749.417969 854.390625 749.257812 854.390625 749.257812 C 854.390625 749.257812 843.375 748.285156 832.519531 749.742188 C 825.066406 750.390625 817.941406 752.007812 814.050781 752.980469 C 813.402344 758 812.59375 762.695312 811.621094 767.390625 C 814.539062 767.550781 817.941406 768.039062 821.339844 768.523438 C 830.738281 769.980469 839.808594 773.382812 839.808594 773.382812 C 839.808594 773.382812 841.589844 774.191406 844.019531 775.324219 C 846.453125 776.621094 849.691406 778.238281 852.769531 780.34375 C 858.925781 784.390625 863.949219 789.734375 863.460938 790.21875 C 862.976562 790.707031 857.46875 786.496094 851.148438 783.582031 C 848.070312 781.960938 844.832031 780.667969 842.5625 779.695312 C 840.132812 778.886719 838.511719 778.238281 838.351562 778.238281 C 838.351562 778.238281 829.765625 775 820.695312 773.542969 C 817.128906 772.894531 813.566406 772.570312 810.488281 772.410156 C 809.191406 777.753906 807.570312 782.773438 805.953125 787.46875 C 809.03125 788.113281 812.753906 789.25 816.320312 790.707031 C 818.425781 791.675781 820.53125 792.484375 822.476562 793.457031 C 824.417969 794.265625 826.039062 795.5625 827.660156 796.371094 C 830.574219 798.152344 832.679688 799.285156 832.679688 799.285156 C 832.84375 799.285156 834.140625 800.417969 836.082031 802.199219 C 838.027344 803.980469 840.78125 806.085938 843.210938 808.515625 C 847.746094 813.695312 852.121094 819.039062 851.636719 819.523438 C 851.148438 820.011719 845.964844 815.640625 840.945312 811.265625 C 838.191406 809.324219 835.433594 807.542969 833.492188 806.085938 C 831.386719 804.628906 830.089844 803.65625 829.925781 803.65625 C 829.925781 803.65625 827.984375 802.523438 825.230469 800.90625 C 823.773438 800.097656 822.152344 798.960938 820.371094 798.152344 C 818.425781 797.34375 816.480469 796.535156 814.539062 795.5625 C 810.8125 794.105469 806.921875 792.972656 804.007812 792.324219 C 795.097656 815.800781 783.59375 830.046875 783.59375 830.046875 Z M 605.070312 649.519531 C 613.820312 641.101562 623.703125 635.109375 633.421875 630.902344 C 630.828125 628.957031 628.074219 626.855469 625.160156 624.75 C 620.949219 621.023438 616.410156 617.300781 613.65625 614.0625 C 610.742188 610.988281 608.796875 608.882812 608.796875 608.882812 C 608.796875 608.882812 608.3125 608.394531 607.664062 607.75 C 607.015625 607.101562 606.207031 605.96875 605.394531 604.671875 C 603.453125 602.082031 601.023438 598.683594 598.59375 595.28125 C 594.378906 587.996094 590.492188 580.871094 590.976562 580.546875 C 591.625 580.222656 596.648438 586.699219 601.507812 593.339844 C 604.261719 596.414062 607.015625 599.492188 609.121094 601.757812 C 610.09375 602.890625 611.066406 603.863281 611.550781 604.511719 C 612.199219 605.15625 612.6875 605.480469 612.6875 605.644531 C 612.6875 605.644531 614.628906 607.585938 617.382812 610.5 C 620.136719 613.578125 624.351562 617.140625 628.5625 620.703125 C 632.289062 623.617188 635.851562 626.367188 639.09375 628.472656 C 643.628906 626.691406 648.164062 625.234375 652.375 624.101562 C 649.945312 621.671875 647.191406 618.757812 644.601562 615.683594 C 641.683594 611.796875 638.445312 607.910156 636.660156 604.835938 C 634.71875 601.757812 633.421875 599.652344 633.421875 599.652344 C 633.097656 599.652344 630.183594 592.851562 627.429688 586.375 C 625.320312 579.578125 623.539062 572.613281 624.1875 572.453125 C 624.835938 572.289062 627.914062 578.605469 630.828125 584.917969 C 634.394531 590.910156 637.632812 597.0625 637.957031 597.0625 C 637.957031 597.0625 639.253906 599.003906 641.035156 601.921875 C 642.816406 604.996094 645.734375 608.558594 648.488281 612.28125 C 651.566406 615.84375 654.644531 619.40625 657.234375 621.671875 C 657.558594 621.996094 657.722656 622.160156 658.046875 622.480469 C 660.636719 621.835938 663.066406 621.511719 665.335938 621.023438 C 663.230469 616.652344 660.476562 610.015625 658.046875 603.378906 C 655.777344 597.386719 653.832031 591.234375 652.375 586.699219 C 651.078125 582.167969 650.269531 579.089844 650.269531 579.089844 C 650.269531 578.929688 649.621094 576.664062 648.8125 573.101562 C 648.164062 569.539062 647.515625 564.84375 646.867188 560.148438 C 645.894531 555.453125 646.21875 550.757812 646.058594 547.195312 C 646.058594 543.632812 646.21875 541.367188 646.542969 541.367188 C 647.355469 541.367188 648.488281 550.59375 650.433594 559.660156 C 651.566406 564.195312 652.699219 568.730469 653.511719 572.128906 C 654.480469 575.527344 655.292969 577.796875 655.292969 577.796875 C 655.292969 577.796875 656.101562 580.871094 657.398438 585.242188 C 658.855469 589.777344 660.800781 595.605469 663.066406 601.597656 C 665.660156 608.882812 668.898438 615.84375 670.84375 620.214844 C 672.949219 619.890625 674.570312 619.730469 675.867188 619.730469 L 670.519531 569.539062 C 670.519531 569.375 669.710938 559.015625 669.0625 548.652344 C 668.414062 538.289062 667.929688 527.929688 668.738281 527.929688 C 669.546875 527.929688 671.167969 537.964844 672.789062 548.328125 C 674.246094 558.691406 675.703125 568.890625 675.703125 569.050781 L 681.050781 619.246094 C 682.34375 619.082031 683.964844 618.921875 686.070312 618.921875 C 687.207031 614.226562 688.664062 606.777344 689.796875 599.328125 C 690.769531 593.175781 691.253906 586.863281 691.902344 582.328125 C 692.226562 577.632812 692.390625 574.558594 692.390625 574.558594 C 692.390625 574.394531 692.550781 571.96875 692.875 568.566406 C 693.039062 565.003906 693.199219 560.472656 693.199219 555.777344 C 693.363281 546.546875 692.390625 537.320312 693.199219 536.996094 C 693.523438 536.996094 694.171875 539.261719 694.820312 542.660156 C 695.46875 546.0625 696.761719 550.757812 696.761719 555.453125 C 697.085938 560.148438 697.410156 565.003906 697.574219 568.566406 C 697.574219 572.128906 697.410156 574.558594 697.410156 574.71875 C 697.410156 574.71875 697.25 577.796875 696.925781 582.652344 C 696.441406 587.347656 695.792969 593.824219 694.820312 600.140625 C 693.847656 607.101562 692.390625 614.0625 691.417969 618.757812 C 693.6875 618.757812 696.277344 618.597656 699.03125 618.757812 C 699.195312 618.597656 699.355469 618.433594 699.519531 618.109375 C 701.625 615.359375 703.890625 611.3125 706.160156 607.101562 C 708.105469 602.890625 710.371094 598.84375 711.34375 595.445312 C 712.640625 592.207031 713.449219 589.9375 713.449219 589.9375 C 713.773438 589.9375 715.554688 583.140625 717.824219 576.5 C 719.28125 569.699219 720.902344 562.898438 721.710938 562.898438 C 722.359375 562.898438 722.199219 570.023438 721.550781 577.148438 C 720.253906 584.109375 718.796875 591.394531 718.472656 591.394531 C 718.472656 591.394531 717.660156 593.664062 716.367188 597.0625 C 715.230469 600.625 712.964844 604.835938 710.859375 609.367188 C 708.914062 612.769531 707.132812 616.167969 705.1875 618.757812 C 709.5625 619.082031 714.257812 619.566406 719.28125 620.539062 C 721.875 617.949219 724.789062 614.550781 727.542969 611.3125 C 730.785156 606.9375 734.1875 602.730469 736.292969 599.167969 C 738.398438 595.769531 739.855469 593.339844 739.855469 593.339844 C 739.855469 593.339844 740.179688 592.851562 740.664062 592.042969 C 741.152344 591.234375 741.800781 590.101562 742.609375 588.804688 C 744.066406 586.054688 746.171875 582.652344 748.28125 579.089844 C 751.683594 571.644531 755.246094 564.355469 756.054688 564.519531 C 756.703125 564.679688 754.4375 572.613281 751.84375 580.546875 C 750.0625 584.433594 748.441406 588.15625 747.144531 591.074219 C 746.496094 592.53125 746.011719 593.664062 745.527344 594.632812 C 745.039062 595.445312 744.714844 595.929688 744.714844 595.929688 C 744.714844 595.929688 743.257812 598.359375 740.988281 601.921875 C 738.882812 605.644531 735.320312 610.015625 731.917969 614.550781 C 729.8125 617.140625 727.542969 619.730469 725.4375 621.835938 C 735.804688 624.261719 746.660156 628.148438 756.378906 634.625 C 756.378906 634.625 811.785156 581.035156 776.304688 548.167969 C 751.519531 525.335938 724.140625 543.957031 724.140625 543.957031 C 724.140625 543.957031 734.507812 490.042969 665.171875 497.488281 C 595.675781 503.480469 617.222656 554.320312 617.222656 554.320312 C 617.222656 554.320312 592.113281 539.101562 566.679688 565.492188 C 532.496094 601.433594 605.070312 649.519531 605.070312 649.519531 Z M 778.410156 835.390625 C 778.410156 835.390625 774.847656 840.25 766.910156 846.078125 C 769.339844 848.34375 772.09375 851.097656 774.683594 854.011719 C 778.085938 857.410156 781.164062 861.296875 783.433594 864.050781 C 785.703125 866.964844 787.160156 868.90625 787.160156 868.90625 C 787.160156 868.90625 788.292969 870.527344 789.914062 872.792969 C 791.535156 875.058594 793.152344 878.296875 795.097656 881.535156 C 798.660156 888.011719 800.929688 894.972656 800.445312 895.136719 C 799.632812 895.460938 796.394531 889.144531 792.179688 883.480469 C 790.074219 880.726562 788.132812 877.8125 786.347656 875.707031 C 784.566406 873.601562 783.433594 872.308594 783.433594 872.144531 C 783.433594 872.144531 781.976562 870.203125 779.871094 867.449219 C 777.441406 864.859375 774.523438 861.136719 771.285156 857.734375 C 768.367188 854.496094 765.289062 851.421875 762.699219 849.152344 C 761.078125 850.125 759.457031 851.097656 757.675781 852.230469 C 760.265625 855.628906 763.34375 860.324219 766.097656 865.183594 C 769.015625 870.203125 771.769531 875.382812 773.390625 879.429688 C 775.171875 883.316406 776.46875 886.070312 776.46875 886.070312 C 776.628906 886.070312 777.277344 888.335938 778.25 891.410156 C 779.222656 894.488281 780.515625 898.699219 781.8125 902.90625 C 783.59375 911.328125 785.214844 919.746094 784.566406 919.90625 C 783.917969 920.070312 781.164062 911.972656 778.574219 903.878906 C 776.953125 899.992188 775.332031 895.945312 774.199219 893.03125 C 773.066406 890.117188 772.253906 888.011719 772.09375 888.011719 C 772.09375 888.011719 770.960938 885.421875 769.175781 881.535156 C 767.558594 877.648438 764.804688 872.628906 762.050781 867.773438 C 759.132812 862.917969 756.21875 858.222656 753.625 854.820312 C 753.464844 854.660156 753.464844 854.496094 753.300781 854.496094 C 748.925781 856.601562 743.90625 858.707031 738.234375 860.488281 C 738.558594 861.136719 738.882812 861.621094 739.207031 862.269531 C 741.476562 866.15625 744.066406 871.496094 746.660156 876.839844 C 748.925781 882.34375 751.359375 887.851562 752.652344 892.058594 C 754.113281 896.269531 755.082031 899.183594 755.082031 899.183594 C 755.082031 899.183594 755.246094 899.832031 755.570312 900.800781 C 755.894531 901.773438 756.21875 903.230469 756.542969 904.851562 C 757.351562 908.089844 758.324219 912.460938 759.296875 916.832031 C 760.589844 925.574219 761.726562 934.316406 760.914062 934.316406 C 760.269531 934.480469 758 926.058594 755.894531 917.640625 C 754.597656 913.429688 753.300781 909.382812 752.167969 906.308594 C 751.683594 904.6875 751.359375 903.394531 751.035156 902.421875 C 750.710938 901.449219 750.546875 900.964844 750.546875 900.964844 C 750.546875 900.964844 749.574219 898.210938 748.117188 894.164062 C 746.820312 889.953125 744.554688 884.613281 742.125 879.269531 C 739.695312 874.085938 737.101562 868.746094 734.996094 865.183594 C 734.347656 864.050781 733.699219 863.078125 733.214844 862.105469 C 729.488281 863.078125 725.601562 863.886719 721.386719 864.535156 C 722.035156 865.832031 722.683594 867.773438 723.492188 869.878906 C 725.277344 874.734375 727.382812 881.210938 729.324219 887.6875 C 731.109375 894.328125 732.890625 900.800781 733.863281 905.820312 C 734.832031 910.679688 735.644531 914.078125 735.644531 914.078125 C 735.644531 914.078125 735.804688 914.726562 735.96875 915.859375 C 736.128906 916.992188 736.292969 918.613281 736.453125 920.554688 C 736.941406 924.28125 737.425781 929.296875 738.074219 934.316406 C 738.558594 944.355469 738.882812 954.394531 738.234375 954.394531 C 737.585938 954.394531 736.128906 944.679688 734.671875 934.804688 C 733.699219 929.945312 732.726562 925.089844 732.078125 921.363281 C 731.753906 919.421875 731.433594 917.964844 731.269531 916.832031 C 730.945312 915.699219 730.785156 915.050781 730.785156 915.050781 C 730.785156 915.050781 730.136719 911.8125 729 906.957031 C 728.03125 901.9375 726.410156 895.621094 724.628906 889.144531 C 722.683594 882.832031 720.738281 876.355469 718.957031 871.820312 C 718.148438 869.390625 717.335938 867.613281 716.851562 866.316406 C 716.691406 865.832031 716.527344 865.667969 716.527344 865.34375 C 713.289062 865.832031 710.046875 865.992188 706.484375 866.316406 C 706.644531 870.363281 707.292969 883.15625 708.265625 896.105469 C 709.398438 911.652344 711.019531 927.195312 711.019531 927.195312 C 711.019531 927.355469 711.34375 930.269531 711.667969 934.640625 C 711.992188 939.011719 712.640625 944.839844 713.289062 950.507812 C 713.773438 956.335938 714.582031 962.003906 715.230469 966.375 C 715.71875 970.746094 716.042969 973.660156 715.71875 973.660156 C 715.394531 973.824219 714.582031 970.910156 713.449219 966.699219 C 712.316406 962.488281 711.019531 956.824219 710.046875 950.996094 C 709.074219 945.328125 707.941406 939.5 707.457031 935.128906 C 706.808594 930.753906 706.484375 927.839844 706.484375 927.679688 C 706.484375 927.679688 704.863281 911.972656 703.730469 896.429688 C 702.757812 883.800781 702.109375 871.171875 701.949219 866.800781 C 698.871094 867.125 695.792969 867.613281 693.039062 867.773438 C 693.039062 868.097656 692.875 868.257812 692.875 868.746094 C 692.550781 870.203125 692.226562 872.144531 691.902344 874.574219 C 691.09375 879.429688 690.609375 886.070312 690.121094 892.707031 C 689.796875 899.34375 689.472656 905.984375 689.636719 911.003906 C 689.636719 916.023438 689.636719 919.261719 689.636719 919.261719 C 689.636719 919.261719 689.636719 919.90625 689.636719 921.042969 C 689.636719 922.175781 689.636719 923.792969 689.796875 925.574219 C 689.796875 929.296875 689.960938 934.316406 690.121094 939.335938 C 690.933594 949.214844 691.417969 959.089844 690.769531 959.25 C 690.121094 959.414062 688.339844 949.535156 686.71875 939.660156 C 686.234375 934.640625 685.746094 929.621094 685.421875 925.898438 C 685.261719 923.957031 685.101562 922.335938 684.9375 921.203125 C 684.9375 920.070312 684.9375 919.421875 684.9375 919.261719 C 684.9375 919.261719 684.9375 915.859375 684.9375 910.839844 C 684.777344 905.820312 685.101562 899.023438 685.421875 892.222656 C 685.910156 885.421875 686.558594 878.78125 687.367188 873.601562 C 687.691406 871.335938 688.015625 869.390625 688.339844 867.933594 C 684.128906 868.097656 679.914062 867.933594 676.191406 867.773438 C 675.867188 868.746094 675.542969 869.714844 675.054688 871.011719 C 673.761719 875.058594 672.300781 880.726562 671.003906 886.230469 C 669.871094 891.898438 668.738281 897.566406 668.414062 901.9375 C 667.929688 906.308594 667.441406 909.058594 667.441406 909.058594 C 667.441406 909.058594 667.28125 909.707031 667.117188 910.679688 C 666.957031 911.652344 666.957031 912.945312 666.792969 914.566406 C 666.46875 917.804688 665.984375 922.175781 665.660156 926.382812 C 665.335938 934.964844 664.851562 943.707031 664.203125 943.707031 C 663.554688 943.707031 662.742188 934.964844 662.257812 926.222656 C 662.257812 921.851562 662.417969 917.316406 662.417969 914.078125 C 662.417969 912.460938 662.417969 911.003906 662.582031 910.03125 C 662.742188 909.058594 662.742188 908.414062 662.742188 908.414062 C 662.742188 908.414062 663.066406 905.496094 663.714844 900.964844 C 664.203125 896.59375 665.335938 890.765625 666.46875 884.9375 C 667.765625 879.269531 669.222656 873.441406 670.683594 869.230469 C 670.84375 868.421875 671.167969 867.933594 671.328125 867.289062 C 665.335938 866.640625 659.988281 865.667969 655.292969 864.375 C 655.292969 864.535156 655.128906 864.695312 655.128906 864.859375 C 653.347656 868.582031 651.402344 873.765625 649.621094 879.105469 C 648 884.449219 646.382812 889.792969 645.570312 894.003906 C 644.601562 898.210938 644.113281 900.964844 644.113281 900.964844 C 644.113281 901.125 643.628906 903.230469 643.140625 906.308594 C 642.492188 909.546875 641.847656 913.59375 641.035156 917.804688 C 640.226562 926.222656 639.09375 934.640625 638.445312 934.640625 C 637.796875 934.640625 637.632812 926.058594 637.632812 917.480469 C 637.957031 913.109375 638.445312 908.898438 638.769531 905.496094 C 639.09375 902.257812 639.253906 899.992188 639.414062 899.992188 C 639.414062 899.992188 640.0625 897.242188 641.035156 892.867188 C 641.847656 888.496094 643.464844 882.992188 645.246094 877.488281 C 647.03125 872.144531 648.972656 866.964844 650.753906 863.078125 C 648.8125 862.429688 647.03125 861.78125 645.246094 861.136719 C 643.304688 863.886719 640.875 867.449219 638.769531 871.335938 C 636.335938 875.382812 634.070312 879.429688 632.449219 882.507812 C 630.992188 885.746094 629.859375 887.851562 629.859375 887.851562 C 629.859375 887.851562 629.046875 889.46875 627.75 891.898438 C 626.617188 894.164062 625.320312 897.5625 623.703125 900.640625 C 620.949219 907.117188 618.84375 913.917969 618.195312 913.753906 C 617.707031 913.59375 618.519531 906.308594 620.625 899.34375 C 621.757812 895.945312 622.730469 892.382812 623.863281 889.792969 C 624.996094 887.203125 625.644531 885.582031 625.644531 885.582031 C 625.644531 885.582031 626.617188 883.316406 628.238281 880.078125 C 630.019531 877.003906 632.289062 872.628906 634.71875 868.582031 C 636.660156 865.183594 638.929688 861.945312 640.710938 859.355469 C 631.800781 855.144531 627.265625 851.097656 627.265625 851.097656 C 564.570312 882.832031 570.890625 924.117188 591.789062 947.917969 C 611.226562 970.261719 649.136719 962.8125 649.136719 962.8125 C 658.371094 1011.710938 720.414062 1002.15625 720.414062 1002.15625 C 720.414062 1002.15625 783.109375 999.566406 781.8125 949.859375 C 781.8125 949.859375 820.371094 949.859375 834.789062 924.277344 C 848.882812 895.945312 846.453125 854.335938 778.410156 835.390625 Z M 244.136719 786.820312 C 266.816406 769.171875 273.945312 746.019531 263.902344 735.65625 C 234.742188 705.378906 253.371094 674.941406 271.027344 668.300781 C 282.042969 664.253906 281.394531 639.804688 281.394531 639.804688 C 285.445312 652.113281 287.066406 662.636719 283.664062 670.730469 C 276.859375 687.246094 274.269531 693.722656 295.976562 707.160156 C 341.660156 735.496094 333.882812 768.363281 322.21875 797.179688 C 289.171875 878.621094 347.492188 898.535156 347.492188 898.535156 C 347.492188 898.535156 291.441406 866.964844 345.546875 782.285156 C 345.546875 782.285156 346.195312 814.828125 369.847656 820.335938 C 481.789062 846.5625 482.4375 907.601562 476.28125 929.460938 C 468.183594 958.117188 467.535156 965.726562 477.578125 973.984375 C 477.578125 973.984375 470.613281 953.910156 488.269531 933.347656 C 505.929688 912.785156 490.214844 896.59375 490.214844 896.59375 C 490.214844 896.59375 568.296875 944.679688 543.675781 1007.339844 C 519.050781 1069.835938 563.761719 1069.1875 563.761719 1069.1875 C 563.761719 1069.1875 565.867188 1080.035156 571.699219 1096.875 C 570.242188 1096.550781 568.785156 1096.386719 567.164062 1096.0625 C 554.527344 1093.796875 542.214844 1089.265625 531.199219 1082.625 C 520.183594 1075.988281 510.140625 1067.730469 501.554688 1058.175781 C 493.128906 1048.464844 485.679688 1037.777344 478.226562 1027.089844 C 463.160156 1005.71875 449.390625 983.539062 432.542969 963.136719 C 424.117188 952.9375 414.398438 943.546875 403.21875 936.261719 C 391.554688 929.460938 378.921875 924.925781 366.121094 922.011719 C 378.433594 926.546875 390.261719 932.375 400.628906 940.144531 C 411.320312 947.269531 420.714844 956.335938 428.976562 966.214844 C 445.503906 986.128906 459.273438 1008.472656 474.339844 1029.84375 C 481.789062 1040.53125 489.242188 1051.378906 497.988281 1061.414062 C 506.898438 1071.292969 517.269531 1079.875 528.769531 1086.835938 C 540.273438 1093.636719 553.070312 1098.492188 566.355469 1100.757812 C 568.621094 1101.082031 570.890625 1100.921875 572.996094 1100.921875 C 575.101562 1106.75 577.371094 1112.902344 580.285156 1119.863281 C 579.152344 1119.539062 577.855469 1119.378906 576.558594 1119.21875 C 561.332031 1116.464844 546.589844 1111.285156 532.65625 1104.484375 C 518.5625 1097.683594 506.089844 1088.292969 494.265625 1078.417969 C 482.761719 1067.890625 472.394531 1056.398438 462.835938 1044.089844 C 443.070312 1019.804688 425.898438 993.574219 403.867188 970.421875 C 392.691406 959.089844 379.246094 949.535156 364.339844 943.546875 C 349.113281 938.203125 333.398438 935.613281 317.847656 933.832031 C 333.238281 937.070312 348.464844 941.28125 362.558594 947.757812 C 376.976562 953.421875 389.773438 962.488281 400.464844 973.5 C 422.011719 995.84375 439.347656 1022.234375 459.109375 1046.683594 C 468.667969 1059.148438 479.359375 1070.96875 491.1875 1081.652344 C 503.335938 1091.855469 516.132812 1101.40625 530.550781 1108.367188 C 544.808594 1115.492188 560.035156 1120.675781 575.75 1123.589844 C 577.855469 1123.914062 580.125 1124.074219 582.230469 1124.234375 C 585.308594 1131.359375 588.871094 1138.808594 592.921875 1146.742188 C 588.222656 1145.285156 583.527344 1144.152344 578.828125 1142.695312 C 558.253906 1136.542969 538.328125 1128.609375 519.535156 1118.246094 C 500.90625 1107.882812 482.925781 1095.902344 467.535156 1081.167969 C 451.980469 1066.433594 439.996094 1049.273438 427.683594 1031.140625 C 414.882812 1013.652344 399.65625 997.625 381.835938 984.996094 C 363.855469 972.367188 342.957031 964.109375 321.734375 959.414062 C 311.203125 956.984375 300.511719 955.042969 290.46875 951.804688 C 280.75 948.242188 271.351562 943.0625 265.035156 934.964844 C 251.425781 919.097656 252.558594 894.8125 260.011719 875.382812 C 251.265625 894.164062 247.539062 918.773438 261.46875 937.878906 C 268.597656 946.945312 278.804688 952.453125 289.171875 956.335938 C 299.863281 959.898438 310.394531 961.679688 320.925781 964.109375 C 341.824219 968.640625 361.910156 976.738281 379.40625 988.882812 C 396.742188 1001.1875 411.480469 1016.890625 424.117188 1034.054688 C 435.945312 1051.539062 448.742188 1069.671875 464.617188 1084.730469 C 480.332031 1099.949219 498.636719 1112.09375 517.59375 1122.617188 C 536.707031 1132.980469 556.957031 1141.238281 577.855469 1147.390625 C 583.6875 1148.847656 589.683594 1149.980469 595.515625 1151.113281 C 599.886719 1159.207031 604.585938 1167.464844 610.09375 1175.886719 C 597.621094 1173.132812 585.308594 1169.734375 573.15625 1165.683594 C 543.675781 1155.808594 515.648438 1141.722656 490.375 1123.75 C 465.105469 1105.617188 441.613281 1085.054688 419.90625 1062.710938 C 408.890625 1051.703125 398.359375 1040.042969 385.886719 1030.167969 C 373.089844 1020.777344 358.671875 1013.816406 343.605469 1009.121094 C 372.925781 1021.261719 394.632812 1043.769531 416.34375 1066.109375 C 438.050781 1088.617188 461.863281 1109.339844 487.460938 1127.636719 C 513.21875 1145.769531 541.730469 1160.179688 571.539062 1170.21875 C 585.46875 1174.914062 599.5625 1178.800781 613.820312 1181.875 C 617.546875 1187.378906 621.757812 1193.046875 625.96875 1198.550781 C 611.226562 1195.960938 596.648438 1192.886719 582.390625 1188.835938 C 551.9375 1180.742188 523.101562 1168.113281 496.046875 1152.085938 C 468.832031 1136.21875 444.367188 1116.464844 417.960938 1098.816406 C 404.679688 1090.074219 390.746094 1082.300781 375.84375 1076.472656 C 360.613281 1071.292969 344.898438 1068.214844 329.1875 1066.597656 C 344.738281 1069.835938 359.804688 1074.367188 374.058594 1080.683594 C 388.640625 1086.347656 402.25 1093.960938 415.371094 1102.703125 C 441.453125 1120.1875 466.238281 1140.101562 493.617188 1156.132812 C 520.992188 1172.324219 550.316406 1185.277344 581.097656 1193.371094 C 596.324219 1197.582031 611.875 1200.980469 627.589844 1203.734375 C 628.398438 1203.894531 629.210938 1203.894531 630.183594 1204.058594 C 633.746094 1208.265625 637.472656 1212.636719 641.199219 1216.6875 C 635.203125 1215.875 629.371094 1215.226562 623.378906 1214.417969 C 602.964844 1211.34375 582.554688 1207.617188 562.464844 1202.761719 C 542.378906 1197.742188 520.992188 1194.179688 499.933594 1198.066406 C 489.566406 1200.007812 479.523438 1203.734375 470.289062 1208.914062 C 461.539062 1214.742188 453.601562 1221.542969 446.3125 1228.828125 C 454.734375 1222.839844 463.320312 1217.332031 472.554688 1213.125 C 481.304688 1208.265625 490.863281 1204.703125 500.742188 1202.761719 C 520.671875 1199.039062 541.242188 1202.4375 561.332031 1207.457031 C 581.582031 1212.3125 601.992188 1216.039062 622.566406 1219.113281 C 630.34375 1220.246094 638.121094 1221.21875 646.058594 1222.191406 C 654.804688 1231.257812 664.203125 1240 674.730469 1248.257812 C 674.730469 1248.257812 618.679688 1218.628906 569.59375 1240.648438 C 520.507812 1262.667969 493.128906 1283.390625 406.296875 1236.277344 C 406.296875 1236.277344 416.828125 1234.007812 423.46875 1223.808594 C 430.113281 1213.609375 452.304688 1167.140625 498.960938 1178.960938 C 498.960938 1178.960938 474.984375 1151.273438 428.332031 1194.988281 C 381.835938 1238.867188 203.152344 1175.238281 215.949219 1002.15625 C 215.949219 1002.15625 250.777344 1030.328125 279.128906 1022.394531 C 293.707031 1018.347656 337.449219 1018.511719 357.859375 1046.035156 C 357.859375 1046.035156 341.660156 1013.003906 296.949219 1010.738281 C 252.238281 1008.472656 197.640625 1007.5 185.980469 916.667969 C 177.554688 848.992188 225.507812 801.390625 244.136719 786.820312 Z M 509.007812 930.917969 C 509.492188 936.585938 507.546875 941.925781 505.28125 947.757812 C 501.230469 959.25 497.019531 971.558594 499.285156 984.671875 C 500.421875 991.148438 504.46875 997.625 510.625 1000.863281 C 515.972656 1003.777344 519.859375 1007.5 520.183594 1012.84375 C 520.347656 1018.1875 518.238281 1024.015625 516.945312 1030.328125 C 516.132812 1036.644531 517.914062 1043.929688 522.289062 1048.300781 C 519.050781 1042.796875 519.535156 1036.804688 521.480469 1031.300781 C 522.453125 1025.632812 524.882812 1019.644531 524.71875 1012.84375 C 524.558594 1005.394531 518.402344 999.566406 512.894531 996.976562 C 508.035156 994.222656 504.957031 989.527344 503.820312 983.863281 C 501.878906 972.527344 505.765625 960.707031 509.652344 949.375 C 511.761719 943.871094 514.191406 937.394531 513.542969 930.753906 C 512.40625 924.117188 508.359375 917.804688 502.527344 915.375 C 507.386719 919.421875 509.492188 925.414062 509.007812 930.917969 Z M 372.601562 870.851562 C 382.484375 869.070312 390.097656 864.050781 398.523438 862.105469 C 415.207031 857.734375 433.027344 867.449219 444.855469 879.59375 C 451.011719 885.90625 455.382812 893.355469 457.652344 901.773438 C 460.730469 910.03125 462.027344 918.9375 462.1875 927.839844 C 464.132812 918.9375 463.96875 909.707031 462.351562 900.480469 C 459.921875 891.410156 455.058594 882.832031 448.417969 876.355469 C 435.621094 863.402344 416.828125 852.554688 397.386719 857.574219 C 388.316406 859.839844 380.054688 864.859375 372.117188 866.15625 C 364.015625 866.800781 355.269531 863.402344 350.730469 856.441406 C 346.035156 849.640625 344.253906 840.734375 343.605469 831.992188 C 342.144531 823.25 341.824219 814.34375 341.984375 805.277344 C 340.363281 814.183594 339.070312 823.085938 338.90625 832.316406 C 339.554688 841.382812 341.335938 850.933594 347.007812 859.03125 C 352.351562 867.449219 362.71875 871.660156 372.601562 870.851562 Z M 273.621094 1072.261719 C 260.824219 1069.1875 250.453125 1061.578125 242.839844 1050.890625 C 234.578125 1041.015625 228.097656 1029.359375 223.238281 1017.054688 C 226.640625 1029.84375 231.664062 1042.3125 238.953125 1053.644531 C 246.730469 1064.652344 258.878906 1073.558594 272.164062 1076.636719 C 285.121094 1080.359375 298.40625 1081.976562 310.230469 1086.996094 C 322.382812 1091.691406 330.480469 1102.214844 332.914062 1114.683594 C 335.179688 1126.503906 329.1875 1139.617188 330.480469 1153.542969 C 330.96875 1160.503906 333.882812 1167.628906 338.746094 1172.808594 C 343.605469 1178.152344 349.597656 1181.550781 355.59375 1184.789062 C 367.742188 1191.105469 382.160156 1193.53125 395.605469 1191.265625 C 409.050781 1188.515625 421.039062 1182.039062 432.054688 1174.75 C 420.230469 1180.582031 407.757812 1185.597656 394.957031 1186.570312 C 382.324219 1188.675781 369.199219 1186.410156 357.699219 1180.582031 C 346.035156 1174.914062 335.667969 1166.007812 335.179688 1153.21875 C 333.722656 1140.75 340.039062 1128.285156 337.449219 1113.875 C 335.992188 1107.234375 333.238281 1100.597656 328.863281 1095.09375 C 324.488281 1089.425781 318.332031 1085.539062 312.015625 1082.789062 C 299.539062 1077.445312 286.09375 1075.988281 273.621094 1072.261719 Z M 202.503906 893.191406 C 200.398438 902.582031 199.425781 912.460938 200.398438 922.175781 C 201.855469 932.050781 203.636719 941.117188 207.363281 950.507812 C 214.492188 969.453125 232.148438 982.082031 249.96875 989.367188 C 268.4375 996.003906 287.714844 998.757812 306.832031 1000.539062 C 287.875 997.300781 269.085938 992.929688 251.75 984.996094 C 234.417969 978.03125 218.378906 966.214844 211.738281 948.726562 C 208.335938 940.308594 206.390625 930.59375 205.09375 921.6875 C 204.121094 912.621094 205.09375 903.230469 207.199219 894.164062 C 209.304688 885.097656 212.382812 876.191406 216.757812 868.097656 C 220.96875 860 226.964844 852.390625 234.742188 848.667969 C 238.953125 846.726562 242.03125 847.210938 247.863281 847.371094 C 253.046875 847.859375 258.230469 846.402344 262.765625 844.457031 C 272.164062 840.410156 279.289062 833.125 284.960938 825.191406 C 296.460938 809.488281 302.457031 790.058594 302.941406 770.628906 C 302.78125 760.753906 300.835938 751.039062 296.625 741.96875 C 291.925781 733.066406 283.828125 725.941406 277.183594 720.113281 C 270.378906 713.960938 265.035156 705.863281 264.546875 696.636719 C 264.386719 687.40625 269.410156 678.503906 276.375 672.351562 C 268.761719 678.015625 262.765625 686.597656 262.117188 696.636719 C 261.792969 706.675781 266.816406 716.390625 273.78125 723.511719 C 281.394531 730.3125 288.039062 735.980469 292.414062 744.238281 C 296.300781 752.496094 298.246094 761.5625 298.246094 770.789062 C 297.921875 789.085938 292.089844 807.867188 281.234375 822.601562 C 275.886719 830.046875 269.085938 836.847656 260.824219 840.410156 C 256.773438 842.191406 252.398438 843.488281 248.023438 843 L 240.574219 842.839844 C 237.980469 842.839844 235.226562 843.648438 232.796875 844.621094 C 223.238281 849.316406 217.082031 857.734375 212.546875 866.152344 C 207.847656 874.574219 204.609375 883.800781 202.503906 893.191406 Z M 573.804688 939.175781 C 573.804688 939.175781 545.132812 1031.460938 600.699219 1137.1875 C 694.65625 1316.257812 821.015625 1322.574219 821.015625 1322.574219 C 815.671875 1316.90625 811.296875 1309.945312 807.410156 1302.984375 C 802.710938 1302.011719 798.011719 1300.878906 793.476562 1299.582031 C 774.847656 1293.59375 757.027344 1285.011719 740.503906 1274.8125 C 707.292969 1254.25 678.621094 1227.046875 654.804688 1196.285156 C 630.992188 1165.847656 611.390625 1131.199219 601.023438 1093.960938 C 595.515625 1075.339844 591.789062 1056.398438 589.84375 1037.128906 C 588.710938 1017.863281 589.035156 998.59375 591.789062 979.652344 C 590.492188 998.757812 591.789062 1017.863281 594.542969 1036.804688 C 596.484375 1055.75 600.210938 1074.53125 605.558594 1092.824219 C 615.925781 1129.578125 635.042969 1163.257812 658.695312 1193.53125 C 682.183594 1223.808594 710.371094 1250.6875 743.09375 1270.925781 C 759.457031 1280.964844 776.792969 1289.542969 795.097656 1295.210938 C 798.335938 1296.34375 801.738281 1297.476562 805.140625 1298.449219 C 797.691406 1283.878906 793.640625 1270.601562 793.640625 1270.601562 C 736.777344 1251.335938 707.617188 1211.503906 693.039062 1191.429688 C 643.464844 1122.941406 696.601562 1038.261719 729.972656 1057.691406 C 743.417969 1065.625 742.285156 1084.082031 729.8125 1081.167969 C 717.335938 1078.417969 711.667969 1096.550781 730.945312 1105.617188 C 764.15625 1121.160156 799.472656 1057.691406 745.847656 1027.253906 C 674.570312 986.777344 635.367188 1109.664062 635.367188 1109.664062 C 601.023438 1051.214844 625.484375 969.289062 625.484375 969.289062 C 582.066406 973.5 573.804688 939.175781 573.804688 939.175781 Z M 712.476562 1296.183594 C 700.652344 1297.800781 682.023438 1302.660156 667.441406 1316.582031 C 669.871094 1316.90625 672.300781 1317.554688 674.40625 1318.203125 C 684.289062 1321.441406 693.039062 1326.945312 702.109375 1328.886719 C 711.503906 1331.800781 717.984375 1321.601562 717.5 1312.859375 C 717.335938 1308.324219 715.878906 1303.628906 713.773438 1299.421875 C 713.613281 1298.289062 712.800781 1297.152344 712.476562 1296.183594 Z M 663.554688 1320.46875 C 653.832031 1331.480469 646.542969 1347.347656 645.734375 1370.5 C 645.734375 1370.5 656.910156 1331.316406 678.132812 1341.679688 C 688.988281 1347.023438 709.5625 1381.671875 729.972656 1359.8125 C 740.179688 1348.804688 725.761719 1334.554688 743.582031 1326.621094 C 758.484375 1319.984375 787.160156 1325.972656 787.160156 1325.972656 C 787.160156 1325.972656 751.195312 1317.070312 724.140625 1295.375 C 724.140625 1295.375 721.0625 1295.375 716.042969 1295.695312 C 716.527344 1296.34375 717.175781 1296.832031 717.660156 1297.476562 C 719.929688 1302.171875 721.550781 1307.191406 721.710938 1312.535156 C 722.035156 1317.878906 720.253906 1323.546875 716.851562 1327.59375 C 713.613281 1332.449219 706.644531 1334.070312 701.460938 1332.613281 C 690.933594 1330.34375 682.507812 1324.679688 673.113281 1321.765625 C 670.035156 1320.953125 666.792969 1320.46875 663.554688 1320.46875 Z M 692.550781 1167.953125 C 694.496094 1174.914062 697.410156 1181.390625 700.976562 1187.542969 C 702.109375 1182.359375 703.890625 1177.34375 706.160156 1172.808594 C 709.238281 1166.332031 713.449219 1160.339844 715.394531 1154.027344 C 716.367188 1150.789062 716.691406 1147.390625 716.367188 1144.152344 C 716.691406 1140.75 716.527344 1137.1875 715.554688 1133.789062 C 717.660156 1136.703125 719.28125 1140.265625 720.089844 1143.988281 C 720.414062 1147.710938 719.929688 1151.597656 718.957031 1155.160156 C 716.691406 1162.445312 712.476562 1168.273438 709.5625 1174.589844 C 706.644531 1180.257812 704.378906 1186.246094 703.730469 1192.398438 C 706.808594 1197.417969 710.371094 1202.113281 714.097656 1206.484375 C 714.097656 1201.628906 714.582031 1196.769531 716.042969 1192.238281 C 717.984375 1185.277344 721.710938 1178.636719 724.140625 1172.324219 C 725.277344 1169.085938 726.085938 1165.683594 726.570312 1162.285156 C 727.542969 1159.046875 728.191406 1155.484375 728.03125 1151.921875 C 729.488281 1155.324219 730.136719 1159.046875 730.296875 1162.769531 C 729.8125 1166.496094 729 1170.054688 727.707031 1173.617188 C 724.953125 1180.582031 721.550781 1186.570312 719.769531 1193.371094 C 717.984375 1199.199219 717.335938 1205.351562 718.308594 1211.179688 C 725.921875 1219.4375 734.1875 1226.722656 741.800781 1232.554688 C 742.933594 1227.535156 744.390625 1222.839844 746.820312 1218.304688 C 750.710938 1211.828125 754.273438 1206 755.730469 1198.875 C 756.542969 1195.476562 756.867188 1191.914062 756.542969 1188.515625 C 756.867188 1184.953125 757.027344 1181.390625 756.21875 1177.664062 C 758.160156 1180.902344 759.457031 1184.464844 760.269531 1188.351562 C 760.429688 1192.238281 760.105469 1195.960938 759.296875 1199.683594 C 758 1207.132812 753.625 1214.09375 750.0625 1220.085938 C 747.632812 1224.78125 746.011719 1229.800781 745.039062 1234.980469 C 758.324219 1244.859375 768.855469 1250.199219 768.855469 1250.199219 C 768.855469 1250.199219 755.40625 1240.164062 770.960938 1207.617188 C 785.214844 1177.828125 748.765625 1151.273438 748.765625 1151.273438 C 754.4375 1160.503906 753.789062 1172.160156 744.878906 1180.09375 C 735.96875 1188.027344 735.320312 1199.039062 735.320312 1199.039062 C 731.59375 1187.542969 740.339844 1180.257812 742.449219 1175.722656 C 758.648438 1141.074219 708.425781 1112.578125 708.425781 1112.578125 C 708.425781 1112.578125 716.203125 1124.882812 701.300781 1138 C 686.71875 1151.273438 692.550781 1167.953125 692.550781 1167.953125 Z M 376.003906 429.488281 C 383.132812 423.011719 396.578125 427.058594 396.578125 427.058594 C 387.507812 421.714844 380.378906 423.171875 374.382812 425.117188 C 367.582031 427.382812 358.183594 427.222656 352.027344 414.914062 C 338.90625 388.523438 377.136719 346.265625 377.136719 346.265625 C 357.859375 389.820312 421.039062 371.039062 456.519531 422.527344 C 494.425781 477.574219 429.300781 531.167969 429.300781 531.167969 C 481.304688 460.734375 435.132812 440.011719 422.5 452.15625 C 411.320312 462.839844 422.820312 465.59375 422.820312 465.59375 C 412.941406 478.222656 396.417969 478.382812 385.238281 475.46875 C 337.933594 463.003906 346.519531 407.628906 346.519531 407.628906 C 349.273438 429.003906 368.875 436.125 376.003906 429.488281 Z M 419.582031 406.496094 C 435.457031 414.914062 449.550781 428.355469 455.871094 445.191406 C 462.351562 462.515625 459.757812 481.945312 452.792969 499.109375 C 457.167969 490.851562 460.40625 481.945312 462.027344 472.394531 C 463.320312 463.003906 462.027344 453.125 458.625 444.058594 C 451.65625 425.925781 436.753906 412 419.582031 403.097656 L 417.960938 402.289062 L 417.636719 404.230469 C 416.019531 412.8125 405.648438 415.726562 397.226562 413.136719 C 388.640625 410.867188 379.890625 407.144531 374.382812 400.34375 C 368.550781 393.707031 367.257812 384.316406 368.226562 375.570312 C 369.199219 366.828125 371.304688 357.761719 375.195312 349.667969 C 370.496094 357.4375 366.769531 366.019531 365.3125 375.25 C 364.339844 384.476562 365.636719 394.675781 372.117188 402.125 C 378.433594 409.574219 387.507812 413.621094 396.578125 415.886719 C 401.113281 417.019531 406.296875 417.507812 410.996094 415.726562 C 415.046875 414.269531 418.125 410.707031 419.582031 406.496094 Z M 962.121094 378.164062 C 962.121094 378.164062 967.464844 432.886719 921.457031 441.792969 C 910.601562 443.898438 894.726562 442.601562 885.816406 429.648438 C 885.816406 429.648438 897.15625 427.867188 886.789062 416.535156 C 875.125 403.746094 829.765625 420.90625 876.257812 493.28125 C 876.257812 493.28125 816.15625 436.289062 855.523438 385.125 C 892.296875 337.199219 952.074219 360.027344 935.714844 315.988281 C 935.714844 315.988281 970.382812 359.867188 956.449219 384.964844 C 949.96875 396.457031 940.898438 395.972656 934.417969 393.382812 C 928.746094 391.117188 921.941406 389.011719 913.035156 393.707031 C 913.035156 393.707031 926.15625 390.628906 932.636719 397.589844 C 939.113281 404.390625 958.230469 398.886719 962.121094 378.164062 Z M 899.75 381.5625 C 904.285156 383.667969 909.144531 383.503906 913.519531 382.695312 C 922.265625 381.078125 931.339844 377.839844 937.820312 370.875 C 944.460938 364.078125 946.082031 354.039062 945.757812 344.972656 C 944.945312 335.742188 941.707031 327.160156 937.496094 319.226562 C 940.898438 327.484375 942.515625 336.390625 942.839844 345.132812 C 943.328125 353.714844 941.546875 362.78125 935.714844 368.933594 C 930.042969 375.085938 921.457031 378.324219 913.035156 379.945312 C 904.769531 382.046875 894.890625 378.488281 893.753906 369.90625 L 893.429688 367.960938 L 891.8125 368.609375 C 874.964844 376.058594 859.898438 388.6875 852.285156 406.011719 C 848.558594 414.59375 846.777344 424.144531 847.585938 433.375 C 848.558594 442.765625 851.3125 451.667969 855.039062 460.089844 C 849.042969 442.765625 847.746094 423.660156 854.714844 407.144531 C 861.839844 391.117188 875.933594 378.972656 891.648438 371.847656 C 893.105469 376.21875 895.699219 379.945312 899.75 381.5625 Z M 971.351562 692.589844 C 1012.175781 671.703125 1009.585938 560.148438 892.460938 499.433594 C 892.460938 499.433594 898.777344 514.164062 894.242188 528.738281 C 890.191406 541.851562 857.144531 546.386719 862.003906 598.84375 C 862.003906 598.84375 862.003906 599.003906 862.003906 599.003906 C 862.652344 599.492188 863.460938 599.816406 864.109375 600.300781 C 872.210938 605.96875 877.230469 613.089844 880.148438 620.539062 C 880.308594 620.054688 880.472656 619.730469 880.632812 619.246094 C 883.226562 612.769531 884.199219 605.804688 885.65625 599.003906 C 887.597656 592.207031 888.246094 585.242188 889.707031 578.121094 C 889.867188 585.242188 890.839844 592.367188 890.351562 599.652344 C 888.894531 606.777344 887.921875 613.902344 885.167969 620.703125 C 884.359375 623.292969 883.386719 625.71875 882.414062 628.148438 C 884.035156 636.40625 883.550781 644.824219 881.929688 652.597656 C 884.035156 652.757812 886.464844 653.082031 888.734375 653.40625 C 892.945312 645.960938 896.507812 638.1875 898.9375 630.09375 C 902.179688 622.644531 903.152344 614.550781 905.257812 606.777344 C 907.523438 599.003906 908.984375 590.910156 910.925781 582.816406 C 910.601562 591.074219 910.765625 599.328125 909.957031 607.585938 C 907.847656 615.519531 906.714844 623.941406 903.476562 631.550781 C 901.046875 639.484375 897.804688 646.929688 893.753906 654.054688 C 900.074219 655.1875 906.714844 657.292969 913.195312 660.367188 C 919.835938 648.226562 925.019531 635.273438 928.097656 621.835938 L 930.691406 606.453125 L 930.851562 590.75 C 931.664062 585.566406 931.339844 580.222656 930.691406 575.042969 L 929.394531 559.175781 L 933.121094 574.71875 C 934.578125 579.902344 935.550781 585.242188 935.714844 590.585938 C 935.714844 595.929688 935.714844 601.433594 935.550781 606.777344 L 932.796875 622.644531 C 929.558594 636.570312 924.210938 650.007812 917.40625 662.636719 C 919.027344 663.605469 920.648438 664.417969 922.265625 665.386719 C 926.964844 668.789062 930.851562 672.996094 934.417969 677.53125 C 936.359375 674.292969 938.144531 670.894531 939.925781 667.492188 C 944.460938 659.074219 947.863281 650.167969 950.941406 641.101562 C 955.152344 632.359375 957.097656 622.96875 960.335938 613.738281 C 958.71875 623.128906 958.070312 633.167969 955.476562 642.558594 C 952.398438 651.789062 948.996094 661.015625 944.300781 669.597656 C 942.191406 673.808594 939.925781 677.855469 937.496094 681.902344 C 942.679688 690 946.242188 699.550781 947.863281 710.722656 C 951.914062 705.703125 959.203125 698.902344 971.351562 692.589844 Z M 914.003906 810.457031 C 949.808594 797.019531 993.222656 764.960938 991.925781 687.730469 C 991.925781 687.730469 985.609375 698.902344 979.453125 699.226562 C 974.105469 699.390625 963.253906 702.140625 948.347656 715.417969 C 949.644531 727.882812 948.511719 738.734375 945.757812 748.445312 C 953.855469 740.191406 961.796875 731.609375 969.894531 723.027344 C 965.683594 729.828125 961.632812 736.789062 957.257812 743.589844 C 952.238281 748.769531 947.539062 754.277344 942.191406 759.132812 C 934.742188 776.296875 922.265625 788.4375 910.765625 795.722656 C 912.0625 800.097656 913.355469 805.277344 914.003906 810.457031 Z M 418.449219 750.550781 C 395.445312 736.953125 381.351562 737.113281 375.355469 738.410156 C 369.363281 739.703125 360.128906 730.636719 360.128906 730.636719 C 380.378906 805.601562 431.246094 825.191406 469.476562 828.753906 C 458.136719 821.304688 447.285156 809.648438 440.640625 792.484375 C 437.078125 791.027344 433.675781 789.410156 430.273438 787.628906 C 422.660156 784.390625 416.179688 779.371094 409.050781 775.324219 C 402.894531 769.980469 397.0625 764.3125 391.070312 758.808594 C 405.003906 767.226562 418.285156 775.972656 432.378906 783.417969 C 434.324219 784.550781 436.429688 785.363281 438.535156 786.332031 C 436.429688 779.695312 434.808594 772.734375 434.164062 764.636719 C 433.027344 752.65625 434.484375 741.972656 437.726562 732.417969 C 424.28125 723.511719 411.96875 713.152344 401.277344 701.167969 C 394.308594 694.046875 388.476562 686.113281 382.96875 678.015625 C 377.785156 669.597656 374.546875 660.207031 370.171875 651.625 C 375.84375 659.558594 380.539062 668.140625 386.859375 675.425781 C 392.367188 683.359375 398.035156 691.132812 404.839844 697.933594 C 415.046875 709.265625 426.871094 719.304688 439.671875 727.882812 C 442.261719 721.894531 445.664062 716.226562 450.199219 711.371094 C 450.847656 710.722656 451.496094 710.238281 452.144531 709.589844 C 448.417969 707.160156 444.691406 704.730469 441.128906 701.980469 C 423.957031 688.703125 409.375 672.027344 399.007812 652.921875 L 392.042969 638.1875 C 390.421875 633.007812 388.964844 627.824219 387.34375 622.644531 C 385.886719 617.464844 385.398438 612.121094 385.398438 606.617188 L 384.589844 590.585938 L 387.667969 606.292969 C 388.476562 611.472656 389.773438 616.652344 391.878906 621.511719 L 396.417969 636.570312 L 403.21875 650.65625 C 413.265625 668.949219 427.359375 685.140625 444.042969 698.09375 C 447.769531 701.007812 451.820312 703.597656 455.707031 706.1875 C 461.054688 701.65625 466.886719 698.253906 472.878906 695.664062 C 469.964844 693.722656 467.046875 691.941406 464.457031 689.835938 C 451.171875 679.472656 438.859375 667.65625 429.625 653.570312 C 424.28125 646.929688 421.039062 639.320312 416.667969 632.035156 C 413.589844 624.261719 411.480469 616.167969 408.890625 608.394531 C 412.941406 615.683594 416.667969 622.96875 421.039062 629.929688 C 425.253906 636.890625 428.492188 644.5 433.675781 650.816406 C 442.585938 664.578125 454.574219 675.910156 467.371094 685.949219 C 470.9375 688.703125 474.5 691.132812 478.226562 693.398438 C 480.980469 692.425781 483.570312 691.617188 486.164062 690.808594 C 483.570312 684.816406 481.464844 678.179688 480.816406 671.539062 C 479.035156 670.570312 477.09375 669.757812 475.472656 668.789062 C 463.160156 660.855469 452.304688 650.65625 444.207031 638.347656 C 439.671875 632.519531 436.753906 625.882812 433.351562 619.40625 C 430.921875 612.605469 429.789062 605.320312 428.007812 598.519531 C 431.246094 604.996094 434 611.472656 437.726562 617.464844 C 440.964844 623.617188 443.71875 630.09375 448.09375 635.597656 C 455.707031 647.253906 466.238281 657.128906 477.902344 664.742188 C 478.710938 665.226562 479.683594 665.550781 480.492188 666.035156 C 480.492188 659.398438 481.953125 652.597656 485.515625 645.960938 C 474.660156 639.804688 463.808594 629.121094 460.40625 611.148438 C 450.523438 559.5 417.476562 563.710938 409.863281 552.050781 C 401.4375 539.261719 403.542969 523.394531 403.542969 523.394531 C 307.640625 612.445312 336.152344 720.4375 381.351562 729.988281 C 410.023438 736.140625 418.449219 750.550781 418.449219 750.550781 Z M 491.1875 637.863281 C 491.671875 637.378906 491.996094 636.730469 492.480469 636.246094 C 498.152344 630.253906 504.144531 626.042969 510.300781 622.804688 C 508.035156 618.757812 505.605469 614.710938 503.5 610.5 C 498.3125 599.976562 494.425781 588.96875 491.511719 577.632812 L 489.566406 569.050781 C 489.082031 566.136719 488.59375 563.222656 488.269531 560.308594 L 488.269531 555.9375 L 488.757812 551.566406 C 489.082031 548.652344 489.402344 545.738281 489.726562 542.824219 C 491.1875 548.492188 491.671875 554.15625 493.617188 559.660156 C 494.101562 562.414062 494.265625 565.328125 494.910156 568.082031 L 496.855469 576.339844 C 499.773438 587.347656 503.5 598.035156 508.519531 608.234375 C 510.464844 612.445312 512.894531 616.492188 515.160156 620.378906 C 522.289062 617.464844 529.578125 615.84375 537.03125 615.519531 C 531.363281 606.292969 526.179688 596.738281 521.964844 586.699219 C 517.105469 574.394531 512.730469 561.929688 509.816406 548.976562 C 508.035156 542.660156 507.222656 536.023438 505.929688 529.546875 C 505.765625 522.910156 505.765625 516.269531 506.089844 509.792969 C 508.035156 516.109375 509.328125 522.585938 511.113281 528.738281 C 512.40625 535.050781 513.21875 541.527344 515 547.679688 C 517.917969 560.308594 522.128906 572.613281 526.824219 584.597656 C 531.363281 595.28125 536.871094 605.644531 543.1875 615.359375 C 546.429688 615.519531 549.667969 615.683594 552.746094 616.167969 C 548.210938 608.558594 544.808594 600.460938 543.835938 592.042969 C 542.214844 578.605469 546.753906 565.976562 556.796875 555.453125 C 571.375 540.394531 587.089844 535.699219 600.210938 535.699219 C 600.375 528.089844 602.15625 519.671875 607.179688 511.414062 C 617.058594 495.222656 636.175781 485.667969 663.878906 483.402344 C 666.144531 483.242188 667.929688 483.402344 670.035156 483.242188 C 672.300781 478.707031 674.570312 474.335938 676.351562 469.640625 C 682.347656 453.9375 686.394531 437.421875 687.207031 420.746094 C 688.015625 404.066406 685.585938 387.230469 679.753906 371.363281 C 676.675781 363.589844 673.273438 355.820312 668.738281 348.695312 C 665.335938 340.925781 660.636719 333.800781 655.941406 326.515625 C 662.257812 332.503906 668.089844 338.980469 673.273438 346.105469 C 677.972656 353.554688 681.535156 361.484375 684.613281 369.742188 C 690.609375 386.097656 693.199219 403.746094 692.390625 421.070312 C 691.742188 438.394531 687.53125 455.554688 681.210938 471.582031 C 679.753906 475.46875 677.808594 479.355469 676.027344 483.078125 C 687.691406 482.917969 697.898438 484.535156 706.484375 487.9375 L 707.941406 484.535156 L 710.859375 475.632812 C 711.828125 472.71875 712.640625 469.640625 713.289062 466.566406 C 713.9375 463.488281 714.746094 460.414062 715.230469 457.335938 C 717.5 445.03125 717.984375 432.402344 717.011719 419.773438 C 716.527344 413.457031 715.554688 407.304688 714.257812 401.152344 C 713.613281 394.839844 712.640625 388.523438 711.179688 382.210938 C 714.746094 387.714844 717.175781 393.867188 719.445312 400.019531 C 720.738281 406.335938 721.875 412.8125 722.199219 419.289062 C 723.167969 432.238281 722.683594 445.355469 720.414062 458.144531 C 719.929688 461.382812 719.121094 464.460938 718.472656 467.699219 C 717.824219 470.9375 717.011719 474.011719 715.878906 477.089844 L 712.964844 486.316406 L 711.503906 489.878906 C 716.851562 492.632812 721.710938 495.707031 725.601562 500.078125 C 730.136719 504.9375 733.050781 510.28125 735.15625 515.460938 C 738.398438 507.527344 741.152344 499.433594 743.257812 491.175781 C 746.335938 478.871094 747.957031 466.242188 748.117188 453.449219 C 748.28125 447.136719 748.117188 440.660156 747.46875 434.34375 C 747.792969 427.867188 747.632812 421.554688 747.144531 415.078125 C 749.738281 421.070312 751.195312 427.542969 752.816406 434.019531 C 753.300781 440.496094 753.625 447.136719 753.464844 453.613281 C 753.140625 466.726562 751.519531 479.679688 748.441406 492.46875 C 745.847656 502.992188 742.285156 513.355469 737.75 523.394531 C 737.75 523.554688 737.910156 523.71875 737.910156 523.878906 C 752.328125 521.128906 770.148438 523.234375 786.1875 537.964844 C 792.503906 543.796875 796.878906 550.757812 799.632812 558.367188 C 803.519531 548.652344 806.761719 538.777344 809.03125 528.574219 C 810.324219 522.746094 811.460938 516.757812 812.105469 510.765625 C 813.726562 504.9375 814.863281 498.945312 816.15625 492.957031 C 817.128906 499.109375 817.453125 505.261719 817.453125 511.414062 C 816.644531 517.566406 815.507812 523.554688 814.214844 529.546875 C 811.621094 541.527344 807.734375 553.347656 802.875 564.679688 C 802.550781 565.328125 802.226562 565.976562 801.902344 566.785156 C 802.226562 569.214844 802.710938 571.480469 802.710938 573.910156 C 802.875 580.386719 801.414062 586.699219 799.632812 592.691406 C 800.765625 592.207031 801.902344 591.882812 803.035156 591.558594 C 804.816406 588.480469 806.597656 585.40625 808.21875 582.328125 C 812.753906 573.101562 816.804688 563.546875 820.207031 553.832031 C 821.988281 548.976562 823.609375 544.117188 825.066406 539.101562 L 831.871094 524.851562 C 831.710938 530.195312 831.0625 535.375 830.25 540.71875 C 828.632812 545.738281 827.011719 550.757812 825.230469 555.613281 C 821.664062 565.492188 817.617188 575.207031 812.917969 584.597656 C 812.105469 586.214844 811.136719 587.835938 810.324219 589.453125 C 820.53125 587.023438 831.222656 586.699219 842.078125 589.613281 C 858.277344 555.128906 865.242188 505.746094 823.449219 449.5625 C 823.449219 449.5625 825.554688 467.859375 808.382812 470.125 C 786.027344 473.042969 777.441406 523.070312 777.441406 523.070312 C 777.441406 523.070312 768.042969 505.261719 786.835938 457.335938 C 804.980469 411.191406 767.71875 378 738.398438 366.667969 C 696.761719 350.476562 685.910156 330.074219 695.46875 301.582031 C 706.644531 268.390625 760.914062 272.597656 808.867188 320.363281 C 796.554688 305.628906 784.566406 289.921875 768.53125 280.207031 C 753.300781 269.523438 733.214844 264.828125 714.90625 264.988281 C 696.601562 264.988281 678.945312 272.597656 664.039062 283.445312 C 656.585938 288.953125 649.460938 295.105469 643.304688 302.066406 C 637.148438 308.867188 631.640625 316.476562 628.074219 324.570312 C 624.671875 332.667969 623.214844 341.894531 627.265625 348.535156 C 631.964844 356.144531 638.605469 364.078125 642.492188 373.628906 C 646.382812 383.019531 647.679688 393.542969 646.867188 403.421875 C 646.058594 413.457031 643.628906 422.847656 640.386719 432.238281 C 636.824219 441.46875 631.640625 450.210938 625.160156 457.820312 C 618.679688 465.429688 611.226562 471.582031 605.234375 478.382812 C 598.59375 484.535156 594.703125 492.632812 593.246094 501.859375 L 592.4375 508.824219 L 592.4375 515.945312 C 592.273438 520.640625 593.082031 525.335938 593.40625 530.195312 C 591.140625 520.964844 588.546875 511.574219 589.035156 501.535156 C 589.195312 491.660156 592.761719 481.296875 599.078125 473.363281 C 605.71875 465.753906 613.171875 459.925781 619.003906 452.800781 C 624.996094 445.839844 629.535156 438.070312 632.9375 429.488281 C 638.929688 412.324219 642.332031 393.058594 635.203125 376.542969 C 631.964844 368.125 625.96875 361.164062 620.625 352.582031 C 617.707031 347.5625 616.734375 341.894531 617.222656 336.550781 C 617.546875 331.210938 619.164062 326.191406 621.109375 321.496094 C 625.160156 312.265625 631.152344 304.171875 637.796875 296.886719 C 644.4375 289.597656 651.726562 283.121094 659.664062 277.292969 C 674.730469 265.796875 694.007812 257.21875 714.421875 257.21875 C 734.832031 257.054688 754.4375 264.988281 770.636719 276.324219 C 778.410156 282.476562 785.378906 289.4375 791.695312 296.886719 C 798.011719 304.332031 803.84375 312.105469 808.542969 320.523438 C 808.542969 320.523438 798.011719 258.351562 720.902344 244.265625 C 626.292969 226.941406 508.359375 355.171875 537.355469 457.820312 C 546.105469 488.421875 572.511719 496.519531 556.148438 542.5 C 556.148438 542.5 566.191406 504.773438 526.339844 487.449219 C 503.5 477.574219 511.273438 454.90625 511.273438 454.90625 C 511.273438 454.90625 418.125 556.746094 491.1875 637.863281 Z M 491.1875 637.863281 " fill-opacity="1" fill-rule="nonzero"/></svg>